<svg width="98" height="94" viewBox="0 0 98 94" fill="none" xmlns="http://www.w3.org/2000/svg">
<path d="M47.4992 18.2281C47.4992 26.5952 40.7163 33.3781 32.3492 33.3781C23.9821 33.3781 17.1992 26.5952 17.1992 18.2281C17.1992 9.86101 23.9821 3.07812 32.3492 3.07812C40.7163 3.07812 47.4992 9.86101 47.4992 18.2281Z" fill="#F3F9FA"/>
<path fill-rule="evenodd" clip-rule="evenodd" d="M32.3497 5.34079C25.233 5.34079 19.4638 11.11 19.4638 18.2266C19.4638 25.3433 25.233 31.1125 32.3497 31.1125C39.4664 31.1125 45.2355 25.3433 45.2355 18.2266C45.2355 11.11 39.4664 5.34079 32.3497 5.34079ZM14.9355 18.2266C14.9355 8.60908 22.7321 0.8125 32.3497 0.8125C41.9673 0.8125 49.7638 8.60908 49.7638 18.2266C49.7638 27.8442 41.9673 35.6408 32.3497 35.6408C22.7321 35.6408 14.9355 27.8442 14.9355 18.2266Z" fill="#008193"/>
<path d="M61.8996 67.9281L61.8996 62.4781C61.8996 46.241 48.7368 33.0781 32.4996 33.0781C16.2624 33.0781 3.09961 46.241 3.09961 62.4781L3.09961 67.9281C3.09961 70.6343 5.29341 72.8281 7.99961 72.8281H12.8996H52.0996L56.9996 72.8282C59.7058 72.8282 61.8996 70.6343 61.8996 67.9281Z" fill="#F3F9FA"/>
<path fill-rule="evenodd" clip-rule="evenodd" d="M0.835938 62.7774C0.835938 45.2748 15.1783 31.1133 32.6509 31.1133C46.5235 31.1133 58.3899 40.1201 62.5644 52.6097C62.9608 53.7956 62.3208 55.0784 61.1348 55.4748C59.9489 55.8712 58.6661 55.2311 58.2697 54.0452C54.6973 43.3572 44.528 35.6416 32.6509 35.6416C17.649 35.6416 5.36423 47.8058 5.36423 62.7774V67.9274C5.36423 69.3832 6.54434 70.5633 8.00008 70.5633H31.7501C33.0005 70.5633 34.0142 71.577 34.0142 72.8274C34.0142 74.0779 33.0005 75.0916 31.7501 75.0916H8.00008C4.04343 75.0916 0.835938 71.8841 0.835938 67.9274V62.7774Z" fill="#008193"/>
<path d="M95.4996 70.1258C95.4996 81.9723 85.8961 91.5758 74.0496 91.5758C62.2031 91.5758 52.5996 81.9723 52.5996 70.1258C52.5996 58.2793 62.2031 48.6758 74.0496 48.6758C85.8961 48.6758 95.4996 58.2793 95.4996 70.1258Z" fill="#00B8C5"/>
<path fill-rule="evenodd" clip-rule="evenodd" d="M74.05 50.7781C63.3633 50.7781 54.7 59.4414 54.7 70.1281C54.7 80.8148 63.3633 89.4781 74.05 89.4781C84.7367 89.4781 93.4 80.8148 93.4 70.1281C93.4 68.9683 94.3402 68.0281 95.5 68.0281C96.6598 68.0281 97.6 68.9683 97.6 70.1281C97.6 83.1344 87.0563 93.6781 74.05 93.6781C61.0437 93.6781 50.5 83.1344 50.5 70.1281C50.5 57.1218 61.0437 46.5781 74.05 46.5781C81.9311 46.5781 88.9077 50.4516 93.1791 56.3893C93.6332 57.0206 94.057 57.6754 94.4481 58.3516C95.0289 59.3555 94.6858 60.6402 93.6819 61.2209C92.678 61.8016 91.3933 61.4586 90.8126 60.4546C90.4913 59.8992 90.143 59.361 89.7696 58.842C86.2535 53.9541 80.5227 50.7781 74.05 50.7781Z" fill="#008193"/>
<path fill-rule="evenodd" clip-rule="evenodd" d="M74.2008 81.375C73.041 81.375 72.1008 80.4348 72.1008 79.275L72.1008 60.975C72.1008 59.8152 73.041 58.875 74.2008 58.875C75.3606 58.875 76.3008 59.8152 76.3008 60.975L76.3008 79.275C76.3008 80.4348 75.3606 81.375 74.2008 81.375Z" fill="#008193"/>
<path fill-rule="evenodd" clip-rule="evenodd" d="M63.0996 69.9781C63.0996 68.8183 64.0398 67.8781 65.1996 67.8781L83.1996 67.8781C84.3594 67.8781 85.2996 68.8183 85.2996 69.9781C85.2996 71.1379 84.3594 72.0781 83.1996 72.0781L65.1996 72.0781C64.0398 72.0781 63.0996 71.1379 63.0996 69.9781Z" fill="#008193"/>
<path d="M40.3008 72.8281C40.3008 74.0708 39.2934 75.0781 38.0508 75.0781C36.8081 75.0781 35.8008 74.0708 35.8008 72.8281C35.8008 71.5855 36.8081 70.5781 38.0508 70.5781C39.2934 70.5781 40.3008 71.5855 40.3008 72.8281Z" fill="#008193"/>
</svg>
