<svg width="90" height="19" viewBox="0 0 90 19" fill="none" xmlns="http://www.w3.org/2000/svg">
<g clip-path="url(#clip0_4832_88737)">
<path fill-rule="evenodd" clip-rule="evenodd" d="M35.5146 14.3699C32.1887 16.8236 27.3668 18.1285 23.2144 18.1285C17.3953 18.1285 12.1548 15.978 8.18902 12.3983C7.878 12.117 8.15537 11.7332 8.52961 11.9508C12.8079 14.4397 18.0994 15.9388 23.5637 15.9388C27.2501 15.9388 31.3025 15.1737 35.0312 13.5926C35.5936 13.3545 36.0652 13.9631 35.5146 14.3699Z" fill="#F79C34"/>
<path fill-rule="evenodd" clip-rule="evenodd" d="M36.8941 12.7902C36.4684 12.2459 34.0822 12.5323 33.0099 12.6608C32.6851 12.7 32.6346 12.4161 32.9273 12.2107C34.8312 10.8737 37.9511 11.2596 38.3136 11.7076C38.6787 12.1587 38.2172 15.2858 36.4337 16.7777C36.1589 17.0071 35.8978 16.8847 36.0197 16.582C36.4215 15.5794 37.3198 13.3356 36.8941 12.7902Z" fill="#F79C34"/>
<path fill-rule="evenodd" clip-rule="evenodd" d="M33.0897 2.76864V1.4699C33.0908 1.27213 33.2396 1.14063 33.4191 1.14113L39.2429 1.14062C39.429 1.14062 39.5789 1.2757 39.5789 1.46837V2.58208C39.5768 2.76914 39.4193 3.01279 39.1404 3.39965L36.1235 7.70568C37.2432 7.67968 38.4276 7.84737 39.4453 8.41876C39.6747 8.54771 39.7364 8.73886 39.7543 8.92592V10.3118C39.7543 10.503 39.5452 10.7237 39.325 10.609C37.5328 9.67009 35.1542 9.56764 33.1718 10.6202C32.9694 10.7282 32.7578 10.5101 32.7578 10.319V9.00136C32.7578 8.79085 32.7619 8.42997 32.9745 8.10886L36.4692 3.09638L33.4263 3.09587C33.2401 3.09587 33.0908 2.96334 33.0897 2.76864Z" fill="#333E47"/>
<path fill-rule="evenodd" clip-rule="evenodd" d="M11.8468 10.8814H10.075C9.90619 10.8707 9.77158 10.7443 9.75781 10.5822L9.75934 1.49154C9.75934 1.31008 9.9123 1.16482 10.1015 1.16482L11.7514 1.16431C11.9237 1.17297 12.0624 1.30346 12.0731 1.46962V2.65622H12.1068C12.5366 1.50836 13.3468 0.972656 14.4384 0.972656C15.5464 0.972656 16.2413 1.50836 16.7374 2.65622C17.1673 1.50836 18.1432 0.972656 19.1848 0.972656C19.9292 0.972656 20.7394 1.27899 21.2355 1.96761C21.7979 2.73319 21.6827 3.84232 21.6827 4.8179L21.6807 10.5547C21.6807 10.7356 21.5282 10.8814 21.339 10.8814H19.5698C19.3913 10.8702 19.2516 10.7295 19.2516 10.5552L19.2511 5.73589C19.2511 5.3536 19.2843 4.39739 19.2011 4.03397C19.0691 3.4213 18.6724 3.24902 18.16 3.24902C17.7297 3.24902 17.283 3.53598 17.101 3.99472C16.919 4.45448 16.9358 5.21904 16.9358 5.73589V10.5547C16.9358 10.7356 16.7828 10.8814 16.5942 10.8814H14.8244C14.6465 10.8702 14.5062 10.7295 14.5062 10.5552L14.5042 5.73589C14.5042 4.72207 14.6699 3.23067 13.4131 3.23067C12.1394 3.23067 12.1894 4.68385 12.1894 5.73589L12.1884 10.5547C12.1884 10.7356 12.0354 10.8814 11.8468 10.8814Z" fill="#333E47"/>
<path fill-rule="evenodd" clip-rule="evenodd" d="M44.6114 2.82851C43.3051 2.82851 43.2225 4.60688 43.2225 5.71652C43.2225 6.82615 43.2062 9.19834 44.5956 9.19834C45.9681 9.19834 46.0344 7.2854 46.0344 6.11868C46.0344 5.3536 46.0008 4.43511 45.7693 3.70826C45.5709 3.07673 45.1737 2.82851 44.6114 2.82851ZM44.5956 0.972656C47.225 0.972656 48.647 3.23067 48.647 6.09982C48.647 8.87264 47.0761 11.073 44.5956 11.073C42.0151 11.073 40.6094 8.81555 40.6094 6.00399C40.6094 3.17256 42.0314 0.972656 44.5956 0.972656Z" fill="#333E47"/>
<path fill-rule="evenodd" clip-rule="evenodd" d="M52.0551 10.8814H50.2895C50.1125 10.8702 49.9718 10.7295 49.9718 10.5552L49.9688 1.46147C49.984 1.29479 50.1309 1.16482 50.3093 1.16482L51.9527 1.16431C52.1077 1.17246 52.2351 1.27746 52.2678 1.41865V2.80914H52.3009C52.7975 1.56545 53.4915 0.972656 54.7151 0.972656C55.509 0.972656 56.2866 1.25962 56.7827 2.04406C57.2456 2.77091 57.2456 3.99472 57.2456 4.87499V10.5955C57.2263 10.7565 57.0815 10.8814 56.9061 10.8814H55.1302C54.966 10.8712 54.8339 10.7504 54.8146 10.5955V5.65994C54.8146 4.66499 54.9308 3.21079 53.7066 3.21079C53.2768 3.21079 52.8796 3.49775 52.6813 3.93763C52.433 4.49271 52.3998 5.04727 52.3998 5.65994V10.5547C52.3968 10.7356 52.2438 10.8814 52.0551 10.8814Z" fill="#333E47"/>
<path fill-rule="evenodd" clip-rule="evenodd" d="M30.2332 10.8563C30.1165 10.9613 29.9477 10.9684 29.8151 10.8976C29.2267 10.4088 29.1212 10.183 28.7995 9.71709C27.8271 10.7075 27.1383 11.0046 25.8784 11.0046C24.387 11.0046 23.2266 10.0841 23.2266 8.24403C23.2266 6.80614 24.0062 5.82852 25.1161 5.34939C26.0773 4.92735 27.4197 4.8509 28.4476 4.7357V4.50582C28.4476 4.08327 28.4808 3.5858 28.232 3.22136C28.0163 2.89514 27.6023 2.76109 27.2377 2.76109C26.5616 2.76109 25.9615 3.10718 25.8137 3.82434C25.7825 3.98388 25.6663 4.1424 25.5062 4.15056L23.7884 3.96451C23.6436 3.93138 23.4825 3.81517 23.5238 3.59395C23.9139 1.54034 25.7484 0.900143 27.4157 0.882812H27.5472C28.4007 0.893516 29.4908 1.12747 30.1547 1.7641C31.0169 2.56944 30.9333 3.64289 30.9333 4.81267V7.57172C30.9333 8.40204 31.2785 8.76597 31.6022 9.21299C31.7159 9.37456 31.7409 9.5657 31.5966 9.68396C31.2346 9.98723 30.5917 10.5454 30.2383 10.8604L30.2332 10.8563ZM28.4476 6.53803C28.4476 7.22818 28.464 7.80313 28.1162 8.41682C27.8343 8.91481 27.3866 9.22165 26.8895 9.22165C26.2103 9.22165 25.8126 8.7043 25.8126 7.93718C25.8126 6.42845 27.1658 6.15422 28.4476 6.15422V6.53803Z" fill="#333E47"/>
<path fill-rule="evenodd" clip-rule="evenodd" d="M7.00717 10.8563C6.8899 10.9613 6.72062 10.9684 6.58856 10.8976C5.99966 10.4088 5.89412 10.183 5.5729 9.71709C4.60006 10.7075 3.91174 11.0046 2.65184 11.0046C1.16047 11.0046 0 10.0841 0 8.24403C0 6.80614 0.778574 5.82852 1.88958 5.34939C2.85069 4.92735 4.19319 4.8509 5.22058 4.7357V4.50582C5.22058 4.08327 5.25423 3.5858 5.00541 3.22136C4.78974 2.89514 4.37521 2.76109 4.01116 2.76109C3.33507 2.76109 2.73393 3.10718 2.58709 3.82434C2.5565 3.98388 2.43974 4.1424 2.27913 4.15056L0.561879 3.96451C0.416565 3.93138 0.255446 3.81517 0.297255 3.59395C0.686287 1.54034 2.52132 0.900143 4.18911 0.882812H4.32065C5.17418 0.893516 6.26428 1.12747 6.92814 1.7641C7.78982 2.56944 7.70671 3.64289 7.70671 4.81267V7.57172C7.70671 8.40204 8.05189 8.76597 8.37566 9.21299C8.48834 9.37456 8.51435 9.5657 8.37005 9.68396C8.00805 9.98723 7.36459 10.5454 7.01125 10.8604L7.00717 10.8563ZM5.22058 6.53803C5.22058 7.22818 5.2374 7.80313 4.88916 8.41682C4.60771 8.91481 4.16004 9.22165 3.66241 9.22165C2.98326 9.22165 2.58556 8.7043 2.58556 7.93718C2.58556 6.42845 3.93927 6.15422 5.22058 6.15422V6.53803Z" fill="#333E47"/>
<path fill-rule="evenodd" clip-rule="evenodd" d="M81.46 14.1416C81.46 13.9112 81.46 13.7043 81.46 13.4739C81.46 13.2838 81.5533 13.1528 81.7516 13.1645C82.1218 13.217 82.6454 13.2695 83.0171 13.193C83.5025 13.0921 83.8508 12.7481 84.0567 12.2766C84.3469 11.6129 84.5391 11.0777 84.6604 10.7265L80.9746 1.59868C80.9124 1.44373 80.894 1.15625 81.2035 1.15625H82.492C82.7377 1.15625 82.8376 1.31222 82.8927 1.46513L85.5649 8.87936L88.1158 1.46513C88.1678 1.31324 88.2724 1.15625 88.5161 1.15625H89.7311C90.0386 1.15625 90.0212 1.44322 89.96 1.59868L86.3037 11.0115C85.8306 12.2643 85.2004 14.2598 83.7809 14.6065C83.0691 14.7925 82.1712 14.7252 81.644 14.5045C81.511 14.4377 81.46 14.2593 81.46 14.1416Z" fill="#333E47"/>
<path fill-rule="evenodd" clip-rule="evenodd" d="M79.7454 10.3242C79.7454 10.494 79.6062 10.6331 79.4354 10.6331H78.5268C78.3305 10.6331 78.1964 10.4914 78.1714 10.3242L78.0802 9.70596C77.6626 10.0592 77.1502 10.3696 76.5944 10.5857C75.5257 11.0006 74.2938 11.0694 73.2496 10.4282C72.4945 9.9649 72.0938 9.05914 72.0938 8.12485C72.0938 7.40208 72.3166 6.68543 72.8106 6.16502C73.4699 5.45397 74.4254 5.10482 75.5792 5.10482C76.2762 5.10482 77.2735 5.18688 77.9991 5.4239V4.1797C77.9991 2.9146 77.4663 2.36718 76.0616 2.36718C74.9878 2.36718 74.1664 2.52926 73.0232 2.88453C72.8402 2.89065 72.7331 2.7515 72.7331 2.58176V1.87225C72.7331 1.70201 72.8784 1.53737 73.036 1.48742C73.8523 1.13164 75.0087 0.909917 76.238 0.869141C77.8405 0.869141 79.7454 1.23052 79.7454 3.69446V10.3242ZM77.9991 8.50764V6.63038C77.3893 6.46371 76.3802 6.39439 75.9897 6.39439C75.3727 6.39439 74.6972 6.54016 74.3443 6.9199C74.0807 7.1982 73.9614 7.59781 73.9614 7.98417C73.9614 8.48368 74.1343 8.98473 74.5381 9.23245C75.0072 9.55101 75.7347 9.51228 76.4185 9.31808C77.0757 9.13152 77.6927 8.80174 77.9991 8.50764Z" fill="#333E47"/>
<path fill-rule="evenodd" clip-rule="evenodd" d="M66.3459 2.39546C68.3619 2.39546 68.9111 3.98015 68.9111 5.79471C68.9223 7.01801 68.6974 8.10879 68.0637 8.73318C67.5895 9.20059 67.0597 9.32801 66.2623 9.32801C65.5526 9.32801 64.619 8.95796 63.9215 8.44265V3.25432C64.6475 2.6967 65.574 2.39546 66.3459 2.39546ZM63.6125 14.4674H62.3954C62.2251 14.4674 62.0859 14.3283 62.0859 14.1585C62.0859 9.93304 62.0859 5.70704 62.0859 1.48155C62.0859 1.31182 62.2251 1.17267 62.3954 1.17267H63.327C63.5228 1.17267 63.6569 1.31437 63.6818 1.48155L63.7797 2.1457C64.6521 1.37146 65.7754 0.875 66.8456 0.875C69.8431 0.875 70.8287 3.34403 70.8287 5.91143C70.8287 8.65825 69.321 10.8653 66.7711 10.8653C65.6974 10.8653 64.6934 10.4692 63.9215 9.78114V14.1585C63.9215 14.3283 63.7823 14.4674 63.6125 14.4674Z" fill="#333E47"/>
</g>
<defs>
<clipPath id="clip0_4832_88737">
<rect width="90" height="17.2603" fill="white" transform="translate(0 0.869141)"/>
</clipPath>
</defs>
</svg>
