<svg width="32" height="22" viewBox="0 0 32 22" fill="none" xmlns="http://www.w3.org/2000/svg">
<g clip-path="url(#clip0_4832_88397)">
<path d="M0 3.19596C0 1.7232 1.19391 0.529297 2.66667 0.529297H29.3333C30.8061 0.529297 32 1.7232 32 3.19596V19.196C32 20.6687 30.8061 21.8626 29.3333 21.8626H2.66667C1.19391 21.8626 0 20.6687 0 19.196V3.19596Z" fill="#D4DEF7"/>
<path d="M23.6152 7.11045L22.996 8.47538H24.2377L23.6152 7.11045ZM16.4704 7.95627C16.5871 7.90088 16.6558 7.78039 16.6558 7.63077C16.6558 7.48414 16.5836 7.37795 16.4669 7.32805C16.3606 7.27274 16.1971 7.26635 16.0403 7.26635H14.9326V8.02686H16.0255C16.2005 8.0269 16.3467 8.02456 16.4704 7.95627ZM2.27644 7.11045L1.66428 8.47538H2.89229L2.27644 7.11045ZM30.7776 15.8546H29.0403V15.1202H30.7706C30.9421 15.1202 31.0622 15.0998 31.1345 15.0354C31.2029 14.978 31.2416 14.8969 31.2409 14.8121C31.2409 14.7123 31.1973 14.6331 31.1309 14.5856C31.0658 14.5334 30.9706 14.5096 30.814 14.5096C29.9693 14.4835 28.9155 14.5333 28.9155 13.4496C28.9155 12.9529 29.2623 12.4301 30.2063 12.4301H31.9982V11.7487H30.3333C29.8309 11.7487 29.4659 11.8581 29.2074 12.0284V11.7487H26.7449C26.3512 11.7487 25.889 11.8374 25.6704 12.0284V11.7487H21.2728V12.0284C20.9229 11.7987 20.3323 11.7487 20.0598 11.7487H17.1592V12.0284C16.8824 11.7845 16.2665 11.7487 15.8914 11.7487H12.6451L11.9023 12.48L11.2066 11.7487H6.35722V16.5276H11.1151L11.8804 15.7845L12.6015 16.5276L15.5342 16.5299V15.4058H15.8226C16.2117 15.4114 16.6706 15.3971 17.0757 15.2378V16.5275H19.4947V15.2818H19.6113C19.7602 15.2818 19.775 15.2875 19.775 15.4229V16.5272H27.1236C27.5902 16.5272 28.0779 16.4187 28.3479 16.2213V16.5272H30.6789C31.1639 16.5272 31.6377 16.4653 31.9981 16.307V15.4167C31.7796 15.7074 31.3537 15.8548 30.7775 15.8548L30.7776 15.8546ZM15.8611 14.7262H14.7387V15.8749H12.9902L11.8825 14.7412L10.7314 15.8749H7.16803V12.4502H10.7862L11.8929 13.5728L13.0371 12.4502H15.9116C16.6255 12.4502 17.4276 12.6301 17.4276 13.5785C17.4276 14.5298 16.6475 14.7262 15.8611 14.7262ZM21.2586 14.5709C21.3857 14.7381 21.404 14.8941 21.4077 15.196V15.8749H20.5044V15.4465C20.5044 15.2405 20.5263 14.9354 20.359 14.7761C20.2278 14.6535 20.0273 14.6242 19.699 14.6242H18.7377V15.8749H17.8338V12.4503H19.9106C20.3662 12.4503 20.6978 12.4687 20.993 12.6119C21.2769 12.7679 21.4556 12.9817 21.4556 13.3724C21.4555 13.9189 21.0548 14.1978 20.818 14.2835C21.0181 14.3507 21.1818 14.4712 21.2586 14.5709ZM24.9746 13.1585H22.868V13.7811H24.9231V14.4798H22.868V15.1612L24.9746 15.1643V15.8749H21.9722V12.4502H24.9746V13.1585ZM27.2862 15.8748H25.5341V15.1405H27.2792C27.4499 15.1405 27.5709 15.1199 27.6467 15.0556C27.7085 15.0027 27.753 14.9257 27.753 14.8324C27.753 14.7325 27.7048 14.6533 27.6432 14.6058C27.5743 14.5536 27.4794 14.5299 27.3228 14.5299C26.4815 14.5037 25.428 14.5535 25.428 13.4699C25.428 12.9731 25.7711 12.4503 26.7141 12.4503H28.5177V13.1791H26.8674C26.7038 13.1791 26.5975 13.1848 26.507 13.2411C26.4084 13.2966 26.3719 13.3788 26.3719 13.4874C26.3719 13.6165 26.4555 13.7045 26.5687 13.7425C26.6636 13.7725 26.7655 13.7813 26.9187 13.7813L27.4031 13.7933C27.8912 13.8039 28.2266 13.881 28.4304 14.0686C28.6054 14.2335 28.6995 14.4417 28.6995 14.7942C28.6994 15.5309 28.1934 15.8748 27.2862 15.8748ZM20.3092 13.2137C20.2005 13.155 20.0401 13.1519 19.88 13.1519H18.7723V13.921H19.8652C20.0402 13.921 20.189 13.9154 20.3092 13.8504C20.4258 13.7863 20.4956 13.6682 20.4956 13.5217C20.4956 13.3752 20.4258 13.2692 20.3092 13.2137ZM30.3603 13.1518C30.1967 13.1518 30.0878 13.1575 29.9963 13.2137C29.9013 13.2692 29.8649 13.3514 29.8649 13.4601C29.8649 13.5892 29.945 13.6771 30.0616 13.7152C30.1566 13.7452 30.2583 13.754 30.4082 13.754L30.8959 13.7658C31.3878 13.7769 31.7163 13.8539 31.9166 14.0416C31.953 14.0676 31.9749 14.0969 32 14.1263V13.1519H30.3604L30.3603 13.1518ZM15.8923 13.1518H14.7193V14.024H15.8819C16.2275 14.024 16.4424 13.868 16.4426 13.5717C16.4424 13.2723 16.2171 13.1518 15.8923 13.1518ZM8.06401 13.1518V13.7745H10.0389V14.4732H8.06401V15.1545H10.2757L11.3033 14.1499L10.3194 13.1518H8.06401ZM13.8393 15.5467V12.8011L12.4582 14.1518L13.8393 15.5467ZM8.1395 10.0483V10.6383H15.6552L15.6517 9.39H15.7971C15.899 9.39323 15.9286 9.40176 15.9286 9.55474V10.6384H19.8158V10.3477C20.1293 10.5006 20.6169 10.6384 21.2586 10.6384H22.8939L23.2439 9.8779H24.0198L24.3621 10.6384H27.5134V9.916L27.9905 10.6383H30.5159V5.86328H28.0167V6.42723L27.6668 5.86328H25.1023V6.42723L24.781 5.86328H21.3169C20.737 5.86328 20.2275 5.93691 19.8157 6.14212V5.86328H17.4252V6.14212C17.1632 5.93059 16.8062 5.86328 16.4093 5.86328H7.67598L7.09004 7.09666L6.48826 5.86328H3.73756V6.42723L3.43532 5.86328H1.08942L4.10265e-05 8.13371V9.94981L1.61091 6.52594H2.94751L4.47739 9.76762V6.52594H5.94569L7.12294 8.84861L8.20449 6.52594H9.70224V9.94981H8.78017L8.77681 7.2683L7.47233 9.94981H6.68248L5.37468 7.26592V9.94981H3.5449L3.19925 9.18611H1.32622L0.977006 9.94981H0V10.6386H1.5371L1.88365 9.8781H2.65963L3.00528 10.6386H6.02946V10.0571L6.29938 10.641H7.8693L8.13925 10.0484L8.1395 10.0483ZM19.9826 6.92503C20.2733 6.65176 20.7288 6.52574 21.3487 6.52574H22.2196V7.25938H21.367C21.0389 7.25938 20.8533 7.30378 20.6748 7.46225C20.5214 7.60638 20.4162 7.87891 20.4162 8.23776C20.4162 8.60459 20.4964 8.86906 20.6635 9.04182C20.802 9.1773 21.0538 9.2184 21.2905 9.2184H21.6947L22.9625 6.52586H24.3103L25.8334 9.76431V6.5259H27.2031L28.7844 8.91043V6.5259H29.7058V9.94966H28.4311L26.7259 7.3799V9.94966H24.8938L24.5438 9.18595H22.675L22.3354 9.94966H21.2827C20.8455 9.94966 20.2918 9.8617 19.9783 9.57094C19.6621 9.28026 19.4978 8.88647 19.4978 8.2639C19.4976 7.75605 19.5958 7.29186 19.9826 6.92503ZM18.1323 6.52578H19.0501V9.94966H18.1323V6.52578ZM13.9939 6.52578H16.063C16.5226 6.52578 16.8615 6.53688 17.1524 6.68978C17.4369 6.84272 17.6076 7.066 17.6076 7.44784C17.6076 7.99379 17.207 8.27578 16.9738 8.3605C17.1705 8.42868 17.3388 8.54908 17.4189 8.64881C17.5459 8.81912 17.5678 8.97124 17.5678 9.27699V9.94962H16.6605L16.6571 9.51785C16.6571 9.31178 16.6787 9.01549 16.5151 8.85087C16.3837 8.7305 16.1832 8.70428 15.8593 8.70428H14.8937V9.94966H13.9941L13.9939 6.52578ZM10.3675 6.52578H13.3726V7.23877H11.2672V7.85593H13.3221V8.55777H11.2672V9.24154H13.3726V9.94962H10.3675V6.52578Z" fill="#2557D6"/>
</g>
<defs>
<clipPath id="clip0_4832_88397">
<rect width="32" height="21.3333" fill="white" transform="translate(0 0.529297)"/>
</clipPath>
</defs>
</svg>
