<svg width="180" height="52" viewBox="0 0 180 52" fill="none" xmlns="http://www.w3.org/2000/svg">
<path d="M179 46.0063C179 48.7774 176.709 51.0221 173.874 51.0221H6.13243C3.2995 51.0221 1 48.7774 1 46.0063V6.00674C1 3.23691 3.2995 0.984375 6.13243 0.984375H173.873C176.709 0.984375 178.999 3.23691 178.999 6.00674L179 46.0063Z" fill="black"/>
<path d="M173.333 1.04162C176.42 1.04162 178.932 3.4905 178.932 6.5V45.5C178.932 48.5095 176.42 50.9584 173.333 50.9584H6.66667C3.58 50.9584 1.06833 48.5095 1.06833 45.5V6.5C1.06833 3.4905 3.58 1.04162 6.66667 1.04162H173.333ZM173.333 2.74817e-06H6.66667C3.00167 2.74817e-06 0 2.92663 0 6.5V45.5C0 49.0734 3.00167 52 6.66667 52H173.333C176.998 52 180 49.0734 180 45.5V6.5C180 2.92663 176.998 2.74817e-06 173.333 2.74817e-06Z" fill="#A6A6A6"/>
<path d="M40.1705 25.723C40.1318 21.5331 43.6891 19.4947 43.8518 19.3998C41.8371 16.5359 38.7145 16.1446 37.6171 16.1134C34.9945 15.8443 32.4505 17.6435 31.1145 17.6435C29.7518 17.6435 27.6945 16.1394 25.4771 16.1836C22.6238 16.2265 19.9545 17.8372 18.4905 20.3384C15.4691 25.4383 17.7225 32.9328 20.6171 37.0551C22.0651 39.074 23.7571 41.3282 25.9718 41.2489C28.1385 41.1618 28.9478 39.9021 31.5625 39.9021C34.1531 39.9021 34.9131 41.2489 37.1718 41.1982C39.4971 41.1618 40.9611 39.1702 42.3585 37.1331C44.0318 34.8191 44.7038 32.5402 44.7305 32.4232C44.6758 32.405 40.2145 30.7449 40.1705 25.723Z" fill="white"/>
<path d="M35.9038 13.4016C37.0691 11.9807 37.8665 10.0476 37.6451 8.08594C35.9585 8.15874 33.8491 9.22344 32.6345 10.6131C31.5598 11.8377 30.5998 13.8449 30.8478 15.7325C32.7425 15.8703 34.6878 14.8004 35.9038 13.4016Z" fill="white"/>
<path d="M71.5269 40.9488H68.4989L66.8402 35.8671H61.0749L59.4949 40.9488H56.5469L62.2589 23.6484H65.7869L71.5269 40.9488ZM66.3402 33.7351L64.8402 29.2176C64.6815 28.7561 64.3842 27.6693 63.9455 25.9585H63.8922C63.7175 26.6943 63.4362 27.7811 63.0495 29.2176L61.5762 33.7351H66.3402Z" fill="white"/>
<path d="M86.2159 34.5588C86.2159 36.6804 85.6279 38.3575 84.4519 39.5886C83.3985 40.6845 82.0905 41.2318 80.5292 41.2318C78.8439 41.2318 77.6332 40.6415 76.8959 39.4611H76.8425V46.0327H73.9999V32.5815C73.9999 31.2477 73.9639 29.8789 73.8945 28.4749H76.3945L76.5532 30.4522H76.6065C77.5545 28.9624 78.9932 28.2188 80.9239 28.2188C82.4332 28.2188 83.6932 28.7998 84.7012 29.9633C85.7119 31.1281 86.2159 32.6595 86.2159 34.5588ZM83.3199 34.6603C83.3199 33.4461 83.0399 32.4451 82.4772 31.6573C81.8625 30.8357 81.0372 30.4249 80.0025 30.4249C79.3012 30.4249 78.6639 30.6536 78.0945 31.1047C77.5239 31.5597 77.1505 32.1539 76.9759 32.8897C76.8879 33.2329 76.8439 33.5137 76.8439 33.7347V35.8147C76.8439 36.7221 77.1292 37.4878 77.6999 38.1131C78.2705 38.7384 79.0119 39.0503 79.9239 39.0503C80.9945 39.0503 81.8279 38.6473 82.4239 37.8439C83.0212 37.0392 83.3199 35.9785 83.3199 34.6603Z" fill="white"/>
<path d="M100.932 34.5588C100.932 36.6804 100.344 38.3575 99.167 39.5886C98.115 40.6845 96.807 41.2318 95.2456 41.2318C93.5603 41.2318 92.3496 40.6415 91.6136 39.4611H91.5603V46.0327H88.7176V32.5815C88.7176 31.2477 88.6816 29.8789 88.6123 28.4749H91.1123L91.271 30.4522H91.3243C92.271 28.9624 93.7096 28.2188 95.6416 28.2188C97.1496 28.2188 98.4096 28.7998 99.4203 29.9633C100.427 31.1281 100.932 32.6595 100.932 34.5588ZM98.0363 34.6603C98.0363 33.4461 97.755 32.4451 97.1923 31.6573C96.5776 30.8357 95.755 30.4249 94.719 30.4249C94.0163 30.4249 93.3803 30.6536 92.8096 31.1047C92.239 31.5597 91.867 32.1539 91.6923 32.8897C91.6056 33.2329 91.5603 33.5137 91.5603 33.7347V35.8147C91.5603 36.7221 91.8456 37.4878 92.4136 38.1131C92.9843 38.7371 93.7256 39.0503 94.6403 39.0503C95.711 39.0503 96.5443 38.6473 97.1403 37.8439C97.7376 37.0392 98.0363 35.9785 98.0363 34.6603Z" fill="white"/>
<path d="M117.386 36.1007C117.386 37.5723 116.862 38.7696 115.81 39.6939C114.654 40.704 113.045 41.2084 110.977 41.2084C109.067 41.2084 107.537 40.8496 106.378 40.1307L107.037 37.8206C108.285 38.5564 109.654 38.9256 111.146 38.9256C112.217 38.9256 113.05 38.689 113.649 38.2184C114.245 37.7478 114.542 37.116 114.542 36.3282C114.542 35.6262 114.297 35.0347 113.805 34.555C113.315 34.0753 112.498 33.6294 111.357 33.2173C108.25 32.0876 106.698 30.4327 106.698 28.2565C106.698 26.8343 107.242 25.6682 108.331 24.7608C109.417 23.8521 110.865 23.3984 112.675 23.3984C114.29 23.3984 115.631 23.6727 116.702 24.22L115.991 26.4794C114.991 25.949 113.861 25.6838 112.595 25.6838C111.595 25.6838 110.814 25.9243 110.254 26.4027C109.781 26.8304 109.543 27.3517 109.543 27.9692C109.543 28.653 109.814 29.2185 110.358 29.6631C110.831 30.0739 111.691 30.5185 112.939 30.9982C114.466 31.5975 115.587 32.2982 116.309 33.1016C117.027 33.9024 117.386 34.9047 117.386 36.1007Z" fill="white"/>
<path d="M126.784 30.5555H123.651V36.6122C123.651 38.1527 124.203 38.9223 125.31 38.9223C125.818 38.9223 126.239 38.8794 126.572 38.7936L126.651 40.8983C126.091 41.1024 125.354 41.2051 124.44 41.2051C123.318 41.2051 122.44 40.871 121.807 40.2041C121.176 39.5359 120.859 38.4153 120.859 36.841V30.5529H118.992V28.4729H120.859V26.1888L123.651 25.3672V28.4729H126.784V30.5555Z" fill="white"/>
<path d="M140.922 34.6161C140.922 36.5336 140.359 38.1079 139.236 39.339C138.059 40.6065 136.496 41.2383 134.548 41.2383C132.671 41.2383 131.176 40.6312 130.062 39.417C128.947 38.2028 128.39 36.6701 128.39 34.8228C128.39 32.8897 128.963 31.3063 130.114 30.0752C131.262 28.8428 132.811 28.2266 134.759 28.2266C136.636 28.2266 138.147 28.8337 139.287 30.0492C140.378 31.2283 140.922 32.7506 140.922 34.6161ZM137.972 34.7058C137.972 33.5553 137.72 32.5686 137.21 31.7457C136.614 30.7499 135.762 30.2533 134.658 30.2533C133.515 30.2533 132.647 30.7512 132.051 31.7457C131.54 32.5699 131.288 33.5722 131.288 34.7578C131.288 35.9083 131.54 36.895 132.051 37.7166C132.666 38.7124 133.524 39.209 134.632 39.209C135.718 39.209 136.57 38.702 137.184 37.6906C137.708 36.8521 137.972 35.855 137.972 34.7058Z" fill="white"/>
<path d="M150.162 30.9124C149.88 30.8617 149.58 30.8357 149.266 30.8357C148.266 30.8357 147.492 31.2035 146.948 31.9406C146.475 32.5906 146.238 33.4122 146.238 34.4041V40.9496H143.396L143.423 32.4035C143.423 30.9657 143.387 29.6566 143.316 28.4761H145.792L145.896 30.863H145.975C146.275 30.0427 146.748 29.3822 147.396 28.8869C148.03 28.441 148.714 28.2188 149.451 28.2188C149.714 28.2188 149.951 28.2369 150.162 28.2694V30.9124Z" fill="white"/>
<path d="M162.875 34.122C162.875 34.6186 162.841 35.0372 162.771 35.3791H154.243C154.276 36.6115 154.688 37.554 155.48 38.204C156.199 38.7851 157.128 39.0763 158.269 39.0763C159.532 39.0763 160.684 38.88 161.72 38.4861L162.165 40.4101C160.955 40.9249 159.525 41.181 157.876 41.181C155.892 41.181 154.335 40.6116 153.201 39.4741C152.071 38.3366 151.504 36.8091 151.504 34.8929C151.504 33.0118 152.031 31.4453 153.085 30.196C154.189 28.8622 155.681 28.1953 157.559 28.1953C159.403 28.1953 160.799 28.8622 161.747 30.196C162.497 31.2555 162.875 32.5659 162.875 34.122ZM160.164 33.4031C160.183 32.5815 159.997 31.8717 159.612 31.2724C159.12 30.5015 158.364 30.1167 157.347 30.1167C156.417 30.1167 155.661 30.4924 155.084 31.2464C154.611 31.8457 154.329 32.5646 154.243 33.4018H160.164V33.4031Z" fill="white"/>
<path d="M65.3997 13.0103C65.3997 14.5404 64.9291 15.6922 63.989 16.4657C63.1184 17.1794 61.881 17.5369 60.2784 17.5369C59.4837 17.5369 58.8037 17.5031 58.2344 17.4355V9.07524C58.977 8.95824 59.777 8.89844 60.641 8.89844C62.1677 8.89844 63.3184 9.22214 64.0944 9.86954C64.9637 10.6014 65.3997 11.6479 65.3997 13.0103ZM63.9264 13.048C63.9264 12.0561 63.657 11.2956 63.1184 10.7652C62.5797 10.2361 61.793 9.97094 60.757 9.97094C60.317 9.97094 59.9424 9.99954 59.6317 10.0593V16.415C59.8037 16.441 60.1184 16.4527 60.5757 16.4527C61.645 16.4527 62.4704 16.1628 63.0517 15.583C63.6331 15.0032 63.9264 14.1582 63.9264 13.048Z" fill="white"/>
<path d="M73.2117 14.3491C73.2117 15.2916 72.9357 16.0638 72.3837 16.6696C71.805 17.2923 71.0383 17.603 70.081 17.603C69.1583 17.603 68.4237 17.3053 67.8757 16.7073C67.329 16.1106 67.0557 15.3579 67.0557 14.4505C67.0557 13.5015 67.337 12.7228 67.9023 12.1183C68.4677 11.5138 69.2277 11.2109 70.185 11.2109C71.1077 11.2109 71.849 11.5086 72.4103 12.1053C72.9437 12.6851 73.2117 13.4339 73.2117 14.3491ZM71.7623 14.3933C71.7623 13.8278 71.637 13.3429 71.3877 12.9386C71.0943 12.4498 70.677 12.2054 70.1343 12.2054C69.573 12.2054 69.1463 12.4498 68.853 12.9386C68.6023 13.3429 68.4783 13.8356 68.4783 14.418C68.4783 14.9835 68.6037 15.4684 68.853 15.8727C69.1557 16.3615 69.577 16.6059 70.121 16.6059C70.6543 16.6059 71.073 16.3576 71.3743 15.8597C71.633 15.4476 71.7623 14.9588 71.7623 14.3933Z" fill="white"/>
<path d="M83.6867 11.3359L81.7201 17.4641H80.4401L79.6254 14.803C79.4187 14.1387 79.2507 13.4783 79.1201 12.8231H79.0947C78.9734 13.4965 78.8054 14.1556 78.5894 14.803L77.7241 17.4641H76.4294L74.5801 11.3359H76.0161L76.7267 14.2492C76.8987 14.9382 77.0401 15.5947 77.1534 16.2161H77.1787C77.2827 15.7039 77.4547 15.0513 77.6974 14.2622L78.5894 11.3372H79.7281L80.5827 14.1998C80.7894 14.8979 80.9574 15.57 81.0867 16.2174H81.1254C81.2201 15.5869 81.3627 14.9148 81.5521 14.1998L82.3147 11.3372H83.6867V11.3359Z" fill="white"/>
<path d="M90.9302 17.46H89.5329V13.95C89.5329 12.8684 89.1116 12.3276 88.2662 12.3276C87.8516 12.3276 87.5169 12.4758 87.2569 12.7735C86.9996 13.0712 86.8689 13.4222 86.8689 13.8239V17.4587H85.4716V13.0829C85.4716 12.5447 85.4542 11.961 85.4209 11.3292H86.6489L86.7142 12.2873H86.7529C86.9156 11.9896 87.1582 11.7439 87.4769 11.5476C87.8556 11.3188 88.2796 11.2031 88.7436 11.2031C89.3302 11.2031 89.8182 11.3877 90.2062 11.7582C90.6889 12.2119 90.9302 12.8892 90.9302 13.7888V17.46Z" fill="white"/>
<path d="M94.7837 17.4635H93.3877V8.52344H94.7837V17.4635Z" fill="white"/>
<path d="M103.01 14.3491C103.01 15.2916 102.734 16.0638 102.182 16.6696C101.604 17.2923 100.836 17.603 99.8798 17.603C98.9558 17.603 98.2212 17.3053 97.6745 16.7073C97.1278 16.1106 96.8545 15.3579 96.8545 14.4505C96.8545 13.5015 97.1358 12.7228 97.7012 12.1183C98.2665 11.5138 99.0265 11.2109 99.9825 11.2109C100.906 11.2109 101.646 11.5086 102.209 12.1053C102.742 12.6851 103.01 13.4339 103.01 14.3491ZM101.56 14.3933C101.56 13.8278 101.434 13.3429 101.185 12.9386C100.893 12.4498 100.474 12.2054 99.9332 12.2054C99.3705 12.2054 98.9438 12.4498 98.6518 12.9386C98.4012 13.3429 98.2772 13.8356 98.2772 14.418C98.2772 14.9835 98.4025 15.4684 98.6518 15.8727C98.9545 16.3615 99.3758 16.6059 99.9198 16.6059C100.453 16.6059 100.87 16.3576 101.172 15.8597C101.432 15.4476 101.56 14.9588 101.56 14.3933Z" fill="white"/>
<path d="M109.773 17.4639H108.519L108.415 16.758H108.376C107.947 17.3209 107.335 17.603 106.54 17.603C105.947 17.603 105.467 17.4171 105.105 17.0479C104.777 16.7125 104.613 16.2952 104.613 15.7999C104.613 15.0511 104.933 14.4804 105.577 14.0852C106.22 13.69 107.124 13.4963 108.288 13.5054V13.391C108.288 12.5837 107.853 12.1807 106.983 12.1807C106.363 12.1807 105.816 12.3328 105.344 12.6344L105.06 11.74C105.644 11.3877 106.365 11.2109 107.216 11.2109C108.859 11.2109 109.683 12.0559 109.683 13.7459V16.0027C109.683 16.615 109.713 17.1025 109.773 17.4639ZM108.323 15.3579V14.4128C106.781 14.3868 106.011 14.7989 106.011 15.6478C106.011 15.9676 106.099 16.2068 106.279 16.3667C106.459 16.5266 106.688 16.6059 106.961 16.6059C107.268 16.6059 107.555 16.511 107.816 16.3225C108.079 16.1327 108.24 15.8922 108.3 15.5971C108.315 15.5308 108.323 15.4502 108.323 15.3579Z" fill="white"/>
<path d="M117.713 17.4635H116.473L116.408 16.4794H116.369C115.973 17.2282 115.298 17.6026 114.35 17.6026C113.593 17.6026 112.962 17.3127 112.462 16.7329C111.962 16.1531 111.713 15.4004 111.713 14.4761C111.713 13.4842 111.984 12.6808 112.528 12.0672C113.054 11.4952 113.7 11.2092 114.468 11.2092C115.312 11.2092 115.902 11.4861 116.238 12.0412H116.265V8.52344H117.664V15.8125C117.664 16.4092 117.68 16.9591 117.713 17.4635ZM116.265 14.8791V13.8573C116.265 13.6805 116.252 13.5375 116.226 13.4283C116.148 13.1007 115.978 12.8251 115.721 12.6028C115.461 12.3805 115.148 12.2687 114.786 12.2687C114.265 12.2687 113.857 12.4702 113.557 12.8745C113.26 13.2788 113.109 13.7949 113.109 14.4254C113.109 15.0312 113.252 15.5226 113.538 15.9009C113.841 16.3039 114.249 16.5054 114.76 16.5054C115.218 16.5054 115.585 16.3377 115.864 16.001C116.133 15.6903 116.265 15.3159 116.265 14.8791Z" fill="white"/>
<path d="M129.664 14.3491C129.664 15.2916 129.388 16.0638 128.836 16.6696C128.257 17.2923 127.492 17.603 126.533 17.603C125.612 17.603 124.877 17.3053 124.328 16.7073C123.781 16.1106 123.508 15.3579 123.508 14.4505C123.508 13.5015 123.789 12.7228 124.354 12.1183C124.92 11.5138 125.68 11.2109 126.638 11.2109C127.56 11.2109 128.302 11.5086 128.862 12.1053C129.396 12.6851 129.664 13.4339 129.664 14.3491ZM128.216 14.3933C128.216 13.8278 128.09 13.3429 127.841 12.9386C127.546 12.4498 127.13 12.2054 126.586 12.2054C126.026 12.2054 125.6 12.4498 125.305 12.9386C125.054 13.3429 124.93 13.8356 124.93 14.418C124.93 14.9835 125.056 15.4684 125.305 15.8727C125.608 16.3615 126.029 16.6059 126.573 16.6059C127.106 16.6059 127.526 16.3576 127.828 15.8597C128.085 15.4476 128.216 14.9588 128.216 14.3933Z" fill="white"/>
<path d="M137.177 17.46H135.781V13.95C135.781 12.8684 135.36 12.3276 134.513 12.3276C134.098 12.3276 133.764 12.4758 133.505 12.7735C133.246 13.0712 133.117 13.4222 133.117 13.8239V17.4587H131.718V13.0829C131.718 12.5447 131.702 11.961 131.669 11.3292H132.896L132.961 12.2873H133C133.164 11.9896 133.406 11.7439 133.724 11.5476C134.104 11.3188 134.526 11.2031 134.992 11.2031C135.577 11.2031 136.065 11.3877 136.453 11.7582C136.937 12.2119 137.177 12.8892 137.177 13.7888V17.46Z" fill="white"/>
<path d="M146.581 12.3592H145.042V15.3362C145.042 16.0928 145.316 16.4711 145.857 16.4711C146.108 16.4711 146.316 16.4503 146.48 16.4074L146.516 17.4409C146.24 17.5423 145.877 17.593 145.43 17.593C144.878 17.593 144.449 17.4292 144.138 17.1016C143.826 16.774 143.672 16.2228 143.672 15.4493V12.3592H142.753V11.3387H143.672V10.2155L145.041 9.8125V11.3374H146.58V12.3592H146.581Z" fill="white"/>
<path d="M153.978 17.4635H152.58V13.9795C152.58 12.881 152.158 12.3311 151.314 12.3311C150.666 12.3311 150.224 12.6496 149.981 13.2866C149.94 13.4205 149.916 13.5843 149.916 13.7767V17.4622H148.52V8.52344H149.916V12.2167H149.942C150.382 11.5446 151.013 11.2092 151.83 11.2092C152.409 11.2092 152.888 11.3938 153.268 11.7643C153.741 12.2258 153.978 12.9122 153.978 13.8196V17.4635Z" fill="white"/>
<path d="M161.609 14.106C161.609 14.3504 161.591 14.5558 161.557 14.7235H157.367C157.385 15.3293 157.585 15.7908 157.973 16.1106C158.328 16.3966 158.785 16.5396 159.345 16.5396C159.965 16.5396 160.531 16.4434 161.04 16.2497L161.259 17.1961C160.663 17.4483 159.961 17.5744 159.149 17.5744C158.176 17.5744 157.409 17.2949 156.855 16.7359C156.297 16.1769 156.021 15.4268 156.021 14.4856C156.021 13.5613 156.279 12.7917 156.797 12.1781C157.339 11.5229 158.071 11.1953 158.995 11.1953C159.899 11.1953 160.585 11.5229 161.049 12.1781C161.424 12.6981 161.609 13.3416 161.609 14.106ZM160.276 13.7537C160.287 13.3494 160.195 13.001 160.005 12.7072C159.763 12.3289 159.393 12.1391 158.893 12.1391C158.437 12.1391 158.065 12.3237 157.781 12.6942C157.549 12.9893 157.412 13.3416 157.367 13.7537H160.276Z" fill="white"/>
</svg>
