<svg width="100" height="100" viewBox="0 0 100 100" fill="none" xmlns="http://www.w3.org/2000/svg">
<path d="M29.125 60.375V44.375L38 42.375V27.75L49.25 26.875L50.25 10.375H62.5L63.375 27.75H74.875L75.625 43.375H83.375L84.625 66.625L58.375 90.125L50.25 87.125L42.875 89.5L36.125 87.125L30.75 89.5L23.375 71L29.125 67.75V60.375Z" fill="#E2F1F3"/>
<path d="M55.125 89.75V57.125L90.5 70.125L83.125 90.375L55.125 89.75Z" fill="#00B8C5"/>
<path fill-rule="evenodd" clip-rule="evenodd" d="M52.375 8.25C51.0109 8.25 49.9853 9.07418 49.3796 9.97671C48.7664 10.8904 48.4438 12.0529 48.4438 13.25V25.25C48.4438 25.3349 48.4499 25.4183 48.4616 25.5H40.1811C38.8171 25.5 37.7914 26.3242 37.1857 27.2267C36.5725 28.1404 36.25 29.3029 36.25 30.5V41H32C29.2386 41 27 43.2386 27 46V59.875C27 60.8415 27.7835 61.625 28.75 61.625C29.7165 61.625 30.5 60.8415 30.5 59.875V46C30.5 45.1716 31.1716 44.5 32 44.5H81.75C82.5784 44.5 83.25 45.1716 83.25 46V65.0866L57.5487 55.2015C56.7886 54.9091 55.9463 54.9128 55.1888 55.2119L23.8402 67.5863C22.2027 68.2327 21.3776 70.0654 21.9792 71.7199L25.4803 81.3481C25.8106 82.2564 26.8147 82.725 27.723 82.3947C28.6313 82.0644 29.0999 81.0603 28.7696 80.152L25.3516 70.7525L56.3832 58.5032L83.8463 69.0659C84.1484 69.331 84.5425 69.4937 84.9745 69.4998L88.2793 70.7709L82.0152 88.375H56.6781L53.7911 87.344L52.263 85.9613C51.1871 84.9879 49.5963 84.8455 48.3647 85.6124L46.2636 86.9206C44.5661 87.9775 42.4414 88.0767 40.6529 87.1824L38.1086 85.9103C37.1571 85.4345 36.0329 85.4546 35.0989 85.964L32.9307 87.1467C31.039 88.1785 28.7291 88.066 26.9465 86.8553L24.978 85.5182C23.8173 84.7298 22.2748 84.8055 21.1969 85.7037C19.9787 86.719 18.5289 87.4182 16.9759 87.7395L16.1454 87.9113C15.199 88.1071 14.5905 89.0331 14.7863 89.9796C14.9821 90.926 15.9081 91.5345 16.8545 91.3387L17.685 91.1669C19.7139 90.7471 21.6136 89.854 23.23 88.5619L24.9799 89.7505C27.8475 91.6983 31.5635 91.8793 34.6067 90.2193L36.6602 89.0992L39.0876 90.3129C41.9648 91.7515 45.3828 91.592 48.1135 89.8918L50.0546 88.6832L51.4798 89.9727C51.7961 90.2588 52.1655 90.4799 52.5672 90.6234L55.5417 91.6857C55.8925 91.811 56.2623 91.875 56.6348 91.875H82.1916C83.5665 91.875 84.7926 91.0099 85.2535 89.7145L91.6584 71.7146C92.2494 70.0537 91.4086 68.2245 89.7632 67.5917L86.75 66.4327V46C86.75 43.2386 84.5114 41 81.75 41H77.5V30.5C77.5 29.3029 77.1775 28.1404 76.5643 27.2267C75.9586 26.3242 74.9329 25.5 73.5689 25.5H65.2323C65.244 25.4183 65.25 25.3349 65.25 25.25V13.25C65.25 12.0529 64.9275 10.8904 64.3143 9.97671C63.7086 9.07418 62.6829 8.25 61.3189 8.25H52.375ZM61.7677 25.5C61.756 25.4183 61.75 25.3349 61.75 25.25V13.25C61.75 12.6522 61.5843 12.1896 61.4081 11.9271C61.3384 11.8233 61.2858 11.7727 61.2561 11.75H52.4378C52.408 11.7727 52.3554 11.8233 52.2858 11.9271C52.1096 12.1896 51.9438 12.6522 51.9438 13.25V25.25C51.9438 25.3349 51.9378 25.4183 51.9261 25.5H61.7677ZM52.4654 11.7336C52.4655 11.7341 52.4613 11.7368 52.4523 11.7398C52.4608 11.7345 52.4653 11.733 52.4654 11.7336ZM61.2285 11.7336C61.2286 11.733 61.2331 11.7345 61.2415 11.7398C61.2326 11.7368 61.2283 11.7341 61.2285 11.7336ZM74 30.5V41H39.75V30.5C39.75 29.9022 39.9157 29.4396 40.0919 29.1771C40.1616 29.0733 40.2142 29.0227 40.2439 29H73.5061C73.5358 29.0227 73.5884 29.0733 73.6581 29.1771C73.8343 29.4396 74 29.9022 74 30.5ZM40.2715 28.9836C40.2717 28.9841 40.2674 28.9868 40.2585 28.9898C40.2669 28.9845 40.2714 28.983 40.2715 28.9836ZM73.4785 28.9836C73.4786 28.983 73.4831 28.9845 73.4915 28.9898C73.4826 28.9868 73.4783 28.9841 73.4785 28.9836Z" fill="#008193"/>
<path d="M43.25 71C44.2165 71 45 70.2165 45 69.25C45 68.2835 44.2165 67.5 43.25 67.5C42.2835 67.5 41.5 68.2835 41.5 69.25C41.5 70.2165 42.2835 71 43.25 71Z" fill="#008193"/>
<path d="M10 88.25C10.9665 88.25 11.75 87.4665 11.75 86.5C11.75 85.5335 10.9665 84.75 10 84.75C9.0335 84.75 8.25 85.5335 8.25 86.5C8.25 87.4665 9.0335 88.25 10 88.25Z" fill="#008193"/>
</svg>
