<svg width="90" height="27" viewBox="0 0 90 27" fill="none" xmlns="http://www.w3.org/2000/svg">
<g clip-path="url(#clip0_4832_88989)">
<path fill-rule="evenodd" clip-rule="evenodd" d="M44.1609 9.68229C43.3976 9.68229 42.7811 10.2989 42.7811 11.0329V21.2215C42.7811 21.9849 43.3976 22.6016 44.1609 22.6016C44.9242 22.6016 45.5407 21.9849 45.5407 21.2215V11.0329C45.5407 10.2989 44.9242 9.68229 44.1609 9.68229ZM44.1608 4.60274C43.3095 4.60274 42.6049 5.30742 42.6049 6.15893C42.6049 7.01042 43.3095 7.74448 44.1608 7.74448C45.0122 7.74448 45.7168 7.03978 45.7168 6.15893C45.7168 5.30742 45.0122 4.60274 44.1608 4.60274ZM57.6066 11.0329C57.6066 10.1814 56.9314 9.85845 56.3149 9.85845H49.4745C48.7993 9.85845 48.2709 10.3869 48.2709 11.0329C48.2709 11.7082 48.7993 12.2368 49.4745 12.2368H53.9663L48.1535 20.3407C47.9773 20.5756 47.8893 20.8986 47.8893 21.1628C47.8893 22.0144 48.5645 22.4841 49.1517 22.4841H56.403C57.0782 22.4841 57.6066 21.9556 57.6066 21.2803C57.6066 20.605 57.0782 20.0765 56.403 20.0765H51.5296L57.225 12.1487C57.5186 11.7376 57.6066 11.3853 57.6066 11.0329ZM37.4673 17.4339C37.4673 19.1076 36.7334 20.1353 35.0599 20.1353C33.3866 20.1353 32.682 19.1076 32.682 17.4339V12.2368H35.1774C37.203 12.2368 37.4673 13.3526 37.4673 14.5858V17.4339ZM40.2269 14.5271C40.2269 11.679 38.7297 9.82916 35.2361 9.82916H32.7114V5.98275C32.7114 5.21934 32.0949 4.60274 31.3609 4.60274C30.5976 4.60274 29.9811 5.21934 29.9811 5.98275V17.4339C29.9811 20.2821 31.5077 22.6016 35.1187 22.6016C38.7003 22.6016 40.2563 20.2527 40.2563 17.4339V14.5858V14.5271H40.2269ZM68.3808 9.68229C67.6176 9.68229 67.001 10.2989 67.001 11.0622V17.4339C67.001 19.1075 66.2671 20.1351 64.5937 20.1351C62.9203 20.1351 62.2157 19.1075 62.2157 17.4339V11.0622C62.2157 10.2989 61.5992 9.68229 60.8653 9.68229C60.102 9.68229 59.4855 10.2989 59.4855 11.0622V17.4339C59.4855 20.2819 61.0121 22.6016 64.6231 22.6016C68.2047 22.6016 69.7606 20.2526 69.7606 17.4339V11.0622C69.7313 10.2989 69.1148 9.68229 68.3808 9.68229ZM89.3125 14.8795C89.3125 12.0314 87.992 9.71172 84.4104 9.71172C82.7956 9.71172 81.6507 10.1816 80.8576 10.9743C80.0653 10.2109 78.9204 9.71172 77.3056 9.71172C73.7239 9.71172 72.4028 12.0607 72.4028 14.8795V21.251C72.4028 22.0144 73.0193 22.6311 73.7532 22.6311C74.5163 22.6311 75.133 22.0144 75.133 21.251V14.8795C75.133 13.2059 75.6612 12.1782 77.3056 12.1782C78.9787 12.1782 79.4781 13.2059 79.4781 14.8795V21.251C79.4781 22.0144 80.0948 22.6311 80.8281 22.6311C81.5916 22.6311 82.2084 22.0144 82.2084 21.251V14.8795C82.2084 13.2059 82.7366 12.1782 84.3809 12.1782C86.054 12.1782 86.5534 13.2059 86.5534 14.8795V21.251C86.5534 22.0144 87.1694 22.6311 87.9034 22.6311C88.667 22.6311 89.2837 22.0144 89.2837 21.251L89.3125 14.8795ZM4.88041 9.71165C5.84922 10.4164 7.19966 10.2109 7.90421 9.24188L10.429 5.74779C11.1336 4.77884 10.9281 3.42819 9.95931 2.7235C8.99048 2.01881 7.64004 2.22435 6.93544 3.19329L4.38133 6.68737C3.70611 7.65633 3.91161 9.00699 4.88041 9.71165ZM16.4473 4.77884C15.4785 4.07416 14.128 4.27969 13.4234 5.24863L3.26571 19.2249C2.56113 20.1939 2.76663 21.5446 3.73543 22.2492C4.70423 22.954 6.05468 22.7484 6.75926 21.7795L16.917 7.80313C17.6509 6.83419 17.416 5.48353 16.4473 4.77884ZM3.91161 3.66311C4.61619 2.69416 4.41068 1.3435 3.44188 0.638819C2.47308 -0.0658704 1.12263 0.139664 0.418052 1.10861C-0.28653 2.07756 -0.081027 3.42821 0.887776 4.1329C1.85657 4.83759 3.20702 4.63205 3.91161 3.66311ZM19.3243 22.8659C18.3556 22.1612 17.0051 22.3668 16.3006 23.3357C15.596 24.3046 15.8014 25.6553 16.7702 26.36C17.7391 27.0647 19.0895 26.8591 19.7941 25.8902C20.4987 24.9212 20.2932 23.5705 19.3243 22.8659ZM15.3611 17.3164C14.3923 16.6118 13.0419 16.8173 12.3373 17.7863L9.78315 21.2803C9.07856 22.2492 9.28409 23.5999 10.2528 24.3046C11.2217 25.0093 12.5721 24.8038 13.2767 23.8348L15.8309 20.3407C16.5354 19.3718 16.3299 18.0212 15.3611 17.3164Z" fill="#05C0C7"/>
</g>
<defs>
<clipPath id="clip0_4832_88989">
<rect width="90" height="26.5574" fill="white" transform="translate(0 0.220703)"/>
</clipPath>
</defs>
</svg>
