<svg width="121" height="120" viewBox="0 0 121 120" fill="none" xmlns="http://www.w3.org/2000/svg">
<path d="M92.3298 96.8669C93.3513 98.0463 95.1415 98.1797 96.2632 97.0952C102.487 91.0777 107.109 83.5789 109.682 75.2812C112.534 66.0823 112.755 56.2688 110.32 46.9508C107.885 37.6329 102.89 29.1824 95.9017 22.5556C88.9131 15.9287 80.2094 11.39 70.7753 9.45293C61.3412 7.51585 51.5532 8.25771 42.5188 11.5946C33.4844 14.9315 25.5642 20.7302 19.6542 28.3347C13.7443 35.9391 10.0806 45.0458 9.07752 54.6244C8.17272 63.2646 9.46546 71.9778 12.8147 79.9609C13.4184 81.3997 15.1163 81.9825 16.5199 81.301C17.9235 80.6196 18.5002 78.9321 17.9063 77.4893C15.012 70.4584 13.9021 62.804 14.697 55.2128C15.5902 46.6831 18.8528 38.5736 24.1156 31.8018C29.3784 25.0301 36.4313 19.8663 44.4764 16.8948C52.5216 13.9233 61.2378 13.2627 69.6389 14.9877C78.0399 16.7126 85.7906 20.7544 92.0139 26.6556C98.2373 32.5568 102.685 40.0819 104.853 48.3795C107.022 56.6772 106.825 65.4162 104.285 73.6077C102.024 80.898 97.9882 87.4957 92.5576 92.8173C91.4432 93.9093 91.3083 95.6875 92.3298 96.8669Z" fill="#008193"/>
<path d="M63.1291 108.697C63.2165 110.255 64.5516 111.455 66.1023 111.282C70.6988 110.771 75.2058 109.644 79.5019 107.931C80.9513 107.354 81.5644 105.666 80.9083 104.251C80.2522 102.835 78.5754 102.228 77.1222 102.796C73.4792 104.22 69.6692 105.173 65.7849 105.631C64.2354 105.814 63.0417 107.139 63.1291 108.697Z" fill="#008193"/>
<path d="M46.9669 109.82C45.4604 109.414 44.6562 107.809 45.1441 106.327L45.1674 106.256C45.6425 104.813 47.1956 104.037 48.6642 104.425C50.1329 104.813 51.1003 106.255 50.801 107.744L50.7863 107.817C50.4789 109.347 48.9871 110.345 47.4766 109.955C47.3064 109.911 47.1365 109.866 46.9669 109.82Z" fill="#008193"/>
<path fill-rule="evenodd" clip-rule="evenodd" d="M43.4903 59.2333C41.9494 60.7743 41.9494 63.2726 43.4903 64.8136L52.3774 73.7007C53.9184 75.2416 56.4167 75.2416 57.9577 73.7006L77.7986 53.8597C79.3396 52.3188 79.3396 49.8204 77.7986 48.2794C76.2577 46.7385 73.7593 46.7385 72.2184 48.2794L55.1675 65.3303L49.0706 59.2333C47.5296 57.6924 45.0313 57.6924 43.4903 59.2333Z" fill="#00B8C5"/>
</svg>
