<svg width="44" height="44" viewBox="0 0 44 44" fill="none" xmlns="http://www.w3.org/2000/svg">
<path d="M38.622 22.0102C38.622 31.1178 31.2389 38.5009 22.1313 38.5009C13.0238 38.5009 5.64062 31.1178 5.64062 22.0102C5.64062 12.9027 13.0238 5.51953 22.1313 5.51953C31.2389 5.51953 38.622 12.9027 38.622 22.0102Z" fill="#F3F9FA"/>
<path fill-rule="evenodd" clip-rule="evenodd" d="M22.0514 14.2266C25.4347 14.2266 27.3618 15.644 27.3618 18.1067C27.3618 19.6867 26.6235 20.8718 25.2503 21.5685C26.7057 22.3361 27.4029 23.4744 27.4029 25.1006C27.4029 26.9128 26.5206 28.3764 25.0446 29.0737C24.0402 29.5622 22.748 29.7938 21.1081 29.7938L20.8016 29.7931L20.5117 29.7891L20.2357 29.7824C20.1455 29.7804 20.0573 29.777 19.9704 29.7737L19.7117 29.761C19.5836 29.7543 19.4569 29.7456 19.3302 29.7355L19.0761 29.7135L18.8174 29.6867L18.5527 29.6566L18.2781 29.6211L17.9902 29.581L17.685 29.5341L17.362 29.4833L17.0157 29.4257L16.6435 29.3628L16.4531 29.3293L18.4214 14.4594L18.9083 14.4039L19.4675 14.3437L19.839 14.3089L20.0712 14.2888L20.2981 14.2727L20.5217 14.2594L20.7472 14.2486L20.9774 14.2399L21.2195 14.2333L21.4763 14.2299L21.8982 14.2266H22.0508H22.0514ZM21.7025 23.0561H20.6159L20.1031 26.9128C20.5953 27.0293 20.9237 27.0754 21.3336 27.0754C22.9324 27.0754 23.8346 26.3788 23.8346 25.124C23.8346 23.8692 22.9941 23.0561 21.7025 23.0561ZM22.1125 16.8285L21.8988 16.8298C21.79 16.8311 21.6753 16.8345 21.5466 16.8432L21.4358 16.8519L20.9237 20.6624H22.4408C23.1991 20.6624 23.9374 19.7569 23.9998 18.711C24.0595 17.5726 23.3218 16.8291 22.1118 16.8291L22.1125 16.8285Z" fill="#00B8C5"/>
<path fill-rule="evenodd" clip-rule="evenodd" d="M17.9465 2.07846C18.0703 2.57323 17.7695 3.07468 17.2748 3.19847C15.3388 3.68284 13.5179 4.45838 11.8612 5.47619C11.4267 5.74316 10.8579 5.60731 10.591 5.17274C10.324 4.73818 10.4598 4.16947 10.8944 3.90249C12.709 2.7877 14.7043 1.93769 16.8265 1.40674C17.3212 1.28295 17.8227 1.58369 17.9465 2.07846ZM30.2754 3.43014C30.5042 2.97433 31.0592 2.79033 31.515 3.01915C38.4649 6.50811 43.2378 13.7021 43.2378 22.0125C43.2378 33.7431 33.7283 43.2525 21.9978 43.2525C10.2673 43.2525 0.757812 33.7431 0.757812 22.0125C0.757812 15.8449 3.38783 10.2901 7.58479 6.41105C7.95934 6.06488 8.5436 6.08787 8.88978 6.46242C9.23596 6.83697 9.21296 7.42123 8.83841 7.7674C5.00383 11.3115 2.60477 16.3812 2.60477 22.0125C2.60477 32.723 11.2873 41.4056 21.9978 41.4056C32.7083 41.4056 41.3909 32.723 41.3909 22.0125C41.3909 14.4273 37.0362 7.85753 30.6863 4.66978C30.2305 4.44096 30.0465 3.88596 30.2754 3.43014Z" fill="#008193"/>
<circle cx="21.3358" cy="1.69514" r="1.18733" fill="#008193"/>
</svg>
