<svg width="100" height="100" viewBox="0 0 100 100" fill="none" xmlns="http://www.w3.org/2000/svg">
<path d="M21.7604 46.5176L24.2937 39L53.4258 40.9059L86.0124 39L90.8485 47.8941L92 57.9529L90.8485 64.8353L84.8609 66H21.7604L18.4212 63.8824L17.5 56.4706V50.6471L21.7604 46.5176Z" fill="#E2F1F3"/>
<path d="M61.25 28.8396C61.25 27.6855 62.181 26.75 63.3294 26.75H78.1974L83.5 40.0187L61.25 40.75V28.8396Z" fill="#00B8C5"/>
<path d="M45.25 57.0448C45.25 54.5348 46.9933 52.5 49.1437 52.5H78.125C79.2131 52.5 81.8192 57.1788 83.9094 58.0187C85.9501 58.8386 89.75 55.8048 89.75 57.0448V62.4552C89.75 64.9652 88.0067 67 85.8563 67H45.25V57.0448Z" fill="#00B8C5"/>
<rect x="15.25" y="77.5" width="77.75" height="3.5" rx="1.75" fill="#008193"/>
<rect x="6.5" y="77.5" width="3.25" height="3.5" rx="1.625" fill="#008193"/>
<path fill-rule="evenodd" clip-rule="evenodd" d="M89.5 52.5V62.3889C89.5 64.2445 87.9949 65.75 86.1369 65.75H24.1131C22.2551 65.75 20.75 64.2445 20.75 62.3889V52.7222H17.25V62.3889C17.25 65.0582 18.7746 67.371 21.0004 68.5053C21.0001 68.5174 21 68.5295 21 68.5417V75.7083C21 76.6978 21.7945 77.5 22.7746 77.5H34.9754C35.9555 77.5 36.75 76.6978 36.75 75.7083V69.25H73.5V75.7083C73.5 76.6978 74.2945 77.5 75.2746 77.5H87.4753C88.4555 77.5 89.25 76.6978 89.25 75.7083V68.5417C89.25 68.5295 89.2499 68.5174 89.2496 68.5053C91.4754 67.371 93 65.0582 93 62.3889V52.5H89.5Z" fill="#008193"/>
<path fill-rule="evenodd" clip-rule="evenodd" d="M25.25 48.25C22.7647 48.25 20.75 50.2647 20.75 52.75C20.75 55.2353 22.7647 57.25 25.25 57.25C27.7353 57.25 29.75 55.2353 29.75 52.75C29.75 50.2647 27.7353 48.25 25.25 48.25ZM17.25 52.75C17.25 48.3317 20.8317 44.75 25.25 44.75C29.6683 44.75 33.25 48.3317 33.25 52.75C33.25 57.1683 29.6683 60.75 25.25 60.75C20.8317 60.75 17.25 57.1683 17.25 52.75Z" fill="#008193"/>
<path fill-rule="evenodd" clip-rule="evenodd" d="M85 48.25C82.5147 48.25 80.5 50.2647 80.5 52.75C80.5 55.2353 82.5147 57.25 85 57.25C87.4853 57.25 89.5 55.2353 89.5 52.75C89.5 50.2647 87.4853 48.25 85 48.25ZM77 52.75C77 48.3317 80.5817 44.75 85 44.75C89.4183 44.75 93 48.3317 93 52.75C93 57.1683 89.4183 60.75 85 60.75C80.5817 60.75 77 57.1683 77 52.75Z" fill="#008193"/>
<path fill-rule="evenodd" clip-rule="evenodd" d="M17.512 38.2972C17.624 37.3372 18.493 36.6498 19.453 36.7618L19.4089 37.1395C19.453 36.7618 19.453 36.7618 19.453 36.7618L19.5061 36.7679C19.5421 36.7721 19.5963 36.7783 19.668 36.7864C19.8114 36.8027 20.0246 36.8266 20.3025 36.8572C20.8582 36.9182 21.6721 37.0056 22.7017 37.1106C24.761 37.3206 27.6816 37.6007 31.1228 37.8808C38.0121 38.4416 46.959 39 55.2502 39C63.5413 39 72.4882 38.4416 79.3775 37.8808C82.8187 37.6007 85.7394 37.3206 87.7987 37.1106C88.8282 37.0056 89.6421 36.9182 90.1979 36.8572C90.4757 36.8266 90.689 36.8027 90.8323 36.7864C90.904 36.7783 90.9582 36.7721 90.9943 36.7679L91.0473 36.7618C92.0073 36.6498 92.8764 37.3372 92.9884 38.2972C93.1004 39.2572 92.413 40.1262 91.453 40.2382L91.2953 38.8866C91.453 40.2382 91.4528 40.2382 91.4526 40.2383L91.3944 40.245C91.3565 40.2494 91.3004 40.2558 91.2268 40.2641C91.0795 40.2808 90.8622 40.3052 90.5801 40.3362C90.0161 40.3982 89.193 40.4866 88.1537 40.5926C86.0752 40.8045 83.1305 41.0869 79.6615 41.3693C72.7304 41.9335 63.6773 42.5 55.2502 42.5C46.823 42.5 37.7699 41.9335 30.8388 41.3693C27.3698 41.0869 24.4251 40.8045 22.3467 40.5926C21.3073 40.4866 20.4842 40.3982 19.9202 40.3362C19.6381 40.3052 19.4208 40.2808 19.2736 40.2641C19.2 40.2558 19.1438 40.2494 19.1059 40.245L19.0477 40.2383C19.0475 40.2382 19.0473 40.2382 19.2502 38.5L19.0473 40.2382C18.0873 40.1262 17.3999 39.2572 17.512 38.2972Z" fill="#008193"/>
<path fill-rule="evenodd" clip-rule="evenodd" d="M29.2547 24.8847C31.1322 20.2687 35.6188 17.25 40.602 17.25H69.6822C74.6109 17.25 79.0596 20.2038 80.9722 24.7463L87.1089 39.3209L83.8832 40.6791L77.7465 26.1045C76.3803 22.8599 73.2027 20.75 69.6822 20.75H40.602C37.0425 20.75 33.8378 22.9062 32.4968 26.2033L26.6171 40.6593L23.375 39.3407L29.2547 24.8847Z" fill="#008193"/>
</svg>
