<svg width="480" height="20" viewBox="0 0 480 20" fill="none" xmlns="http://www.w3.org/2000/svg">
<path d="M15.8526 18.474C20.4526 18.474 24.1817 14.3466 24.1817 9.25523C24.1817 4.16387 20.4526 0.036499 15.8526 0.036499C11.2525 0.036499 7.52344 4.16387 7.52344 9.25523C7.52344 14.3466 11.2525 18.474 15.8526 18.474Z" fill="#00B8C5"/>
<path d="M7.33405 15.4138C11.3845 15.4138 14.6681 11.9633 14.6681 7.70688C14.6681 3.45049 11.3845 0 7.33405 0C3.28356 0 0 3.45049 0 7.70688C0 11.9633 3.28356 15.4138 7.33405 15.4138Z" fill="#FFA745"/>
<path d="M126.612 2.34889C127.423 0.136382 130.113 1.09514 130.961 2.6439C131.256 3.16015 131.403 3.75014 131.477 4.34015C131.624 5.4464 131.514 5.8889 130.556 6.55265C129.524 7.58516 129.266 7.17953 129.818 5.33578C130.076 5.22515 130.371 5.11453 130.629 5.0039C131.329 4.81953 132.14 4.8564 132.841 5.07765C134.61 5.66765 135.494 7.54829 135.236 9.28142C135.162 9.72392 135.605 10.1664 136.047 9.90829C138.442 8.54391 141.612 10.0558 142.165 12.7477C142.312 13.4483 143.381 13.1533 143.233 12.4527C142.533 9.06016 138.516 7.29016 135.494 8.98641C135.752 9.20767 136.047 9.39205 136.305 9.6133C136.784 6.36828 134.315 3.34452 130.887 3.86077C129.708 4.04515 127.939 4.78265 127.791 6.1839C127.681 7.32703 128.75 8.17516 129.818 8.28579C132.988 8.58079 132.914 3.97139 131.882 2.12764C130.482 -0.379872 126.612 -1.00674 125.506 2.09077C125.285 2.71765 126.354 3.01264 126.612 2.34889Z" fill="#00B8C5"/>
<path d="M248.62 0.561993C247.81 -0.728635 246.483 0.488247 245.93 1.37325C244.788 3.217 244.05 5.50325 244.898 7.60513C245.525 9.19076 247.073 10.5183 248.878 10.2601C250.537 10.0389 251.79 8.67451 251.753 7.01513C251.753 6.57263 251.127 6.24075 250.795 6.6095C248.842 9.08013 246.446 12.5833 248.399 15.7545C249.763 17.9302 253.117 18.2252 254.443 15.8651C254.112 15.8283 253.78 15.7914 253.448 15.7176C253.633 16.7502 253.817 17.7826 253.964 18.8152C254.075 19.5158 255.144 19.2208 255.033 18.5202C254.849 17.4877 254.665 16.4552 254.517 15.4227C254.443 14.9433 253.706 14.9064 253.522 15.2751C252.932 16.3076 251.606 16.6764 250.537 16.1602C249.358 15.5702 248.842 14.2426 248.842 12.952C248.842 10.8133 250.353 8.93263 251.606 7.347C251.274 7.1995 250.979 7.08889 250.647 6.94139C250.684 8.34264 249.321 9.37514 247.957 9.08014C246.925 8.85889 246.262 7.97388 245.893 7.01513C245.525 6.0195 245.561 5.02387 245.856 4.02825C245.893 3.9545 247.404 0.672625 247.625 1.04138C248.031 1.70513 248.989 1.15199 248.62 0.561993Z" fill="#00B8C5"/>
<path d="M361.311 10.62C364.059 10.62 366.287 8.24263 366.287 5.31C366.287 2.37737 364.059 0 361.311 0C358.563 0 356.336 2.37737 356.336 5.31C356.336 8.24263 358.563 10.62 361.311 10.62Z" fill="#FFA745"/>
<path d="M473.809 18.8761C477.228 18.8761 480 16.2015 480 12.9023C480 9.60313 477.228 6.92859 473.809 6.92859C470.389 6.92859 467.617 9.60313 467.617 12.9023C467.617 16.2015 470.389 18.8761 473.809 18.8761Z" fill="#00B8C5"/>
<path d="M472.111 9.44007C474.615 9.44007 476.644 7.32682 476.644 4.72002C476.644 2.11322 474.615 0 472.111 0C469.608 0 467.578 2.11322 467.578 4.72002C467.578 7.32682 469.608 9.44007 472.111 9.44007Z" fill="#FFA745"/>
</svg>
