<svg width="81" height="81" viewBox="0 0 81 81" fill="none" xmlns="http://www.w3.org/2000/svg">
<path d="M65.2984 8.38672C70.6004 8.38672 74.8984 12.6848 74.8984 17.9867V33.9867C74.8984 38.704 71.496 42.6266 67.0113 43.4344C66.4991 43.5266 66.0984 43.9543 66.0984 44.4748V50.1965C66.0984 51.084 64.9826 51.5839 64.2855 51.0347C61.2626 48.6535 55.6382 44.9085 50.6169 43.6168C50.5377 43.5964 50.4571 43.5867 50.3753 43.5867H38.0984C32.7965 43.5867 28.4984 39.2887 28.4984 33.9867V17.9867C28.4984 12.6848 32.7965 8.38672 38.0984 8.38672H65.2984Z" fill="#00B8C5"/>
<path d="M14.8969 28.1875C9.59494 28.1875 5.29688 32.4856 5.29688 37.7875V53.7875C5.29688 58.7573 9.07324 62.845 13.913 63.3377C14.0165 63.3482 14.0969 63.4347 14.0969 63.5388V71.9095C14.0969 72.087 14.3112 72.1814 14.4427 72.0622C16.6885 70.0265 23.6331 64.9123 29.6732 63.3934C29.6891 63.3895 29.7051 63.3875 29.7215 63.3875H42.0969C47.3988 63.3875 51.6969 59.0894 51.6969 53.7875V37.7875C51.6969 32.4856 47.3988 28.1875 42.0969 28.1875H14.8969Z" fill="#E2F1F3"/>
<path fill-rule="evenodd" clip-rule="evenodd" d="M14.8984 29.5891C10.3697 29.5891 6.69844 33.2603 6.69844 37.7891V53.7891C6.69844 58.0332 9.92389 61.5258 14.0563 61.9465C14.8532 62.0276 15.4984 62.6969 15.4984 63.5404V69.3849C16.703 68.4606 18.2186 67.3901 19.8976 66.3465C22.7205 64.5919 26.1092 62.848 29.3333 62.0373C29.4632 62.0046 29.5941 61.9891 29.7231 61.9891H42.0984C46.6272 61.9891 50.2984 58.3178 50.2984 53.7891V37.7891C50.2984 33.2603 46.6272 29.5891 42.0984 29.5891H14.8984ZM3.89844 37.7891C3.89844 31.7139 8.82331 26.7891 14.8984 26.7891H42.0984C48.1736 26.7891 53.0984 31.7139 53.0984 37.7891V53.7891C53.0984 59.8642 48.1736 64.7891 42.0984 64.7891H29.8743C27.0963 65.5136 24.051 67.0618 21.3757 68.7246C18.6643 70.4099 16.4361 72.1478 15.3845 73.101C14.3588 74.0307 12.6984 73.3106 12.6984 71.911V64.5688C7.67697 63.549 3.89844 59.1111 3.89844 53.7891V37.7891Z" fill="#008193"/>
<path fill-rule="evenodd" clip-rule="evenodd" d="M66.1016 9.78828C70.6303 9.78828 74.3016 13.4595 74.3016 17.9883V33.9883C74.3016 38.2324 71.0761 41.725 66.9437 42.1457C66.1468 42.2268 65.5016 42.8961 65.5016 43.7396V49.5842C63.4733 48.0279 60.5518 46.0477 57.4317 44.475C56.7413 44.1269 55.8994 44.4045 55.5514 45.095C55.2034 45.7854 55.481 46.6273 56.1714 46.9753C60.3245 49.0687 64.1211 51.9458 65.6149 53.2997C66.6314 54.221 68.3016 53.5221 68.3016 52.1103V44.768C73.323 43.7483 77.1016 39.3103 77.1016 33.9883V17.9883C77.1016 11.9131 72.1767 6.98828 66.1016 6.98828H38.9016C32.8264 6.98828 27.9016 11.9132 27.9016 17.9883V23.2883C27.9016 24.0615 28.5284 24.6883 29.3016 24.6883C30.0748 24.6883 30.7016 24.0615 30.7016 23.2883V17.9883C30.7016 13.4595 34.3728 9.78828 38.9016 9.78828H66.1016Z" fill="#008193"/>
</svg>
