<svg width="180" height="52" viewBox="0 0 180 52" fill="none" xmlns="http://www.w3.org/2000/svg">
<path d="M173.095 52H6.6575C2.99754 52 0 49.0734 0 45.5V6.5C0 2.92663 2.99754 2.74817e-06 6.6575 2.74817e-06H173.095C176.755 2.74817e-06 179.753 2.92663 179.753 6.5V45.5C179.753 49.0734 176.755 52 173.095 52Z" fill="black"/>
<path d="M173.095 1.04162C176.177 1.04162 178.686 3.4905 178.686 6.5V45.5C178.686 48.5095 176.177 50.9584 173.095 50.9584H6.6575C3.57508 50.9584 1.06686 48.5095 1.06686 45.5V6.5C1.06686 3.4905 3.57508 1.04162 6.6575 1.04162H173.095ZM173.095 2.74817e-06H6.6575C2.99754 2.74817e-06 0 2.92663 0 6.5V45.5C0 49.0734 2.99754 52 6.6575 52H173.095C176.755 52 179.753 49.0734 179.753 45.5V6.5C179.753 2.92663 176.755 2.74817e-06 173.095 2.74817e-06Z" fill="#A6A6A6"/>
<path d="M63.1361 13.3142C63.1361 14.3997 62.8032 15.2691 62.1475 15.9175C61.3935 16.6861 60.4115 17.0729 59.2082 17.0729C58.0581 17.0729 57.0761 16.6796 56.2705 15.9045C55.4633 15.118 55.0605 14.1527 55.0605 12.9974C55.0605 11.842 55.4633 10.8768 56.2705 10.0968C57.0761 9.31513 58.0581 8.92188 59.2082 8.92188C59.7807 8.92188 60.3266 9.03725 60.8476 9.25175C61.3669 9.46788 61.7896 9.76037 62.0959 10.1211L61.4002 10.8069C60.8659 10.191 60.1386 9.88713 59.2082 9.88713C58.3693 9.88713 57.642 10.1731 57.0245 10.75C56.4137 11.3285 56.1074 12.0776 56.1074 12.9974C56.1074 13.9171 56.4137 14.6727 57.0245 15.2512C57.642 15.8216 58.3693 16.1141 59.2082 16.1141C60.0986 16.1141 60.8476 15.8216 61.4384 15.2447C61.8279 14.8629 62.0493 14.3364 62.1075 13.6636H59.2082V12.7244H63.0762C63.1228 12.9275 63.1361 13.1241 63.1361 13.3142Z" fill="white" stroke="white" stroke-width="0.16" stroke-miterlimit="10"/>
<path d="M69.2732 10.0587H65.6399V12.5287H68.9154V13.4679H65.6399V15.9379H69.2732V16.8951H64.6113V9.10156H69.2732V10.0587Z" fill="white" stroke="white" stroke-width="0.16" stroke-miterlimit="10"/>
<path d="M73.6039 16.8951H72.5753V10.0587H70.3467V9.10156H75.8341V10.0587H73.6039V16.8951Z" fill="white" stroke="white" stroke-width="0.16" stroke-miterlimit="10"/>
<path d="M79.8047 16.8951V9.10156H80.8316V16.8951H79.8047Z" fill="white" stroke="white" stroke-width="0.16" stroke-miterlimit="10"/>
<path d="M85.3841 16.8951H84.3639V10.0587H82.127V9.10156H87.621V10.0587H85.3841V16.8951Z" fill="white" stroke="white" stroke-width="0.16" stroke-miterlimit="10"/>
<path d="M98.0099 15.8915C97.2227 16.6796 96.2474 17.0729 95.084 17.0729C93.9139 17.0729 92.9386 16.6796 92.1513 15.8915C91.3657 15.105 90.9746 14.1397 90.9746 12.9974C90.9746 11.855 91.3657 10.8897 92.1513 10.1033C92.9386 9.31513 93.9139 8.92188 95.084 8.92188C96.2407 8.92188 97.216 9.31512 98.0033 10.1097C98.7955 10.9027 99.1866 11.8615 99.1866 12.9974C99.1866 14.1397 98.7955 15.105 98.0099 15.8915ZM92.9119 15.2382C93.5045 15.8216 94.2251 16.1141 95.084 16.1141C95.9361 16.1141 96.6634 15.8216 97.2493 15.2382C97.8402 14.6549 98.1397 13.9057 98.1397 12.9974C98.1397 12.089 97.8402 11.3399 97.2493 10.7565C96.6634 10.1731 95.9361 9.88062 95.084 9.88062C94.2251 9.88062 93.5045 10.1731 92.9119 10.7565C92.3211 11.3399 92.0215 12.089 92.0215 12.9974C92.0215 13.9057 92.3211 14.6549 92.9119 15.2382Z" fill="white" stroke="white" stroke-width="0.16" stroke-miterlimit="10"/>
<path d="M100.63 16.8951V9.10156H101.878L105.759 15.1628H105.804L105.759 13.6646V9.10156H106.786V16.8951H105.715L101.65 10.5348H101.605L101.65 12.0396V16.8951H100.63Z" fill="white" stroke="white" stroke-width="0.16" stroke-miterlimit="10"/>
<path d="M90.7215 28.2744C87.5942 28.2744 85.0394 30.5981 85.0394 33.8043C85.0394 36.9844 87.5942 39.3325 90.7215 39.3325C93.8555 39.3325 96.4104 36.9844 96.4104 33.8043C96.4104 30.5981 93.8555 28.2744 90.7215 28.2744ZM90.7215 37.155C89.0056 37.155 87.5293 35.7721 87.5293 33.8043C87.5293 31.8104 89.0056 30.4519 90.7215 30.4519C92.4375 30.4519 93.9205 31.8104 93.9205 33.8043C93.9205 35.7721 92.4375 37.155 90.7215 37.155ZM78.3236 28.2744C75.1896 28.2744 72.6414 30.5981 72.6414 33.8043C72.6414 36.9844 75.1896 39.3325 78.3236 39.3325C81.4559 39.3325 84.0058 36.9844 84.0058 33.8043C84.0058 30.5981 81.4559 28.2744 78.3236 28.2744ZM78.3236 37.155C76.606 37.155 75.1247 35.7721 75.1247 33.8043C75.1247 31.8104 76.606 30.4519 78.3236 30.4519C80.0396 30.4519 81.5159 31.8104 81.5159 33.8043C81.5159 35.7721 80.0396 37.155 78.3236 37.155ZM63.5706 29.9693V32.319H69.3177C69.1496 33.632 68.7002 34.5973 68.0111 35.27C67.1723 36.0825 65.8657 36.9844 63.5706 36.9844C60.0338 36.9844 57.2643 34.1975 57.2643 30.7444C57.2643 27.2913 60.0338 24.5044 63.5706 24.5044C65.4829 24.5044 66.8744 25.234 67.9013 26.1798L69.5973 24.5239C68.1609 23.1849 66.2502 22.1563 63.5706 22.1563C58.7206 22.1563 54.6445 26.0091 54.6445 30.7444C54.6445 35.4796 58.7206 39.3325 63.5706 39.3325C66.192 39.3325 68.1609 38.494 69.7088 36.921C71.2949 35.3724 71.7893 33.1949 71.7893 31.4366C71.7893 30.8906 71.7427 30.3885 71.6594 29.9693H63.5706ZM123.898 31.7909C123.43 30.5543 121.987 28.2744 119.048 28.2744C116.135 28.2744 113.71 30.5153 113.71 33.8043C113.71 36.9015 116.11 39.3325 119.327 39.3325C121.929 39.3325 123.43 37.7839 124.047 36.882L122.117 35.6259C121.473 36.5456 120.595 37.155 119.327 37.155C118.067 37.155 117.163 36.5911 116.584 35.4796L124.159 32.4198L123.898 31.7909ZM116.175 33.632C116.11 31.5 117.871 30.408 119.132 30.408C120.121 30.408 120.96 30.8906 121.24 31.5813L116.175 33.632ZM110.018 38.9961H112.508V22.7461H110.018V38.9961ZM105.941 29.5061H105.857C105.298 28.8594 104.231 28.2744 102.88 28.2744C100.044 28.2744 97.4506 30.7054 97.4506 33.8221C97.4506 36.921 100.044 39.3325 102.88 39.3325C104.231 39.3325 105.298 38.7426 105.857 38.0764H105.941V38.8694C105.941 40.9835 104.784 42.1194 102.918 42.1194C101.397 42.1194 100.453 41.0469 100.064 40.145L97.8983 41.0274C98.5225 42.4931 100.175 44.2969 102.918 44.2969C105.837 44.2969 108.301 42.6199 108.301 38.5395V28.6108H105.941V29.5061ZM103.093 37.155C101.377 37.155 99.9405 35.7526 99.9405 33.8221C99.9405 31.8738 101.377 30.4519 103.093 30.4519C104.784 30.4519 106.117 31.8738 106.117 33.8221C106.117 35.7526 104.784 37.155 103.093 37.155ZM135.555 22.7461H129.6V38.9961H132.083V32.839H135.555C138.313 32.839 141.017 30.8906 141.017 27.7918C141.017 24.6945 138.306 22.7461 135.555 22.7461ZM135.62 30.5786H132.083V25.0065H135.62C137.474 25.0065 138.532 26.5096 138.532 27.7918C138.532 29.0495 137.474 30.5786 135.62 30.5786ZM150.97 28.2435C149.176 28.2435 147.31 29.017 146.543 30.7314L148.747 31.6333C149.221 30.7314 150.093 30.4389 151.015 30.4389C152.303 30.4389 153.61 31.1945 153.63 32.5286V32.6993C153.181 32.4458 152.219 32.0704 151.035 32.0704C148.662 32.0704 146.243 33.346 146.243 35.7266C146.243 37.9041 148.187 39.3065 150.373 39.3065C152.044 39.3065 152.966 38.5704 153.545 37.714H153.63V38.9701H156.028V32.7366C156.028 29.8555 153.825 28.2435 150.97 28.2435ZM150.671 37.1485C149.858 37.1485 148.727 36.7553 148.727 35.7721C148.727 34.5144 150.138 34.0318 151.36 34.0318C152.453 34.0318 152.966 34.2674 153.63 34.5778C153.435 36.0825 152.109 37.1485 150.671 37.1485ZM164.766 28.5994L161.912 35.6438H161.827L158.876 28.5994H156.198L160.632 38.4436L158.102 43.9215H160.697L167.529 28.5994H164.766ZM142.382 38.9961H144.872V22.7461H142.382V38.9961Z" fill="white"/>
<path d="M13.8938 9.80337C13.5027 10.2031 13.2764 10.8255 13.2764 11.6315V40.381C13.2764 41.187 13.5027 41.8094 13.8938 42.2091L13.9904 42.2969L30.491 26.1931V25.8129L13.9904 9.70913L13.8938 9.80337Z" fill="url(#paint0_linear_19852_264452)"/>
<path d="M35.9853 31.5625L30.4912 26.1919V25.8116L35.992 20.441L36.1151 20.5109L42.6295 24.1298C44.4886 25.1567 44.4886 26.8468 42.6295 27.8803L36.1151 31.4926L35.9853 31.5625Z" fill="url(#paint1_linear_19852_264452)"/>
<path d="M36.1156 31.4883L30.4917 25.9974L13.8945 42.2035C14.512 42.8373 15.519 42.9137 16.6641 42.2799L36.1156 31.4883Z" fill="url(#paint2_linear_19852_264452)"/>
<path d="M36.1156 20.5091L16.6641 9.71751C15.519 9.09025 14.512 9.16663 13.8945 9.80038L30.4917 26L36.1156 20.5091Z" fill="url(#paint3_linear_19852_264452)"/>
<defs>
<linearGradient id="paint0_linear_19852_264452" x1="29.0259" y1="40.6804" x2="7.21508" y2="18.341" gradientUnits="userSpaceOnUse">
<stop stop-color="#00A0FF"/>
<stop offset="0.0066" stop-color="#00A1FF"/>
<stop offset="0.2601" stop-color="#00BEFF"/>
<stop offset="0.5122" stop-color="#00D2FF"/>
<stop offset="0.7604" stop-color="#00DFFF"/>
<stop offset="1" stop-color="#00E3FF"/>
</linearGradient>
<linearGradient id="paint1_linear_19852_264452" x1="45.0504" y1="25.9999" x2="12.8322" y2="25.9999" gradientUnits="userSpaceOnUse">
<stop stop-color="#FFE000"/>
<stop offset="0.4087" stop-color="#FFBD00"/>
<stop offset="0.7754" stop-color="#FFA500"/>
<stop offset="1" stop-color="#FF9C00"/>
</linearGradient>
<linearGradient id="paint2_linear_19852_264452" x1="33.0575" y1="23.0125" x2="3.48018" y2="-7.28153" gradientUnits="userSpaceOnUse">
<stop stop-color="#FF3A44"/>
<stop offset="1" stop-color="#C31162"/>
</linearGradient>
<linearGradient id="paint3_linear_19852_264452" x1="9.71668" y1="51.7709" x2="22.9243" y2="38.2434" gradientUnits="userSpaceOnUse">
<stop stop-color="#32A071"/>
<stop offset="0.0685" stop-color="#2DA771"/>
<stop offset="0.4762" stop-color="#15CF74"/>
<stop offset="0.8009" stop-color="#06E775"/>
<stop offset="1" stop-color="#00F076"/>
</linearGradient>
</defs>
</svg>
