<svg width="448" height="376" viewBox="0 0 448 376" fill="none" xmlns="http://www.w3.org/2000/svg">
<g clip-path="url(#clip0_1167_84836)">
<path fill-rule="evenodd" clip-rule="evenodd" d="M309.742 310.465C355.611 291.666 387.992 245.916 387.992 192.462C387.992 122.242 332.115 65.3184 263.187 65.3184C194.259 65.3184 138.381 122.242 138.381 192.462C138.381 228.457 153.064 260.958 176.661 284.089C184.343 279.539 193.568 276.347 204.143 276.347C220.664 276.347 230.032 281.524 241.795 288.025C254.614 295.11 270.277 303.766 301.141 309.006C304.104 309.509 306.97 309.995 309.742 310.465Z" fill="#E2F1F3"/>
<path d="M430.472 249.269C433.337 258.663 435.486 268.24 436.829 278C437.5 282.925 437.993 287.942 438.217 292.913C438.306 294.19 438.351 295.513 438.396 296.79C438.44 297.565 438.217 298.842 438.485 299.572C438.754 300.256 439.694 300.712 440.231 301.168C441.171 301.943 442.111 302.718 443.007 303.494C443.051 303.129 443.096 302.764 443.141 302.399C441.887 303.174 440.679 303.539 439.201 303.585C438.888 303.585 438.664 303.813 438.575 304.086C437.276 308.191 438.217 312.524 441.126 315.716C441.305 315.305 441.44 314.941 441.619 314.53C436.963 314.348 436.874 319.82 437.321 323.195C437.948 327.893 438.843 332.59 440.142 337.151C442.738 346.089 447.08 354.572 454.198 360.683C454.87 361.23 455.81 360.273 455.139 359.725C449.14 354.572 445.111 347.64 442.514 340.115C441.305 336.558 440.365 332.909 439.649 329.261C439.067 326.205 436.157 315.716 441.619 315.898C442.246 315.944 442.469 315.169 442.111 314.713C439.56 311.885 438.754 308.054 439.918 304.451C439.694 304.634 439.47 304.771 439.291 304.953C440.992 304.953 442.425 304.543 443.902 303.585C444.215 303.357 444.394 302.81 444.036 302.49C442.38 301.122 440.097 299.936 439.828 297.656C439.56 295.239 439.649 292.731 439.47 290.314C439.157 285.799 438.709 281.284 438.037 276.769C436.694 267.328 434.59 258.025 431.815 248.904C431.502 248.037 430.203 248.402 430.472 249.269Z" fill="#F5F5F5"/>
<path d="M432.663 251.32C430.828 248.857 434.275 247.033 436.29 247.535C438.304 248.082 439.96 249.724 441.348 251.183C443.9 253.828 445.914 256.929 447.66 260.167C451.286 266.826 454.331 273.94 457.017 281.009C462.523 295.557 466.328 310.79 468.343 326.204C469.462 334.961 470.044 343.763 470.044 352.564C470.044 353.431 471.387 353.431 471.387 352.564C471.387 334.231 468.925 315.943 464.09 298.339C461.717 289.765 458.807 281.374 455.36 273.165C452.182 265.595 448.78 257.477 443.318 251.274C441.124 248.766 437.409 244.89 433.738 246.212C431.499 246.987 430.022 249.906 431.544 252.004C432.037 252.688 433.201 252.05 432.663 251.32Z" fill="#F5F5F5"/>
<path d="M441.662 262.904C452.54 292.228 459.031 323.149 460.956 354.434C461.001 355.301 462.344 355.301 462.299 354.434C460.374 323.012 453.883 292 442.96 262.539C442.647 261.764 441.348 262.083 441.662 262.904Z" fill="#F5F5F5"/>
<path d="M-124.011 248.219C-96.7031 243.248 -68.4998 243.522 -41.2815 249.04C-27.8066 251.776 -14.6003 255.744 -1.88648 260.943C11.4093 266.37 24.1679 272.892 37.1951 278.912C86.3494 301.623 138.951 316.491 192.537 322.967C222.934 326.661 253.644 327.619 284.175 325.886C285.026 325.84 285.026 324.472 284.175 324.517C229.38 327.664 174.182 321.963 121.089 307.78C94.4522 300.666 68.353 291.408 43.1492 280.143C30.0772 274.306 17.3186 267.738 4.20184 262.038C-8.33293 256.611 -21.2706 252.232 -34.5217 249.131C-63.9336 242.29 -94.6438 241.515 -124.369 246.942C-125.22 247.033 -124.862 248.356 -124.011 248.219Z" fill="#F5F5F5"/>
<path d="M119.523 306.776C144.995 308.099 169.572 298.75 193.522 291.27C218.592 283.472 243.751 275.901 268.955 268.513C294.024 261.171 319.094 253.463 344.566 247.58C369.949 241.743 395.825 238.961 421.834 238.185C450.799 237.273 479.763 238.596 508.682 239.964C509.533 240.01 509.533 238.641 508.682 238.596C457.603 236.224 405.853 233.898 355.355 243.886C329.749 248.948 304.679 256.701 279.609 263.952C254.406 271.295 229.247 278.82 204.132 286.527C190.21 290.814 176.332 295.466 162.32 299.388C148.353 303.31 134.027 306.138 119.478 305.408C118.672 305.362 118.672 306.731 119.523 306.776Z" fill="#F5F5F5"/>
<path d="M10.8252 259.986C28.5082 265.185 46.8626 261.582 64.5009 258.116C83.3925 254.422 102.463 251.914 121.713 251.138C159.855 249.679 197.772 255.243 235.78 256.793C256.82 257.66 277.95 257.158 298.722 253.647C299.573 253.51 299.214 252.187 298.364 252.324C260.983 258.663 223.021 254.878 185.506 252.005C166.749 250.545 147.947 249.314 129.1 249.633C110.432 249.953 91.764 251.777 73.32 255.106C52.9062 258.754 31.6866 264.774 11.1385 258.709C10.3327 258.435 9.9746 259.758 10.8252 259.986Z" fill="#F5F5F5"/>
<path d="M90.0624 347.867C95.7925 345.45 101.97 344.219 108.193 344.401C113.968 344.584 119.161 346.499 124.757 347.685C128.92 348.597 133.083 348.597 136.441 345.587C137.739 344.447 138.858 343.261 140.739 343.854C142.126 344.264 143.29 345.222 144.589 345.815C146.111 346.545 147.678 346.818 149.289 346.499C153.139 345.724 156.049 342.486 159.406 340.616C165.092 337.515 170.553 341.665 176.105 343.17C187.654 346.317 200.01 345.359 211.829 345.222C226.378 345.085 240.972 345.177 255.432 343.352C256.282 343.261 256.282 341.893 255.432 341.984C242.449 343.58 229.333 343.672 216.261 343.808C203.815 343.945 190.654 345.131 178.388 342.303C175.523 341.665 172.837 340.707 170.106 339.567C167.733 338.564 165.271 337.606 162.674 337.971C158.601 338.518 155.557 341.802 152.109 343.808C150.319 344.857 148.349 345.587 146.29 344.994C144.051 344.31 142.216 342.303 139.754 342.212C137.426 342.167 136.307 344.082 134.606 345.313C132.233 347.001 129.234 347.046 126.458 346.59C120.549 345.633 115.042 343.307 108.999 343.033C102.418 342.714 95.8373 343.945 89.7042 346.545C88.8984 346.864 89.2566 348.186 90.0624 347.867Z" fill="#F5F5F5"/>
<path d="M118.624 307.187C119.43 307.324 120.191 307.506 120.997 307.643C121.847 307.825 122.161 306.64 121.355 306.32C120.862 306.138 120.37 305.955 119.833 305.773C119.116 305.499 118.624 306.685 119.296 307.004C123.414 309.193 127.712 310.927 132.188 312.158C133.039 312.386 133.397 311.063 132.547 310.835C128.159 309.65 123.996 307.962 119.967 305.819C119.788 306.229 119.609 306.64 119.43 307.05C119.922 307.232 120.415 307.415 120.952 307.597C121.086 307.141 121.176 306.731 121.31 306.275C120.504 306.138 119.743 305.956 118.937 305.819C118.132 305.682 117.773 307.004 118.624 307.187Z" fill="#F5F5F5"/>
<path d="M58.4579 370.396C57.473 369.211 56.5777 367.979 55.8166 366.611C55.4585 365.927 55.0108 365.197 54.787 364.422C54.4736 363.92 54.4288 363.327 54.6079 362.735C54.4736 362.096 54.6527 361.594 55.1003 361.23C55.7718 359.36 54.966 357.399 54.5184 355.483C53.8469 352.473 53.1754 349.463 52.5039 346.453C52.1457 344.857 51.7876 343.307 51.4742 341.71C51.2951 340.981 51.1608 340.297 50.9818 339.567C50.7132 338.29 50.4446 337.697 51.3847 336.648C51.8323 335.69 52.5039 335.508 53.3992 336.238C53.8021 336.648 54.205 337.059 54.6079 337.469C55.0556 338.062 55.3689 338.746 55.7271 339.385C56.3538 340.57 56.9806 341.756 57.5625 342.942C58.9503 345.769 60.159 348.688 61.1887 351.652C63.1584 357.216 64.5014 362.963 65.3072 368.846C65.5311 368.572 65.7549 368.253 65.934 367.979C66.0235 368.07 66.0683 368.207 66.1578 368.298C66.3816 367.432 65.0834 367.067 64.8595 367.934C64.6805 368.755 65.0834 369.347 65.934 369.347C66.4264 369.347 66.6503 368.937 66.5607 368.481C65.5311 360.956 63.6061 353.613 60.6515 346.636C59.2637 343.352 57.7864 339.704 55.7271 336.785C54.6079 335.189 52.5934 333.729 50.6684 334.87C48.4748 336.147 49.5045 339.293 49.9521 341.254C50.8475 345.268 51.7428 349.281 52.5934 353.294C52.9963 355.21 53.8469 357.353 53.9364 359.314C53.9812 360.91 52.6829 361.64 52.9068 363.236C53.3544 366.201 55.548 369.211 57.3835 371.4C58.055 371.993 58.9951 371.035 58.4579 370.396Z" fill="#F5F5F5"/>
<path d="M62.576 350.785C61.9045 346.681 61.994 342.485 62.9341 338.426C63.1579 337.377 63.4713 336.374 63.8294 335.37C64.4562 333.637 65.3515 333.82 66.2469 335.097C67.4108 336.784 68.3062 338.654 68.9777 340.569C71.7084 348.505 70.4997 357.033 69.3358 365.105C69.2015 365.972 70.4997 366.337 70.634 365.47C72.1114 355.3 73.6334 343.762 67.5899 334.686C66.9184 333.683 66.023 331.996 64.6352 332.224C63.1579 332.497 62.6655 334.549 62.2626 335.735C60.651 340.706 60.3824 345.996 61.233 351.104C61.4568 352.016 62.755 351.652 62.576 350.785Z" fill="#F5F5F5"/>
<path d="M64.9925 340.296C66.3355 347.411 66.8279 354.571 66.6041 361.777C66.5593 362.643 67.9023 362.643 67.9471 361.777C68.2157 354.434 67.6337 347.137 66.2907 339.931C66.1116 339.065 64.8582 339.43 64.9925 340.296Z" fill="#F5F5F5"/>
<path d="M301.764 256.428C301.361 255.379 300.958 254.33 300.555 253.281C300.331 252.78 300.152 252.232 299.929 251.731C299.66 251.366 299.66 250.956 299.884 250.545C300.287 250.91 301.092 250.682 301.048 250.043C300.824 247.763 300.6 245.437 300.376 243.157C300.331 242.61 299.794 240.466 300.108 240.056C301.495 238.095 302.435 241.333 302.57 241.834C303.778 246.03 303.734 250.864 303.689 255.197C303.689 256.063 305.032 256.063 305.032 255.197C305.077 251.64 304.898 248.128 304.405 244.616C304.092 242.382 303.734 239.144 301.585 237.821C300.197 236.955 299.033 237.867 298.765 239.372C298.496 240.831 298.944 242.564 299.078 243.978C299.257 245.985 299.481 247.991 299.66 249.998C300.063 249.815 300.421 249.679 300.824 249.496C300.063 248.766 298.899 248.903 298.451 249.907C298.138 250.591 298.406 251.32 298.63 252.004C299.168 253.601 299.884 255.151 300.466 256.747C300.779 257.614 302.077 257.249 301.764 256.428Z" fill="#F5F5F5"/>
<path d="M304.766 248.994C304.587 242.609 305.886 236.361 308.616 230.569C308.258 230.615 307.9 230.66 307.542 230.706C310.452 233.168 308.527 239.827 308.034 243.019C307.363 247.306 306.512 251.593 305.438 255.789C305.214 256.655 306.512 257.02 306.736 256.154C308.034 251.046 309.019 245.847 309.736 240.602C310.183 237.227 311.482 232.256 308.482 229.702C308.169 229.429 307.632 229.429 307.408 229.839C304.587 235.814 303.2 242.29 303.379 248.948C303.468 249.86 304.811 249.86 304.766 248.994Z" fill="#F5F5F5"/>
<path d="M-38.4635 60.7342C-49.1181 56.9033 -56.7285 46.3684 -57.8924 34.967C-59.1011 23.2007 -52.6099 11.9817 -42.8507 5.9618C-32.3304 -0.514195 -17.3783 -0.559803 -8.73822 9.24541C-4.30628 14.2164 -1.5755 21.0117 0.0361137 27.4421C1.69249 34.0549 1.9611 41.3974 -1.75457 47.3717C-5.515 53.3461 -12.2301 56.6753 -18.5422 59.1836C-25.2125 61.8743 -33.2258 63.9722 -39.7618 59.7765C-40.4781 59.3204 -41.1496 60.5061 -40.4333 60.9622C-34.5688 64.7019 -27.4956 63.7441 -21.2282 61.6463C-15.0951 59.594 -8.60392 56.7209 -3.85861 52.0691C6.75118 41.7166 2.40877 24.6145 -4.21675 13.2587C-7.70858 7.23876 -12.9463 2.81502 -19.6166 0.990793C-25.9735 -0.742221 -32.7781 -0.149347 -38.8217 2.35896C-49.9239 7.01074 -58.6087 17.8649 -59.325 30.2696C-60.1308 43.9513 -51.4907 57.4962 -38.8217 62.0567C-38.0159 62.376 -37.6577 61.0534 -38.4635 60.7342Z" fill="#F5F5F5"/>
<path d="M298.14 325.474C328.671 323.513 359.023 319.317 388.928 312.887C397.568 311.017 406.163 308.965 414.714 306.73C415.564 306.502 415.206 305.18 414.356 305.408C384.72 313.115 354.547 318.679 324.105 321.917C315.465 322.829 306.825 323.559 298.185 324.106C297.29 324.152 297.29 325.52 298.14 325.474Z" fill="#F5F5F5"/>
<path d="M228.168 358.402C232.107 359.086 236.136 359.04 240.031 358.082C242.448 357.49 244.194 356.532 246.701 357.353C248.268 357.854 249.745 358.037 251.357 357.718C253.148 357.353 254.804 356.441 256.326 355.437C257.983 354.297 259.639 352.701 261.653 352.291C263.981 351.834 266.085 353.704 268.324 354.206C269.935 354.571 271.592 354.525 273.203 354.252C274.054 354.115 273.696 352.792 272.845 352.929C270.025 353.431 267.831 352.701 265.28 351.561C264.205 351.059 263.176 350.786 261.967 350.877C258.341 351.287 255.834 354.753 252.476 355.985C250.327 356.76 248.581 356.486 246.477 355.802C244.866 355.3 243.702 355.574 242.135 356.076C237.703 357.49 233.182 357.9 228.615 357.125C227.72 356.942 227.317 358.265 228.168 358.402Z" fill="#F5F5F5"/>
<path d="M234.706 378.013C270.788 378.013 306.87 378.013 342.997 378.013C344.743 378.013 344.743 375.276 342.997 375.276C306.915 375.276 270.833 375.276 234.706 375.276C232.96 375.276 232.96 378.013 234.706 378.013Z" fill="#333333"/>
<path d="M357.147 376.417C389.827 376.417 422.507 376.417 455.187 376.417C456.933 376.417 456.933 373.68 455.187 373.68C422.507 373.68 389.827 373.68 357.147 373.68C355.446 373.68 355.446 376.417 357.147 376.417Z" fill="#333333"/>
<path d="M429.22 360.363C436.696 360.363 444.172 360.363 451.648 360.363C453.394 360.363 453.394 357.627 451.648 357.627C444.172 357.627 436.696 357.627 429.22 357.627C427.474 357.627 427.474 360.363 429.22 360.363Z" fill="#333333"/>
<path d="M79.095 163.803C77.4834 161.751 83.5716 160.474 84.5565 160.064C86.4815 159.197 87.6902 157.601 88.1379 155.503C88.5856 153.36 88.1379 151.079 88.7646 148.982C89.7047 145.88 93.1966 146.063 95.7931 146.2C97.539 146.291 97.4942 143.554 95.7931 143.463C92.8384 143.281 89.4362 143.372 87.3769 145.835C85.5414 148.024 85.8995 150.988 85.6757 153.679C85.4966 156.096 84.6013 157.282 82.2734 157.966C80.9304 158.376 79.5874 158.604 78.4682 159.471C76.4089 160.976 75.5584 163.621 77.2147 165.719C78.2444 167.133 80.1694 165.172 79.095 163.803Z" fill="#333333"/>
<path d="M88.6278 166.083C87.4191 164.624 90.1946 163.164 91.09 162.617C92.2987 161.888 93.3283 161.203 94.2236 160.109C96.0591 157.874 97.2678 153.633 100.581 153.45C102.282 153.359 102.326 150.623 100.581 150.714C95.0742 150.988 94.6266 156.825 90.8661 159.562C89.2545 160.702 87.3295 161.34 86.2999 163.164C85.3598 164.806 85.5388 166.585 86.7028 167.999C87.822 169.367 89.7469 167.406 88.6278 166.083Z" fill="#333333"/>
<path d="M298.406 18.4585C298.226 21.3772 295.988 24.8889 298.674 27.3516C301.002 29.4494 303.912 27.8988 306.553 28.0813C309.463 28.3093 308.209 31.0456 307.851 33.0523C307.583 34.5573 307.448 36.1991 308.12 37.6584C309.194 39.9387 312.104 41.3981 314.253 39.7563C315.596 38.7074 314.253 36.3359 312.91 37.3848C310.716 39.0722 310.269 35.0133 310.493 33.782C310.716 32.4594 311.164 31.1368 311.209 29.7687C311.254 27.8532 310.269 26.3482 308.523 25.7098C306.374 24.9345 304.449 25.801 302.3 25.7554C298.406 25.6642 301.002 20.83 301.136 18.4585C301.226 16.6799 298.54 16.6799 298.406 18.4585Z" fill="#333333"/>
<path d="M313.805 21.6047C312.686 24.0674 311.612 26.9862 313.402 29.4489C314.074 30.361 314.969 30.9083 316.044 31.0907C316.76 31.1819 317.7 30.8627 318.327 31.1363C319.356 31.5468 319.938 32.7781 319.446 33.8726C318.685 35.4688 321.013 36.837 321.774 35.2408C322.714 33.1886 322.356 30.8171 320.565 29.3121C319.58 28.4912 318.685 28.4912 317.476 28.3544C314.208 28.0351 315.104 25.2532 316.133 23.0185C316.849 21.4223 314.522 20.0085 313.805 21.6047Z" fill="#333333"/>
<path d="M219.532 246.076C218.01 242.884 220.875 239.144 224.277 240.376C227.814 241.653 227.679 246.578 224.322 247.946C223.516 248.265 223.874 249.588 224.68 249.269C229.022 247.49 229.604 241.151 225.083 239.236C220.427 237.229 216.308 242.382 218.412 246.806C218.771 247.581 219.935 246.852 219.532 246.076Z" fill="#FFA745"/>
<path d="M54.6498 235.266C51.7847 234.673 56.3957 231.527 56.8881 231.207C57.6044 230.706 58.2759 230.158 58.634 229.292C59.8428 226.51 57.6492 220.946 62.484 220.673C63.3346 220.627 63.3346 219.259 62.484 219.304C60.6038 219.396 59.216 220.444 58.3654 222.086C56.9776 224.731 58.634 228.334 55.948 230.158C54.4259 231.207 52.8143 231.891 52.6353 233.944C52.5457 235.175 53.0382 236.27 54.2916 236.543C55.1422 236.771 55.5003 235.449 54.6498 235.266Z" fill="#FFA745"/>
<path d="M63.2458 231.299C61.9923 229.52 62.7086 227.012 64.8126 226.328C66.2452 225.872 67.3196 226.1 68.1254 224.595C68.9312 223.044 68.7969 221.22 69.6923 219.624C70.8114 217.572 72.6917 216.158 74.8405 215.474C75.6463 215.2 75.3329 213.878 74.4823 214.151C72.4678 214.79 70.7219 215.93 69.4236 217.617C68.7521 218.484 68.1702 219.487 67.812 220.582C67.3196 222.041 67.5434 224.002 65.9318 224.777C64.9469 225.279 63.9621 225.005 63.022 225.735C62.3952 226.191 61.9476 226.875 61.679 227.559C61.0522 229.064 61.1865 230.661 62.1266 231.983C62.5743 232.713 63.7382 232.029 63.2458 231.299Z" fill="#FFA745"/>
<path d="M17.7195 21.5588C16.9137 19.917 20.3607 20.5098 20.495 20.5555C20.9875 20.7379 21.4799 21.1483 21.9276 21.422C22.6439 21.8324 23.4497 22.2429 24.3002 22.2885C25.4194 22.3341 26.3595 21.8324 27.0758 21.0115C29.1351 18.4576 28.374 11.8448 33.2089 13.8058C34.6414 14.3987 36.2531 15.2652 37.8199 14.5355C39.0734 13.9426 39.342 12.6657 39.1629 11.3887C39.0734 10.7502 38.3571 9.47329 38.5362 8.83481C38.8943 7.60346 40.0135 7.51225 40.8641 7.9227C41.267 8.10512 41.6251 8.37876 42.0728 8.51557C43.4158 9.01723 44.714 8.92602 45.5198 7.64906C45.9675 6.91937 44.8035 6.23529 44.3559 6.96498C43.4605 8.42436 39.8792 5.41439 38.2676 6.3265C36.9693 7.01059 37.0141 8.37876 37.3275 9.65571C37.6856 11.1607 38.5809 13.3498 35.8501 13.3042C34.6414 13.3042 33.5223 12.2552 32.3583 12.0272C30.9705 11.7536 29.7171 12.1184 28.8217 13.213C26.5834 15.9037 27.4339 22.927 22.241 20.0538C20.7189 19.2329 19.4654 18.412 17.7643 19.1873C16.466 19.7802 15.8393 20.9203 16.5108 22.2429C16.9585 23.0182 18.0776 22.3341 17.7195 21.5588Z" fill="#00B8C5"/>
<path d="M71.0366 58.7736C69.022 58.272 68.7534 55.6269 69.7383 54.0763C71.1261 51.8872 74.3941 52.024 76.5877 52.4345C80.2585 53.1185 83.6609 54.5779 87.3765 53.1642C90.9579 51.796 93.6439 48.8316 97.6729 48.7404C101.881 48.6492 105.865 50.519 110.118 50.3822C117.55 50.1542 124.309 46.4145 131.427 44.6815C135.635 43.6326 139.754 43.5414 143.962 44.6359C147.991 45.6848 151.752 47.3722 155.781 48.3756C159.989 49.4701 164.152 49.2877 168.405 48.9228C173.061 48.558 177.851 48.1931 182.059 50.6558C181.969 50.3822 181.835 50.1542 181.745 49.8805C179.507 56.5846 172.255 59.3209 165.853 59.6858C157.84 60.1418 150.05 57.1775 141.992 57.4967C133.845 57.8159 126.951 62.8782 118.937 63.6535C110.745 64.4744 103 60.5067 94.8526 60.7347C86.5707 60.9627 75.7819 65.5689 69.2459 58.044C68.6639 57.4055 67.7238 58.3632 68.3057 59.0017C73.454 64.8848 81.6016 63.8359 88.4509 62.7869C93.5096 62.0116 98.1206 61.966 103.179 62.9694C107.477 63.8359 111.775 65.0216 116.162 65.1128C125.026 65.3409 132.502 59.5033 141.231 58.9105C150.05 58.3176 158.601 61.9204 167.42 60.9171C174.001 60.1874 180.85 57.0406 183.088 50.1998C183.178 49.9262 183.044 49.5613 182.775 49.4245C174.896 44.7271 165.405 49.1509 156.944 47.1898C152.289 46.0953 147.946 43.9974 143.246 42.9941C139.172 42.082 135.143 42.31 131.114 43.3133C126.816 44.3623 122.742 46.0953 118.534 47.4178C113.7 48.9228 109.089 49.3789 104.075 48.33C100.09 47.4635 96.4195 46.7794 92.659 48.6948C90.9131 49.6069 89.3015 50.8383 87.5108 51.6592C84.4667 53.0273 81.5568 52.2064 78.4679 51.4311C75.1999 50.6558 70.2755 50.1086 68.44 53.8026C67.2761 56.1285 68.0819 59.4577 70.7679 60.0962C71.529 60.2786 71.8871 58.9561 71.0366 58.7736Z" fill="#F5F5F5"/>
<path d="M430.113 183.277C421.652 186.287 411.759 179.172 405.67 173.791C405.581 174.155 405.491 174.566 405.357 174.931C409.655 173.152 414.176 173.061 418.742 173.335C423.264 173.563 427.785 173.882 432.307 174.019C441.932 174.292 451.601 174.064 461.182 173.335C466.151 172.97 471.075 172.468 475.999 171.875C478.417 171.556 481.327 170.963 483.61 172.103C486.788 173.745 486.52 177.302 483.476 178.67C481.909 179.355 480.208 179.583 478.551 179.902C475.955 180.358 473.358 180.859 470.762 181.316C466.016 182.182 461.271 183.049 456.481 183.915C453.75 184.417 451.019 184.918 448.289 185.42C445.737 185.876 443.096 186.56 440.454 186.606C435.978 186.651 432.62 182.638 428.144 183.14C427.293 183.231 427.293 184.599 428.144 184.508C430.695 184.189 432.71 185.602 434.903 186.651C436.694 187.518 438.44 187.974 440.41 187.974C445.558 187.928 450.885 186.332 455.944 185.374C461.405 184.371 466.912 183.368 472.373 182.364C474.97 181.908 477.566 181.407 480.163 180.951C481.909 180.631 483.744 180.221 485.266 179.172C487.818 177.393 487.908 174.11 485.759 171.966C482.401 168.592 476.626 170.37 472.552 170.826C461.54 172.058 450.437 172.696 439.335 172.65C433.247 172.65 427.159 172.422 421.07 172.012C415.654 171.693 410.147 171.419 405.044 173.517C404.641 173.699 404.327 174.292 404.73 174.657C411.177 180.358 421.473 187.7 430.471 184.508C431.277 184.326 430.964 183.003 430.113 183.277Z" fill="#F5F5F5"/>
<path d="M354.729 353.065C351.909 359.496 352.446 365.516 352.893 368.343C361.712 372.311 369.547 374.135 375.545 375.047C377.515 375.366 401.869 378.878 404.241 372.083C404.823 370.395 403.883 368.662 402.943 366.975C397.705 357.626 384.454 357.079 382.663 357.033C382.171 347.319 376.038 340.113 369.771 339.612C360.907 338.927 355.356 351.651 354.729 353.065Z" fill="#333333"/>
<path d="M366.367 196.182C372.186 204.71 380.021 217.982 385.706 235.585C394.973 264.271 393.451 288.351 392.421 301.987C391.526 314.118 389.108 331.357 382.349 351.241C380.513 352.427 372.41 357.352 362.159 355.118C356.07 353.795 351.952 350.512 349.982 348.687C353.608 340.57 357.995 328.347 359.652 313.115C361.487 296.515 359.249 283.517 356.294 266.825C349.579 229.109 340.312 214.789 348.326 204.254C352.176 199.147 358.756 196.866 366.367 196.182Z" fill="white" stroke="#333333" stroke-miterlimit="10"/>
<path opacity="0.16" d="M369.542 217.024C372.587 232.119 375.004 249.45 375.944 268.695C377.556 302.854 373.93 332.315 369.229 355.255C367.215 355.528 362.335 355.847 357.142 353.202C354.053 351.606 351.949 349.508 350.74 348.049C356.336 334.914 358.351 323.741 359.156 316.216C360.41 304.404 359.38 294.918 357.455 277.223C356.336 266.871 355.038 258.388 354.098 252.596C359.246 240.784 364.394 228.881 369.542 217.024Z" fill="#666666"/>
<path opacity="0.22" d="M359.739 239.735C363.589 249.951 369.364 269.425 367.394 294.188C365.514 318.04 357.277 335.781 352.039 345.176C360.813 319.363 361.261 303.538 359.918 293.732C359.56 291.224 358.038 281.282 356.292 266.643C355.576 260.577 355.038 255.606 354.725 252.414C356.426 248.172 358.083 243.931 359.739 239.735Z" fill="#666666"/>
<path d="M289.947 333.32C286.232 335.189 285.112 338.245 280.009 348.141C276.607 354.709 273.742 359.953 271.861 363.328C277.592 367.524 286.679 373.042 298.811 375.961C305.974 377.694 320.881 380.111 322.582 375.961C324.463 371.355 309.152 360.729 302.706 356.442C309.331 349.874 309.645 340.343 305.168 335.463C301.363 331.313 294.469 331.039 289.947 333.32Z" fill="#333333"/>
<path d="M354.862 195.226C369.635 208.497 352.355 252.734 338.164 288.124C332.031 303.402 322.451 325.521 308.349 351.379C305.887 351.744 298.5 352.474 290.621 348.141C282.697 343.809 279.25 337.014 278.221 334.779C282.339 327.528 287.308 317.768 292.054 305.865C293.934 301.167 302.037 280.189 306.603 250.545C308.394 238.825 310.005 223.364 309.781 204.985C312.423 202.249 327.151 187.518 344.565 190.893C347.207 191.395 351.549 192.261 354.862 195.226Z" fill="white" stroke="#333333" stroke-miterlimit="10"/>
<path d="M359.648 213.468C359.604 215.064 359.559 216.66 359.559 218.256C360.007 218.256 360.454 218.256 360.902 218.256C360.678 215.702 360.812 213.285 361.305 210.777C360.857 210.731 360.41 210.64 360.007 210.595C360.275 215.976 359.067 221.631 358.126 226.921C357.186 232.257 355.933 237.548 354.456 242.747C354.903 242.883 355.306 242.975 355.754 243.111C358.216 233.625 360.275 224.094 361.976 214.425C362.111 213.559 360.812 213.194 360.678 214.061C358.977 223.683 356.918 233.261 354.456 242.747C354.232 243.613 355.53 243.978 355.754 243.111C357.321 237.639 358.574 232.029 359.559 226.42C360.454 221.312 361.618 215.794 361.35 210.595C361.305 209.865 360.186 209.637 360.051 210.412C359.514 213.012 359.38 215.611 359.604 218.256C359.693 219.123 360.947 219.168 360.947 218.256C360.992 216.66 361.036 215.064 361.036 213.468C361.036 212.601 359.693 212.601 359.648 213.468Z" fill="white"/>
<path d="M353.964 239.874C354.009 243.386 354.098 246.897 354.143 250.409C354.143 251.275 355.486 251.275 355.486 250.409C355.441 246.897 355.352 243.386 355.307 239.874C355.262 238.962 353.919 238.962 353.964 239.874Z" fill="white"/>
<path opacity="0.19" d="M335.34 209.409C335.475 218.575 334.982 231.071 332.341 245.574C329.521 260.943 325.223 272.846 318.956 290.769C313.852 305.454 311.39 309.832 306.197 326.114C303.018 336.01 300.78 344.31 299.348 349.874C296.885 349.555 291.782 348.506 286.679 344.629C281.933 341.027 279.516 336.74 278.441 334.505C286.679 319.774 291.916 306.868 295.229 297.473C305.481 268.422 307.898 243.157 309.286 227.605C309.868 221.129 310.181 215.748 310.316 212.236C318.642 211.279 327.014 210.366 335.34 209.409Z" fill="#666666"/>
<path opacity="0.24" d="M330.729 210.731C327.237 226.374 323.208 238.688 320.03 247.307C317.433 254.422 313.449 263.999 305.525 283.108C302.615 290.176 301.138 293.688 300.422 295.284C296.035 305.317 289.006 319.41 277.77 336.01C287.842 317.585 299.392 291.317 305.525 258.207C308.614 241.515 309.733 226.283 309.868 213.103C309.823 213.057 309.823 213.057 330.729 210.731Z" fill="#666666"/>
<path d="M344.875 98.587C345.591 100.366 346.845 102.965 349.128 105.61C350.784 107.526 352.889 109.988 356.022 110.946C362.111 112.862 368.02 107.936 368.826 107.252C374.735 110.809 380.644 114.367 386.509 117.924C387.046 125.357 387.091 136.576 384.225 149.665C381.495 162.116 378.853 163.621 376.705 175.706C373.437 193.857 375.854 210.047 375.048 210.093C374.914 210.093 374.735 209.728 374.377 207.767C351.322 209.545 328.267 211.324 305.212 213.103C304.54 199.011 304.63 187.153 304.898 178.397C305.256 164.715 306.331 148.16 310.807 128.96C313.986 115.233 316.493 110.581 320.298 106.933C328.535 98.9518 339.817 98.4501 344.875 98.587Z" fill="#00B8C5"/>
<path opacity="0.3" d="M371.556 108.894C370.795 117.24 369.362 129.645 366.631 144.512C365.825 148.981 363.542 161.295 361.707 167.315C359.469 174.703 350.739 195.818 308.031 212.966C321.058 211.415 334.489 210.047 348.232 208.907C356.827 208.177 365.333 207.539 373.704 207.037C376.659 196.32 379.39 184.189 381.36 170.781C384.359 150.486 384.941 132.153 384.449 116.693C380.151 114.093 375.853 111.494 371.556 108.894Z" fill="#006876"/>
<path d="M353.114 71.1325C351.548 79.2959 350.831 88.3258 344.34 98.3135C343.445 99.6816 342.684 100.731 342.146 101.415C342.684 102.509 348.369 113.728 360.456 115.416C367.35 116.373 372.767 113.683 374.826 112.542C374.513 109.806 374.334 106.522 374.603 102.828C374.961 97.4013 376.08 92.8864 377.199 89.466C382.392 88.7819 387.54 88.0978 392.733 87.4137C393.763 85.0878 394.748 82.7619 395.777 80.3904C397.21 80.3448 398.598 80.2992 400.03 80.2536C398.956 77.0612 397.344 71.999 395.464 65.751C391.972 53.9848 392.017 52.2974 390.137 49.6522C384.944 42.4009 373.304 37.7948 365.649 41.6713C358.263 45.3653 356.024 55.9002 353.114 71.1325Z" fill="white" stroke="#333333" stroke-miterlimit="10"/>
<path d="M399.807 79.6151C397.255 79.6607 394.748 79.4783 392.241 79.1134C391.39 78.9766 391.032 80.2992 391.883 80.436C394.524 80.8464 397.121 81.0289 399.807 80.9833C400.702 80.9833 400.702 79.6151 399.807 79.6151Z" fill="#333333"/>
<path d="M401.595 58.6823C399.311 57.4053 396.581 58.135 395.103 60.2785C394.611 61.0082 395.775 61.6923 396.267 60.9626C397.297 59.4576 399.356 59.0015 400.923 59.868C401.684 60.2785 402.356 59.0927 401.595 58.6823Z" fill="#333333"/>
<path d="M400.436 66.8919C400.66 65.843 400.615 64.7941 400.123 63.8364C399.765 63.1523 399.003 62.3314 398.153 62.6962C397.258 63.0611 397.302 64.338 397.481 65.1133C397.66 66.071 398.153 66.9375 398.869 67.576C399.272 67.9408 400.033 67.7128 400.033 67.0744C400.033 65.9342 399.765 64.9309 399.272 63.882C398.914 63.1067 397.75 63.7907 398.108 64.566C398.466 65.3413 398.645 66.1622 398.69 67.0287C399.093 66.8463 399.451 66.7095 399.854 66.5271C399.093 65.8886 398.824 65.0677 398.78 64.11C398.824 64.0188 398.78 63.9276 398.645 63.9276C398.735 63.9732 398.824 64.0644 398.869 64.1556C399.003 64.338 399.138 64.6116 399.183 64.8397C399.362 65.3869 399.362 65.8886 399.227 66.4359C398.914 67.3936 400.212 67.7584 400.436 66.8919Z" fill="#333333"/>
<path d="M388.613 60.5061C386.016 59.6396 383.286 60.7341 381.764 63.0144C381.271 63.7441 382.435 64.4282 382.927 63.6985C384.091 61.9199 386.24 61.1902 388.255 61.8287C389.061 62.0567 389.419 60.7797 388.613 60.5061Z" fill="#333333"/>
<path d="M389.329 68.122C389.418 66.8906 388.926 64.9752 387.672 64.4735C386.016 63.7895 386.016 66.1609 386.195 67.1643C386.419 68.1676 387.224 70.0374 388.567 69.2621C389.105 68.9429 389.194 68.35 389.015 67.8027C388.702 66.9362 388.209 66.1609 387.851 65.34C387.493 65.6137 387.135 65.8873 386.777 66.161C386.956 66.3434 387.09 66.5258 387.135 66.7994C387.359 67.6659 388.657 67.3011 388.433 66.4346C388.299 65.9329 388.075 65.5681 387.717 65.2032C387.135 64.656 386.329 65.34 386.643 66.0241C386.822 66.3434 386.956 66.6626 387.135 67.0275C387.269 67.3011 387.404 67.8027 387.627 68.0308C387.717 68.35 387.806 68.35 387.941 68.0308C387.896 67.9396 387.806 67.8028 387.762 67.7115C387.627 67.4379 387.538 67.1643 387.493 66.845C387.448 66.5714 387.493 66.2066 387.404 65.9329C387.448 65.7505 387.404 65.7049 387.359 65.9329C387.448 66.0697 387.583 66.2066 387.627 66.3434C387.941 66.8906 388.03 67.5291 387.986 68.1676C387.896 68.9885 389.239 68.9885 389.329 68.122Z" fill="#333333"/>
<path d="M391.928 52.5703C391.57 50.1532 390.63 46.2312 388.123 42.1723C387.228 40.7585 385.303 37.7029 382.259 35.6507C376.439 31.7286 367.485 32.0478 360.949 36.8364C354.593 41.5338 351.414 49.9708 352.802 58.3167C365.874 56.4012 378.901 54.4858 391.928 52.5703Z" fill="#FFA745"/>
<path d="M413.325 48.1925C393.224 50.792 373.168 53.3915 353.068 55.991C350.516 56.3103 350.516 60.4148 353.068 60.0956C373.168 57.496 393.224 54.8965 413.325 52.297C415.831 51.9777 415.876 47.8733 413.325 48.1925Z" fill="#333333"/>
<path d="M365.827 57.7693C369.363 59.0918 371.423 61.6002 373.84 64.6101C378.899 70.9037 377.377 73.2296 380.958 77.1517C386.599 83.3996 392.329 79.7056 397.387 85.8167C401.685 91.0158 401.103 98.0391 400.924 99.5896C400.745 101.14 399.984 107.388 395.015 111.675C390.717 115.369 384.853 116.236 384.495 115.415C384.36 115.096 384.853 114.366 388.031 112.177C387.091 112.861 385.659 113.682 383.734 114.047C381.54 114.457 379.481 114.047 379.436 113.727C379.436 113.499 380.6 113.499 381.495 112.496C382.032 111.903 382.256 111.219 382.391 110.626C380.645 111.812 378.406 112.815 376.302 112.177C370.572 110.398 369.542 97.3094 369.184 92.9768C368.11 78.9303 372.049 71.2686 367.259 66.3432C366.856 65.9327 364.931 63.9261 362.827 64.3365C360.141 64.8382 358.082 69.1251 358.977 71.9526C359.738 74.3697 362.424 75.0538 362.245 75.5099C361.977 76.1028 357.455 75.1906 353.65 72.0895C352.262 70.9493 351.143 70.0372 350.561 68.3498C349.532 65.431 350.74 62.1018 352.352 60.1408C355.709 56.0363 361.977 56.3099 365.827 57.7693Z" fill="#333333" stroke="#333333" stroke-miterlimit="10"/>
<path opacity="0.22" d="M360.498 75.8751C361.349 75.9663 362.557 76.0119 362.647 75.6927C362.692 75.5559 362.378 75.3278 362.378 75.3278C362.378 75.3278 363.408 76.6504 364.661 76.8328C365.288 76.924 365.781 76.696 366.139 76.5136C363.856 81.3934 361.528 87.3221 359.603 94.163C357.588 101.232 356.469 107.708 355.887 113.226C353.917 112.588 350.336 111.128 347.023 107.845C344.606 105.473 343.218 102.965 342.412 101.277C345.098 97.1729 346.665 93.5701 347.605 91.1074C348.456 88.8271 348.769 87.3221 350.291 82.1231C351.545 77.9274 352.529 74.4613 353.201 72.0898C353.559 72.4091 354.096 72.9107 354.813 73.4124C355.842 74.1421 357.857 75.5559 360.498 75.8751Z" fill="#666666"/>
<path d="M374.959 33.1881C369.722 34.2371 365.827 38.524 365.245 43.5862C364.529 49.6062 368.871 53.7107 369.274 54.0755C363.723 54.7596 358.172 55.4893 352.621 56.1734C352.531 54.8508 352.486 53.0266 352.8 50.9287C353.874 44.1791 357.724 40.029 358.53 39.1625C359.828 37.7943 364.394 33.3705 371.154 32.9601C372.721 32.8689 374.019 33.0513 374.959 33.1881Z" fill="#E3953E"/>
<path d="M385.168 117.467C388.749 116.92 392.42 123.259 394.121 126.178C403.97 143.234 399.851 162.936 398.598 168.682C397.613 173.197 395.778 181.178 390.047 189.98C384.586 198.462 378.139 203.707 374.021 206.58C367.127 209.271 354.592 212.965 339.505 210.457C334.268 209.59 329.701 208.131 325.896 206.58C319.45 206.991 313.003 207.356 306.557 207.766C305.527 207.584 304.095 207.31 302.394 206.671C300.334 205.896 298.365 205.121 298.365 204.391C298.365 203.57 300.603 202.293 311.526 200.56C310.989 200.652 303.826 202.065 299.036 196.957C294.559 192.215 294.291 184.097 297.693 180.904C300.558 178.214 305.214 179.399 313.72 181.725C322.136 184.005 328.896 187.107 333.82 189.752C335.7 190.618 350.339 197.049 363.724 189.205C373.931 183.23 377.334 172.513 378.139 169.549C381.363 157.782 375.498 153.632 377.602 136.621C377.871 133.702 379.796 118.242 385.168 117.467Z" fill="white" stroke="#333333" stroke-miterlimit="10"/>
<path d="M295.988 191.075C301.181 191.485 306.15 192.762 310.895 194.951C311.656 195.316 312.372 194.13 311.566 193.766C306.597 191.44 301.404 190.072 295.988 189.661C295.137 189.661 295.137 191.029 295.988 191.075Z" fill="#333333"/>
<path d="M295.68 185.51C301.634 185.328 306.693 189.022 312.244 190.755C313.05 191.029 313.408 189.706 312.602 189.432C306.962 187.654 301.813 183.96 295.68 184.142C294.83 184.188 294.785 185.556 295.68 185.51Z" fill="#333333"/>
<path d="M301.408 180.676C306.287 181.086 310.585 183.458 314.793 185.875C315.554 186.285 316.226 185.145 315.465 184.689C311.033 182.181 306.556 179.764 301.408 179.308C300.512 179.216 300.512 180.585 301.408 180.676Z" fill="#333333"/>
<path opacity="0.18" d="M379.707 125.858C377.065 136.666 384.094 143.963 386.466 156.322C386.869 158.511 390.048 176.252 380.736 188.839C370.35 202.886 349.757 203.387 345.728 203.524C335.208 203.798 331.224 200.651 314.75 201.517C313.183 201.609 298.857 202.429 298.723 204.482C298.678 205.576 302.663 206.808 305.662 207.218C309.601 207.765 311.661 206.853 316.675 206.443C318.823 206.26 321.912 206.124 325.718 206.443C330.284 208.358 336.193 210.228 343.266 210.958C345.191 211.14 351.19 211.687 358.89 210.547C358.89 210.547 365.336 209.635 370.44 207.811C383.109 203.342 395.644 184.506 399.18 163.984C403.165 140.862 394.301 123.441 389.332 119.564C388.66 119.017 386.735 117.512 384.721 118.013C381.453 118.743 380.11 124.17 379.707 125.858Z" fill="#666666"/>
<path opacity="0.17" d="M398.597 139.586C397.88 139.586 397.88 148.297 395.911 159.242C394.702 165.9 392.24 179.445 386.286 188.886C375.676 205.714 354.009 209.499 345.771 210.503C352.845 211.506 363.723 211.734 374.333 205.988C397.343 193.492 399.581 163.346 399.984 157.874C400.611 148.661 399.313 139.586 398.597 139.586Z" fill="#666666"/>
<path d="M12.0332 312.157C30.5668 295.375 49.1899 278.683 67.9025 262.128C103.179 230.888 138.769 200.059 174.717 169.594C171.896 161.066 168.27 146.29 170.419 128.321C171.091 122.621 176.821 80.6177 214.604 58.9095C217.738 57.0852 261.117 33.1879 301.766 59.548C328.581 76.9237 342.459 108.62 339.191 139.586C334.356 185.602 294.245 205.988 291.917 207.128C262.997 221.174 228.213 217.024 202.293 196.502C163.346 229.155 124.488 261.854 85.675 294.645C68.6635 309.011 51.6968 323.376 34.7301 337.788C31.1935 336.055 25.329 332.589 20.0465 326.25C15.6146 320.959 13.2867 315.669 12.0332 312.157Z" fill="#333333"/>
<path d="M255.702 201.245C294.914 201.245 326.702 170.209 326.702 131.924C326.702 93.6394 294.914 62.6035 255.702 62.6035C216.489 62.6035 184.701 93.6394 184.701 131.924C184.701 170.209 216.489 201.245 255.702 201.245Z" fill="white" stroke="#333333" stroke-miterlimit="10"/>
<path d="M261.474 66.4342C248.492 94.4361 234.838 122.164 220.557 149.528C216.528 157.235 212.454 164.942 208.335 172.604C207.933 173.379 209.097 174.063 209.499 173.288C224.138 146.107 238.15 118.607 251.491 90.742C255.251 82.8979 258.967 75.0081 262.683 67.0727C263.041 66.343 261.877 65.6589 261.474 66.4342Z" fill="#F5F5F5"/>
<path d="M283.369 73.2294C269.133 96.1235 255.613 119.428 242.765 143.143C242.362 143.918 243.526 144.602 243.929 143.827C256.777 120.112 270.297 96.8076 284.533 73.9135C284.981 73.1838 283.817 72.4997 283.369 73.2294Z" fill="#F5F5F5"/>
<path d="M240.391 151.17C234.481 162.89 228.169 174.429 221.409 185.693C220.962 186.469 222.126 187.153 222.573 186.377C229.288 175.113 235.645 163.575 241.554 151.854C241.957 151.079 240.793 150.349 240.391 151.17Z" fill="#F5F5F5"/>
<path d="M265.236 116.966C257.715 131.377 250.239 145.789 242.718 160.2C242.315 160.975 243.479 161.66 243.882 160.884C251.403 146.473 258.879 132.062 266.4 117.65C266.803 116.875 265.639 116.191 265.236 116.966Z" fill="#F5F5F5"/>
<path opacity="0.08" d="M253.594 62.3755C248.625 64.1997 215.901 76.6957 205.425 110.17C204.216 114.047 200.456 126.543 203.276 141C208.693 168.545 235.732 190.847 271.098 198.326C268.412 199.238 264.652 200.333 259.996 200.925C231.882 204.528 210.081 185.009 207.529 182.683C201.978 177.53 184.832 160.017 184.519 132.289C184.474 129.872 184.608 102.508 204.977 82.7612C216.841 71.2686 230.718 67.0729 236.538 65.3855C243.343 63.4244 249.297 62.6947 253.594 62.3755Z" fill="#666666"/>
</g>
<defs>
<clipPath id="clip0_1167_84836">
<rect width="448" height="376" fill="white"/>
</clipPath>
</defs>
</svg>
