<svg width="149" height="44" viewBox="0 0 149 44" fill="none" xmlns="http://www.w3.org/2000/svg">
<path fill-rule="evenodd" clip-rule="evenodd" d="M9.04268 0C14.5075 0 17.6203 2.18519 17.6203 5.98195C17.6203 8.41785 16.4277 10.245 14.2096 11.3191C16.5606 12.5025 17.6867 14.2574 17.6867 16.7645C17.6867 19.5584 16.2616 21.8148 13.8774 22.8899C12.2551 23.643 10.1678 24 7.51895 24L7.0239 23.999L6.55564 23.9928L6.10989 23.9825C5.96416 23.9794 5.82164 23.9742 5.68127 23.9691L5.26337 23.9494C5.05657 23.9391 4.85191 23.9257 4.64724 23.9102L4.23685 23.8762L3.81895 23.8349L3.3914 23.7885L2.94779 23.7338L2.48274 23.6719L1.98984 23.5997L1.468 23.5213L0.908661 23.4326L0.30753 23.3356L0 23.284L3.17924 0.359041L3.96575 0.273407L4.86905 0.180552L5.46911 0.126902L5.84415 0.0959505L6.21061 0.0711891L6.57172 0.0505546L6.93604 0.0340469L7.30786 0.0206345L7.69897 0.0103173L8.11366 0.00515863L8.79515 0H9.0416H9.04268ZM143.734 0.215631L149 23.7142H143.269L142.309 18.8063H134.592L132.175 23.7142H126.477L138.699 0.215631H143.733H143.734ZM127.733 0.215631L124.488 23.7142H118.956L122.203 0.215631H127.733ZM91.3654 0.215631L96.632 23.7142H90.9025L89.9413 18.8063H82.2252L79.8068 23.7142H74.2884L84.4337 3.87413H81.1516L81.158 0.216662H91.3665L91.3654 0.215631ZM74.0226 0.215631L73.3936 4.87181H65.9743L65.3454 9.4568H71.7371L71.1081 13.8984H64.7496L64.0531 18.9136H73.129L71.9696 23.7142H58.0257L61.2703 0.215631H74.0216H74.0226ZM50.8614 0.215631L48.3112 18.5907H56.6241L55.3983 23.7152H42.0845L45.3302 0.215631H50.8614ZM34.5495 0.215631L39.8161 23.7142H34.0866L33.1254 18.8063H25.4082L22.9908 23.7142H17.2935L29.5154 0.215631H34.5495ZM113.688 1.68378C115.211 2.90121 116.119 4.97911 116.119 7.34382C116.119 10.1862 114.595 12.5819 111.882 13.9572L111.711 14.0428L116.799 23.7142H110.512L106.817 15.5822H105.003L103.9 23.7142H98.4879L101.664 0.358009L102.185 0.298169L102.903 0.220789L103.553 0.156822L103.957 0.120712L104.343 0.0907919L104.712 0.0660304L105.072 0.0453959L105.426 0.0288883L105.776 0.0175393L106.13 0.00825381L106.487 0.00309518L107.044 0C110.252 0 112.198 0.501419 113.688 1.68378ZM8.47905 13.6126H6.72388L5.89558 19.5584C6.69066 19.7379 7.22107 19.8091 7.88328 19.8091C10.4657 19.8091 11.923 18.7351 11.923 16.8006C11.923 14.8661 10.5653 13.6126 8.47905 13.6126ZM140.09 7.66572L136.381 15.0095H141.581L140.091 7.66572H140.09ZM87.7233 7.66572L84.0136 15.0095H89.2127L87.7233 7.66572ZM30.9063 7.66572L27.1966 15.0095H32.3968L30.9073 7.66572H30.9063ZM107.465 4.69229L107.136 4.69435L106.881 4.70157C106.792 4.70467 106.699 4.70983 106.605 4.71705L106.461 4.7284L105.554 11.4625H107.886C109.313 11.4625 110.707 9.81584 110.804 8.05984C110.901 6.01806 109.604 4.69229 107.465 4.69229ZM9.14126 4.01135L8.79622 4.01341C8.62049 4.01548 8.43511 4.02064 8.22724 4.03405L8.04829 4.04746L7.22107 9.9221H9.67167C10.8964 9.9221 12.089 8.52618 12.1898 6.91359C12.2862 5.15863 11.0947 4.01238 9.14018 4.01238L9.14126 4.01135Z" fill="white"/>
<path d="M40.2112 36.3716L38.8924 32.642C38.814 32.446 38.73 32.2164 38.6404 31.9532C38.5564 31.69 38.4752 31.4044 38.3968 31.0964C38.3184 31.41 38.2344 31.7012 38.1448 31.97C38.0608 32.2332 37.9796 32.4628 37.9012 32.6588L36.5908 36.3716H40.2112ZM44.4448 41H42.4876C42.2692 41 42.09 40.9496 41.95 40.8488C41.8156 40.7424 41.7148 40.608 41.6476 40.4456L40.8244 38.1188H35.9692L35.146 40.4456C35.09 40.5856 34.992 40.7144 34.852 40.832C34.712 40.944 34.5356 41 34.3228 41H32.3488L37.1116 28.8116H39.6904L44.4448 41ZM51.1259 34.7924H55.3091V39.824C54.6875 40.2776 54.0239 40.6108 53.3184 40.8236C52.6183 41.0308 51.8763 41.1344 51.0923 41.1344C50.0899 41.1344 49.1827 40.9804 48.3707 40.6724C47.5587 40.3588 46.8643 39.9248 46.2875 39.3704C45.7107 38.816 45.2655 38.158 44.9519 37.3964C44.6383 36.6348 44.4815 35.8032 44.4815 34.9016C44.4815 33.9888 44.6299 33.1516 44.9267 32.39C45.2291 31.6284 45.6575 30.9732 46.2119 30.4244C46.7663 29.8756 47.4355 29.4472 48.2195 29.1392C49.0091 28.8312 49.8911 28.6772 50.8655 28.6772C51.3695 28.6772 51.8399 28.7192 52.2767 28.8032C52.7136 28.8816 53.1167 28.9936 53.4863 29.1392C53.8559 29.2792 54.1947 29.4472 54.5028 29.6432C54.8107 29.8392 55.0907 30.0548 55.3427 30.29L54.6119 31.4156C54.4999 31.5948 54.3543 31.704 54.1751 31.7432C53.9959 31.7824 53.7999 31.7376 53.5871 31.6088C53.3855 31.4856 53.1867 31.3764 52.9907 31.2812C52.8003 31.1804 52.5959 31.0936 52.3776 31.0208C52.1591 30.948 51.9211 30.892 51.6635 30.8528C51.4059 30.8136 51.1091 30.794 50.7731 30.794C50.2075 30.794 49.6951 30.892 49.2359 31.088C48.7767 31.284 48.3847 31.5612 48.0599 31.9196C47.7407 32.278 47.4943 32.7092 47.3207 33.2132C47.1471 33.7172 47.0603 34.28 47.0603 34.9016C47.0603 35.5736 47.1555 36.1756 47.3459 36.7076C47.5363 37.234 47.8051 37.6792 48.1523 38.0432C48.4995 38.4072 48.9139 38.6844 49.3955 38.8748C49.8827 39.0652 50.4231 39.1604 51.0167 39.1604C51.4199 39.1604 51.7783 39.1212 52.0919 39.0428C52.4112 38.9588 52.722 38.8468 53.0244 38.7068V36.6572H51.6467C51.4843 36.6572 51.3555 36.6152 51.2603 36.5312C51.1707 36.4416 51.1259 36.3296 51.1259 36.1952V34.7924ZM59.9058 30.7856V33.9188H63.9714V35.8256H59.9058V39.026H65.1306V41H57.369V28.8116H65.1306V30.7856H59.9058ZM77.4571 28.8116V41H76.1551C75.9591 41 75.7939 40.9692 75.6595 40.9076C75.5251 40.8404 75.3935 40.7284 75.2647 40.5716L69.1915 32.8436C69.2083 33.0396 69.2195 33.2328 69.2251 33.4232C69.2363 33.6136 69.2419 33.79 69.2419 33.9524V41H67.0159V28.8116H68.3431C68.4495 28.8116 68.5391 28.8172 68.6119 28.8284C68.6903 28.834 68.7603 28.8536 68.8219 28.8872C68.8835 28.9152 68.9423 28.9544 68.9983 29.0048C69.0543 29.0552 69.1159 29.1224 69.1831 29.2064L75.2983 36.968C75.2759 36.7552 75.2591 36.5508 75.2479 36.3548C75.2367 36.1532 75.2311 35.9628 75.2311 35.7836V28.8116H77.4571ZM88.3088 38.0012C88.4488 38.0012 88.5664 38.0516 88.6616 38.1524L89.6612 39.2192C89.1684 39.8464 88.5552 40.3224 87.8216 40.6472C87.0936 40.972 86.2256 41.1344 85.2176 41.1344C84.3048 41.1344 83.4844 40.9804 82.7564 40.6724C82.0284 40.3588 81.4096 39.9248 80.9 39.3704C80.3904 38.816 79.9984 38.158 79.724 37.3964C79.4496 36.6348 79.3124 35.8032 79.3124 34.9016C79.3124 34.2968 79.3768 33.7228 79.5056 33.1796C79.64 32.6308 79.8332 32.1268 80.0852 31.6676C80.3372 31.2084 80.6396 30.794 80.9924 30.4244C81.3508 30.0548 81.754 29.7412 82.202 29.4836C82.65 29.2204 83.1372 29.0216 83.6636 28.8872C84.1956 28.7472 84.7612 28.6772 85.3604 28.6772C85.8084 28.6772 86.2312 28.7164 86.6288 28.7948C87.032 28.8732 87.4072 28.9824 87.7544 29.1224C88.1016 29.2624 88.4208 29.4332 88.712 29.6348C89.0088 29.8308 89.2748 30.0464 89.51 30.2816L88.6616 31.4408C88.6112 31.5136 88.5468 31.578 88.4684 31.634C88.39 31.69 88.2836 31.718 88.1492 31.718C88.0148 31.718 87.8776 31.6704 87.7376 31.5752C87.6032 31.48 87.4352 31.3736 87.2336 31.256C87.0376 31.1384 86.7884 31.032 86.486 30.9368C86.1892 30.8416 85.8112 30.794 85.352 30.794C84.8424 30.794 84.3748 30.8864 83.9492 31.0712C83.5236 31.256 83.1568 31.5248 82.8488 31.8776C82.5464 32.2248 82.3112 32.6532 82.1432 33.1628C81.9752 33.6724 81.8912 34.252 81.8912 34.9016C81.8912 35.5568 81.9808 36.142 82.16 36.6572C82.3448 37.1668 82.594 37.598 82.9076 37.9508C83.2268 38.3036 83.5964 38.5724 84.0164 38.7572C84.442 38.9364 84.8956 39.026 85.3772 39.026C85.6628 39.026 85.9204 39.012 86.15 38.984C86.3852 38.956 86.6008 38.9084 86.7968 38.8412C86.9984 38.774 87.186 38.6872 87.3596 38.5808C87.5388 38.4744 87.718 38.34 87.8972 38.1776C87.9588 38.1272 88.0232 38.0852 88.0904 38.0516C88.1576 38.018 88.2304 38.0012 88.3088 38.0012ZM93.6206 41H91.0838V28.8116H93.6206V41ZM102.604 36.3716L101.285 32.642C101.207 32.446 101.123 32.2164 101.033 31.9532C100.949 31.69 100.868 31.4044 100.79 31.0964C100.711 31.41 100.627 31.7012 100.538 31.97C100.454 32.2332 100.373 32.4628 100.294 32.6588L98.9838 36.3716H102.604ZM106.838 41H104.881C104.662 41 104.483 40.9496 104.343 40.8488C104.209 40.7424 104.108 40.608 104.041 40.4456L103.217 38.1188H98.3622L97.539 40.4456C97.483 40.5856 97.385 40.7144 97.245 40.832C97.105 40.944 96.9286 41 96.7158 41H94.7418L99.5046 28.8116H102.083L106.838 41ZM114.568 31.1468C114.49 31.2756 114.409 31.3708 114.325 31.4324C114.246 31.4884 114.143 31.5164 114.014 31.5164C113.891 31.5164 113.756 31.4744 113.611 31.3904C113.471 31.3008 113.305 31.2056 113.115 31.1048C112.925 31.004 112.706 30.9116 112.46 30.8276C112.213 30.738 111.925 30.6932 111.595 30.6932C111.012 30.6932 110.575 30.8248 110.284 31.088C109.993 31.3456 109.847 31.6844 109.847 32.1044C109.847 32.3732 109.926 32.5972 110.083 32.7764C110.245 32.95 110.455 33.1012 110.713 33.23C110.976 33.3588 111.273 33.4736 111.603 33.5744C111.933 33.6752 112.272 33.7872 112.619 33.9104C112.967 34.028 113.305 34.168 113.636 34.3304C113.966 34.4928 114.26 34.6972 114.518 34.9436C114.781 35.19 114.991 35.4924 115.148 35.8508C115.31 36.2036 115.391 36.6348 115.391 37.1444C115.391 37.6988 115.293 38.2196 115.097 38.7068C114.907 39.1884 114.63 39.6112 114.266 39.9752C113.902 40.3336 113.451 40.6164 112.913 40.8236C112.381 41.0308 111.777 41.1344 111.099 41.1344C110.713 41.1344 110.326 41.0952 109.94 41.0168C109.559 40.9384 109.189 40.8292 108.831 40.6892C108.478 40.5492 108.145 40.3812 107.831 40.1852C107.518 39.9892 107.243 39.7708 107.008 39.53L107.747 38.3372C107.809 38.2476 107.89 38.1748 107.991 38.1188C108.092 38.0572 108.198 38.0264 108.31 38.0264C108.461 38.0264 108.621 38.0824 108.789 38.1944C108.957 38.3064 109.15 38.4296 109.369 38.564C109.587 38.6984 109.839 38.8216 110.125 38.9336C110.416 39.0456 110.763 39.1016 111.166 39.1016C111.754 39.1016 112.208 38.9672 112.527 38.6984C112.852 38.4296 113.014 38.0292 113.014 37.4972C113.014 37.1892 112.933 36.94 112.771 36.7496C112.614 36.5592 112.407 36.3996 112.149 36.2708C111.891 36.142 111.597 36.0328 111.267 35.9432C110.937 35.848 110.598 35.7444 110.251 35.6324C109.903 35.5204 109.565 35.386 109.234 35.2292C108.904 35.0724 108.61 34.8652 108.352 34.6076C108.095 34.35 107.885 34.0308 107.722 33.65C107.565 33.2692 107.487 32.796 107.487 32.2304C107.487 31.7768 107.577 31.3372 107.756 30.9116C107.935 30.486 108.198 30.108 108.545 29.7776C108.893 29.4472 109.318 29.1812 109.822 28.9796C110.332 28.778 110.914 28.6772 111.569 28.6772C112.303 28.6772 112.981 28.792 113.602 29.0216C114.229 29.2456 114.759 29.5592 115.19 29.9624L114.568 31.1468Z" fill="white"/>
</svg>
