<svg width="223" height="36" viewBox="0 0 223 36" fill="none" xmlns="http://www.w3.org/2000/svg">
<path fill-rule="evenodd" clip-rule="evenodd" d="M13.973 0C22.1152 0 26.7531 3.27779 26.7531 8.97292C26.7531 12.6268 24.9762 15.3676 21.6714 16.9786C25.1741 18.7537 26.8521 21.3861 26.8521 25.1468C26.8521 29.3376 24.7287 32.7222 21.1764 34.3348C18.7593 35.4645 15.6493 36 11.7027 36L10.9651 35.9985L10.2675 35.9892L9.60332 35.9737C9.3862 35.9691 9.17386 35.9613 8.96472 35.9536L8.34208 35.9242C8.03395 35.9087 7.72901 35.8886 7.42408 35.8654L6.81261 35.8143L6.18997 35.7524L5.55297 35.6827L4.89201 35.6007L4.19912 35.5079L3.46473 35.3995L2.68722 35.2819L1.85384 35.1488L0.958199 35.0034L0.5 34.926L5.23686 0.538561L6.4087 0.410111L7.75456 0.270828L8.64861 0.190353L9.20739 0.143926L9.75339 0.106784L10.2914 0.0758318L10.8342 0.0510704L11.3882 0.0309518L11.971 0.0154759L12.5888 0.00773794L13.6042 0H13.9714H13.973ZM214.655 0.323446L222.5 35.5713H213.962L212.531 28.2094H201.033L197.432 35.5713H188.943L207.153 0.323446H214.653H214.655ZM190.814 0.323446L185.978 35.5713H177.737L182.574 0.323446H190.814ZM136.628 0.323446L144.475 35.5713H135.939L134.507 28.2094H123.01L119.407 35.5713H111.185L126.3 5.81119H121.41L121.42 0.324994H136.63L136.628 0.323446ZM110.789 0.323446L109.852 7.30771H98.7973L97.8602 14.1852H107.383L106.446 20.8476H96.9725L95.9348 28.3704H109.457L107.73 35.5713H86.9544L91.7887 0.323446H110.787H110.789ZM76.2801 0.323446L72.4804 27.886H84.8662L83.0398 35.5729H63.2031L68.0389 0.323446H76.2801ZM51.9764 0.323446L59.8233 35.5713H51.2867L49.8546 28.2094H38.3565L34.7548 35.5713H26.2661L44.476 0.323446H51.9764ZM169.887 2.52566C172.157 4.35182 173.509 7.46866 173.509 11.0157C173.509 15.2793 171.239 18.8728 167.197 20.9358L166.941 21.0642L174.523 35.5713H165.155L159.65 23.3732H156.947L155.304 35.5713H147.24L151.972 0.537013L152.748 0.447253L153.818 0.331184L154.787 0.235233L155.389 0.181068L155.964 0.136188L156.515 0.0990457L157.051 0.0680939L157.578 0.0433325L158.1 0.026309L158.627 0.0123807L159.158 0.00464277L159.989 0C164.768 0 167.668 0.752128 169.887 2.52566ZM13.1332 20.4189H10.5181L9.28402 29.3376C10.4686 29.6069 11.2589 29.7137 12.2456 29.7137C16.0931 29.7137 18.2644 28.1027 18.2644 25.2009C18.2644 22.2992 16.2416 20.4189 13.1332 20.4189ZM209.225 11.4986L203.698 22.5143H211.446L209.227 11.4986H209.225ZM131.202 11.4986L125.675 22.5143H133.421L131.202 11.4986ZM46.5482 11.4986L41.0211 22.5143H48.769L46.5498 11.4986H46.5482ZM160.616 7.03843L160.126 7.04153L159.746 7.05236C159.613 7.057 159.474 7.06474 159.334 7.07557L159.12 7.0926L157.768 17.1937H161.243C163.368 17.1937 165.445 14.7238 165.591 12.0898C165.734 9.02708 163.803 7.03843 160.616 7.03843ZM14.1199 6.01702L13.6058 6.02012C13.344 6.02321 13.0678 6.03095 12.758 6.05107L12.4914 6.07119L11.2589 14.8832H14.9101C16.7349 14.8832 18.5119 12.7893 18.6619 10.3704C18.8056 7.73794 17.0303 6.01857 14.1183 6.01857L14.1199 6.01702Z" fill="white"/>
</svg>
