<svg width="271" height="45" viewBox="0 0 271 45" fill="none" xmlns="http://www.w3.org/2000/svg">
<path fill-rule="evenodd" clip-rule="evenodd" d="M16.4467 0C26.3861 0 32.0477 4.09724 32.0477 11.2161C32.0477 15.7835 29.8785 19.2094 25.8443 21.2232C30.1202 23.4421 32.1685 26.7327 32.1685 31.4335C32.1685 36.672 29.5765 40.9028 25.2402 42.9185C22.2895 44.3307 18.4931 45 13.6754 45L12.775 44.9981L11.9234 44.9865L11.1126 44.9671C10.8476 44.9613 10.5884 44.9516 10.3331 44.942L9.57298 44.9052C9.19685 44.8859 8.82461 44.8607 8.45237 44.8317L7.70594 44.7679L6.94587 44.6905L6.16826 44.6034L5.36142 44.5009L4.51559 44.3848L3.6191 44.2494L2.66999 44.1024L1.65266 43.936L0.559334 43.7542L0 43.6575L5.78238 0.673201L7.21287 0.512639L8.85579 0.338535L9.94717 0.237942L10.6293 0.179907L11.2958 0.13348L11.9526 0.0947898L12.6152 0.063838L13.2915 0.0386897L14.0028 0.0193449L14.757 0.00967243L15.9965 0H16.4448H16.4467ZM261.423 0.404307L271 44.4642H260.577L258.831 35.2618H244.795L240.398 44.4642H230.036L252.265 0.404307H261.421H261.423ZM232.32 0.404307L226.417 44.4642H216.357L222.262 0.404307H232.32ZM166.175 0.404307L175.753 44.4642H165.333L163.585 35.2618H149.551L145.152 44.4642H135.115L153.567 7.26399H147.598L147.609 0.406242H166.177L166.175 0.404307ZM134.632 0.404307L133.488 9.13464H119.994L118.85 17.7315H130.475L129.331 26.0595H117.766L116.499 35.463H133.006L130.898 44.4642H105.537L111.438 0.404307H134.63H134.632ZM92.5064 0.404307L87.868 34.8575H102.988L100.758 44.4661H76.5429L82.4462 0.404307H92.5064ZM62.8383 0.404307L72.4171 44.4642H61.9964L60.2482 35.2618H46.2122L41.8155 44.4642H31.4533L53.6824 0.404307H62.8383ZM206.774 3.15708C209.545 5.43977 211.196 9.33583 211.196 13.7697C211.196 19.0992 208.425 23.5911 203.49 26.1697L203.178 26.3303L212.434 44.4642H200.998L194.278 29.2165H190.978L188.973 44.4642H179.129L184.906 0.671266L185.853 0.559066L187.158 0.41398L188.341 0.294042L189.076 0.226335L189.778 0.170235L190.45 0.123807L191.105 0.0851174L191.748 0.0541656L192.385 0.0328863L193.029 0.0154759L193.678 0.00580346L194.691 0C200.526 0 204.065 0.94016 206.774 3.15708ZM15.4216 25.5236H12.2293L10.7228 36.672C12.1689 37.0086 13.1336 37.1421 14.338 37.1421C19.0349 37.1421 21.6854 35.1283 21.6854 31.5012C21.6854 27.874 19.2161 25.5236 15.4216 25.5236ZM254.795 14.3732L248.048 28.1429H257.506L254.797 14.3732H254.795ZM159.55 14.3732L152.803 28.1429H162.259L159.55 14.3732ZM56.212 14.3732L49.465 28.1429H58.923L56.214 14.3732H56.212ZM195.457 8.79804L194.859 8.80191L194.395 8.81545C194.233 8.82125 194.063 8.83093 193.892 8.84447L193.631 8.86575L191.98 21.4921H196.223C198.817 21.4921 201.352 18.4047 201.53 15.1122C201.705 11.2839 199.347 8.79804 195.457 8.79804ZM16.626 7.52128L15.9985 7.52515C15.6789 7.52902 15.3417 7.53869 14.9636 7.56384L14.6382 7.58899L13.1336 18.6039H17.5907C19.8183 18.6039 21.9875 15.9866 22.1707 12.963C22.3461 9.67243 20.1789 7.52321 16.6241 7.52321L16.626 7.52128Z" fill="#008193"/>
</svg>
