<svg width="144" height="41" viewBox="0 0 144 41" fill="none" xmlns="http://www.w3.org/2000/svg">
<path fill-rule="evenodd" clip-rule="evenodd" d="M8.70034 0.256836C13.9583 0.256836 16.9532 2.37351 16.9532 6.0512C16.9532 8.41072 15.8058 10.1806 13.6717 11.221C15.9336 12.3672 17.0172 14.0672 17.0172 16.4957C17.0172 19.202 15.646 21.3876 13.3521 22.4289C11.7912 23.1585 9.78285 23.5043 7.2343 23.5043L6.75799 23.5033L6.30746 23.4973L5.87858 23.4873C5.73837 23.4843 5.60125 23.4793 5.46619 23.4743L5.06411 23.4553C4.86514 23.4453 4.66822 23.4323 4.47131 23.4173L4.07645 23.3843L3.67437 23.3444L3.26301 23.2994L2.83619 23.2464L2.38875 23.1865L1.91451 23.1165L1.41243 23.0406L0.87426 22.9546L0.295888 22.8607L0 22.8107L3.05888 0.604618L3.81561 0.52167L4.68472 0.431726L5.26206 0.379759L5.6229 0.349778L5.97549 0.325793L6.32292 0.305805L6.67345 0.289815L7.0312 0.276823L7.4075 0.26683L7.80649 0.261833L8.46218 0.256836H8.6993H8.70034ZM138.293 0.465705L143.359 23.2274H137.846L136.922 18.4734H129.497L127.171 23.2274H121.689L133.448 0.465705H138.292H138.293ZM122.898 0.465705L119.775 23.2274H114.453L117.577 0.465705H122.898ZM87.9065 0.465705L92.9737 23.2274H87.4611L86.5363 18.4734H79.1123L76.7854 23.2274H71.476L81.2372 4.00948H78.0793L78.0855 0.466704H87.9075L87.9065 0.465705ZM71.2203 0.465705L70.6151 4.97588H63.4767L62.8715 9.41709H69.0212L68.416 13.7194H62.2983L61.6282 18.5774H70.3605L69.2449 23.2274H55.829L58.9507 0.465705H71.2192H71.2203ZM48.9359 0.465705L46.4822 18.2645H54.4805L53.301 23.2284H40.4913L43.6141 0.465705H48.9359ZM33.2415 0.465705L38.3087 23.2274H32.7961L31.8713 18.4734H24.4463L22.1204 23.2274H16.6388L28.398 0.465705H33.2415ZM109.384 1.88781C110.85 3.06707 111.723 5.07981 111.723 7.37038C111.723 10.1237 110.257 12.4442 107.646 13.7764L107.481 13.8593L112.378 23.2274H106.328L102.773 15.3504H101.028L99.9667 23.2274H94.7593L97.8151 0.603619L98.3162 0.545655L99.0069 0.470702L99.6327 0.408741L100.021 0.373763L100.393 0.344781L100.748 0.320796L101.095 0.300808L101.435 0.284818L101.772 0.273825L102.112 0.264831L102.455 0.259834L102.992 0.256836C106.078 0.256836 107.951 0.742531 109.384 1.88781ZM8.15805 13.4426H6.46932L5.67238 19.202C6.43736 19.3759 6.94769 19.4448 7.58483 19.4448C10.0695 19.4448 11.4716 18.4045 11.4716 16.5306C11.4716 14.6568 10.1653 13.4426 8.15805 13.4426ZM134.787 7.68218L131.217 14.7957H136.221L134.788 7.68218H134.787ZM84.4022 7.68218L80.833 14.7957H85.8353L84.4022 7.68218ZM29.7362 7.68218L26.167 14.7957H31.1703L29.7372 7.68218H29.7362ZM103.397 4.80199L103.08 4.80399L102.835 4.81098C102.749 4.81398 102.66 4.81898 102.569 4.82597L102.431 4.83697L101.558 11.3599H103.802C105.174 11.3599 106.515 9.76488 106.609 8.06394C106.702 6.08618 105.455 4.80199 103.397 4.80199ZM8.79519 4.1424L8.46321 4.1444C8.29413 4.1464 8.11578 4.15139 7.91577 4.16439L7.7436 4.17738L6.94769 9.86781H9.30551C10.4839 9.86781 11.6314 8.51566 11.7283 6.95364C11.8211 5.2537 10.6746 4.1434 8.79415 4.1434L8.79519 4.1424Z" fill="white"/>
<path d="M28.229 36.8483L28.2233 37.7441H23.2171V29.6196H28.2233V30.5154H24.317V33.2142H27.4806V34.0759H24.317V36.8483H28.229ZM34.2404 37.7441H33.2709C33.1878 37.7441 33.1216 37.7234 33.0725 37.6818C33.0271 37.6364 32.9893 37.5873 32.9591 37.5344L31.5134 35.2835C31.4982 35.3365 31.4812 35.3894 31.4623 35.4423C31.4472 35.4914 31.4245 35.5368 31.3943 35.5784L30.0563 37.5344C30.0185 37.5873 29.9769 37.6364 29.9316 37.6818C29.89 37.7234 29.8314 37.7441 29.7558 37.7441H28.8543L30.867 34.796L28.9337 32.0009H29.9032C29.9864 32.0009 30.0468 32.0141 30.0846 32.0406C30.1224 32.067 30.1564 32.1048 30.1867 32.1539L31.5984 34.3084C31.6286 34.1988 31.6759 34.0929 31.7401 33.9909L32.9761 32.1766C33.0101 32.1237 33.046 32.0821 33.0838 32.0519C33.1254 32.0179 33.1745 32.0009 33.2312 32.0009H34.1611L32.2277 34.7449L34.2404 37.7441ZM36.1856 36.3608C36.3708 36.6102 36.573 36.786 36.7923 36.888C37.0115 36.9901 37.2572 37.0411 37.5293 37.0411C38.066 37.0411 38.478 36.8502 38.7653 36.4685C39.0525 36.0867 39.1962 35.5425 39.1962 34.8357C39.1962 34.4615 39.1621 34.1402 39.0941 33.8718C39.0299 33.6035 38.9354 33.3842 38.8106 33.2142C38.6859 33.0403 38.5328 32.9137 38.3514 32.8343C38.17 32.7549 37.964 32.7152 37.7334 32.7152C37.4046 32.7152 37.1154 32.7908 36.866 32.942C36.6203 33.0932 36.3935 33.3068 36.1856 33.5827V36.3608ZM36.1346 32.891C36.3765 32.5924 36.6562 32.3524 36.9737 32.171C37.2912 31.9895 37.654 31.8988 38.0622 31.8988C38.3949 31.8988 38.6953 31.9631 38.9637 32.0916C39.2321 32.2163 39.4607 32.4034 39.6497 32.6529C39.8387 32.8985 39.9842 33.2047 40.0863 33.5713C40.1883 33.938 40.2394 34.3594 40.2394 34.8357C40.2394 35.259 40.1827 35.654 40.0693 36.0206C39.9559 36.3834 39.7915 36.699 39.576 36.9674C39.3644 37.232 39.1036 37.4418 38.7936 37.5967C38.4875 37.7479 38.1416 37.8235 37.7561 37.8235C37.4046 37.8235 37.1022 37.7649 36.849 37.6478C36.5995 37.5268 36.3784 37.3605 36.1856 37.1488V39.6888H35.1708V32.0009H35.7774C35.921 32.0009 36.0099 32.0708 36.0439 32.2106L36.1346 32.891ZM45.3709 34.246C45.3709 34.0117 45.3368 33.7981 45.2688 33.6054C45.2045 33.4088 45.1082 33.2406 44.9797 33.1008C44.8549 32.9571 44.7018 32.8475 44.5204 32.7719C44.339 32.6926 44.133 32.6529 43.9024 32.6529C43.4186 32.6529 43.035 32.7946 42.7515 33.0781C42.4718 33.3578 42.2979 33.7471 42.2299 34.246H45.3709ZM46.1873 36.9391C46.0625 37.0903 45.9132 37.2225 45.7394 37.3359C45.5655 37.4455 45.3784 37.5363 45.1781 37.6081C44.9815 37.6799 44.7774 37.7328 44.5658 37.7668C44.3541 37.8046 44.1443 37.8235 43.9365 37.8235C43.5396 37.8235 43.173 37.7574 42.8366 37.6251C42.5039 37.489 42.2148 37.2925 41.9691 37.0354C41.7272 36.7746 41.5382 36.4534 41.4022 36.0716C41.2661 35.6899 41.1981 35.2514 41.1981 34.7563C41.1981 34.3556 41.2585 33.9814 41.3795 33.6337C41.5042 33.286 41.6819 32.9855 41.9124 32.7322C42.143 32.4752 42.4246 32.2749 42.7572 32.1313C43.0898 31.9839 43.464 31.9102 43.8798 31.9102C44.2237 31.9102 44.5412 31.9687 44.8322 32.0859C45.1271 32.1993 45.3803 32.3656 45.592 32.5848C45.8074 32.8003 45.9756 33.0686 46.0966 33.3899C46.2175 33.7074 46.278 34.0703 46.278 34.4785C46.278 34.6372 46.261 34.743 46.227 34.796C46.1929 34.8489 46.1287 34.8753 46.0342 34.8753H42.1959C42.2072 35.2382 42.2564 35.5538 42.3433 35.8222C42.434 36.0905 42.5587 36.3154 42.7175 36.4968C42.8762 36.6745 43.0652 36.8087 43.2845 36.8994C43.5037 36.9863 43.7494 37.0298 44.0215 37.0298C44.2747 37.0298 44.4921 37.0014 44.6735 36.9447C44.8587 36.8843 45.0175 36.82 45.1497 36.752C45.282 36.6839 45.3916 36.6216 45.4786 36.5649C45.5693 36.5044 45.6468 36.4742 45.711 36.4742C45.7942 36.4742 45.8584 36.5063 45.9038 36.5705L46.1873 36.9391ZM48.4757 33.1518C48.6572 32.7587 48.8802 32.4525 49.1448 32.2333C49.4093 32.0103 49.7325 31.8988 50.1143 31.8988C50.2352 31.8988 50.3505 31.912 50.4601 31.9385C50.5735 31.965 50.6736 32.0065 50.7606 32.0632L50.6869 32.8173C50.6642 32.9118 50.6075 32.959 50.5168 32.959C50.4639 32.959 50.3864 32.9477 50.2843 32.925C50.1823 32.9023 50.067 32.891 49.9385 32.891C49.7571 32.891 49.5945 32.9174 49.4509 32.9704C49.3111 33.0233 49.1844 33.1027 49.071 33.2085C48.9614 33.3105 48.8613 33.439 48.7706 33.594C48.6836 33.7452 48.6043 33.9191 48.5324 34.1156V37.7441H47.5176V32.0009H48.0959C48.2055 32.0009 48.2811 32.0217 48.3227 32.0632C48.3642 32.1048 48.3926 32.1766 48.4077 32.2787L48.4757 33.1518ZM52.7138 32.0009V37.7441H51.7047V32.0009H52.7138ZM52.9293 30.1979C52.9293 30.2962 52.9085 30.3888 52.8669 30.4758C52.8291 30.5589 52.7762 30.6345 52.7082 30.7025C52.6439 30.7668 52.5664 30.8178 52.4757 30.8556C52.3888 30.8934 52.2962 30.9123 52.1979 30.9123C52.0996 30.9123 52.007 30.8934 51.9201 30.8556C51.8369 30.8178 51.7632 30.7668 51.699 30.7025C51.6347 30.6345 51.5837 30.5589 51.5459 30.4758C51.5081 30.3888 51.4892 30.2962 51.4892 30.1979C51.4892 30.0997 51.5081 30.0071 51.5459 29.9201C51.5837 29.8294 51.6347 29.7519 51.699 29.6877C51.7632 29.6196 51.8369 29.5667 51.9201 29.5289C52.007 29.4911 52.0996 29.4722 52.1979 29.4722C52.2962 29.4722 52.3888 29.4911 52.4757 29.5289C52.5664 29.5667 52.6439 29.6196 52.7082 29.6877C52.7762 29.7519 52.8291 29.8294 52.8669 29.9201C52.9085 30.0071 52.9293 30.0997 52.9293 30.1979ZM58.216 34.246C58.216 34.0117 58.182 33.7981 58.1139 33.6054C58.0497 33.4088 57.9533 33.2406 57.8248 33.1008C57.7 32.9571 57.547 32.8475 57.3655 32.7719C57.1841 32.6926 56.9781 32.6529 56.7476 32.6529C56.2638 32.6529 55.8801 32.7946 55.5966 33.0781C55.3169 33.3578 55.1431 33.7471 55.075 34.246H58.216ZM59.0324 36.9391C58.9077 37.0903 58.7584 37.2225 58.5845 37.3359C58.4106 37.4455 58.2235 37.5363 58.0232 37.6081C57.8267 37.6799 57.6226 37.7328 57.4109 37.7668C57.1992 37.8046 56.9895 37.8235 56.7816 37.8235C56.3847 37.8235 56.0181 37.7574 55.6817 37.6251C55.3491 37.489 55.0599 37.2925 54.8142 37.0354C54.5723 36.7746 54.3833 36.4534 54.2473 36.0716C54.1112 35.6899 54.0432 35.2514 54.0432 34.7563C54.0432 34.3556 54.1036 33.9814 54.2246 33.6337C54.3493 33.286 54.527 32.9855 54.7575 32.7322C54.9881 32.4752 55.2697 32.2749 55.6023 32.1313C55.9349 31.9839 56.3091 31.9102 56.7249 31.9102C57.0688 31.9102 57.3863 31.9687 57.6774 32.0859C57.9722 32.1993 58.2254 32.3656 58.4371 32.5848C58.6525 32.8003 58.8207 33.0686 58.9417 33.3899C59.0626 33.7074 59.1231 34.0703 59.1231 34.4785C59.1231 34.6372 59.1061 34.743 59.0721 34.796C59.0381 34.8489 58.9738 34.8753 58.8793 34.8753H55.041C55.0524 35.2382 55.1015 35.5538 55.1884 35.8222C55.2791 36.0905 55.4039 36.3154 55.5626 36.4968C55.7214 36.6745 55.9104 36.8087 56.1296 36.8994C56.3488 36.9863 56.5945 37.0298 56.8666 37.0298C57.1199 37.0298 57.3372 37.0014 57.5186 36.9447C57.7038 36.8843 57.8626 36.82 57.9949 36.752C58.1272 36.6839 58.2368 36.6216 58.3237 36.5649C58.4144 36.5044 58.4919 36.4742 58.5562 36.4742C58.6393 36.4742 58.7036 36.5063 58.7489 36.5705L59.0324 36.9391ZM61.3152 32.8343C61.4399 32.6944 61.5722 32.5678 61.7121 32.4544C61.8519 32.341 61.9993 32.2447 62.1543 32.1653C62.313 32.0821 62.4793 32.0198 62.6532 31.9782C62.8309 31.9328 63.0217 31.9102 63.2258 31.9102C63.5396 31.9102 63.8155 31.9631 64.0536 32.0689C64.2955 32.171 64.4958 32.3184 64.6546 32.5111C64.8171 32.7001 64.9399 32.9288 65.0231 33.1971C65.1062 33.4655 65.1478 33.7622 65.1478 34.0873V37.7441H64.133V34.0873C64.133 33.6526 64.0328 33.3162 63.8325 33.0781C63.6359 32.8362 63.3355 32.7152 62.931 32.7152C62.6324 32.7152 62.3527 32.787 62.0919 32.9307C61.8349 33.0743 61.5968 33.269 61.3776 33.5146V37.7441H60.3627V32.0009H60.9694C61.113 32.0009 61.2018 32.0708 61.2358 32.2106L61.3152 32.8343ZM70.6827 33.0214C70.6524 33.063 70.6222 33.0951 70.5919 33.1178C70.5617 33.1404 70.5201 33.1518 70.4672 33.1518C70.4105 33.1518 70.3482 33.1291 70.2801 33.0838C70.2121 33.0346 70.127 32.9817 70.025 32.925C69.9267 32.8683 69.8039 32.8173 69.6565 32.7719C69.5128 32.7228 69.3352 32.6982 69.1235 32.6982C68.84 32.6982 68.5906 32.7492 68.3751 32.8513C68.1597 32.9496 67.9783 33.0932 67.8309 33.2822C67.6872 33.4712 67.5776 33.6998 67.502 33.9682C67.4302 34.2366 67.3943 34.5371 67.3943 34.8697C67.3943 35.2174 67.434 35.5273 67.5134 35.7995C67.5927 36.0678 67.7042 36.2946 67.8479 36.4798C67.9953 36.6613 68.171 36.8011 68.3751 36.8994C68.583 36.9939 68.8155 37.0411 69.0725 37.0411C69.3182 37.0411 69.5204 37.0128 69.6791 36.9561C69.8379 36.8956 69.9683 36.8294 70.0703 36.7576C70.1762 36.6858 70.2631 36.6216 70.3311 36.5649C70.403 36.5044 70.4729 36.4742 70.5409 36.4742C70.6241 36.4742 70.6883 36.5063 70.7337 36.5705L71.0172 36.9391C70.8924 37.094 70.7507 37.2263 70.5919 37.3359C70.4332 37.4455 70.2612 37.5381 70.076 37.6137C69.8946 37.6856 69.7037 37.7385 69.5034 37.7725C69.3031 37.8065 69.099 37.8235 68.8911 37.8235C68.532 37.8235 68.1975 37.7574 67.8876 37.6251C67.5814 37.4928 67.3149 37.3019 67.0881 37.0525C66.8614 36.7992 66.6837 36.4893 66.5552 36.1226C66.4267 35.756 66.3624 35.3384 66.3624 34.8697C66.3624 34.4426 66.421 34.0476 66.5382 33.6847C66.6592 33.3219 66.833 33.01 67.0598 32.7492C67.2904 32.4847 67.572 32.2787 67.9046 32.1313C68.241 31.9839 68.6265 31.9102 69.0612 31.9102C69.4656 31.9102 69.8209 31.9763 70.127 32.1086C70.437 32.2371 70.711 32.4204 70.9491 32.6585L70.6827 33.0214ZM73.1664 32.0009V37.7441H72.1572V32.0009H73.1664ZM73.3818 30.1979C73.3818 30.2962 73.361 30.3888 73.3194 30.4758C73.2817 30.5589 73.2287 30.6345 73.1607 30.7025C73.0964 30.7668 73.019 30.8178 72.9282 30.8556C72.8413 30.8934 72.7487 30.9123 72.6504 30.9123C72.5522 30.9123 72.4596 30.8934 72.3726 30.8556C72.2895 30.8178 72.2158 30.7668 72.1515 30.7025C72.0873 30.6345 72.0362 30.5589 71.9984 30.4758C71.9606 30.3888 71.9417 30.2962 71.9417 30.1979C71.9417 30.0997 71.9606 30.0071 71.9984 29.9201C72.0362 29.8294 72.0873 29.7519 72.1515 29.6877C72.2158 29.6196 72.2895 29.5667 72.3726 29.5289C72.4596 29.4911 72.5522 29.4722 72.6504 29.4722C72.7487 29.4722 72.8413 29.4911 72.9282 29.5289C73.019 29.5667 73.0964 29.6196 73.1607 29.6877C73.2287 29.7519 73.2817 29.8294 73.3194 29.9201C73.361 30.0071 73.3818 30.0997 73.3818 30.1979ZM77.9371 35.1588C77.4722 35.1739 77.0754 35.2117 76.7465 35.2722C76.4215 35.3289 76.155 35.4045 75.9471 35.499C75.743 35.5935 75.5937 35.705 75.4992 35.8335C75.4085 35.962 75.3632 36.1056 75.3632 36.2644C75.3632 36.4156 75.3877 36.546 75.4369 36.6556C75.486 36.7652 75.5521 36.8559 75.6353 36.9277C75.7222 36.9958 75.8224 37.0468 75.9358 37.0808C76.053 37.111 76.1777 37.1262 76.31 37.1262C76.4876 37.1262 76.6501 37.1091 76.7976 37.0751C76.945 37.0373 77.0829 36.9844 77.2114 36.9164C77.3437 36.8483 77.4685 36.7671 77.5856 36.6726C77.7066 36.5781 77.8237 36.4704 77.9371 36.3494V35.1588ZM74.6771 32.8116C74.9946 32.5055 75.3367 32.2768 75.7033 32.1256C76.07 31.9744 76.4763 31.8988 76.9223 31.8988C77.2436 31.8988 77.5289 31.9517 77.7784 32.0576C78.0279 32.1634 78.2376 32.3108 78.4077 32.4998C78.5778 32.6888 78.7063 32.9174 78.7932 33.1858C78.8802 33.4542 78.9236 33.749 78.9236 34.0703V37.7441H78.4757C78.3775 37.7441 78.3019 37.729 78.249 37.6988C78.196 37.6648 78.1545 37.6005 78.1242 37.506L78.0108 36.9617C77.8597 37.1016 77.7122 37.2263 77.5686 37.3359C77.425 37.4418 77.2738 37.5325 77.1151 37.6081C76.9563 37.6799 76.7862 37.7347 76.6048 37.7725C76.4271 37.8141 76.2287 37.8349 76.0095 37.8349C75.7865 37.8349 75.5767 37.8046 75.3802 37.7441C75.1836 37.6799 75.0116 37.5854 74.8642 37.4607C74.7206 37.3359 74.6053 37.1791 74.5184 36.9901C74.4352 36.7973 74.3937 36.5705 74.3937 36.3097C74.3937 36.083 74.456 35.8656 74.5808 35.6577C74.7055 35.4461 74.9077 35.259 75.1874 35.0965C75.4671 34.9339 75.8318 34.8016 76.2816 34.6996C76.7314 34.5937 77.2832 34.5333 77.9371 34.5182V34.0703C77.9371 33.6243 77.8408 33.2879 77.648 33.0611C77.4552 32.8305 77.1736 32.7152 76.8032 32.7152C76.5538 32.7152 76.344 32.7474 76.1739 32.8116C76.0076 32.8721 75.8621 32.942 75.7373 33.0214C75.6164 33.097 75.5106 33.1669 75.4198 33.2312C75.3329 33.2916 75.246 33.3219 75.159 33.3219C75.091 33.3219 75.0324 33.3049 74.9833 33.2708C74.9342 33.2331 74.8926 33.1877 74.8586 33.1348L74.6771 32.8116ZM86.4747 35.1588C86.0098 35.1739 85.6129 35.2117 85.2841 35.2722C84.959 35.3289 84.6926 35.4045 84.4847 35.499C84.2806 35.5935 84.1313 35.705 84.0368 35.8335C83.9461 35.962 83.9007 36.1056 83.9007 36.2644C83.9007 36.4156 83.9253 36.546 83.9744 36.6556C84.0236 36.7652 84.0897 36.8559 84.1729 36.9277C84.2598 36.9958 84.36 37.0468 84.4734 37.0808C84.5905 37.111 84.7153 37.1262 84.8475 37.1262C85.0252 37.1262 85.1877 37.1091 85.3351 37.0751C85.4825 37.0373 85.6205 36.9844 85.749 36.9164C85.8813 36.8483 86.006 36.7671 86.1232 36.6726C86.2442 36.5781 86.3613 36.4704 86.4747 36.3494V35.1588ZM83.2147 32.8116C83.5322 32.5055 83.8743 32.2768 84.2409 32.1256C84.6075 31.9744 85.0139 31.8988 85.4599 31.8988C85.7811 31.8988 86.0665 31.9517 86.316 32.0576C86.5654 32.1634 86.7752 32.3108 86.9453 32.4998C87.1154 32.6888 87.2439 32.9174 87.3308 33.1858C87.4178 33.4542 87.4612 33.749 87.4612 34.0703V37.7441H87.0133C86.9151 37.7441 86.8395 37.729 86.7865 37.6988C86.7336 37.6648 86.692 37.6005 86.6618 37.506L86.5484 36.9617C86.3972 37.1016 86.2498 37.2263 86.1062 37.3359C85.9626 37.4418 85.8114 37.5325 85.6526 37.6081C85.4939 37.6799 85.3238 37.7347 85.1424 37.7725C84.9647 37.8141 84.7663 37.8349 84.5471 37.8349C84.3241 37.8349 84.1143 37.8046 83.9177 37.7441C83.7212 37.6799 83.5492 37.5854 83.4018 37.4607C83.2582 37.3359 83.1429 37.1791 83.056 36.9901C82.9728 36.7973 82.9312 36.5705 82.9312 36.3097C82.9312 36.083 82.9936 35.8656 83.1183 35.6577C83.2431 35.4461 83.4453 35.259 83.725 35.0965C84.0047 34.9339 84.3694 34.8016 84.8192 34.6996C85.269 34.5937 85.8208 34.5333 86.4747 34.5182V34.0703C86.4747 33.6243 86.3783 33.2879 86.1856 33.0611C85.9928 32.8305 85.7112 32.7152 85.3408 32.7152C85.0913 32.7152 84.8816 32.7474 84.7115 32.8116C84.5452 32.8721 84.3997 32.942 84.2749 33.0214C84.154 33.097 84.0481 33.1669 83.9574 33.2312C83.8705 33.2916 83.7836 33.3219 83.6966 33.3219C83.6286 33.3219 83.57 33.3049 83.5209 33.2708C83.4717 33.2331 83.4302 33.1877 83.3961 33.1348L83.2147 32.8116ZM92.9146 36.3608C93.0998 36.6102 93.302 36.786 93.5212 36.888C93.7442 36.9901 93.988 37.0411 94.2526 37.0411C94.7931 37.0411 95.2069 36.8502 95.4942 36.4685C95.7815 36.0867 95.9251 35.5179 95.9251 34.7619C95.9251 34.0589 95.7966 33.543 95.5396 33.2142C95.2863 32.8815 94.9235 32.7152 94.451 32.7152C94.1222 32.7152 93.8349 32.7908 93.5892 32.942C93.3473 33.0932 93.1224 33.3068 92.9146 33.5827V36.3608ZM92.9146 32.8286C93.1565 32.5489 93.4286 32.3259 93.731 32.1596C94.0371 31.9933 94.3886 31.9102 94.7855 31.9102C95.1219 31.9102 95.4243 31.9744 95.6926 32.1029C95.9648 32.2314 96.1953 32.4185 96.3843 32.6642C96.5733 32.9061 96.7169 33.2009 96.8152 33.5487C96.9173 33.8964 96.9683 34.2876 96.9683 34.7223C96.9683 35.1872 96.9116 35.6105 96.7982 35.9922C96.6848 36.374 96.5204 36.7009 96.305 36.9731C96.0933 37.2414 95.8344 37.4512 95.5282 37.6024C95.2221 37.7498 94.8781 37.8235 94.4964 37.8235C94.1184 37.8235 93.799 37.7536 93.5382 37.6137C93.2812 37.4701 93.0563 37.2679 92.8635 37.0071L92.8125 37.5287C92.7823 37.6723 92.6953 37.7441 92.5517 37.7441H91.8997V29.3929H92.9146V32.8286ZM100.666 31.9102C101.085 31.9102 101.463 31.9801 101.8 32.1199C102.136 32.2598 102.423 32.4582 102.661 32.7152C102.899 32.9723 103.081 33.2841 103.206 33.6507C103.334 34.0136 103.398 34.4199 103.398 34.8697C103.398 35.3232 103.334 35.7314 103.206 36.0943C103.081 36.4571 102.899 36.7671 102.661 37.0241C102.423 37.2811 102.136 37.4796 101.8 37.6194C101.463 37.7555 101.085 37.8235 100.666 37.8235C100.242 37.8235 99.8606 37.7555 99.5204 37.6194C99.184 37.4796 98.8967 37.2811 98.6586 37.0241C98.4205 36.7671 98.2372 36.4571 98.1087 36.0943C97.9839 35.7314 97.9216 35.3232 97.9216 34.8697C97.9216 34.4199 97.9839 34.0136 98.1087 33.6507C98.2372 33.2841 98.4205 32.9723 98.6586 32.7152C98.8967 32.4582 99.184 32.2598 99.5204 32.1199C99.8606 31.9801 100.242 31.9102 100.666 31.9102ZM100.666 37.0354C101.233 37.0354 101.656 36.8465 101.936 36.4685C102.215 36.0867 102.355 35.5557 102.355 34.8753C102.355 34.1912 102.215 33.6583 101.936 33.2765C101.656 32.8948 101.233 32.7039 100.666 32.7039C100.378 32.7039 100.127 32.753 99.9116 32.8513C99.6999 32.9496 99.5223 33.0913 99.3787 33.2765C99.2388 33.4617 99.133 33.6904 99.0612 33.9625C98.9931 34.2309 98.9591 34.5352 98.9591 34.8753C98.9591 35.5557 99.099 36.0867 99.3787 36.4685C99.6621 36.8465 100.091 37.0354 100.666 37.0354ZM105.637 33.1518C105.818 32.7587 106.041 32.4525 106.306 32.2333C106.57 32.0103 106.893 31.8988 107.275 31.8988C107.396 31.8988 107.511 31.912 107.621 31.9385C107.734 31.965 107.834 32.0065 107.921 32.0632L107.848 32.8173C107.825 32.9118 107.768 32.959 107.678 32.959C107.625 32.959 107.547 32.9477 107.445 32.925C107.343 32.9023 107.228 32.891 107.099 32.891C106.918 32.891 106.755 32.9174 106.612 32.9704C106.472 33.0233 106.345 33.1027 106.232 33.2085C106.122 33.3105 106.022 33.439 105.931 33.594C105.844 33.7452 105.765 33.9191 105.693 34.1156V37.7441H104.678V32.0009H105.257C105.366 32.0009 105.442 32.0217 105.483 32.0632C105.525 32.1048 105.553 32.1766 105.568 32.2787L105.637 33.1518ZM112.329 33.3672C112.14 33.114 111.936 32.9382 111.717 32.84C111.498 32.7379 111.252 32.6869 110.98 32.6869C110.447 32.6869 110.037 32.8778 109.75 33.2595C109.462 33.6413 109.319 34.1855 109.319 34.8923C109.319 35.2665 109.351 35.5878 109.415 35.8562C109.479 36.1208 109.574 36.34 109.699 36.5138C109.823 36.6839 109.976 36.8087 110.158 36.888C110.339 36.9674 110.545 37.0071 110.776 37.0071C111.108 37.0071 111.397 36.9315 111.643 36.7803C111.893 36.6291 112.121 36.4156 112.329 36.1397V33.3672ZM113.338 29.3929V37.7441H112.737C112.594 37.7441 112.503 37.6742 112.465 37.5344L112.375 36.837C112.129 37.1318 111.849 37.3699 111.535 37.5514C111.222 37.7328 110.859 37.8235 110.447 37.8235C110.118 37.8235 109.819 37.7611 109.551 37.6364C109.283 37.5079 109.054 37.3208 108.865 37.0751C108.676 36.8294 108.531 36.5233 108.429 36.1567C108.326 35.79 108.275 35.3686 108.275 34.8923C108.275 34.469 108.332 34.0759 108.446 33.7131C108.559 33.3464 108.721 33.0289 108.933 32.7606C109.145 32.4922 109.404 32.2825 109.71 32.1313C110.02 31.9763 110.368 31.8988 110.753 31.8988C111.105 31.8988 111.405 31.9593 111.655 32.0802C111.908 32.1974 112.133 32.3618 112.329 32.5735V29.3929H113.338ZM117.353 31.9102C117.773 31.9102 118.151 31.9801 118.487 32.1199C118.824 32.2598 119.111 32.4582 119.349 32.7152C119.587 32.9723 119.768 33.2841 119.893 33.6507C120.022 34.0136 120.086 34.4199 120.086 34.8697C120.086 35.3232 120.022 35.7314 119.893 36.0943C119.768 36.4571 119.587 36.7671 119.349 37.0241C119.111 37.2811 118.824 37.4796 118.487 37.6194C118.151 37.7555 117.773 37.8235 117.353 37.8235C116.93 37.8235 116.548 37.7555 116.208 37.6194C115.872 37.4796 115.584 37.2811 115.346 37.0241C115.108 36.7671 114.925 36.4571 114.796 36.0943C114.672 35.7314 114.609 35.3232 114.609 34.8697C114.609 34.4199 114.672 34.0136 114.796 33.6507C114.925 33.2841 115.108 32.9723 115.346 32.7152C115.584 32.4582 115.872 32.2598 116.208 32.1199C116.548 31.9801 116.93 31.9102 117.353 31.9102ZM117.353 37.0354C117.92 37.0354 118.344 36.8465 118.623 36.4685C118.903 36.0867 119.043 35.5557 119.043 34.8753C119.043 34.1912 118.903 33.6583 118.623 33.2765C118.344 32.8948 117.92 32.7039 117.353 32.7039C117.066 32.7039 116.815 32.753 116.599 32.8513C116.388 32.9496 116.21 33.0913 116.066 33.2765C115.926 33.4617 115.821 33.6904 115.749 33.9625C115.681 34.2309 115.647 34.5352 115.647 34.8753C115.647 35.5557 115.787 36.0867 116.066 36.4685C116.35 36.8465 116.779 37.0354 117.353 37.0354Z" fill="white"/>
</svg>
