<svg width="208" height="48" viewBox="0 0 208 48" fill="none" xmlns="http://www.w3.org/2000/svg">
<path d="M29.8568 7.86675C30.585 7.86759 31.3109 7.7834 32.0196 7.61591C32.6961 7.46016 33.3308 7.16003 33.8802 6.73613C34.417 6.31428 34.7902 5.71926 34.9361 5.05291C35.0758 4.33746 34.9461 3.59569 34.572 2.96979C34.2119 2.3393 33.6288 1.86599 32.9371 1.64284C32.4238 1.47497 31.8717 1.4661 31.3532 1.6174C30.8552 1.77255 30.3755 1.98098 29.9223 2.23906C29.3212 2.61625 28.6477 2.86391 27.9452 2.96615C27.2458 3.06483 26.5379 3.0892 25.8334 3.03886C25.1175 2.98703 24.4051 2.89479 23.6997 2.76257C22.9715 2.63169 22.2918 2.49839 21.6607 2.36267L17.1129 1.36655C15.5177 1.01643 13.8923 0.821626 12.2594 0.784874C10.6822 0.74906 9.11034 0.978889 7.6097 1.46471C6.03948 2.00139 4.65174 2.96752 3.60451 4.25311C2.84798 5.19916 2.24473 6.25782 1.81673 7.39051C1.31182 8.64265 0.985782 9.95946 0.848203 11.3023C0.707304 12.5321 0.818804 13.7778 1.1759 14.9632C1.33036 15.4964 1.60872 15.9858 1.98835 16.3913C2.36797 16.7969 2.83812 17.1073 3.36055 17.2971C3.74865 17.4638 4.16907 17.5421 4.59124 17.5262C5.00138 17.5097 5.4034 17.4069 5.77096 17.2244C6.14234 17.0363 6.47566 16.7811 6.75405 16.4719C7.04221 16.1447 7.25588 15.7589 7.38032 15.3413C7.58731 14.7215 7.54287 14.0455 7.25652 13.4581C6.9554 12.8902 6.5888 12.3595 6.16419 11.8767C5.53602 11.1885 5.09479 10.3512 4.88253 9.44455C4.69614 8.63137 4.7212 7.78411 4.95535 6.98334C5.20799 6.17192 5.63833 5.42681 6.21517 4.80206C6.86987 4.09611 7.67665 3.5479 8.57459 3.19882C9.31214 2.90458 10.0885 2.71845 10.8794 2.64623C11.6247 2.57748 12.3758 2.60191 13.115 2.71894C13.8647 2.8411 14.6046 3.01728 15.3288 3.24608C16.057 3.48239 16.7852 3.73323 17.539 4.00226C18.3764 4.30037 19.2248 4.63483 20.0877 5.00565C20.9507 5.37646 21.799 5.73274 22.6365 6.09628C23.4739 6.45983 24.3514 6.77612 25.2253 7.07786C26.0898 7.37867 26.981 7.59657 27.8869 7.72861C28.5382 7.83223 29.1974 7.87846 29.8568 7.86675Z" fill="white"/>
<path d="M22.7204 17.4533C22.4215 17.1192 22.047 16.8612 21.6281 16.7008C21.331 16.5676 21.0103 16.4945 20.6847 16.4857C20.3591 16.477 20.035 16.5328 19.7311 16.6499C19.1381 16.8863 18.5583 17.1545 17.9943 17.4533C17.4127 17.748 16.8028 17.9831 16.1738 18.1549C15.5402 18.328 14.8936 18.4496 14.2403 18.5185C14.5972 17.6751 14.971 16.8425 15.3618 16.0209C15.7526 15.1993 16.1628 14.3886 16.5925 13.5888C16.8586 13.0659 17.1603 12.5618 17.4955 12.0801C17.8594 11.5558 18.1797 11.0026 18.4531 10.426C18.7111 9.88497 18.8889 9.30939 18.981 8.71729C19.0661 8.14002 18.9366 7.55162 18.6169 7.06316C18.326 6.52589 17.8577 6.10582 17.2916 5.87436C16.8019 5.69244 16.2713 5.64965 15.7587 5.75075C15.2216 5.86363 14.7143 6.0878 14.2695 6.40877C13.7979 6.72777 13.3955 7.13824 13.0861 7.61575C12.2991 8.8247 11.6977 10.1444 11.302 11.5311C10.882 12.9684 10.4718 14.3401 10.0713 15.6465L9.01537 19.1583C8.26057 19.2989 7.5314 19.5526 6.85257 19.9109C6.61328 20.0184 6.418 20.2044 6.29912 20.438C6.20007 20.65 6.16587 20.8865 6.20081 21.1179C6.23616 21.3595 6.34117 21.5856 6.50302 21.7686C6.58174 21.8697 6.68 21.954 6.79196 22.0164C6.90392 22.0788 7.0273 22.1182 7.15478 22.1321C7.33541 22.1968 7.53431 22.1877 7.70822 22.1067L8.24346 21.8704C7.74099 23.7802 7.33805 25.6791 7.03462 27.5672C6.7312 29.4552 6.49696 31.3541 6.33189 33.2639C6.29376 33.5474 6.36538 33.8348 6.53215 34.0674C6.68842 34.2925 6.90744 34.467 7.16206 34.5691C7.40073 34.6689 7.66581 34.6868 7.91577 34.62C8.05299 34.5757 8.17968 34.5038 8.28801 34.4088C8.39635 34.3137 8.48404 34.1975 8.54567 34.0674C8.8229 33.5632 8.9939 33.0077 9.04814 32.435C9.11199 31.8476 9.23395 31.268 9.41225 30.7046C9.88074 29.231 10.4002 27.7501 10.9706 26.262C11.5411 24.7739 12.2123 23.1258 12.9842 21.3178L13.9381 21.6195C14.5753 21.8195 15.3108 22.0376 16.1519 22.2703C16.9834 22.5053 17.838 22.6491 18.7007 22.6993C19.521 22.7535 20.3446 22.6687 21.1366 22.4484C21.8952 22.2393 22.5547 21.7677 22.9972 21.1179C23.2553 20.744 23.42 20.314 23.4778 19.8636C23.5155 19.4377 23.4722 19.0084 23.3503 18.5985C23.2336 18.1725 23.0178 17.7802 22.7204 17.4533Z" fill="white"/>
<path d="M206.463 21.5063C206.056 21.047 205.523 20.7161 204.93 20.5538C204.708 20.4914 204.475 20.4746 204.246 20.5046C204.017 20.5346 203.797 20.6107 203.598 20.7283C203.234 20.9646 203.179 21.3136 203.445 21.7826C203.6 22.2169 203.644 22.6831 203.572 23.1386C203.515 23.8426 203.393 24.5399 203.208 25.2217C203.009 25.9731 202.766 26.7426 202.48 27.5302C202.229 28.2451 201.909 28.9341 201.526 29.5879C201.25 30.0822 200.879 30.5171 200.434 30.8676C200.291 30.9966 200.107 31.0722 199.915 31.0815C199.722 31.0908 199.533 31.0332 199.378 30.9185C199.108 30.7185 199.043 30.2496 199.178 29.5152C199.333 28.6881 199.551 27.8738 199.829 27.0794C200.131 26.1924 200.448 25.349 200.787 24.5346C201.126 23.7203 201.373 23.1604 201.541 22.826C202.007 21.7571 202.518 20.7113 203.073 19.6886L204.756 16.602C204.95 16.3147 205.082 15.9903 205.145 15.6494C205.208 15.3084 205.199 14.9582 205.12 14.6207C204.969 13.9961 204.627 13.4342 204.14 13.0138C203.65 12.5948 203.045 12.3326 202.404 12.2613C202.063 12.2226 201.718 12.2538 201.39 12.3533C201.062 12.4527 200.757 12.6181 200.496 12.8393C200.228 13.0383 199.99 13.2746 199.789 13.541C199.589 13.81 199.425 14.0754 199.239 14.3444C199.074 13.9568 198.863 13.5906 198.609 13.2538C198.37 12.9178 198.066 12.6334 197.714 12.4176C196.876 11.9261 195.942 11.6187 194.976 11.516C194.044 11.4136 193.102 11.4639 192.187 11.6651C191.267 11.8715 190.385 12.2185 189.572 12.6939C188.755 13.1619 188.01 13.7447 187.359 14.4244C186.533 15.2801 185.815 16.2336 185.221 17.2637C184.632 18.2892 184.152 19.3736 183.79 20.4993C183.674 20.841 183.572 21.1827 183.484 21.5208C183.372 21.7135 183.262 21.9062 183.16 22.1061L182.796 22.8587C182.328 23.6948 181.842 24.531 181.34 25.3671C180.844 26.1972 180.307 27.0017 179.73 27.7775C179.497 28.1119 179.202 28.5045 178.853 28.959C178.523 29.3894 178.157 29.7919 177.761 30.1623C177.402 30.5019 176.984 30.7719 176.526 30.9585C176.338 31.0417 176.134 31.0803 175.929 31.0715C175.723 31.0627 175.523 31.0066 175.343 30.9076C175.241 30.8597 175.154 30.7857 175.09 30.6931C175.026 30.6005 174.987 30.4926 174.979 30.3804C174.945 30.1046 174.952 29.8252 175.001 29.5516C175.051 29.2558 175.12 28.9632 175.205 28.6754C175.288 28.3918 175.361 28.1664 175.43 27.9956C175.696 27.1267 176.009 26.2724 176.359 25.4508C176.708 24.6291 177.087 23.7966 177.542 22.9932C178.212 21.6893 178.949 20.4084 179.752 19.1505C180.556 17.8926 181.394 16.6638 182.268 15.4641C182.503 15.1851 182.673 14.8584 182.768 14.5068C182.863 14.1552 182.88 13.7871 182.818 13.4283C182.704 12.7677 182.384 12.1597 181.904 11.6905C181.417 11.2214 180.791 10.9217 180.12 10.8362C179.763 10.7892 179.4 10.8177 179.054 10.9198C178.708 11.0219 178.388 11.1953 178.114 11.4288C177.591 11.8579 177.148 12.3761 176.807 12.9593C176.404 13.6137 175.9 14.4256 175.296 15.3951C174.656 15.613 173.987 15.7355 173.311 15.7586C172.606 15.801 171.9 15.716 171.225 15.5078C172.13 13.6961 172.936 11.8369 173.639 9.93824C173.789 9.55362 173.853 9.14088 173.827 8.72892C173.8 8.31696 173.684 7.91575 173.486 7.55338C173.3 7.20822 173.048 6.90311 172.744 6.6556C172.44 6.4081 172.09 6.2231 171.714 6.11126C171.338 5.99941 170.944 5.96293 170.554 6.00391C170.163 6.04489 169.785 6.16253 169.441 6.35004C168.757 6.72921 168.171 7.2619 167.729 7.90602C167.276 8.56035 166.968 9.30414 166.826 10.0873C166.67 10.8464 166.749 11.6352 167.052 12.3486C167.252 12.8139 167.504 13.3847 167.806 14.0536C168.084 14.6208 168.237 15.2403 168.257 15.8713C168.236 16.1595 168.159 16.4409 168.032 16.7002C167.882 17.0637 167.697 17.4273 167.478 17.8308C167.26 18.2344 167.041 18.5979 166.826 18.9833C166.612 19.3686 166.433 19.6776 166.298 19.9103C166.164 20.143 165.934 20.4629 165.771 20.7647C165.682 20.9074 165.617 21.0632 165.578 21.2264C165.516 21.3245 165.457 21.4227 165.392 21.5172C164.47 23.0485 163.446 24.5157 162.326 25.9088C161.215 27.3081 159.872 28.5059 158.354 29.4498C157.69 29.8472 156.992 30.183 156.267 30.4532C155.547 30.7418 154.782 30.9029 154.006 30.9294C153.319 30.9566 152.641 30.7629 152.073 30.3768C151.501 29.9951 151.133 29.2862 150.98 28.2937C150.875 27.7143 150.858 27.1223 150.929 26.5378C151.966 26.5378 153.058 26.5123 154.206 26.4614C155.317 26.4153 156.42 26.2643 157.502 26.0106C158.533 25.7608 159.517 25.3445 160.414 24.7782C161.364 24.1549 162.128 23.2869 162.625 22.2661C163.236 21.1996 163.533 19.982 163.48 18.7542C163.394 17.5137 163.02 16.3102 162.388 15.2387C161.485 13.6682 160.367 12.6394 159.045 12.1522C157.531 11.6544 155.918 11.5297 154.345 11.7887C153.232 11.9338 152.167 12.3278 151.228 12.9411C150.314 13.5498 149.5 14.2953 148.814 15.1515C148.105 16.0294 147.506 16.9901 147.03 18.0126C146.557 19.0127 146.178 20.0545 145.897 21.1246C145.854 21.2991 145.814 21.4881 145.774 21.6481C145.363 22.3437 144.953 23.0223 144.543 23.6839C144.106 24.3856 143.655 25.0908 143.185 25.7925C142.985 26.0942 142.646 26.5632 142.18 27.1958C141.702 27.8416 141.19 28.4617 140.647 29.0535C140.14 29.6142 139.575 30.1199 138.961 30.5622C138.391 30.9621 137.888 31.0833 137.454 30.9258C137.152 30.8276 137.057 30.4168 137.177 29.697C137.345 28.7625 137.601 27.8459 137.942 26.9595C138.342 25.8713 138.853 24.634 139.475 23.2477C140.096 21.8613 140.749 20.4387 141.433 18.9796C142.12 17.5255 142.816 16.1028 143.52 14.7116C144.224 13.3204 144.878 12.0577 145.482 10.9235C147.041 10.8507 148.589 10.6316 150.107 10.2691C151.724 9.88926 153.318 9.42078 154.884 8.86578C155.284 8.73127 155.703 8.57131 156.14 8.38954C156.575 8.20492 156.995 7.98611 157.396 7.73515C157.797 7.49164 158.164 7.19712 158.488 6.85901C158.808 6.52368 159.026 6.10541 159.118 5.65203C159.25 5.14917 159.242 4.6197 159.093 4.1215C158.951 3.65272 158.701 3.22333 158.365 2.86727C158.026 2.51269 157.601 2.25316 157.13 2.11473C156.634 1.96149 156.107 1.93523 155.597 2.03838C154.858 2.23888 154.178 2.61281 153.613 3.12902C153.039 3.6378 152.431 4.10667 151.792 4.53231C151.122 4.93706 150.452 5.32242 149.782 5.68839C149.109 6.05193 148.424 6.39003 147.718 6.69178C147.867 6.36931 147.945 6.01825 147.945 5.66294C147.945 5.30763 147.867 4.95657 147.718 4.6341C147.444 4.02596 146.987 3.51797 146.411 3.18055C145.835 2.84313 145.168 2.69299 144.503 2.75093C144.143 2.78082 143.794 2.88827 143.48 3.06589C143.165 3.24351 142.893 3.48706 142.682 3.77977C142.27 4.31886 141.932 4.91064 141.677 5.53933C141.367 6.24704 140.959 7.2068 140.454 8.41862H139.518C139.213 8.41711 138.909 8.38298 138.612 8.31683C138.321 8.27214 138.023 8.344 137.785 8.51678C137.567 8.66905 137.408 8.8909 137.334 9.14571C137.268 9.40217 137.277 9.6721 137.359 9.9237C137.404 10.0607 137.48 10.1858 137.58 10.2896C137.68 10.3935 137.803 10.4734 137.938 10.5236C138.123 10.6323 138.329 10.7016 138.542 10.7271L139.245 10.8253C138.138 13.3047 137.158 15.4969 136.303 17.4018C135.657 18.8371 135.091 20.3069 134.606 21.8044C134.078 22.6624 133.532 23.5022 132.961 24.3056C132.259 25.2896 131.505 26.2506 130.7 27.1885C129.828 28.2025 128.833 29.1027 127.736 29.8678C127.383 30.1722 126.973 30.4033 126.53 30.5477C126.261 30.5949 126.101 30.5477 126.054 30.3695C126.023 30.1104 126.095 29.8498 126.254 29.6424C126.499 29.2436 126.794 28.8772 127.131 28.5518C128.745 26.9873 130.098 25.1744 131.136 23.1822C132.175 21.1519 132.751 18.9171 132.822 16.6384C132.852 16.0109 132.775 15.383 132.597 14.7807C132.426 14.1745 132.144 13.6051 131.766 13.1011C131.408 12.6296 130.946 12.2465 130.416 11.9814C129.837 11.7064 129.191 11.6017 128.555 11.6796C127.765 11.7327 127.006 12.0116 126.37 12.4831C125.621 13.0144 124.93 13.6237 124.309 14.3008C123.661 14.9918 123.053 15.7202 122.489 16.4821C121.935 17.2358 121.458 17.8963 121.058 18.4634C121.864 16.7669 122.274 15.4448 122.289 14.4971C122.314 14.069 122.221 13.6422 122.022 13.2624C121.822 12.8826 121.523 12.5642 121.156 12.3413C120.751 12.0507 120.274 11.876 119.776 11.836C119.306 11.7929 118.833 11.8679 118.4 12.0541C117.973 12.2426 117.588 12.5145 117.268 12.8539C116.932 13.2175 116.696 13.6604 116.579 14.1408C116.007 16.3464 115.453 18.5628 114.919 20.7901C114.857 21.0482 114.799 21.31 114.737 21.5681C113.824 23.0808 112.811 24.531 111.704 25.9088C110.592 27.307 109.249 28.5046 107.732 29.4498C107.071 29.8452 106.376 30.181 105.656 30.4532C104.936 30.7411 104.171 30.9022 103.395 30.9294C102.707 30.9572 102.028 30.7634 101.458 30.3768C100.886 29.9951 100.519 29.2862 100.366 28.2937C100.264 27.7139 100.247 27.1225 100.315 26.5378C101.356 26.5378 102.448 26.5123 103.592 26.4614C104.696 26.4143 105.793 26.2634 106.869 26.0106C107.903 25.7616 108.889 25.3453 109.789 24.7782C110.74 24.157 111.505 23.2885 111.999 22.2661C112.612 21.2003 112.909 19.9822 112.855 18.7542C112.77 17.5134 112.396 16.3095 111.762 15.2387C110.859 13.6682 109.745 12.6394 108.42 12.1522C106.905 11.6542 105.292 11.5294 103.719 11.7887C102.607 11.9344 101.541 12.3283 100.602 12.9411C99.6902 13.5517 98.8763 14.297 98.1883 15.1515C97.4807 16.0303 96.8817 16.9909 96.4041 18.0126C95.9321 19.0127 95.5542 20.0546 95.2754 21.1246C95.239 21.2591 95.2099 21.3972 95.1771 21.5317C95.1443 21.6662 95.0715 21.6953 95.0242 21.7753C94.6528 22.3473 94.1746 23.0501 93.5896 23.8839C93.0046 24.7176 92.3516 25.5659 91.6307 26.4287C90.9024 27.2842 90.1645 28.0792 89.4169 28.8136C88.7824 29.4536 88.0832 30.0262 87.3305 30.5222C86.6946 30.9221 86.3013 31.0894 86.1508 31.0239C85.9979 30.9548 85.9833 30.7985 86.0998 30.5477C86.2541 30.2365 86.4395 29.9417 86.6533 29.6679C86.8401 29.3994 87.0687 29.1625 87.3305 28.9662C88.2121 28.1763 89.0045 27.2925 89.6936 26.3305C90.4719 25.264 91.1531 24.1301 91.729 22.9423C92.3109 21.7511 92.7496 20.4955 93.0361 19.2014C93.3201 17.9916 93.3634 16.7379 93.1636 15.5114C93.0779 15.1531 92.9684 14.8009 92.8359 14.4571C92.6832 14.0501 92.4814 13.6631 92.2351 13.3047C91.9973 12.9541 91.7089 12.6405 91.3794 12.374C91.0617 12.1252 90.6858 11.9613 90.2871 11.8978C88.0418 11.6312 85.7794 12.8357 83.5001 15.5114C83.1651 14.8425 82.8217 14.216 82.4697 13.6319C82.0557 12.9915 81.4722 12.4781 80.7839 12.1486C80.3178 11.9414 79.812 11.8384 79.3019 11.8469C78.7423 11.8482 78.1849 11.9166 77.6416 12.0504C77.0941 12.1831 76.5629 12.3757 76.0577 12.6248C75.6036 12.8435 75.1811 13.1223 74.8015 13.4537C74.2335 13.9554 73.6971 14.4741 73.1922 15.0097C72.7273 15.5032 72.2908 16.0227 71.885 16.5657C72.1152 16.0995 72.2038 15.5764 72.1399 15.0606C72.0774 14.5759 71.9043 14.1119 71.6338 13.7046C71.3619 13.3013 70.984 12.9805 70.5415 12.7775C70.0786 12.5585 69.5667 12.4633 69.0559 12.5012C68.3602 12.5802 67.7082 12.8797 67.1953 13.3556C66.6702 13.7948 66.2718 14.3658 66.0411 15.0097C65.6641 16.1092 65.3612 17.2326 65.1345 18.3725C64.9087 19.5068 64.6793 20.6265 64.4536 21.728C64.3662 21.8771 64.2824 22.0334 64.206 22.1898C64.0784 22.4419 63.9374 22.687 63.7836 22.9241C63.3139 23.793 62.8333 24.6401 62.349 25.4689C61.8648 26.2978 61.3368 27.1013 60.7652 27.9047C60.4957 28.2392 60.1971 28.6318 59.8622 29.0571C59.536 29.4844 59.1703 29.88 58.7698 30.2387C58.4068 30.562 57.9998 30.8324 57.561 31.0421C57.3721 31.1322 57.1647 31.1768 56.9554 31.1723C56.7461 31.1679 56.5407 31.1146 56.3558 31.0167C55.9553 30.8179 55.8218 30.3332 55.9553 29.5625C56.111 28.7118 56.3551 27.8796 56.6835 27.0794C57.0476 26.1924 57.4117 25.3562 57.7758 24.571C58.1399 23.7857 58.4203 23.2731 58.555 23.0368C59.259 21.7305 60.0127 20.4593 60.8161 19.2232C61.6196 17.9872 62.457 16.7656 63.3285 15.5587C63.5508 15.2694 63.7103 14.937 63.7968 14.5827C63.8833 14.2284 63.8949 13.86 63.8309 13.501C63.7178 12.8388 63.3919 12.2314 62.9025 11.7705C62.41 11.3136 61.7856 11.0235 61.1183 10.9416C60.7596 10.894 60.3948 10.9232 60.0483 11.0272C59.7017 11.1313 59.3814 11.3078 59.1085 11.5451C58.6263 11.9272 58.2336 12.4098 57.9579 12.9593C57.6766 13.5147 57.3214 14.0295 56.902 14.4898C56.3315 15.0933 55.7696 15.3611 55.2161 15.2933C54.848 15.2517 54.4889 15.151 54.1529 14.9952V14.9661C54.2003 14.7837 54.2003 14.5923 54.1529 14.4099C54.5357 14.0016 54.8795 13.5586 55.1797 13.0866C55.566 12.4826 55.8536 11.8212 56.0317 11.127C56.2139 10.4231 56.1147 9.67607 55.755 9.04392C55.4396 8.49049 54.9564 8.05131 54.375 7.78968C53.8001 7.54294 53.1583 7.49809 52.5545 7.66244C52.2095 7.76213 51.8876 7.9287 51.607 8.15264C51.3265 8.37658 51.093 8.65349 50.9196 8.96758C50.4455 9.82093 50.195 10.7801 50.1914 11.756C50.1659 12.7044 50.3668 13.6452 50.7776 14.5007C50.2922 14.7043 49.7448 14.9103 49.1355 15.1188C47.7347 15.6002 46.2964 15.965 44.8354 16.2094C44.5127 15.3935 44.0548 14.6377 43.4809 13.9736C42.9306 13.3359 42.2169 12.8597 41.4164 12.5958L40.9139 12.494L40.6627 12.3922H40.5134C39.1007 12.0912 37.6574 11.957 36.2133 11.9923C34.7789 12.0146 33.3721 12.3892 32.1171 13.0829C30.8908 13.7972 29.8011 14.7228 28.8983 15.8168C27.9777 16.8897 27.2319 18.1006 26.6882 19.405C26.219 20.5739 25.8902 21.7942 25.7087 23.0404C25.5221 24.2726 25.599 25.5302 25.9345 26.7304C26.304 28.1246 26.9354 29.436 27.7951 30.5949C28.6399 31.7659 29.8647 32.6086 31.2614 32.9798C32.4002 33.3141 33.6088 33.3317 34.7569 33.0307C35.8936 32.7232 36.9723 32.232 37.9501 31.5765C38.9655 30.897 39.9011 30.1056 40.7392 29.2171C41.5471 28.3629 42.3115 27.4687 43.0294 26.5378C43.6945 25.4117 44.2904 24.2462 44.8135 23.0477C45.3379 21.8388 45.5711 20.5239 45.4944 19.2087L45.3925 18.4052C46.814 18.2348 48.2169 17.9342 49.5834 17.5073C50.4967 17.2141 51.3855 16.8494 52.2414 16.4166C52.3287 16.493 52.4088 16.573 52.4999 16.642C53.2718 17.2103 54.1846 17.5573 55.1397 17.6454C55.0049 17.9144 54.8884 18.1653 54.7756 18.398C54.6627 18.6306 54.5753 18.8851 54.4733 19.1505C53.7505 20.8805 53.1792 22.6698 52.7657 24.4983C52.3637 26.3178 52.4327 28.2095 52.9659 29.9951C53.2192 30.8665 53.6465 31.6778 54.2221 32.38C54.5091 32.7196 54.8734 32.9856 55.2846 33.1558C55.6957 33.3259 56.1417 33.3952 56.5852 33.3579C57.4196 33.324 58.2321 33.0815 58.9482 32.6526C59.6908 32.2159 60.3676 31.6761 60.9581 31.0494C61.573 30.3995 62.1367 29.703 62.644 28.9662L63.4887 27.7411C63.4486 28.1046 63.4049 28.5045 63.3722 28.8899C63.3716 29.2168 63.3509 29.5434 63.3103 29.8678C63.2616 30.2842 63.2373 30.7029 63.2374 31.1221C63.2315 31.521 63.2817 31.9187 63.3867 32.3036C63.4249 32.4629 63.4993 32.6114 63.6041 32.7375C63.7089 32.8635 63.8413 32.9639 63.9912 33.0307C64.1245 33.1261 64.2813 33.1836 64.4448 33.1971C64.6083 33.2105 64.7724 33.1794 64.9196 33.107C65.1857 32.9374 65.3959 32.6934 65.5241 32.4054C65.6819 32.055 65.8039 31.6896 65.8882 31.3148C65.9901 30.8967 66.0921 30.5186 66.1904 30.1841C66.5375 29.0876 67.0103 28.0348 67.5995 27.0467C68.2039 26.024 68.7901 25.029 69.3581 24.062C69.4237 23.9275 69.653 23.5603 70.039 22.9714C70.425 22.3824 70.8837 21.6735 71.419 20.8883C71.9542 20.103 72.5441 19.2887 73.1776 18.4525C73.8112 17.6163 74.4192 16.8711 74.9982 16.2203C75.4597 15.6686 75.9825 15.1709 76.5566 14.7371C77.0226 14.4062 77.3576 14.3735 77.5615 14.588C77.7088 14.8282 77.762 15.1144 77.7108 15.3914C77.6681 15.8083 77.584 16.22 77.4595 16.6202C77.3248 17.071 77.1646 17.5255 76.9826 17.9763C76.8005 18.427 76.6549 18.8051 76.5566 19.1069C76.2179 19.9758 75.8684 20.8446 75.5006 21.7171C75.1329 22.5897 74.7943 23.4731 74.4921 24.3747L74.0151 25.8288C73.7966 26.4978 73.5879 27.2091 73.3888 27.9629C73.1954 28.6721 73.0434 29.3919 72.9337 30.1187C72.8247 30.6265 72.8422 31.1533 72.9846 31.6529C73.054 31.8026 73.1589 31.9332 73.2903 32.0332C73.4216 32.1333 73.5754 32.1999 73.7384 32.2273C73.9081 32.2722 74.0868 32.2702 74.2555 32.2216C74.4242 32.1729 74.5764 32.0794 74.696 31.951C74.9857 31.7144 75.1881 31.3882 75.2713 31.0239C75.3668 30.663 75.5114 30.3169 75.7009 29.9951C76.1799 29.0069 76.7085 28.0435 77.2848 27.1085C77.8698 26.156 78.4766 25.2278 79.1053 24.3238C79.8748 23.2525 80.6625 22.1813 81.4684 21.11C82.2743 20.0388 83.1239 19.0014 84.0172 17.9981C84.2425 17.723 84.4858 17.4631 84.7454 17.2201C85.1629 16.8008 85.6241 16.3657 86.129 15.9149C86.5836 15.5027 87.0613 15.1167 87.5599 14.7589C88.0151 14.4426 88.3064 14.3517 88.4411 14.4826C88.5798 14.6421 88.6756 14.8343 88.7195 15.0409C88.7635 15.2476 88.7541 15.462 88.6923 15.6641C88.5795 16.2184 88.4023 16.7577 88.1643 17.271C87.9183 17.8136 87.6412 18.3416 87.3342 18.8524C87.032 19.3541 86.8135 19.7031 86.6824 19.9067C85.8086 21.2785 85.0124 22.6248 84.2939 23.9457C83.5564 25.3164 83.0543 26.8008 82.8083 28.3373C82.7076 28.9169 82.6746 29.5061 82.71 30.0932C82.7298 30.688 82.853 31.2748 83.0741 31.8274C83.2791 32.3288 83.6306 32.7569 84.0827 33.0561C84.6208 33.3721 85.2623 33.4623 85.8668 33.307C86.5083 33.2026 87.1253 32.982 87.6874 32.6562C88.2747 32.3204 88.8369 31.9426 89.3695 31.5256C89.9128 31.1017 90.4331 30.649 90.9279 30.1696C91.4304 29.6849 91.9001 29.2086 92.337 28.7409C93.1842 27.8247 94.0107 26.8928 94.8166 25.9452C94.8348 26.1088 94.8494 26.2687 94.8749 26.4323C95.1474 28.1832 95.9446 29.8106 97.1615 31.1003C98.3703 32.4054 99.7102 33.1143 101.236 33.2306C102.812 33.3393 104.393 33.0907 105.86 32.5036C107.676 31.7995 109.371 30.8183 110.885 29.5952C111.822 28.8473 112.701 28.0294 113.514 27.1485C113.495 27.2612 113.47 27.3739 113.452 27.4866C113.381 27.7896 113.298 28.1749 113.2 28.6427C113.099 29.1117 113.015 29.5952 112.949 30.0969C112.882 30.5712 112.856 31.0505 112.873 31.5293C112.874 31.9293 112.987 32.321 113.2 32.6599C113.326 32.8489 113.506 32.9955 113.716 33.0805C113.927 33.1655 114.158 33.1849 114.38 33.1361C114.602 33.0826 114.809 32.9794 114.985 32.8344C115.172 32.6703 115.3 32.4493 115.349 32.2054C115.507 31.571 115.717 30.9508 115.979 30.3514C116.263 29.6824 116.583 29.0099 116.933 28.341C117.282 27.672 117.661 27.0213 118.025 26.3851C118.389 25.7489 118.771 25.1636 119.117 24.6255C119.787 23.5882 120.474 22.5594 121.178 21.539C121.882 20.5187 122.619 19.5237 123.388 18.5543C123.49 18.4198 123.752 18.118 124.146 17.6491C124.539 17.1801 124.99 16.6966 125.475 16.1949C125.923 15.7281 126.402 15.292 126.909 14.8897C127.379 14.5262 127.728 14.3699 127.965 14.4389C128.366 14.5698 128.519 14.9079 128.417 15.4423C128.31 16.0288 128.133 16.6001 127.889 17.1437C127.596 17.7678 127.268 18.3747 126.906 18.9615C126.541 19.5322 126.312 19.914 126.177 20.1175C125.371 21.3899 124.626 22.6442 123.942 23.8802C123.239 25.1633 122.754 26.554 122.507 27.9956C122.402 28.6175 122.361 29.2485 122.383 29.8788C122.387 30.5235 122.511 31.1621 122.747 31.7619C122.954 32.2965 123.323 32.7529 123.803 33.0671C124.274 33.3676 124.911 33.4173 125.715 33.2161C126.338 33.0398 126.938 32.787 127.499 32.4636C128.086 32.129 128.649 31.7523 129.181 31.3366C129.717 30.9205 130.229 30.4763 130.718 30.006C131.202 29.537 131.664 29.0862 132.098 28.65C132.597 28.1337 133.074 27.5993 133.554 27.0576C133.544 27.4628 133.557 27.8683 133.594 28.2719C133.669 29.1632 133.889 30.0363 134.246 30.8567C134.591 31.658 135.181 32.3298 135.932 32.7762C136.534 33.1892 137.27 33.3594 137.993 33.2525C138.694 33.1225 139.361 32.8489 139.952 32.449C140.597 32.0177 141.185 31.5071 141.703 30.9294C142.242 30.3429 142.712 29.8157 143.112 29.348C143.75 28.6209 144.345 27.8768 144.896 27.1158C145.111 26.8213 145.319 26.5232 145.53 26.2287C145.53 26.2833 145.53 26.3342 145.548 26.3887C145.823 28.1393 146.622 29.7662 147.838 31.0566C149.052 32.363 150.409 33.0731 151.909 33.187C153.485 33.296 155.066 33.0475 156.533 32.4599C158.35 31.7559 160.046 30.7748 161.561 29.5516C163.084 28.3334 164.452 26.9343 165.636 25.3853C165.8 25.1527 166.018 24.8764 166.288 24.5601C166.557 24.2438 166.816 23.8984 167.067 23.5312C167.308 23.1818 167.527 22.8175 167.722 22.4406C167.804 22.2815 167.87 22.1147 167.919 21.9425C167.982 21.8382 168.039 21.7302 168.09 21.619C168.228 21.3067 168.387 21.0043 168.567 20.7138L170.227 17.5509C170.848 17.8169 171.511 17.9708 172.186 18.0053C172.774 18.0419 173.364 18.0249 173.948 17.9544L173.493 19.1105C172.74 20.8303 172.16 22.6205 171.76 24.4546C171.376 26.2771 171.454 28.1665 171.986 29.9515C172.235 30.8168 172.663 31.6205 173.242 32.3109C173.526 32.6422 173.882 32.9047 174.282 33.0786C174.683 33.2524 175.118 33.333 175.554 33.3143C176.396 33.3227 177.223 33.0961 177.943 32.6599C178.676 32.2077 179.346 31.66 179.934 31.0312C180.554 30.377 181.116 29.6716 181.617 28.9226C182.119 28.1689 182.589 27.4745 183.026 26.8395C183.058 26.7886 183.102 26.7232 183.157 26.6468C183.303 27.3852 183.529 28.1055 183.83 28.7954C184.124 29.4453 184.476 30.0671 184.883 30.6531C185.301 31.2703 185.81 31.8207 186.394 32.2854C186.939 32.7254 187.574 33.0417 188.254 33.2125C188.96 33.3773 189.7 33.3071 190.362 33.0125C191.209 32.6711 191.959 32.1282 192.547 31.4311C193.135 30.7537 193.681 30.0411 194.182 29.2971L194.885 28.2064L195.038 28.759C195.148 29.2617 195.316 29.7497 195.54 30.2132C195.769 30.7077 196.046 31.1789 196.367 31.6201C196.681 32.0435 197.064 32.4121 197.499 32.7108C197.913 33.0045 198.401 33.1781 198.908 33.2125C200.077 33.3233 201.251 33.0501 202.251 32.4345C203.275 31.8153 204.171 31.0057 204.89 30.0496C205.618 29.0989 206.194 28.0419 206.598 26.9158C206.972 25.9448 207.177 24.9168 207.202 23.8766C207.212 22.8078 206.966 22.0177 206.463 21.5063ZM152.32 21.7826C152.684 21.0155 153.089 20.2593 153.526 19.525C153.726 19.1905 154.028 18.7033 154.429 18.0708C154.835 17.4251 155.298 16.8168 155.812 16.253C156.284 15.7227 156.826 15.258 157.422 14.8716C157.646 14.7028 157.915 14.6013 158.195 14.5787C158.475 14.5562 158.756 14.6136 159.005 14.7443C159.369 14.9479 159.501 15.3224 159.369 15.875C159.231 16.4833 159.019 17.0729 158.74 17.6309C158.441 18.2447 158.106 18.8396 157.735 19.4123C157.371 19.983 157.097 20.3684 156.93 20.5683C156.208 21.4279 155.372 22.1861 154.447 22.8223C153.516 23.4572 152.477 23.9168 151.381 24.1783C151.639 23.3544 151.952 22.5491 152.32 21.768V21.7826ZM101.709 21.7826C102.073 21.0155 102.481 20.2593 102.914 19.525C103.118 19.1905 103.417 18.7033 103.821 18.0708C104.226 17.4243 104.689 16.8159 105.205 16.253C105.675 15.7228 106.216 15.2581 106.81 14.8716C107.035 14.7028 107.303 14.6013 107.584 14.5787C107.864 14.5562 108.145 14.6136 108.394 14.7443C108.758 14.9479 108.889 15.3224 108.758 15.875C108.621 16.4838 108.41 17.0735 108.128 17.6309C107.83 18.2447 107.495 18.8396 107.123 19.4123C106.876 19.8116 106.607 20.1975 106.319 20.5683C105.588 21.4314 104.743 22.1909 103.806 22.826C102.875 23.4595 101.836 23.919 100.741 24.182C101.003 23.3564 101.322 22.5499 101.695 21.768L101.709 21.7826ZM40.102 21.5826C39.716 22.5533 39.2864 23.524 38.8203 24.491C38.5169 25.0581 38.1977 25.6434 37.8627 26.2469C37.5358 26.8463 37.1709 27.4243 36.7704 27.9774C36.3619 28.5239 35.8969 29.026 35.3831 29.4752C34.8846 29.9222 34.3272 30.2989 33.7264 30.5949C33.3953 30.7696 33.0391 30.8922 32.6705 30.9585C32.3069 31.0417 31.9267 31.0151 31.5782 30.8821C31.4293 30.8337 31.2934 30.7524 31.1805 30.6441C31.0677 30.5358 30.9808 30.4034 30.9264 30.2568C30.7875 29.9208 30.7027 29.565 30.6752 29.2026C30.64 28.8175 30.6485 28.4296 30.7007 28.0465C30.748 27.6611 30.7917 27.3521 30.8245 27.1194C31.1009 25.4914 31.6085 23.911 32.3319 22.4261C33.0375 20.9465 33.8914 19.5421 34.8807 18.2344C35.1792 17.8308 35.5506 17.38 35.973 16.8783C36.4005 16.3828 36.8899 15.9442 37.4294 15.5732C37.4914 16.1041 37.6845 16.6113 37.9915 17.0492C38.2985 17.487 38.7097 17.8418 39.1881 18.0817C39.7792 18.3624 40.4151 18.5372 41.0669 18.5979C40.7972 19.6058 40.4702 20.5974 40.0874 21.5681L40.102 21.5826ZM40.2767 16.0095C40.0662 15.9078 39.9041 15.7276 39.8252 15.5078C39.756 15.3313 39.756 15.1353 39.8252 14.9588C39.8558 14.8927 39.8977 14.8324 39.949 14.7807C40 14.7298 40.1238 14.7225 40.3132 14.7552H40.4806L40.8448 14.857C40.9641 14.8946 41.0712 14.9632 41.155 15.0559C41.2389 15.1485 41.2964 15.2619 41.3217 15.3842C41.4094 15.7026 41.4511 16.0319 41.4455 16.3621C41.0288 16.3283 40.6247 16.2029 40.2622 15.9949L40.2767 16.0095ZM196.658 20.1612C196.155 21.373 195.653 22.5278 195.15 23.6258C194.682 24.5952 194.188 25.5574 193.669 26.5123C193.152 27.4658 192.542 28.3657 191.848 29.1989C191.503 29.6451 191.115 30.0567 190.69 30.4277C190.485 30.6284 190.237 30.7803 189.964 30.8721C189.692 30.964 189.402 30.9935 189.117 30.9585C188.941 30.947 188.772 30.8863 188.629 30.7835C188.486 30.6806 188.375 30.5397 188.309 30.3768C188.137 30.0062 188.035 29.6067 188.01 29.1989C187.974 28.7646 187.974 28.3281 188.01 27.8938C188.03 27.5388 188.08 27.1861 188.16 26.8395C188.394 25.8321 188.722 24.8488 189.139 23.9021C189.558 22.9496 190.02 22.0189 190.523 21.1173C190.996 20.204 191.516 19.3158 192.081 18.4561C192.658 17.5808 193.334 16.7746 194.095 16.0531C194.262 15.9222 194.459 15.7441 194.699 15.5259C194.923 15.3182 195.167 15.1331 195.427 14.9734C195.667 14.8274 195.931 14.7264 196.206 14.6753C196.464 14.6218 196.733 14.6659 196.96 14.7989C197.277 15.0576 197.506 15.4082 197.615 15.8022C197.748 16.242 197.816 16.6989 197.816 17.1583C197.546 17.9556 197.16 18.9566 196.658 20.1612Z" fill="white"/>
<path d="M120.768 36.9805H117.24L115.248 39.478L114.105 36.9805H113.617H110.762H102.599L100.742 46.9743H108.465L108.942 44.4332H104.285L104.525 43.1171H108.465L108.916 40.6923H104.988L105.203 39.5217H112L113.111 41.8047L108.731 46.9743H112.474L114.491 44.4041L115.645 46.9743H119.031L116.537 42.0047L120.768 36.9805Z" fill="white"/>
<path d="M128.319 37.8669C127.635 37.2889 126.677 36.998 125.439 36.998H121.31L119.453 46.9919H122.584L123.036 44.5343H124.642C125.497 44.5527 126.344 44.3722 127.118 44.0072C127.798 43.6818 128.37 43.1667 128.763 42.5239C129.155 41.8525 129.354 41.0866 129.339 40.3099C129.364 39.8523 129.286 39.3949 129.109 38.9718C128.933 38.5487 128.663 38.171 128.319 37.8669ZM125.81 41.586C125.675 41.7111 125.516 41.8077 125.343 41.8702C125.17 41.9326 124.986 41.9596 124.802 41.9495H123.513L123.95 39.6047H124.999C125.778 39.6047 126.167 39.9428 126.167 40.619C126.174 40.7929 126.146 40.9664 126.085 41.1293C126.023 41.2922 125.93 41.4413 125.81 41.5678V41.586Z" fill="white"/>
<path d="M138.429 42.5925C138.874 41.9021 139.102 41.0942 139.084 40.2731C139.108 39.8191 139.03 39.3655 138.854 38.9462C138.678 38.5269 138.409 38.1528 138.068 37.8518C137.394 37.2774 136.444 36.9902 135.224 36.9902H131.044L129.188 46.9841H132.319L132.781 44.472H133.553L134.868 46.9841H138.119L136.564 44.0758C137.325 43.7862 137.976 43.2679 138.429 42.5925ZM135.556 41.5782C135.421 41.7033 135.262 41.7999 135.088 41.8624C134.915 41.9248 134.731 41.9518 134.547 41.9417H133.258L133.695 39.5969H134.744C135.523 39.5969 135.913 39.935 135.913 40.6112C135.919 40.787 135.889 40.9623 135.826 41.1266C135.763 41.2909 135.667 41.4408 135.545 41.5673L135.556 41.5782Z" fill="white"/>
<path d="M142.853 43.1171H146.797L147.248 40.6923H143.319L143.531 39.5217H148.006L148.483 36.9805H140.931L139.07 46.9743H146.797L147.274 44.4332H142.617L142.853 43.1171Z" fill="white"/>
<path d="M155.941 42.0479C155.658 41.6968 155.291 41.4219 154.874 41.2481C154.38 41.0549 153.873 40.8969 153.356 40.7755C152.989 40.6953 152.631 40.5809 152.286 40.4338C152.195 40.4027 152.116 40.3453 152.058 40.2688C152 40.1924 151.967 40.1004 151.962 40.0048C151.962 39.8267 152.082 39.6703 152.326 39.5358C152.64 39.3859 152.987 39.3172 153.334 39.3359C153.79 39.335 154.243 39.3974 154.682 39.5213C155.11 39.6393 155.516 39.8272 155.883 40.0775L157.012 37.6236C156.535 37.3278 156.012 37.1129 155.464 36.9874C154.833 36.8347 154.184 36.7602 153.535 36.7656C152.675 36.7441 151.82 36.9026 151.026 37.2309C150.366 37.5 149.801 37.9563 149.398 38.5433C149.017 39.1317 148.822 39.8206 148.838 40.521C148.809 41.0446 148.971 41.5609 149.293 41.9752C149.579 42.3283 149.946 42.6075 150.363 42.7896C150.864 42.9991 151.379 43.174 151.903 43.3131C152.255 43.3964 152.599 43.5108 152.93 43.6548C153.149 43.7602 153.254 43.8984 153.254 44.0692C153.25 44.164 153.217 44.2553 153.161 44.3317C153.105 44.408 153.027 44.466 152.937 44.4982C152.646 44.6155 152.333 44.6689 152.02 44.6546C150.909 44.6477 149.823 44.3248 148.889 43.7239L147.68 46.2105C148.221 46.5467 148.814 46.7923 149.435 46.9376C150.176 47.1279 150.938 47.222 151.703 47.2176C152.558 47.2361 153.407 47.0776 154.197 46.7522C154.856 46.4827 155.424 46.0296 155.832 45.4471C156.216 44.8677 156.414 44.1856 156.4 43.4912C156.428 42.9705 156.265 42.4575 155.941 42.0479Z" fill="white"/>
<path d="M163.597 41.2485C163.109 41.056 162.607 40.8981 162.097 40.7758C161.722 40.6899 161.356 40.5682 161.004 40.4123C160.914 40.3812 160.834 40.3238 160.777 40.2473C160.719 40.1709 160.685 40.0789 160.68 39.9833C160.68 39.8052 160.801 39.6488 161.044 39.5143C161.359 39.3644 161.705 39.2957 162.053 39.3144C162.509 39.3135 162.962 39.3759 163.4 39.4998C163.828 39.6185 164.234 39.8064 164.602 40.056L165.731 37.6021C165.253 37.3063 164.73 37.0914 164.183 36.9659C163.551 36.8135 162.903 36.739 162.253 36.7441C161.394 36.7226 160.539 36.8811 159.745 37.2095C159.085 37.4785 158.519 37.9348 158.117 38.5219C157.736 39.1102 157.541 39.7991 157.556 40.4995C157.528 41.0231 157.69 41.5394 158.011 41.9537C158.298 42.3068 158.665 42.5861 159.082 42.7681C159.583 42.9776 160.097 43.1525 160.622 43.2916C160.974 43.3755 161.317 43.4899 161.649 43.6333C161.867 43.7387 161.973 43.8769 161.973 44.0478C161.969 44.1425 161.936 44.2338 161.88 44.3102C161.823 44.3865 161.746 44.4445 161.656 44.4767C161.365 44.5941 161.052 44.6474 160.739 44.6331C159.627 44.6274 158.541 44.3045 157.607 43.7024L156.398 46.189C156.94 46.5252 157.533 46.7708 158.153 46.9161C158.894 47.1064 159.657 47.2005 160.422 47.1961C161.276 47.2146 162.126 47.0561 162.916 46.7307C163.575 46.4612 164.142 46.0081 164.551 45.4256C164.934 44.8462 165.133 44.1641 165.119 43.4697C165.145 42.9548 164.985 42.4477 164.667 42.041C164.382 41.692 164.014 41.4196 163.597 41.2485Z" fill="white"/>
<path d="M167.412 43.433C167.163 43.4281 166.916 43.4743 166.685 43.5687C166.455 43.6631 166.246 43.8038 166.072 43.9819C165.886 44.174 165.742 44.4022 165.648 44.6524C165.554 44.9025 165.512 45.1693 165.526 45.4361C165.518 45.6599 165.554 45.883 165.633 46.0926C165.712 46.3023 165.831 46.4943 165.985 46.6577C166.138 46.8153 166.323 46.939 166.528 47.0211C166.732 47.1031 166.952 47.1415 167.172 47.1339C167.419 47.1388 167.665 47.0926 167.894 46.9981C168.122 46.9037 168.329 46.763 168.501 46.5849C168.686 46.3922 168.829 46.1638 168.922 45.9138C169.016 45.6637 169.057 45.3973 169.043 45.1308C169.053 44.9063 169.018 44.6822 168.941 44.4713C168.863 44.2604 168.745 44.0669 168.592 43.902C168.439 43.7453 168.255 43.6226 168.052 43.5418C167.849 43.4609 167.631 43.4239 167.412 43.433Z" fill="white"/>
<path d="M175.07 44.4755C174.814 44.4862 174.558 44.4439 174.32 44.3513C174.081 44.2587 173.864 44.1178 173.682 43.9374C173.504 43.7482 173.366 43.5252 173.276 43.2817C173.186 43.0381 173.146 42.7789 173.158 42.5196C173.147 41.9765 173.257 41.4378 173.478 40.9418C173.667 40.5028 173.975 40.1251 174.367 39.8512C174.75 39.5927 175.204 39.4582 175.667 39.4658C176.058 39.4579 176.442 39.5646 176.773 39.7727C177.103 39.9807 177.366 40.281 177.527 40.6364L179.781 38.7387C179.44 38.0937 178.9 37.5751 178.241 37.2591C177.502 36.9019 176.688 36.7238 175.867 36.7392C174.806 36.7208 173.759 36.9843 172.834 37.5027C171.956 38.0018 171.234 38.7359 170.751 39.6221C170.239 40.573 169.98 41.6398 170.001 42.7195C169.985 43.535 170.189 44.3398 170.591 45.0499C170.986 45.7244 171.566 46.2719 172.262 46.6277C173.038 47.0154 173.896 47.2088 174.764 47.1912C175.582 47.2075 176.395 47.0514 177.149 46.7331C177.881 46.3879 178.514 45.8625 178.987 45.2062L177.141 43.3194C176.914 43.6639 176.607 43.9488 176.247 44.15C175.886 44.3513 175.482 44.4629 175.07 44.4755Z" fill="white"/>
<path d="M188.015 37.3148C187.244 36.9259 186.39 36.7323 185.528 36.7513C184.471 36.7336 183.429 36.9944 182.506 37.5074C181.625 38.0036 180.903 38.7384 180.423 39.6269C179.912 40.5812 179.654 41.6498 179.673 42.7316C179.657 43.5457 179.857 44.3495 180.252 45.0619C180.636 45.7361 181.207 46.2842 181.898 46.6397C182.668 47.0286 183.522 47.2221 184.384 47.2032C185.44 47.2202 186.481 46.958 187.403 46.4434C188.285 45.9484 189.009 45.2134 189.489 44.3239C190 43.3698 190.258 42.3011 190.239 41.2192C190.255 40.4063 190.055 39.6036 189.66 38.8926C189.277 38.2184 188.705 37.6703 188.015 37.3148ZM186.787 42.957C186.612 43.3974 186.322 43.7828 185.946 44.0731C185.572 44.3513 185.116 44.4971 184.65 44.4875C184.403 44.5004 184.156 44.4596 183.926 44.368C183.696 44.2763 183.488 44.1361 183.318 43.9568C182.98 43.5652 182.806 43.0586 182.833 42.5426C182.827 42.0193 182.926 41.5001 183.125 41.0157C183.3 40.5761 183.59 40.1918 183.966 39.9032C184.34 39.625 184.796 39.4792 185.262 39.4888C185.509 39.4764 185.756 39.5171 185.985 39.608C186.215 39.6989 186.423 39.838 186.595 40.0159C186.932 40.4077 187.105 40.9141 187.079 41.4301C187.084 41.9533 186.985 42.4723 186.787 42.957Z" fill="white"/>
<path d="M200.729 36.9805L196.837 42.2919L194.82 36.9805H192.275L190.414 46.9743H193.269L194.102 42.4773L195.537 46.0727H196.917L199.535 42.4191L198.708 46.9743H201.563L203.395 36.9805H200.729Z" fill="white"/>
</svg>
