<svg width="32" height="22" viewBox="0 0 32 22" fill="none" xmlns="http://www.w3.org/2000/svg">
<g clip-path="url(#clip0_4832_88390)">
<path d="M0 3.19596C0 1.7232 1.19391 0.529297 2.66667 0.529297H29.3333C30.8061 0.529297 32 1.7232 32 3.19596V19.196C32 20.6687 30.8061 21.8626 29.3333 21.8626H2.66667C1.19391 21.8626 0 20.6687 0 19.196V3.19596Z" fill="#FDEACE"/>
<path d="M19.2819 4.88114L12.4531 4.91797L12.719 17.5114L19.5478 17.4745L19.2819 4.88114Z" fill="#FF5F00"/>
<path d="M12.8828 11.2276C12.8283 8.66745 13.9594 6.39038 15.7411 4.91132C14.3859 3.84992 12.6903 3.21338 10.8555 3.22327C6.50885 3.24668 3.0685 6.84981 3.16281 11.2799C3.25713 15.7101 6.8501 19.2753 11.1968 19.2519C13.0316 19.242 14.6997 18.5874 16.0094 17.5116C14.1656 16.0743 12.9373 13.7877 12.8828 11.2276Z" fill="#EB001B"/>
<path d="M28.8284 11.1138C28.9227 15.5439 25.4823 19.1471 21.1356 19.1705C19.3009 19.1804 17.6052 18.5438 16.2501 17.4824C18.0536 16.0033 19.1629 13.7263 19.1084 11.1662C19.0539 8.60604 17.826 6.34167 15.9818 4.88214C17.2915 3.80639 18.9596 3.15173 20.7944 3.14185C25.1411 3.11843 28.7345 6.70593 28.8284 11.1138Z" fill="#F79E1B"/>
</g>
<defs>
<clipPath id="clip0_4832_88390">
<rect width="32" height="21.3333" fill="white" transform="translate(0 0.529297)"/>
</clipPath>
</defs>
</svg>
