<svg width="451" height="450" viewBox="0 0 451 450" fill="none" xmlns="http://www.w3.org/2000/svg">
<circle cx="196.828" cy="197.328" r="151.828" fill="#E2F1F3"/>
<path d="M125 297.5C91.4 297.5 69 323.5 62 336.5L81 358.5L280 397.5L335 351.5C328.333 350.5 300.6 346.1 243 336.5C171 324.5 167 297.5 125 297.5Z" fill="white"/>
<path d="M58.2855 413.549C67.7321 412.037 77.1787 410.478 86.7197 409.911C96.4024 409.344 105.755 410.147 115.248 411.895C123.939 413.502 132.347 414.258 141.226 414.069C150.437 413.833 159.742 413.407 168.716 415.817C169.613 416.053 169.991 414.683 169.094 414.447C160.403 412.084 151.476 412.368 142.549 412.604C137.826 412.746 133.055 412.793 128.332 412.415C123.467 412.037 118.649 411.045 113.879 410.194C104.715 408.54 95.5995 407.926 86.2474 408.493C76.7536 409.107 67.307 410.619 57.9077 412.132C57.0102 412.321 57.3881 413.691 58.2855 413.549Z" fill="#E8E8E8"/>
<path d="M317.924 424.842C335.637 422.29 353.443 420.778 371.345 420.4C388.773 420.022 406.202 420.731 423.631 421.109C424.529 421.109 424.529 419.692 423.631 419.692C405.919 419.314 388.159 418.605 370.4 419.03C352.688 419.455 335.07 420.967 317.546 423.471C316.649 423.613 317.027 424.936 317.924 424.842Z" fill="#E8E8E8"/>
<path d="M396.425 435C403.18 432.118 410.453 435.614 417.397 435.284C418.861 435.189 420.372 435 421.789 434.528C423.726 433.866 425.521 432.827 427.599 432.732C431.189 432.543 434.542 433.913 438.132 433.346C439.029 433.205 438.651 431.834 437.754 431.976C433.739 432.638 429.819 430.653 425.851 431.551C424.056 431.929 422.45 432.874 420.703 433.394C418.908 433.866 417.066 433.961 415.224 433.913C408.658 433.63 402.093 431.126 395.669 433.866C394.914 434.102 395.622 435.331 396.425 435Z" fill="#E8E8E8"/>
<path d="M36.8418 215.949C41.6595 211.65 48.4138 214.579 52.0035 218.926C53.8456 221.147 54.932 223.651 56.3489 226.108C57.2464 227.762 58.5689 229.416 60.5527 229.794C62.1114 230.077 63.3866 229.51 64.4258 228.376C65.087 227.62 65.5121 226.628 66.1734 225.872C67.5904 224.218 69.4325 224.407 70.9439 225.73C74.2502 228.612 74.3919 235.747 80.2015 235.227C81.0989 235.133 81.0989 233.715 80.2015 233.81C74.1557 234.377 74.8642 224.218 69.0546 223.226C67.3542 222.942 65.9845 223.698 64.9453 225.021C64.2841 225.872 63.859 227.053 63.0088 227.762C60.5527 229.794 58.38 226.959 57.3881 225.021C54.9792 220.58 52.6176 215.949 47.847 213.634C43.9267 211.744 39.1562 211.933 35.8499 214.91C35.1886 215.524 36.1805 216.564 36.8418 215.949Z" fill="#E8E8E8"/>
<path d="M354.766 152.35C353.821 149.799 352.687 146.775 354.388 144.271C355.946 142.05 358.592 143.184 360.811 142.475C363.74 141.53 365.535 138.648 366.338 135.86C367.282 132.6 366.149 128.348 368.085 125.465C370.447 121.922 375.548 126.269 378.76 124.095C379.516 123.575 378.807 122.347 378.051 122.867C374.792 125.087 370.352 120.551 367.282 124.19C364.826 127.072 365.96 131.466 365.157 134.868C364.59 137.231 363.315 139.735 361.095 140.869C359.158 141.861 356.938 140.869 355.002 141.861C350.845 143.987 352.168 149.279 353.443 152.729C353.679 153.532 355.049 153.201 354.766 152.35Z" fill="#E8E8E8"/>
<path d="M359.867 119.228C358.969 116.866 359.489 114.172 361.237 112.282C363.409 109.92 365.913 110.865 368.605 109.92C370.211 109.353 371.155 107.983 371.769 106.471C372.147 105.526 372.384 104.533 372.714 103.588C372.998 102.832 373.328 101.982 373.895 101.415C374.745 100.612 376.776 99.9501 377.296 101.746C377.579 102.596 378.902 102.265 378.665 101.368C378.051 99.3831 375.737 98.6744 373.942 99.6194C370.541 101.368 371.769 106.565 368.605 108.313C366.857 109.258 364.685 108.691 362.842 109.447C361.662 109.967 360.623 110.818 359.82 111.81C358.072 114.031 357.505 116.96 358.497 119.606C358.78 120.457 360.15 120.079 359.867 119.228Z" fill="#E8E8E8"/>
<path d="M399.637 169.691C398.22 167.66 398.645 164.777 400.487 163.076C402.613 161.092 405.683 161.99 407.147 164.258C410.501 169.313 403.085 173.755 399.542 169.55C398.928 168.841 397.937 169.88 398.551 170.542C400.582 172.952 404.36 173.235 406.958 171.534C409.886 169.644 410.123 165.817 408.092 163.124C406.108 160.478 402.424 159.58 399.779 161.753C397.275 163.785 396.519 167.66 398.409 170.353C398.928 171.156 400.156 170.447 399.637 169.691Z" fill="#E8E8E8"/>
<path d="M404.974 177.535C403.652 175.692 401.999 173.472 402.565 171.109C403.416 167.613 407.572 168.51 409.461 170.589C411.02 172.338 411.587 175.078 409.603 176.732C408.092 178.008 405.777 178.244 404.407 176.732C403.793 176.07 402.802 177.063 403.416 177.724C405.305 179.756 408.517 179.567 410.548 177.819C412.957 175.74 412.673 172.29 410.784 169.975C408.895 167.613 404.596 165.912 402.235 168.605C399.59 171.629 401.81 175.551 403.746 178.244C404.266 179 405.494 178.291 404.974 177.535Z" fill="#E8E8E8"/>
<path d="M87.3334 276.004C92.6235 277.611 98.0081 278.556 103.487 278.745C104.384 278.792 104.384 277.375 103.487 277.327C98.1025 277.138 92.8125 276.241 87.7113 274.634C86.8139 274.351 86.436 275.721 87.3334 276.004Z" fill="#E8E8E8"/>
<path d="M125.829 33.3271C127.482 37.2961 129.513 46.0846 135.464 42.1629C137.448 40.8871 140.377 37.1544 142.502 40.1784C143.777 41.9739 143.872 44.3364 146.281 45.1396C147.131 45.4231 147.509 44.0529 146.659 43.7694C144.439 43.0134 144.439 39.6114 142.644 38.2411C141.463 37.3434 139.999 37.3906 138.724 38.0521C136.834 38.9499 135.464 40.9816 133.481 41.6431C129.938 42.8244 128.143 35.2172 127.199 32.9492C126.821 32.1459 125.451 32.4766 125.829 33.3271Z" fill="#E8E8E8"/>
<path d="M140.518 34.1783C143.163 32.1466 147.036 33.0916 148.359 36.1628C149.161 38.1001 149.776 39.2341 152.043 39.3758C153.129 39.4231 154.31 39.0451 155.396 39.2341C157.663 39.6121 157.663 41.5966 158.041 43.4393C158.419 45.2821 159.269 46.8886 161.253 47.1248C162.151 47.2193 162.151 45.8018 161.253 45.7073C158.655 45.4238 159.742 40.0846 157.711 38.5726C155.538 36.9661 152.279 39.0923 150.578 37.1078C149.776 36.1628 149.539 34.8871 148.689 33.9421C148.028 33.1388 147.13 32.5718 146.139 32.1938C144.013 31.3433 141.651 31.6268 139.857 32.9971C139.054 33.5168 139.762 34.7453 140.518 34.1783Z" fill="#E8E8E8"/>
<path d="M183.027 78.7354C186.002 79.3497 189.167 77.4597 189.97 74.4357C190.726 71.6007 188.884 68.9074 186.191 68.0097C179.909 65.8834 176.414 74.5302 181.515 78.074C182.271 78.5937 182.98 77.3652 182.224 76.8454C178.634 74.3412 180.854 68.0569 185.436 69.2382C187.419 69.7579 189.073 71.5534 188.695 73.6797C188.27 76.0894 185.814 77.8377 183.405 77.3179C182.507 77.1762 182.129 78.5464 183.027 78.7354Z" fill="#E8E8E8"/>
<path d="M187.609 81.1453C186.475 80.2475 185.105 79.2553 184.633 77.7905C183.972 75.806 185.861 73.4435 188.081 74.0105C189.64 74.4358 190.726 76.2313 190.348 77.8378C189.876 79.6333 187.845 80.531 186.144 80.1058C185.247 79.8695 184.869 81.2398 185.766 81.476C188.081 82.043 190.631 80.9563 191.576 78.6883C192.474 76.4675 191.246 73.7743 189.073 72.8293C186.9 71.9315 184.397 73.1128 183.452 75.1918C182.13 78.074 184.538 80.4838 186.664 82.1375C187.278 82.7045 188.317 81.7123 187.609 81.1453Z" fill="#E8E8E8"/>
<path d="M93.3794 174.463C91.2067 172.526 90.7816 169.596 92.9071 167.423C94.7492 165.58 97.4887 165.627 99.2363 167.565C102.873 171.628 97.6304 176.92 93.3322 174.132C92.5764 173.613 91.868 174.841 92.6237 175.361C95.1743 177.015 98.6695 176.448 100.653 174.18C102.684 171.817 102.07 168.273 99.8975 166.194C97.5831 164.021 94.1351 164.163 91.9152 166.383C89.2229 169.077 89.648 172.998 92.3875 175.455C93.0488 176.07 94.0407 175.077 93.3794 174.463Z" fill="#E8E8E8"/>
<path d="M294.733 40.8877C297.472 34.8869 301.298 29.5477 306.022 24.9644C306.683 24.3502 305.691 23.3107 305.03 23.9722C300.212 28.6499 296.339 34.0837 293.505 40.2262C293.127 40.9822 294.355 41.7382 294.733 40.8877Z" fill="#E8E8E8"/>
<path d="M300.637 39.9425C303.471 36.446 306.635 33.1857 310.036 30.209C310.745 29.5947 309.705 28.6025 309.044 29.2167C305.643 32.1935 302.526 35.4537 299.645 38.9502C299.078 39.659 300.07 40.6512 300.637 39.9425Z" fill="#E8E8E8"/>
<path d="M304.227 44.195C305.502 43.1082 306.777 42.0688 308.053 40.982C308.761 40.415 307.722 39.3755 307.061 39.9897C305.786 41.0765 304.51 42.116 303.235 43.2027C302.526 43.7698 303.518 44.762 304.227 44.195Z" fill="#E8E8E8"/>
<path d="M371.061 48.3536C374.87 48.3536 377.957 45.2651 377.957 41.4551C377.957 37.6452 374.87 34.5566 371.061 34.5566C367.252 34.5566 364.165 37.6452 364.165 41.4551C364.165 45.2651 367.252 48.3536 371.061 48.3536Z" fill="#008193"/>
<path d="M367.896 59.0789C370.166 59.0789 372.006 57.2385 372.006 54.9682C372.006 52.6979 370.166 50.8574 367.896 50.8574C365.627 50.8574 363.787 52.6979 363.787 54.9682C363.787 57.2385 365.627 59.0789 367.896 59.0789Z" fill="#008193"/>
<path d="M150.2 242.362C152.992 242.362 155.254 240.098 155.254 237.306C155.254 234.514 152.992 232.25 150.2 232.25C147.409 232.25 145.146 234.514 145.146 237.306C145.146 240.098 147.409 242.362 150.2 242.362Z" fill="#008193"/>
<path d="M158.419 256.206C159.958 256.206 161.205 254.958 161.205 253.419C161.205 251.879 159.958 250.631 158.419 250.631C156.88 250.631 155.632 251.879 155.632 253.419C155.632 254.958 156.88 256.206 158.419 256.206Z" fill="#008193"/>
<path d="M207.635 179.898C208.06 184.009 209.383 187.647 214.059 187.553C215.665 187.553 217.035 187.08 218.263 188.309C219.396 189.443 219.066 190.577 219.538 191.994C219.774 192.703 220.105 193.364 220.766 193.837C221.616 194.451 224.828 194.451 224.545 195.869C224.356 196.766 225.726 197.144 225.914 196.247C226.245 194.64 225.159 193.695 223.647 193.27C221.475 192.656 220.955 191.805 220.624 189.868C220.483 188.97 220.294 188.072 219.68 187.316C218.452 185.852 216.468 186.041 214.768 186.088C212.925 186.182 211.178 186.041 210.186 184.245C209.43 182.922 209.241 181.316 209.1 179.851C208.958 179 207.541 179 207.635 179.898Z" fill="#008193"/>
<path d="M212.453 197.286C214.909 194.688 217.838 197.334 218.593 199.932C218.924 200.972 218.971 201.964 219.727 202.767C221.427 204.657 224.545 203.618 226.103 205.602C226.67 206.311 227.662 205.319 227.095 204.61C226.056 203.287 224.592 203.098 223.033 202.767C221.569 202.437 220.766 201.917 220.199 200.452C219.821 199.554 219.774 198.609 219.255 197.712C217.649 194.829 213.87 193.695 211.461 196.247C210.8 196.956 211.792 197.948 212.453 197.286Z" fill="#008193"/>
<path d="M380.224 192.514C379.326 190.813 381.216 189.537 382.633 190.576C383.058 190.86 383.719 190.482 383.719 189.962C383.577 188.356 385.183 187.174 386.695 187.741C387.545 188.072 387.923 186.702 387.073 186.371C384.711 185.473 382.113 187.458 382.302 189.962C382.68 189.773 383.011 189.537 383.389 189.348C380.696 187.411 377.532 190.387 379.043 193.222C379.421 194.026 380.649 193.317 380.224 192.514Z" fill="#008193"/>
<path d="M388.253 191.757C387.922 190.954 390.19 190.812 390.567 190.812C391.748 190.859 392.882 191.048 394.063 191.143C394.96 191.237 394.96 189.82 394.063 189.725C392.221 189.536 390.142 189.017 388.347 189.773C387.167 190.292 386.505 191.237 387.025 192.466C387.356 193.316 388.584 192.56 388.253 191.757Z" fill="#008193"/>
<path d="M142.123 248.458C145.201 248.458 147.697 245.961 147.697 242.882C147.697 239.803 145.201 237.307 142.123 237.307C139.045 237.307 136.55 239.803 136.55 242.882C136.55 245.961 139.045 248.458 142.123 248.458Z" fill="#E3953E"/>
<path d="M194.882 39.4708C199.03 39.4708 202.392 36.1072 202.392 31.9581C202.392 27.8089 199.03 24.4453 194.882 24.4453C190.734 24.4453 187.372 27.8089 187.372 31.9581C187.372 36.1072 190.734 39.4708 194.882 39.4708Z" fill="#FFA745"/>
<path d="M58.7575 329.916C64.0008 329.916 68.2513 325.664 68.2513 320.419C68.2513 315.174 64.0008 310.922 58.7575 310.922C53.5142 310.922 49.2637 315.174 49.2637 320.419C49.2637 325.664 53.5142 329.916 58.7575 329.916Z" fill="#FFA745"/>
<path d="M382.822 296.416C385.509 296.416 387.687 294.237 387.687 291.549C387.687 288.862 385.509 286.683 382.822 286.683C380.135 286.683 377.957 288.862 377.957 291.549C377.957 294.237 380.135 296.416 382.822 296.416Z" fill="#FFA745"/>
<path d="M328.694 407.122C338.707 404.712 348.767 402.255 358.781 399.846C365.205 400.318 374.746 400.46 386.081 398.57C396.851 396.774 417.491 391.719 417.35 386.143C417.255 382.458 408.045 379.812 392.836 375.417C382.775 372.535 374.32 370.834 368.7 369.842C362.465 372.913 355.758 375.937 348.531 378.819C338.754 382.741 329.449 385.812 320.806 388.222C323.403 394.554 326.049 400.838 328.694 407.122Z" fill="#161616" stroke="#161616" stroke-width="3" stroke-miterlimit="10"/>
<path d="M303.943 397.53C313.956 395.121 324.017 392.664 334.03 390.254C340.454 390.726 349.995 390.868 361.33 388.978C372.099 387.183 392.74 382.127 392.598 376.551C392.504 372.866 383.294 370.22 368.085 365.826C358.024 362.943 349.569 361.242 343.949 360.25C337.714 363.321 331.007 366.345 323.78 369.228C314.003 373.149 304.698 376.221 296.055 378.63C298.652 385.009 301.298 391.293 303.943 397.53Z" fill="#161616" stroke="#161616" stroke-width="3" stroke-miterlimit="10"/>
<path d="M252.27 310.259C243.343 315.079 235.644 320.418 234.322 321.316C229.788 324.482 219.207 331.9 208.722 342.72C193.229 358.691 180.193 372.11 181.043 389.12C181.799 404.429 193.371 415.06 194.646 416.194C215.287 434.621 259.403 427.912 303.943 399.515C302.337 391.057 300.779 382.646 299.173 374.189C303.14 373.385 312.114 370.976 320.286 363.274C330.441 353.682 332.708 342.059 333.275 338.279C333.227 333.979 332.708 328.923 331.244 323.442C326.757 306.621 316.082 295.99 310.414 291.123C295.725 293.675 273.62 298.825 252.27 310.259Z" fill="white" stroke="#161616" stroke-width="3" stroke-miterlimit="10"/>
<path d="M286.042 319.095C276.974 324.009 268.897 329.584 268.094 330.151C256.38 338.326 248.114 346.169 242.494 351.556C222.42 370.834 208.155 383.922 210.045 399.798C211.887 415.06 227.143 424.274 228.418 424.982C237.345 430.18 246.414 430.322 253.688 429.944C286.373 428.243 323.026 414.304 337.715 408.303C336.109 399.845 334.551 391.435 332.945 382.977C336.912 381.654 348.154 377.213 355.569 365.495C356.703 363.699 360.67 357.131 361.757 347.728C362.087 345.035 362.465 339.365 359.489 327.6C357.647 320.323 354.341 310.165 348.154 298.636C335.117 300.951 309.659 306.337 286.042 319.095Z" fill="white" stroke="#161616" stroke-width="3" stroke-miterlimit="10"/>
<path d="M281.743 392.002C299.267 392.427 316.743 389.781 333.322 384.159C334.172 383.875 333.794 382.505 332.944 382.788C316.46 388.411 299.172 391.057 281.743 390.585C280.846 390.537 280.846 391.955 281.743 392.002Z" fill="#161616"/>
<path d="M277.162 387.041C278.343 389.072 280.138 390.679 282.31 391.577C283.161 391.907 283.869 390.726 283.019 390.348C281.035 389.498 279.476 388.175 278.39 386.332C277.918 385.529 276.69 386.237 277.162 387.041Z" fill="#161616"/>
<path opacity="0.12" d="M306.919 352.028C290.482 361.242 281.98 359.73 265.637 372.487C261.386 375.842 236.542 395.262 239.706 414.965C239.99 416.619 241.454 425.88 248.35 429.518C251.278 431.077 254.16 430.983 258.174 430.699C271.636 429.66 282.027 427.108 283.302 426.778C299.834 422.667 297.047 424.368 308.43 421.297C315.94 419.265 326.095 416.052 337.903 411.091C336.345 402.822 334.739 394.6 333.18 386.332C336.628 384.725 341.351 382.032 346.169 377.685C349.664 374.519 359.63 365.542 361.898 351.367C363.126 343.759 361.614 337.948 359.158 328.545C356.655 318.953 353.16 311.488 350.515 306.526C335.778 332.372 319.246 345.177 306.919 352.028Z" fill="#3D3D3D"/>
<path opacity="0.11" d="M289.253 311.252C288.592 310.118 267.81 319.568 244.052 336.814C214.673 358.124 198.377 370.739 197.669 388.694C196.866 409.626 225.536 427.109 226.764 426.022C227.426 425.408 210.138 413.453 209.855 396.16C209.666 384.867 216.845 375.937 229.504 363.132C261.858 330.388 290.056 312.622 289.253 311.252Z" fill="#3D3D3D"/>
<path opacity="0.12" d="M356.041 321.505C353.868 330.104 349.381 342.815 339.557 355.336C318.633 381.938 288.923 388.08 280.232 389.545C281.697 390.962 283.114 392.569 284.578 394.27C292.419 403.72 296.292 413.831 298.323 421.769C311.17 417.328 324.017 412.839 336.817 408.398C334.834 400.554 332.897 392.663 330.913 384.82C334.975 383.166 341.588 379.811 347.823 373.433C350.42 370.739 356.702 364.172 359.631 353.777C363.882 338.373 357.93 325.238 356.041 321.505Z" fill="#3D3D3D"/>
<path d="M253.925 184.386C257.892 184.953 259.593 196.813 260.159 200.735C262.474 216.658 257.562 223.793 256.806 243.307C256.192 258.805 259.026 259.514 257.751 267.074C255.861 278.131 247.123 292.306 216.091 305.158C213.777 307.662 209.667 311.584 203.716 314.088C191.199 319.38 174.762 316.639 172.542 309.032C171.787 306.481 172.495 302.937 174.243 301.283C177.077 298.543 181.422 302.464 188.602 299.866C188.979 299.724 192.191 298.543 192.097 297.692C192.05 297.172 190.822 296.983 189.357 296.794C182.698 295.849 180.714 296.038 180.572 295.471C180.336 294.526 185.437 291.266 192.05 289.376C197.151 287.911 204.047 286.636 212.549 287.061C219.964 278.698 227.427 270.334 234.843 261.971C234.134 251.198 234.276 235.842 238.338 218.406C241.313 205.743 248.351 183.583 253.925 184.386Z" fill="white" stroke="#161616" stroke-width="3" stroke-miterlimit="10"/>
<path opacity="0.12" d="M254.113 184.15C248.303 184.244 243.061 207.35 241.974 223.745C240.604 244.488 246.036 250.961 241.974 263.672C239.282 272.082 232.48 282.902 214.201 292.73C199.795 304.779 190.207 306.055 183.878 304.543C180.005 303.645 175.187 301.141 173.014 303.267C171.172 305.063 172.022 309.504 173.959 312.528C178.588 319.568 192.521 317.867 200.457 315.08C207.825 312.481 212.69 307.945 215.477 304.874C221.947 303.125 237.062 298.07 249.626 283.8C261.859 269.909 264.74 255.119 266.205 247.087C271.825 216.516 261.198 184.008 254.113 184.15Z" fill="#3D3D3D"/>
<path d="M325.765 156.981C342.58 160.525 355.333 174.747 360.859 187.835C366.952 202.199 363.41 213.445 360.009 237.211C357.694 253.513 355.191 276.996 355.191 306.338C350.09 310.213 325.954 327.884 293.08 323.395C272.203 320.56 257.939 310.213 251.657 304.968C252.696 297.408 253.735 285.69 252.507 271.515C250.712 251.575 245.894 243.779 244.997 227.998C244.43 218.028 245.28 203.333 252.932 184.906C257.23 181.976 263.323 178.102 270.928 174.038C294.544 161.422 309.328 153.532 325.765 156.981Z" fill="#00B8C5"/>
<path opacity="0.14" d="M309.422 179.046C313.767 190.669 319.907 212.215 316.648 238.864C311.217 283.137 283.491 310.495 274.895 318.339C281.791 321.079 296.055 325.615 314.239 323.536C334.786 321.174 348.861 311.629 354.765 307.093C354.246 287.437 355.426 271.089 356.749 258.945C360.811 222.374 368.132 209.191 360.339 189.11C358.497 184.338 352.309 168.367 336.675 160.996C332.566 159.059 328.834 158.208 326.237 157.783C325.292 161.138 323.119 167.139 317.829 172.62C314.901 175.738 311.831 177.723 309.422 179.046Z" fill="#3D3D3D"/>
<path opacity="0.21" d="M361.993 195.915C349.571 229.652 337.101 263.341 324.679 297.077C313.863 305.913 302.999 314.749 292.183 323.585C300.259 324.293 313.107 324.34 327.891 319.993C340.171 316.355 349.476 310.969 355.569 306.764C355.427 301.755 355.333 294.384 355.569 285.501C356.23 263.199 356.514 252.048 359.584 238.535C362.418 226.061 366.244 216.563 363.599 202.388C363.079 199.553 362.465 197.333 361.993 195.915Z" fill="#3D3D3D"/>
<path d="M161.867 293.486C167.488 307.094 173.156 320.702 178.777 334.263C201.637 326.325 224.545 318.34 247.406 310.402C241.927 297.314 236.448 284.178 231.016 271.09C207.966 278.555 184.917 286.021 161.867 293.486Z" fill="white" stroke="#161616" stroke-width="3" stroke-miterlimit="10"/>
<path d="M154.498 248.504C162.15 254.079 171.313 261.875 180.334 272.365C187.656 280.87 193.135 289.139 197.244 296.226C206.218 282.287 215.145 268.349 224.119 254.457C213.681 242.834 203.242 231.257 192.804 219.634C180.004 229.273 167.251 238.865 154.498 248.504Z" fill="white" stroke="#161616" stroke-width="3" stroke-miterlimit="10"/>
<path d="M113.123 183.677C113.123 196.434 113.123 209.192 113.123 221.997C122.9 217.177 132.677 212.358 142.455 207.585C148.926 204.42 155.396 201.254 161.867 198.135C160.025 188.827 158.23 179.566 156.388 170.258C141.982 174.699 127.576 179.188 113.123 183.677Z" fill="white" stroke="#161616" stroke-width="3" stroke-miterlimit="10"/>
<path d="M84.6416 102.218C89.4593 113.652 94.2771 125.087 99.0476 136.521C116.099 126.741 133.197 116.96 150.248 107.179C143.116 93.5711 135.984 79.9631 128.852 66.4023C124.364 71.5998 118.933 77.2226 112.462 82.7981C102.59 91.3976 92.9073 97.6346 84.6416 102.218Z" fill="white" stroke="#161616" stroke-width="3" stroke-miterlimit="10"/>
<path d="M14.0281 117.149C12.5167 125.937 11.0525 134.726 9.54102 143.514C26.9227 139.545 44.3516 135.576 61.7333 131.56C61.4027 121.921 61.072 112.329 60.7414 102.69C45.2018 107.51 29.615 112.329 14.0281 117.149Z" fill="white" stroke="#161616" stroke-width="3" stroke-miterlimit="10"/>
<path d="M162.386 294.667C178.729 297.077 194.93 300.101 210.989 303.739C211.886 303.928 212.264 302.558 211.367 302.369C195.26 298.73 179.059 295.659 162.764 293.297C161.867 293.202 161.489 294.572 162.386 294.667Z" fill="#161616"/>
<path d="M230.071 271.751C224.828 282.666 218.452 293.013 211.036 302.558C210.47 303.267 211.462 304.259 212.028 303.55C219.538 293.911 226.009 283.469 231.299 272.46C231.677 271.656 230.449 270.948 230.071 271.751Z" fill="#161616"/>
<path d="M166.212 251.339C174.147 242.928 182.98 235.416 192.615 228.99C193.371 228.47 192.662 227.242 191.907 227.761C182.177 234.282 173.25 241.842 165.22 250.347C164.559 250.961 165.598 252 166.212 251.339Z" fill="#161616"/>
<path d="M173.062 255.591C179.013 249.023 185.578 243.07 192.663 237.825C193.372 237.305 192.663 236.077 191.955 236.596C184.728 241.936 178.068 247.936 172.07 254.599C171.408 255.26 172.4 256.252 173.062 255.591Z" fill="#161616"/>
<path d="M179.012 263.529C186.711 254.882 195.165 246.897 204.329 239.762C205.037 239.195 204.045 238.203 203.337 238.77C194.221 245.905 185.719 253.843 178.02 262.537C177.406 263.198 178.445 264.19 179.012 263.529Z" fill="#161616"/>
<path d="M189.12 273.121C191.813 268.774 195.402 265.088 198.945 261.403C202.818 257.481 206.691 253.512 210.564 249.59C211.225 248.929 210.186 247.937 209.572 248.598C205.51 252.756 201.448 256.867 197.386 261.025C193.891 264.569 190.537 268.207 187.892 272.412C187.42 273.168 188.648 273.877 189.12 273.121Z" fill="#161616"/>
<path d="M176.887 314.229C177.737 318.104 179.154 321.742 181.091 325.144C181.516 325.947 182.744 325.239 182.319 324.435C180.429 321.081 179.06 317.584 178.257 313.851C178.068 312.953 176.698 313.331 176.887 314.229Z" fill="#161616"/>
<path d="M178.02 315.079C182.744 312.244 187.845 310.496 193.276 309.74C192.993 309.598 192.71 309.409 192.426 309.267C193.371 312.338 194.268 315.362 195.213 318.434C195.496 319.284 196.866 318.953 196.583 318.056C195.638 314.984 194.741 311.96 193.796 308.889C193.654 308.464 193.324 308.322 192.946 308.417C187.372 309.173 182.177 311.015 177.359 313.898C176.509 314.323 177.217 315.551 178.02 315.079Z" fill="#161616"/>
<path d="M181.988 325.71C186.475 323.867 190.868 321.788 195.213 319.568C196.016 319.142 195.308 317.914 194.505 318.339C190.301 320.513 186.003 322.497 181.61 324.34C180.76 324.718 181.138 326.088 181.988 325.71Z" fill="#161616"/>
<path d="M218.122 304.401C223.317 301.613 228.844 299.676 234.606 298.495C235.503 298.306 235.126 296.935 234.228 297.124C228.324 298.306 222.703 300.337 217.413 303.172C216.563 303.598 217.319 304.826 218.122 304.401Z" fill="#161616"/>
<path d="M219.822 308.464C222.986 307.094 226.151 305.724 229.268 304.354C230.119 303.976 229.363 302.747 228.56 303.125C225.395 304.495 222.231 305.866 219.113 307.236C218.263 307.614 219.019 308.795 219.822 308.464Z" fill="#161616"/>
<path d="M117.374 188.638C128.615 184.905 139.857 180.369 151.523 178.101C152.42 177.912 152.043 176.542 151.145 176.731C139.526 179.046 128.237 183.535 116.996 187.268C116.146 187.551 116.524 188.921 117.374 188.638Z" fill="#161616"/>
<path d="M117.185 194.733C127.954 189.772 139.101 185.755 150.531 182.731C151.429 182.495 151.051 181.125 150.153 181.361C138.581 184.432 127.34 188.496 116.476 193.504C115.673 193.882 116.382 195.111 117.185 194.733Z" fill="#161616"/>
<path d="M116.335 200.876C121.058 198.939 125.687 196.859 130.268 194.639C131.071 194.261 130.363 193.032 129.56 193.41C125.073 195.584 120.538 197.615 115.957 199.506C115.154 199.836 115.484 201.207 116.335 200.876Z" fill="#161616"/>
<path d="M118.932 205.979C128.898 200.923 139.101 196.293 149.492 192.182C150.342 191.851 149.964 190.481 149.114 190.812C138.581 194.97 128.284 199.648 118.224 204.751C117.374 205.176 118.129 206.404 118.932 205.979Z" fill="#161616"/>
<path d="M90.6392 105.148C104.053 98.6271 116.523 90.4056 127.859 80.7666C128.567 80.1523 127.528 79.1601 126.867 79.7743C115.625 89.3661 103.203 97.4458 89.9307 103.966C89.0805 104.344 89.789 105.573 90.6392 105.148Z" fill="#161616"/>
<path d="M93.5207 111.29C99.1414 108.03 104.526 104.439 109.722 100.517C110.43 99.9975 109.722 98.7218 109.013 99.2888C103.817 103.211 98.4329 106.802 92.8122 110.062C92.0092 110.534 92.7177 111.763 93.5207 111.29Z" fill="#161616"/>
<path d="M97.1105 115.59C109.202 109.117 120.821 101.935 132.016 93.9966C132.771 93.4769 132.063 92.2484 131.307 92.7682C120.16 100.706 108.494 107.888 96.402 114.361C95.5991 114.787 96.3076 116.015 97.1105 115.59Z" fill="#161616"/>
<path d="M100.133 122.914C113.5 116.866 126.253 109.59 138.25 101.085C139.006 100.565 138.297 99.3363 137.542 99.856C125.592 108.361 112.839 115.638 99.4248 121.686C98.5746 122.063 99.2831 123.245 100.133 122.914Z" fill="#161616"/>
<path opacity="0.13" d="M165.834 240.66C170.888 239.526 175.942 238.392 180.996 237.258C188.175 252.378 195.355 267.498 202.534 282.571C209.713 273.263 216.893 264.002 224.072 254.693C213.492 243.306 202.912 231.872 192.379 220.484C183.499 227.241 174.667 233.951 165.834 240.66Z" fill="#3D3D3D"/>
<path opacity="0.21" d="M128.71 180.369C126.064 192.512 123.419 204.703 120.774 216.846C134.283 210.373 147.792 203.852 161.347 197.379C159.364 188.779 157.427 180.133 155.443 171.533C146.516 174.51 137.589 177.439 128.71 180.369Z" fill="#3D3D3D"/>
<path opacity="0.08" d="M189.64 285.311C192.285 291.737 194.93 298.163 197.575 304.589C201.967 305.582 206.313 306.574 210.705 307.519C215.476 310.826 220.199 314.181 224.97 317.489C232.196 314.984 239.47 312.48 246.697 310.023C241.171 297.502 235.692 284.933 230.165 272.412C222.939 274.586 215.665 276.806 208.438 278.98C204.66 285.028 200.881 291.076 197.102 297.124C194.599 293.155 192.143 289.233 189.64 285.311Z" fill="#3D3D3D"/>
<path opacity="0.15" d="M22.9076 117.716C20.6404 125.607 18.4205 133.545 16.1533 141.436C31.2206 137.939 46.2878 134.443 61.3551 130.946C60.8356 121.874 60.3632 112.802 59.8437 103.73C47.5159 108.408 35.1881 113.086 22.9076 117.716Z" fill="#3D3D3D"/>
<path opacity="0.11" d="M106.037 90.7362C107.785 116.251 109.107 128.961 110.052 128.961C110.335 128.961 110.571 127.686 110.808 125.229C123.183 118.992 135.605 112.755 147.98 106.518C141.745 94.847 135.51 83.2235 129.276 71.5527C121.482 77.9315 113.736 84.3575 106.037 90.7362Z" fill="#3D3D3D"/>
<path d="M350.09 176.022C356.466 175.172 364.212 193.694 367.519 204.75C373.092 223.461 371.108 239.857 369.219 255.072C367.188 271.278 366.196 279.405 362.323 287.91C349.806 315.41 318.349 325.947 306.022 329.349C302.668 331.806 296.669 335.727 288.404 338.279C270.88 343.665 247.878 341.35 244.713 332.325C243.674 329.301 244.666 325.143 247.075 323.206C251.09 319.993 257.088 324.576 267.196 321.505C267.716 321.363 272.203 319.946 272.061 318.954C271.967 318.339 270.314 318.15 268.235 317.914C258.93 316.827 256.144 317.016 255.955 316.355C255.671 315.221 262.804 311.441 272.014 309.173C279.193 307.425 288.829 305.913 300.731 306.432C312.351 295.754 323.97 285.028 335.589 274.35C335.495 248.268 337.573 226.769 339.699 210.987C344.138 178.952 347.964 176.306 350.09 176.022Z" fill="white" stroke="#161616" stroke-width="3" stroke-miterlimit="10"/>
<path d="M244.005 331.947C245.8 333.884 249.106 334.451 251.515 335.16C255.057 336.152 258.694 336.908 262.378 337.381C263.276 337.523 263.654 336.152 262.756 336.011C259.686 335.585 256.616 335.018 253.593 334.215C250.995 333.554 246.839 332.987 244.997 330.908C244.383 330.293 243.391 331.286 244.005 331.947Z" fill="#161616"/>
<path d="M244.808 327.647C250.712 331.286 257.325 333.317 264.268 333.648C265.165 333.695 265.165 332.278 264.268 332.231C257.561 331.947 251.231 329.963 245.516 326.419C244.761 325.946 244.005 327.175 244.808 327.647Z" fill="#161616"/>
<path d="M247.311 324.34C253.924 327.695 261.103 329.443 268.519 329.443C269.416 329.443 269.416 328.026 268.519 328.026C261.339 328.026 254.396 326.372 248.02 323.112C247.217 322.686 246.508 323.915 247.311 324.34Z" fill="#161616"/>
<path opacity="0.15" d="M347.633 178.102C351.884 187.363 357.505 202.388 359.158 221.619C360.386 236.03 362.417 260.6 347.633 285.076C333.086 309.126 311.028 318.67 302.857 322.167C294.638 325.711 280.846 331.475 262.945 329.585C255.718 328.829 249.862 327.034 245.8 325.474C244.902 327.459 244.052 330.294 245.044 332.893C248.256 341.35 268.282 341.209 279.051 339.555C285.05 338.657 295.016 336.247 306.163 328.829C319.577 324.86 352.924 313.048 362.937 286.351C365.865 278.555 367.613 267.357 368.558 261.262C369.88 252.662 371.817 239.763 370.589 223.131C370.589 223.131 368.794 199.081 355.474 179.377C354.86 178.432 353.443 176.448 351.365 176.306C349.759 176.212 348.342 177.393 347.633 178.102Z" fill="#3D3D3D"/>
<path opacity="0.09" d="M369.644 241.322C368.227 241.086 365.204 256.773 361.992 266.648C356.418 283.753 342.815 306.385 306.729 328.829C314.901 326.986 326.52 323.112 338.187 314.749C344.091 310.496 354.057 303.361 360.953 290.179C365.723 281.059 366.999 272.885 368.604 262.301C370.069 252.993 370.824 241.511 369.644 241.322Z" fill="#3D3D3D"/>
<path d="M239.234 89.2243C238.998 100.139 238.762 111.007 238.526 121.921C235.219 135.718 240.368 149.704 251.09 156.792C262.756 164.494 275.792 160.619 277.682 160.005C277.776 162.651 277.682 165.958 276.973 169.691C276.359 173.14 275.367 176.023 274.47 178.291C280.232 183.677 285.569 185.047 288.498 185.473C302.384 187.504 318.255 176.353 326.568 157.075C324.064 154.429 320.711 150.46 317.593 145.216C315.798 142.239 311.642 134.726 309.328 124C306.966 113.038 309.28 111.574 307.533 103.541C305.549 94.3745 299.834 83.9795 292.088 78.7348C279.051 70.088 257.135 73.9153 239.234 89.2243Z" fill="white" stroke="#161616" stroke-width="3" stroke-miterlimit="10"/>
<path d="M237.298 126.22C233.992 128.016 233.755 133.308 233.425 140.301C233.094 146.821 232.764 154.618 237.676 162.414C241.407 168.367 246.461 171.297 248.539 172.478C259.308 178.621 270.266 176.731 273.714 175.975C271.542 175.077 269.322 174.179 267.149 173.281C269.841 173.187 274.376 172.667 279.146 170.163C284.058 167.611 286.845 164.209 289.207 161.233C291.994 157.736 296.386 151.263 298.89 141.482C297.661 139.356 292.938 130.756 295.394 120.172C296.764 114.313 299.74 110.297 301.582 108.171C304.463 108.36 306.022 109.541 306.636 110.108C309.8 112.99 310.178 118.897 307.014 124.472C308.383 123.48 311.642 120.739 313.201 115.92C314.854 110.911 313.532 106.706 312.823 104.296C311.926 101.414 310.603 97.1144 306.636 94.9881C305.502 94.3739 303.707 93.6179 301.582 93.8069C294.78 94.4684 293.363 105.383 285.428 115.447C279.477 122.96 267.244 133.261 255.199 131.89C246.13 130.851 241.785 123.763 237.298 126.22Z" fill="#161616" stroke="#161616" stroke-width="3" stroke-miterlimit="10"/>
<path d="M253.924 107.368C254.491 114.833 254.585 122.346 254.16 129.811C254.113 130.473 254.963 130.709 255.388 130.331C257.75 128.252 260.111 126.173 262.426 124.094C263.087 123.48 262.095 122.488 261.434 123.102C259.072 125.181 256.711 127.26 254.396 129.339C254.821 129.528 255.199 129.67 255.624 129.859C256.049 122.393 255.955 114.88 255.388 107.415C255.294 106.47 253.877 106.47 253.924 107.368Z" fill="#161616"/>
<path d="M243.721 114.644C243.533 114.125 242.919 112.046 244.052 112.046C244.713 112.046 244.713 113.18 244.713 113.605C244.713 114.03 244.713 114.739 244.383 115.117C244.052 115.542 243.58 115.211 243.438 114.739C243.296 114.266 243.391 113.747 243.438 113.274C243.58 112.376 242.21 111.998 242.068 112.896C241.832 114.408 242.021 116.865 244.147 116.723C245.658 116.629 246.083 114.833 246.083 113.558C246.083 112.235 245.516 110.392 243.816 110.581C241.596 110.864 241.738 113.416 242.257 114.975C242.635 115.873 244.005 115.495 243.721 114.644Z" fill="#161616"/>
<path d="M244.713 114.219C244.383 113.841 244.383 113.18 244.713 112.755C244.335 112.707 243.958 112.66 243.58 112.613C243.958 113.133 244.052 113.889 243.627 114.408C244.005 114.456 244.383 114.503 244.76 114.55C244.619 114.314 243.627 112.944 244.43 112.896C244.335 112.896 244.43 112.755 244.383 112.991C244.383 113.18 244.43 113.416 244.43 113.652C244.43 113.794 244.335 114.408 244.099 114.267C243.343 113.747 242.635 114.975 243.391 115.495C244.241 116.062 245.327 115.495 245.658 114.645C245.989 113.841 245.989 112.235 245.138 111.715C244.383 111.243 243.343 111.668 242.918 112.377C242.352 113.369 242.918 114.456 243.485 115.306C243.721 115.637 244.288 115.826 244.619 115.448C245.422 114.456 245.563 113.038 244.808 111.951C244.572 111.621 244.005 111.432 243.674 111.81C242.824 112.849 242.824 114.219 243.674 115.259C244.288 115.873 245.28 114.881 244.713 114.219Z" fill="#161616"/>
<path d="M271.21 112.707C270.738 112.282 270.171 111.29 271.021 110.864C271.871 110.439 272.013 111.573 272.013 112.14C272.013 112.471 272.108 113.794 271.541 113.794C271.021 113.794 270.738 112.707 270.596 112.376C270.36 111.526 268.99 111.857 269.226 112.754C269.604 113.983 270.549 115.637 272.06 115.117C273.525 114.644 273.572 112.471 273.336 111.242C273.052 109.778 271.588 108.833 270.218 109.683C268.707 110.628 269.038 112.613 270.218 113.699C270.88 114.314 271.872 113.321 271.21 112.707Z" fill="#161616"/>
<path d="M272.203 113.086C272.014 112.471 271.967 111.857 272.108 111.243C271.778 111.385 271.4 111.526 271.069 111.668C271.4 111.857 271.4 112.471 271.069 112.66C271.4 112.802 271.778 112.944 272.108 113.086C271.825 112.471 271.589 111.81 271.305 111.196C271.164 110.865 270.833 110.581 270.455 110.723C270.125 110.818 269.794 111.243 269.983 111.574C270.266 112.188 270.502 112.849 270.786 113.464C270.975 113.889 271.4 114.172 271.825 113.889C273.053 113.133 273.053 111.196 271.825 110.44C271.447 110.203 270.88 110.392 270.786 110.865C270.597 111.763 270.644 112.613 270.88 113.464C271.116 114.314 272.439 113.936 272.203 113.086Z" fill="#161616"/>
<path d="M241.69 106.045C243.202 103.257 246.933 102.879 248.822 105.525C249.342 106.281 250.57 105.572 250.05 104.816C247.547 101.367 242.54 101.509 240.462 105.336C240.037 106.139 241.265 106.848 241.69 106.045Z" fill="#161616"/>
<path d="M266.488 105.904C268.519 102.549 273.289 102.832 274.753 106.518C275.084 107.368 276.454 106.99 276.123 106.14C274.187 101.32 267.952 100.706 265.26 105.195C264.787 105.951 266.015 106.66 266.488 105.904Z" fill="#161616"/>
<path d="M221.711 93.4298C246.272 94.8473 270.786 96.8318 295.252 99.3833C297.992 99.6668 297.945 95.4143 295.252 95.1308C270.786 92.532 246.272 90.5475 221.711 89.1773C218.971 89.0355 218.971 93.288 221.711 93.4298Z" fill="#161616"/>
<path d="M237.628 90.3108C238.006 86.6726 239.564 77.3171 247.074 69.6626C257.23 59.3148 274.942 55.7238 288.923 63.9926C299.881 70.5131 306.257 82.9398 305.502 96.1226C282.877 94.2326 260.252 92.2481 237.628 90.3108Z" fill="#FFA745"/>
<path opacity="0.11" d="M306.305 123.953C306.258 124.331 305.644 127.497 302.81 128.914C301.345 129.623 299.976 129.623 299.314 129.529C302.196 133.214 314.004 149.185 310.272 168.746C309.281 173.849 307.439 178.149 305.549 181.551C308.667 179.614 312.729 176.637 316.696 172.243C321.608 166.809 324.395 161.375 326.001 157.595C323.025 153.862 319.766 149.279 316.696 143.751C312.681 136.522 310.131 129.718 308.43 124.142C307.675 124.095 307.013 124 306.305 123.953Z" fill="#3D3D3D"/>
<path opacity="0.12" d="M253.877 107.651C252.177 114.172 250.429 120.74 248.729 127.26C250.665 128.016 252.602 128.772 254.491 129.528C254.302 122.204 254.113 114.928 253.877 107.651Z" fill="#3D3D3D"/>
<path opacity="0.69" d="M268.661 61.3941C263.796 65.8356 266.488 79.2546 275.037 93.4768C285.145 94.3746 295.253 95.3196 305.361 96.2173C305.691 92.0593 305.739 83.9796 301.063 76.2306C293.08 63.0478 274.659 55.9603 268.661 61.3941Z" fill="#E3953E"/>
</svg>
