<svg width="80" height="23" viewBox="0 0 80 23" fill="none" xmlns="http://www.w3.org/2000/svg">
<path d="M13.5388 1.87447C12.5363 1.18528 11.2281 0.839844 9.61421 0.839844H3.36609C2.87134 0.839844 2.598 1.08728 2.54608 1.58167L0.00796708 17.514C-0.0184119 17.6705 0.0207387 17.8136 0.125061 17.9437C0.228786 18.0741 0.359249 18.1389 0.515493 18.1389H3.48331C4.00384 18.1389 4.28995 17.8921 4.34247 17.3971L5.04527 13.1017C5.07094 12.8936 5.16249 12.7243 5.31873 12.594C5.47486 12.4639 5.67013 12.3788 5.90444 12.3398C6.13875 12.3012 6.35969 12.2816 6.56833 12.2816C6.77638 12.2816 7.02358 12.2948 7.3104 12.3207C7.59651 12.3466 7.7789 12.3594 7.85708 12.3594C10.0958 12.3594 11.8531 11.7286 13.1289 10.4655C14.4042 9.20314 15.0425 7.45259 15.0425 5.21313C15.0425 3.67718 14.5409 2.56438 13.5388 1.87411V1.87447ZM10.3174 6.65847C10.1868 7.5698 9.84875 8.16828 9.30207 8.45475C8.75528 8.74157 7.97429 8.88433 6.95912 8.88433L5.67037 8.92324L6.33438 4.74475C6.38619 4.45864 6.55532 4.31541 6.84191 4.31541H7.5841C8.62494 4.31541 9.38038 4.46545 9.84899 4.76433C10.3174 5.06393 10.4736 5.69547 10.3174 6.65847Z" fill="#003087"/>
<path d="M79.4903 0.839844H76.6009C76.3137 0.839844 76.1447 0.983079 76.0931 1.26967L73.5548 17.5148L73.5156 17.5928C73.5156 17.7236 73.5677 17.8467 73.6721 17.9639C73.7756 18.0809 73.9064 18.1395 74.0624 18.1395H76.6402C77.134 18.1395 77.4074 17.8927 77.4603 17.3977L79.9984 1.42591V1.38712C79.9983 1.02247 79.8285 0.840323 79.4903 0.840323V0.839844Z" fill="#009CDE"/>
<path d="M44.5501 7.12675C44.5501 6.99689 44.4978 6.87299 44.3943 6.75614C44.2899 6.63904 44.1727 6.58008 44.0428 6.58008H41.0359C40.749 6.58008 40.5147 6.7109 40.3328 6.97051L36.1935 13.0626L34.4753 7.20506C34.3445 6.78884 34.0585 6.58008 33.6163 6.58008H30.687C30.5565 6.58008 30.4394 6.6388 30.3359 6.75614C30.2315 6.87299 30.1797 6.99713 30.1797 7.12675C30.1797 7.17915 30.4336 7.94689 30.9411 9.43079C31.4486 10.9152 31.9953 12.5163 32.5811 14.2346C33.167 15.9526 33.4727 16.8643 33.4988 16.9675C31.3639 19.8837 30.2969 21.4457 30.2969 21.6536C30.2969 21.9924 30.4658 22.1614 30.8046 22.1614H33.8114C34.0976 22.1614 34.3318 22.0315 34.5145 21.7711L44.4725 7.39997C44.5242 7.34841 44.5501 7.25781 44.5501 7.12675Z" fill="#003087"/>
<path d="M72.5502 6.57998H69.5823C69.2174 6.57998 68.9969 7.00968 68.9188 7.86897C68.241 6.82789 67.0053 6.30664 65.2086 6.30664C63.3343 6.30664 61.7395 7.00968 60.4251 8.41553C59.1102 9.82137 58.4531 11.475 58.4531 13.3753C58.4531 14.9116 58.9022 16.135 59.8001 17.0459C60.6983 17.9577 61.9022 18.4127 63.4127 18.4127C64.1675 18.4127 64.9355 18.2562 65.7164 17.9441C66.4974 17.6317 67.1087 17.2154 67.5521 16.6945C67.5521 16.7206 67.5255 16.8374 67.474 17.0455C67.4214 17.2542 67.3957 17.4109 67.3957 17.5141C67.3957 17.9312 67.5645 18.1389 67.9035 18.1389H70.5982C71.0922 18.1389 71.3789 17.892 71.4567 17.397L73.0581 7.20472C73.0837 7.04836 73.0448 6.90548 72.9409 6.77514C72.8362 6.64527 72.7063 6.57998 72.5502 6.57998ZM67.4542 14.2733C66.7903 14.9242 65.9897 15.2495 65.0526 15.2495C64.2973 15.2495 63.686 15.0416 63.2172 14.6247C62.7483 14.2091 62.514 13.6363 62.514 12.9065C62.514 11.944 62.8395 11.1297 63.4906 10.4659C64.1405 9.80204 64.9484 9.47021 65.9116 9.47021C66.6399 9.47021 67.2453 9.68494 67.7274 10.1143C68.2086 10.544 68.4502 11.1363 68.4502 11.8915C68.4499 12.8286 68.118 13.6228 67.4542 14.2733Z" fill="#009CDE"/>
<path d="M28.1912 6.57998H25.2233C24.8583 6.57998 24.6375 7.00968 24.5593 7.86897C23.8564 6.82789 22.6197 6.30664 20.8495 6.30664C18.975 6.30664 17.3802 7.00968 16.0657 8.41553C14.7508 9.82137 14.0938 11.475 14.0938 13.3753C14.0938 14.9116 14.5429 16.135 15.4411 17.0459C16.3393 17.9577 17.543 18.4127 19.0532 18.4127C19.7818 18.4127 20.5372 18.2562 21.3181 17.9441C22.0991 17.6317 22.7239 17.2154 23.1925 16.6945C23.0881 17.0066 23.0363 17.2801 23.0363 17.5141C23.0363 17.9312 23.2054 18.1389 23.5439 18.1389H26.2384C26.7326 18.1389 27.0194 17.892 27.0975 17.397L28.6985 7.20472C28.7242 7.04836 28.6853 6.90548 28.5814 6.77514C28.4772 6.64527 28.3472 6.57998 28.1912 6.57998ZM23.0951 14.2927C22.4311 14.9313 21.6172 15.2495 20.6545 15.2495C19.8991 15.2495 19.2938 15.0416 18.8386 14.6247C18.3827 14.2091 18.1551 13.6363 18.1551 12.9065C18.1551 11.944 18.4804 11.1297 19.1315 10.4659C19.7819 9.80204 20.589 9.47009 21.5526 9.47009C22.2812 9.47009 22.8865 9.68494 23.3686 10.1143C23.8498 10.544 24.091 11.1363 24.091 11.8915C24.0908 12.8547 23.759 13.6555 23.0951 14.2927Z" fill="#003087"/>
<path d="M57.8984 1.87447C56.896 1.18528 55.5882 0.839844 53.9739 0.839844H47.7647C47.2439 0.839844 46.9574 1.08728 46.9057 1.58167L44.3673 17.514C44.341 17.6705 44.3801 17.8136 44.4846 17.9437C44.5878 18.0741 44.7186 18.1389 44.8749 18.1389H48.0769C48.3892 18.1389 48.5974 17.9699 48.7018 17.6314L49.4048 13.1017C49.4307 12.8936 49.5217 12.7243 49.6782 12.594C49.8345 12.4639 50.0295 12.3788 50.264 12.3398C50.4981 12.3012 50.719 12.2816 50.9278 12.2816C51.136 12.2816 51.383 12.2948 51.6696 12.3207C51.9559 12.3466 52.1387 12.3594 52.2163 12.3594C54.4555 12.3594 56.2124 11.7286 57.4883 10.4655C58.764 9.20314 59.4018 7.45259 59.4018 5.21313C59.4019 3.67718 58.9004 2.56426 57.8984 1.87411V1.87447ZM53.8958 8.29838C53.323 8.68882 52.4637 8.88397 51.3186 8.88397L50.0688 8.92312L50.7326 4.74452C50.7842 4.45853 50.9535 4.31505 51.2402 4.31505H51.9429C52.5157 4.31505 52.9712 4.34119 53.3101 4.39312C53.6479 4.4454 53.9739 4.60785 54.2863 4.88106C54.5989 5.15452 54.7549 5.55176 54.7549 6.07217C54.7549 7.166 54.4682 7.90759 53.8958 8.29838Z" fill="#009CDE"/>
</svg>
