<svg width="80" height="80" viewBox="0 0 80 80" fill="none" xmlns="http://www.w3.org/2000/svg">
<path d="M35.9003 41.0938C38.6547 38.7606 35.4003 38.9937 32.7003 35.5938L24.1738 30.5938L22.6738 21.6938L23.2738 14.3938L24.1738 9.39375L29.2738 7.59375H56.2738L59.3738 10.0938L59.9738 18.3938V20.4938L59.3738 24.0938V27.4937V29.7938V36.2938V39.6938V43.1938V45.9938V49.1938V62.5938L56.2738 66.6938H31.3738C25.8405 68.3604 27.4003 48.2938 35.9003 41.0938Z" fill="#E2F1F3"/>
<path fill-rule="evenodd" clip-rule="evenodd" d="M31.8614 51.2C39.0963 51.2 44.9614 45.3349 44.9614 38.1C44.9614 30.8651 39.0963 25 31.8614 25C28.6705 25 25.746 26.1409 23.4736 28.037V39.9849L29.2226 34.8014L32.8038 35.4612L35.0657 38.854V41.3043L31.0132 45.3568L28.6571 50.0691L28.4313 50.7464C29.5246 51.0422 30.6746 51.2 31.8614 51.2Z" fill="#00B8C5"/>
<path fill-rule="evenodd" clip-rule="evenodd" d="M28.6739 5.79688C25.0289 5.79688 22.0739 8.7518 22.0739 12.3969V19.3328C18.2759 26.242 14.9214 38.6418 13.7079 43.9869C13.5367 44.7409 14.0092 45.4909 14.7632 45.6621C15.5172 45.8333 16.2672 45.3609 16.4384 44.6068C17.3686 40.5099 19.5127 32.4911 22.0739 26.0314V30.1969C22.0739 30.9701 22.7007 31.5969 23.4739 31.5969C24.2471 31.5969 24.8739 30.9701 24.8739 30.1969V19.7223C24.8742 19.7062 24.8742 19.6901 24.8739 19.6741V12.3969C24.8739 10.2982 26.5753 8.59687 28.6739 8.59687H54.2739C56.3726 8.59687 58.0739 10.2982 58.0739 12.3969V36.1294C58.0574 36.2512 58.0569 36.3767 58.0739 36.503V61.3969C58.0739 63.4956 56.3726 65.1969 54.2739 65.1969H42.5739C41.8007 65.1969 41.1739 65.8237 41.1739 66.5969C41.1739 67.3701 41.8007 67.9969 42.5739 67.9969H54.2739C57.919 67.9969 60.8739 65.042 60.8739 61.3969V49.5364C61.1603 49.4496 61.4211 49.2707 61.6078 49.0079C62.6411 47.5539 63.7354 46.2462 64.7113 45.0799L64.7113 45.0798L64.7115 45.0796L64.7116 45.0794C65.0333 44.695 65.3421 44.3259 65.6316 43.9721C67.2202 42.0305 66.5858 39.3491 65.3868 37.6085C64.4192 36.204 62.8098 34.9762 60.8739 34.8127V31.3393C61.0489 31.2385 61.2047 31.098 61.3269 30.9206C62.4348 29.3121 63.6439 27.867 64.711 26.5916C65.033 26.2067 65.3421 25.8372 65.6316 25.4834C67.0958 23.6939 66.6619 21.2615 65.674 19.5718C64.7342 17.9643 63.0192 16.5075 60.8739 16.327V12.3969C60.8739 8.75179 57.919 5.79688 54.2739 5.79688H28.6739ZM60.8739 19.1504V26.8499C61.4846 26.0829 62.0808 25.3706 62.6151 24.7323L62.6151 24.7322C62.9216 24.3661 63.2077 24.0243 63.4645 23.7104C63.8709 23.2137 63.955 22.1792 63.2568 20.9849C62.6842 20.0056 61.797 19.3221 60.8739 19.1504ZM60.8739 37.6414V45.3386C61.4839 44.5725 62.0804 43.8599 62.6148 43.2213L62.6149 43.2213L62.6149 43.2212C62.9216 42.8548 63.2078 42.5127 63.4645 42.199C63.907 41.6583 63.9546 40.4652 63.0809 39.197C62.5 38.3537 61.7114 37.7937 60.8739 37.6414ZM31.4376 36.6249C30.789 36.5493 29.9832 36.7147 29.0679 37.4743C18.3034 46.4062 15.1951 59.0573 16.4671 72.6666C16.539 73.4364 15.9733 74.1188 15.2034 74.1908C14.4336 74.2627 13.7512 73.697 13.6792 72.9272C12.3529 58.7365 15.5763 45.0307 27.2799 35.3195C28.7146 34.129 30.268 33.6695 31.7621 33.8438C33.2219 34.0141 34.47 34.7705 35.3875 35.7287C36.3023 36.6841 36.9597 37.9116 37.2014 39.1704C37.4432 40.4297 37.2839 41.8511 36.3575 42.9834C36.0682 43.3369 35.7588 43.7069 35.4363 44.0925C34.0083 45.8 32.3249 47.8129 31.01 50.0504C29.3986 52.7925 28.5219 55.583 29.227 58.2375C30.0568 61.3613 30.8511 63.2966 31.4411 64.4882C31.7354 65.0826 31.984 65.5022 32.1712 65.8037C32.2189 65.8806 32.2631 65.9505 32.3052 66.0172L32.3169 66.0356C32.354 66.0942 32.3919 66.154 32.4258 66.2088L32.4264 66.2097C32.4859 66.3057 32.597 66.485 32.6738 66.6769C32.961 67.3948 32.6118 68.2096 31.8939 68.4967C31.1915 68.7777 30.3963 68.4495 30.0934 67.7628C30.0869 67.7515 30.0724 67.7266 30.0458 67.6838C30.0193 67.6409 29.9886 67.5924 29.9491 67.53L29.9394 67.5148C29.8967 67.4473 29.847 67.3686 29.7923 67.2806C29.5702 66.9228 29.275 66.4236 28.9318 65.7306C28.2468 64.3472 27.3911 62.2325 26.5208 58.9563C25.5307 55.2288 26.8404 51.6193 28.596 48.6318C30.0415 46.1721 31.9121 43.9382 33.3412 42.2316C33.6474 41.866 33.9333 41.5246 34.1904 41.2103C34.4503 40.8927 34.5842 40.3891 34.4516 39.6984C34.3189 39.0071 33.9343 38.2596 33.365 37.6651C32.7984 37.0733 32.1204 36.7046 31.4376 36.6249Z" fill="#008193"/>
<ellipse cx="42.8742" cy="58.1984" rx="2.8" ry="2.8" fill="#008193"/>
<circle cx="37.274" cy="66.5953" r="1.4" fill="#008193"/>
</svg>
