<svg width="80" height="80" viewBox="0 0 80 80" fill="none" xmlns="http://www.w3.org/2000/svg">
<path d="M17.4083 37.2141L19.4349 31.2L42.7407 32.7247L68.8099 31.2L72.6788 38.3153L73.6 46.3624L72.6788 51.8683L67.8887 52.8H17.4083L14.7369 51.1059L14 45.1765V40.5177L17.4083 37.2141Z" fill="#E2F1F3"/>
<path d="M49 23.0716C49 22.1484 49.7448 21.4 50.6636 21.4H62.5579L66.8 32.0149L49 32.6V23.0716Z" fill="#00B8C5"/>
<path d="M36.2002 45.6358C36.2002 43.6278 37.5948 42 39.3152 42H62.5002C63.3707 42 65.4556 45.743 67.1277 46.4149C68.7602 47.0709 71.8002 44.6438 71.8002 45.6358V49.9642C71.8002 51.9722 70.4056 53.6 68.6852 53.6H36.2002V45.6358Z" fill="#00B8C5"/>
<rect x="12.2002" y="62" width="62.2" height="2.8" rx="1.4" fill="#008193"/>
<rect x="5.2002" y="62" width="2.6" height="2.8" rx="1.3" fill="#008193"/>
<path fill-rule="evenodd" clip-rule="evenodd" d="M71.6003 42V49.9111C71.6003 51.3956 70.3962 52.6 68.9098 52.6H19.2908C17.8043 52.6 16.6003 51.3956 16.6003 49.9111V42.1778H13.8003V49.9111C13.8003 52.0466 15.02 53.8968 16.8006 54.8043C16.8004 54.8139 16.8003 54.8236 16.8003 54.8333V60.5667C16.8003 61.3583 17.4359 62 18.22 62H27.9806C28.7647 62 29.4003 61.3583 29.4003 60.5667V55.4H58.8003V60.5667C58.8003 61.3583 59.4359 62 60.22 62H69.9806C70.7647 62 71.4003 61.3583 71.4003 60.5667V54.8333C71.4003 54.8236 71.4002 54.8139 71.4 54.8043C73.1806 53.8968 74.4003 52.0466 74.4003 49.9111V42H71.6003Z" fill="#008193"/>
<path fill-rule="evenodd" clip-rule="evenodd" d="M20.2003 38.6C18.2121 38.6 16.6003 40.2118 16.6003 42.2C16.6003 44.1882 18.2121 45.8 20.2003 45.8C22.1885 45.8 23.8003 44.1882 23.8003 42.2C23.8003 40.2118 22.1885 38.6 20.2003 38.6ZM13.8003 42.2C13.8003 38.6654 16.6657 35.8 20.2003 35.8C23.7349 35.8 26.6003 38.6654 26.6003 42.2C26.6003 45.7346 23.7349 48.6 20.2003 48.6C16.6657 48.6 13.8003 45.7346 13.8003 42.2Z" fill="#008193"/>
<path fill-rule="evenodd" clip-rule="evenodd" d="M68.0001 38.6C66.0119 38.6 64.4001 40.2118 64.4001 42.2C64.4001 44.1882 66.0119 45.8 68.0001 45.8C69.9883 45.8 71.6001 44.1882 71.6001 42.2C71.6001 40.2118 69.9883 38.6 68.0001 38.6ZM61.6001 42.2C61.6001 38.6654 64.4655 35.8 68.0001 35.8C71.5347 35.8 74.4001 38.6654 74.4001 42.2C74.4001 45.7346 71.5347 48.6 68.0001 48.6C64.4655 48.6 61.6001 45.7346 61.6001 42.2Z" fill="#008193"/>
<path fill-rule="evenodd" clip-rule="evenodd" d="M14.0096 30.6377C14.0992 29.8697 14.7944 29.3198 15.5624 29.4094L15.5271 29.7115C15.5624 29.4094 15.5624 29.4094 15.5624 29.4094L15.6048 29.4143C15.6337 29.4176 15.6771 29.4226 15.7344 29.4291C15.8491 29.4421 16.0197 29.4613 16.242 29.4857C16.6866 29.5345 17.3377 29.6045 18.1613 29.6884C19.8088 29.8564 22.1453 30.0805 24.8982 30.3046C30.4097 30.7532 37.5672 31.2 44.2001 31.2C50.8331 31.2 57.9906 30.7532 63.502 30.3046C66.255 30.0805 68.5915 29.8564 70.2389 29.6884C71.0626 29.6045 71.7137 29.5345 72.1583 29.4857C72.3806 29.4613 72.5512 29.4421 72.6659 29.4291C72.7232 29.4226 72.7666 29.4176 72.7954 29.4143L72.8379 29.4094C73.6059 29.3198 74.3011 29.8697 74.3907 30.6377C74.4803 31.4057 73.9304 32.1009 73.1624 32.1905L73.0362 31.1092C73.1624 32.1905 73.1623 32.1906 73.1621 32.1906L73.1155 32.196C73.0852 32.1995 73.0403 32.2046 72.9814 32.2113C72.8636 32.2246 72.6898 32.2442 72.4641 32.2689C72.0129 32.3185 71.3544 32.3892 70.5229 32.474C68.8602 32.6435 66.5044 32.8695 63.7292 33.0954C58.1843 33.5467 50.9418 34 44.2001 34C37.4584 34 30.216 33.5467 24.6711 33.0954C21.8959 32.8695 19.5401 32.6435 17.8773 32.474C17.0458 32.3892 16.3874 32.3185 15.9361 32.2689C15.7105 32.2442 15.5367 32.2246 15.4189 32.2113C15.36 32.2046 15.3151 32.1995 15.2847 32.196L15.2382 32.1906C15.238 32.1906 15.2379 32.1905 15.4001 30.8L15.2379 32.1905C14.4699 32.1009 13.92 31.4057 14.0096 30.6377Z" fill="#008193"/>
<path fill-rule="evenodd" clip-rule="evenodd" d="M23.4074 19.9077C24.9093 16.2149 28.4986 13.8 32.4852 13.8H55.7494C59.6923 13.8 63.2513 16.163 64.7814 19.797L69.6907 31.4567L67.1101 32.5433L62.2008 20.8836C61.1079 18.2879 58.5657 16.6 55.7494 16.6H32.4852C29.6376 16.6 27.0739 18.3249 26.001 20.9627L21.2973 32.5274L18.7036 31.4725L23.4074 19.9077Z" fill="#008193"/>
</svg>
