<svg width="81" height="80" viewBox="0 0 81 80" fill="none" xmlns="http://www.w3.org/2000/svg">
<path d="M71.8984 37.6001C71.8984 49.1568 65.5745 59.2365 56.1984 64.5676C54.7984 64.0001 48.4984 65.5001 43.3984 63.6001C40.9984 65.2001 35.2604 64.6294 32.7984 64.0001C29.4984 65.2001 26.1144 65.1024 23.0984 62.9836C22.1223 62.2978 21.1874 61.5571 20.2984 60.766C13.9177 55.0879 9.89844 46.8134 9.89844 37.6001C9.89844 20.4793 23.7776 6.6001 40.8984 6.6001C58.0193 6.6001 71.8984 20.4793 71.8984 37.6001Z" fill="#F3F9FA"/>
<path d="M32.8676 24.947C32.0196 27.1063 28.5348 30.0078 26.8984 31.1887L27.7984 51.6999C28.9512 52.4435 31.0316 53.3999 32.4042 53.3999H50.9475C52.6079 53.3999 53.9538 52.0568 53.9538 50.3999C53.9538 48.7547 52.6268 47.4186 50.9826 47.3999H52.8404C54.5007 47.3999 55.8467 46.0568 55.8467 44.3999C55.8467 43.6051 55.537 42.8826 55.0315 42.3458C54.9046 42.2111 54.9936 41.9555 55.1786 41.9555C56.839 41.9555 58.185 40.6123 58.185 38.9555C58.185 37.7003 57.4125 36.6251 56.316 36.1776C57.9654 36.1648 59.2984 34.8266 59.2984 33.1777C59.2984 31.5208 57.9524 30.1777 56.2921 30.1777L53.5085 30.1203H37.6652L39.893 25.8162C40.1888 25.2447 40.3461 24.6119 40.3523 23.9687L40.3987 19.099C40.3987 17.637 39.3946 16.3999 36.94 16.3999C34.4854 16.3999 34.1321 18.4617 34.0391 19.1552C34.1507 20.411 33.7155 22.7877 32.8676 24.947Z" fill="#00B8C5"/>
<path d="M62.6559 59.5544C63.1677 60.0661 63.9996 60.0678 64.4903 59.5359C68.5405 55.1451 71.3084 49.7158 72.4771 43.8404C73.7311 37.5361 73.0875 31.0014 70.6277 25.0628C68.1678 19.1242 64.0022 14.0484 58.6576 10.4772C53.313 6.90609 47.0295 5 40.6016 5C34.1737 5 27.8901 6.90609 22.5455 10.4772C17.2009 14.0484 13.0353 19.1242 10.5755 25.0628C8.11563 31.0014 7.47202 37.536 8.72604 43.8404C9.89471 49.7158 12.6626 55.1451 16.7129 59.5359C17.2036 60.0678 18.0355 60.0661 18.5472 59.5544C19.059 59.0426 19.0566 58.2147 18.5678 57.681C14.8831 53.6581 12.3641 48.696 11.2965 43.3291C10.1437 37.5331 10.7354 31.5254 12.9968 26.0657C15.2583 20.6061 19.088 15.9396 24.0016 12.6564C28.9152 9.37324 34.692 7.62086 40.6016 7.62086C46.5111 7.62087 52.2879 9.37325 57.2015 12.6564C62.1151 15.9396 65.9448 20.6061 68.2063 26.0658C70.4678 31.5254 71.0595 37.5331 69.9066 43.3291C68.8391 48.696 66.3201 53.6581 62.6354 57.681C62.1465 58.2147 62.1442 59.0426 62.6559 59.5544Z" fill="#008193"/>
<path d="M23.2609 64.9623C22.8935 65.3206 22.4891 65.6417 22.0532 65.9195C20.7974 66.7196 19.3357 67.1244 17.8529 67.0827C16.3701 67.041 14.9328 66.5547 13.7228 65.6852C12.8903 65.0871 12.1911 64.326 11.6634 63.4521C11.264 62.7905 11.6358 61.9732 12.3565 61.6942C13.0862 61.4117 13.8924 61.7981 14.3713 62.417C14.649 62.776 14.9778 63.0945 15.349 63.3612C16.1055 63.9047 17.004 64.2087 17.9309 64.2348C18.8578 64.2609 19.7716 64.0078 20.5566 63.5076C20.941 63.2628 21.286 62.964 21.5825 62.6222C21.7451 62.4347 21.9392 62.2723 22.1513 62.1483C22.2996 61.9516 22.5072 61.7907 22.7565 61.6942C23.4862 61.4117 24.2924 61.7981 24.7713 62.417C25.049 62.776 25.3778 63.0945 25.749 63.3612C26.5055 63.9047 27.404 64.2087 28.3309 64.2348C29.2578 64.2609 30.1716 64.0078 30.9566 63.5076C31.341 63.2628 31.686 62.964 31.9825 62.6222C32.1336 62.448 32.3119 62.2954 32.5066 62.1751C32.6534 61.9688 32.8647 61.7993 33.1209 61.6987C33.8454 61.4145 34.6485 61.7989 35.1208 62.4175C35.3948 62.7763 35.7191 63.0946 36.0852 63.3612C36.8315 63.9047 37.7181 64.2087 38.6326 64.2348C39.5472 64.2609 40.4488 64.0078 41.2233 63.5076C41.6015 63.2634 41.9411 62.9657 42.2331 62.625C42.4487 62.3735 42.7215 62.1675 43.0184 62.0385C43.1534 61.8942 43.3239 61.7761 43.5209 61.6987C44.2454 61.4145 45.0485 61.7989 45.5208 62.4175C45.7948 62.7763 46.1191 63.0946 46.4852 63.3612C47.2315 63.9047 48.1181 64.2087 49.0326 64.2348C49.9472 64.2609 50.8488 64.0078 51.6233 63.5076C52.0015 63.2634 52.3411 62.9657 52.6331 62.625C52.7717 62.4634 52.9339 62.3205 53.1109 62.2048C53.2609 61.9826 53.4837 61.7998 53.7565 61.6942C54.4862 61.4117 55.2924 61.7981 55.7713 62.417C56.049 62.776 56.3778 63.0945 56.749 63.3612C57.5055 63.9047 58.404 64.2087 59.3309 64.2348C60.2579 64.2609 61.1716 64.0078 61.9566 63.5076C62.341 63.2628 62.686 62.964 62.9825 62.6222C63.3769 62.1675 63.9568 61.8604 64.528 61.8891C65.1762 61.7426 65.8703 62.0743 66.3192 62.5987C66.4134 62.7088 66.5127 62.8146 66.6169 62.9158C67.0614 63.3475 67.5855 63.6862 68.1592 63.9127C68.733 64.1391 69.3451 64.2488 69.9606 64.2356C70.0966 64.2326 70.2322 64.2237 70.3669 64.2089C71.1526 64.1225 72.0034 64.427 72.3178 65.1522C72.628 65.8675 72.3047 66.7141 71.5455 66.8914C71.0462 67.0081 70.5352 67.0728 70.0204 67.0839C69.0357 67.1051 68.0566 66.9296 67.1388 66.5674C66.2211 66.2051 65.3827 65.6632 64.6716 64.9727C64.6681 64.9692 64.6645 64.9658 64.6609 64.9623C64.2935 65.3206 63.8891 65.6417 63.4532 65.9195C62.1974 66.7196 60.7357 67.1244 59.2529 67.0827C57.7701 67.041 56.3328 66.5547 55.1228 65.6852C54.8228 65.4696 54.54 65.2329 54.2764 64.9773C53.9179 65.3296 53.5241 65.6456 53.0999 65.9195C51.8609 66.7196 50.4187 67.1244 48.9557 67.0827C47.4927 67.041 46.0746 66.5547 44.8806 65.6852C44.5523 65.4461 44.2449 65.1809 43.9609 64.8929C43.5801 65.2792 43.1577 65.6239 42.6999 65.9195C41.4609 66.7196 40.0187 67.1244 38.5557 67.0827C37.0927 67.041 35.6746 66.5547 34.4806 65.6852C34.1846 65.4696 33.9056 65.2329 33.6455 64.9773C33.2822 65.3296 32.883 65.6456 32.4532 65.9195C31.1974 66.7196 29.7357 67.1244 28.2529 67.0827C26.7701 67.041 25.3328 66.5547 24.1228 65.6852C23.8169 65.4654 23.529 65.2236 23.2609 64.9623Z" fill="#008193"/>
<ellipse cx="57.7969" cy="75.7" rx="1.5" ry="1.5" fill="#008193"/>
<path d="M34.1724 25.4589C35.0269 23.2828 35.5353 20.7829 35.4479 19.2083C35.4949 18.9185 35.5808 18.575 35.7657 18.3013C35.8612 18.1599 35.9766 18.0479 36.1288 17.9661C36.2801 17.8848 36.5297 17.8 36.9416 17.8C37.9463 17.8 38.44 18.0524 38.6654 18.2513C38.8719 18.4333 38.9991 18.6968 39.0004 19.0933L38.954 23.9555C38.9499 24.3792 38.8463 24.7961 38.6513 25.1728L35.3658 31.5204H53.4957L56.2793 31.5778H56.2938C57.1837 31.5778 57.9001 32.2969 57.9001 33.1778C57.9001 34.0544 57.1906 34.7709 56.3068 34.7777L56.2998 34.8141C56.2346 34.8048 56.1679 34.8 56.1001 34.8H54.9001C54.1269 34.8 53.5001 35.4268 53.5001 36.2C53.5001 36.9732 54.1269 37.6 54.9001 37.6H56.0347C56.4887 37.8845 56.7866 38.3873 56.7866 38.9556C56.7866 39.8364 56.0702 40.5556 55.1803 40.5556C55.044 40.5556 54.9165 40.5714 54.7978 40.6H52.5001C51.7269 40.6 51.1001 41.2268 51.1001 42C51.1001 42.7732 51.7269 43.4 52.5001 43.4H54.0962C54.3176 43.6748 54.4484 44.0211 54.4484 44.4C54.4484 45.2809 53.732 46 52.8421 46H50.9001C50.1269 46 49.5001 46.6268 49.5001 47.4C49.5001 48.1732 50.1269 48.8 50.9001 48.8H50.9751C51.8527 48.8136 52.5555 49.5275 52.5555 50.4C52.5555 51.2809 51.8391 52 50.9492 52H32.4059C31.3023 52 30.2224 51.6819 29.296 51.0843C28.6463 50.6652 27.7798 50.8521 27.3607 51.5019C26.9415 52.1516 27.1285 53.0181 27.7782 53.4372C29.1573 54.3269 30.7642 54.8 32.4059 54.8H50.9492C53.3799 54.8 55.3555 52.8328 55.3555 50.4C55.3555 49.6492 55.1674 48.9428 54.8358 48.3248C56.2666 47.5986 57.2484 46.115 57.2484 44.4C57.2484 43.8963 57.1633 43.4119 57.0069 42.9608C58.5279 42.268 59.5867 40.7365 59.5867 38.9556C59.5867 38.1239 59.3557 37.3471 58.9552 36.6848C60.015 35.8817 60.7001 34.6105 60.7001 33.1778C60.7001 30.7502 58.7331 28.7863 56.3096 28.7778L53.5246 28.7204H39.9679L41.138 26.4599C41.5347 25.6936 41.7456 24.8449 41.7539 23.9822L41.8004 19.1058V19.0991C41.8004 18.0368 41.4258 16.9524 40.5175 16.1513C39.6272 15.3661 38.3915 15 36.9416 15C35.239 15 34.1068 15.755 33.4455 16.7339C32.8461 17.6211 32.7043 18.5881 32.6532 18.9693L32.6324 19.1239L32.6462 19.2792C32.7308 20.2315 32.3747 22.3763 31.5661 24.4354C31.2621 25.2095 30.3797 26.2944 29.2071 27.4285C28.0807 28.5179 26.8534 29.496 26.0809 30.0535C25.4539 30.5059 25.3124 31.381 25.7648 32.008C26.2173 32.635 27.0923 32.7765 27.7193 32.324C28.5832 31.7006 29.9165 30.6376 31.1536 29.4412C32.3444 28.2895 33.6284 26.844 34.1724 25.4589Z" fill="#008193"/>
<rect x="49.1016" y="69.6001" width="9.2" height="2.8" rx="1.4" fill="#008193"/>
</svg>
