<svg width="70" height="70" viewBox="0 0 70 70" fill="none" xmlns="http://www.w3.org/2000/svg">
<path fill-rule="evenodd" clip-rule="evenodd" d="M53.5674 56.5065C54.1633 57.1945 55.2076 57.2723 55.8619 56.6397C59.4926 53.1295 62.1884 48.7552 63.6894 43.9148C65.3533 38.5488 65.4823 32.8243 64.0617 27.3888C62.6411 21.9533 59.7277 17.0239 55.651 13.1582C51.5743 9.29258 46.4972 6.64499 40.9939 5.51502C35.4907 4.38506 29.781 4.81781 24.511 6.76433C19.2409 8.71085 14.6208 12.0934 11.1733 16.5294C7.72585 20.9653 5.58866 26.2775 5.00355 31.865C4.47575 36.9052 5.22985 41.9878 7.1836 46.6447C7.53572 47.484 8.52619 47.8239 9.34494 47.4264C10.1637 47.0289 10.5001 46.0445 10.1536 45.2029C8.46533 41.1016 7.81786 36.6365 8.28158 32.2083C8.80262 27.2326 10.7058 22.5021 13.7757 18.5519C16.8457 14.6017 20.9599 11.5895 25.6529 9.85613C30.3459 8.12275 35.4304 7.73739 40.331 8.74362C45.2316 9.74986 49.7529 12.1075 53.3831 15.5499C57.0134 18.9923 59.6078 23.3819 60.8728 28.2222C62.1379 33.0625 62.023 38.1602 60.5413 42.9387C59.2226 47.1913 56.8681 51.04 53.7003 54.1442C53.0502 54.7812 52.9715 55.8185 53.5674 56.5065ZM36.5336 63.4073C36.5846 64.316 37.3635 65.016 38.268 64.9153C40.9493 64.6171 43.5784 63.9596 46.0845 62.9607C46.9299 62.6238 47.2876 61.6396 46.9048 60.8138C46.5221 59.988 45.544 59.634 44.6963 59.9653C42.5712 60.7958 40.3487 61.3515 38.0829 61.6191C37.179 61.7258 36.4827 62.4985 36.5336 63.4073ZM27.1057 64.0625C26.2269 63.8256 25.7578 62.8895 26.0424 62.0249L26.056 61.9836C26.3331 61.1419 27.2391 60.6892 28.0958 60.9155C28.9525 61.1417 29.5169 61.9827 29.3423 62.8515L29.3337 62.8941C29.1543 63.7865 28.2841 64.3689 27.403 64.141C27.3037 64.1154 27.2046 64.0892 27.1057 64.0625Z" fill="#008193"/>
<path d="M23.5996 43.4001C23.1457 43.4001 22.7051 43.2801 22.2778 43.0401C21.8505 42.8001 21.5434 42.4401 21.3565 41.9601L16.5098 29.0001C16.4297 28.7601 16.3896 28.5334 16.3896 28.3201C16.3896 27.8134 16.5766 27.4001 16.9504 27.0801C17.3243 26.7601 17.7515 26.6001 18.2322 26.6001C18.5526 26.6001 18.8731 26.6934 19.1935 26.8801C19.5407 27.0401 19.7677 27.3068 19.8745 27.6801L23.119 37.2401C23.2792 37.6934 23.4795 37.9201 23.7198 37.9201C23.9601 37.9201 24.1604 37.7068 24.3206 37.2801L27.7654 27.7201C27.8989 27.3468 28.1125 27.0801 28.4063 26.9201C28.7267 26.7334 29.0472 26.6401 29.3676 26.6401C29.9551 26.6401 30.409 26.8401 30.7295 27.2401C31.0499 27.6401 31.2101 28.0668 31.2101 28.5201C31.2101 28.6001 31.2101 28.6934 31.2101 28.8001C31.2101 28.8801 31.1834 28.9734 31.13 29.0801L25.9228 41.9601C25.7359 42.4401 25.4155 42.8001 24.9615 43.0401C24.5342 43.2801 24.0803 43.4001 23.5996 43.4001Z" fill="#00B8C5"/>
<path d="M35.8228 43.4001C35.3154 43.4001 34.8882 43.2401 34.541 42.9201C34.1939 42.6001 34.0203 42.2001 34.0203 41.7201V28.3201C34.0203 27.8134 34.1939 27.4001 34.541 27.0801C34.8882 26.7601 35.3154 26.6001 35.8228 26.6001C36.3568 26.6001 36.7841 26.7601 37.1046 27.0801C37.4517 27.4001 37.6253 27.8134 37.6253 28.3201V41.7201C37.6253 42.2268 37.4517 42.6401 37.1046 42.9601C36.7841 43.2534 36.3568 43.4001 35.8228 43.4001Z" fill="#00B8C5"/>
<path d="M43.2502 43.4001C42.7696 43.4001 42.3423 43.2401 41.9685 42.9201C41.6213 42.5734 41.4477 42.1734 41.4477 41.7201V29.4001C41.4477 28.6268 41.6881 28.0001 42.1687 27.5201C42.6494 27.0401 43.2769 26.8001 44.0513 26.8001H48.0969C49.6992 26.8001 51.021 27.2534 52.0624 28.1601C53.1306 29.0668 53.6646 30.2668 53.6646 31.7601C53.6646 33.3868 53.1439 34.7068 52.1025 35.7201C51.061 36.7334 49.7392 37.2401 48.137 37.2401H45.7737C45.2397 37.2401 44.9726 37.5068 44.9726 38.0401L45.0527 41.7201C45.0527 42.1734 44.8658 42.5734 44.492 42.9201C44.1448 43.2401 43.7309 43.4001 43.2502 43.4001ZM45.5735 34.0401H47.6964C49.352 34.0401 50.1798 33.3601 50.1798 32.0001C50.1798 30.6668 49.4054 30.0001 47.8566 30.0001H45.5735C45.1729 30.0001 44.9726 30.2001 44.9726 30.6001V33.4401C44.9726 33.8401 45.1729 34.0401 45.5735 34.0401Z" fill="#00B8C5"/>
</svg>
