<svg width="81" height="80" viewBox="0 0 81 80" fill="none" xmlns="http://www.w3.org/2000/svg">
<path d="M43.2044 35.9529L44.75 37.8215H32.0341C31.472 37.8215 30.9805 38.4163 30.9805 39.0953C30.9805 39.7749 31.4725 40.3691 32.0341 40.3691H44.75L43.2044 42.2377C42.783 42.7473 42.783 43.5115 43.2044 44.0217C43.4151 44.2765 43.6964 44.3612 43.9772 44.3612C44.258 44.3612 44.5393 44.2765 44.75 44.0217L48.8247 39.0954L44.75 34.169C44.3286 33.6595 43.6964 33.6595 43.2745 34.169C42.853 34.6791 42.7829 35.5281 43.2044 35.953L43.2044 35.9529Z" fill="#00B8C5"/>
<path d="M70.9547 34.1693C70.5332 33.6598 69.9011 33.6598 69.4791 34.1693C69.0577 34.6788 69.0577 35.4431 69.4791 35.9533L71.0247 37.8219H65.4043C62.1024 37.8219 59.4325 34.5941 59.4325 30.6019C59.4325 25.2507 55.8497 20.8345 51.3536 20.8345H49.3865C48.8244 20.8345 48.3328 21.4293 48.3328 22.1083C48.3328 22.7879 48.8249 23.3821 49.3865 23.3821H51.3536C54.6555 23.3821 57.3254 26.6099 57.3254 30.602C57.3254 33.4898 58.379 36.038 59.9951 37.822H58.4495C54.0234 37.822 50.3706 42.1536 50.3706 47.5895C50.3706 51.5815 47.7009 54.8094 44.3988 54.8094H42.2211C41.659 54.8094 41.1675 55.4042 41.1675 56.0832C41.1675 56.7628 41.6595 57.357 42.2211 57.357H44.3988C48.8249 57.357 52.4777 53.0254 52.4777 47.5896C52.4777 43.5975 55.1475 40.3696 58.4495 40.3696H71.0249L69.4794 42.2382C69.0579 42.7478 69.0579 43.5121 69.4794 44.0222C69.6901 44.277 69.9714 44.3617 70.2522 44.3617C70.533 44.3617 70.8143 44.277 71.025 44.0222L75.0997 39.0959L70.9547 34.1693Z" fill="#008193"/>
<path d="M17.5622 40.3696H21.2155C25.6416 40.3696 29.2944 36.038 29.2944 30.6022C29.2944 26.6101 31.9642 23.3822 35.2662 23.3822H39.6218L38.0762 25.2509C37.6548 25.7604 37.6548 26.5247 38.0762 27.0348C38.2869 27.2896 38.5682 27.3743 38.849 27.3743C39.1298 27.3743 39.4111 27.2896 39.6219 27.0348L43.6966 22.1085L39.6219 17.1821C39.2004 16.6726 38.5683 16.6726 38.1463 17.1821C37.7248 17.6917 37.7248 18.4559 38.1463 18.9661L39.6919 20.8347H35.3363C30.9102 20.8347 27.2573 25.1664 27.2573 30.6022C27.2573 34.5942 24.5876 37.8221 21.2855 37.8221H17.6322C17.0701 37.8221 16.5786 38.417 16.5786 39.096C16.5786 39.7749 17.0001 40.3698 17.5621 40.3698L17.5622 40.3696Z" fill="#E2F1F3"/>
<path d="M31.2615 51.1567C30.84 51.6663 30.84 52.4305 31.2615 52.9407L32.8071 54.8093H21.215C17.913 54.8093 15.2431 51.5816 15.2431 47.5894C15.2431 42.2382 11.6603 37.8219 7.16423 37.8219H6.95351C6.39142 37.8219 5.8999 38.4167 5.8999 39.0957C5.8999 39.7753 6.39192 40.3695 6.95351 40.3695H7.16423C10.4662 40.3695 13.136 43.5973 13.136 47.5895C13.136 52.9407 16.7189 57.357 21.215 57.357H32.8066L31.261 59.2256C30.8395 59.7351 30.8395 60.4994 31.261 61.0096C31.4717 61.2643 31.753 61.349 32.0338 61.349C32.3146 61.349 32.5959 61.2643 32.8066 61.0096L36.8813 56.0832L32.7365 51.1569C32.315 50.6473 31.6829 50.6473 31.2614 51.1569L31.2615 51.1567Z" fill="#008193"/>
</svg>
