<svg width="80" height="80" viewBox="0 0 80 80" fill="none" xmlns="http://www.w3.org/2000/svg">
<g clip-path="url(#clip0_1010_841)">
<rect x="15.2002" y="15" width="50" height="50" rx="25" fill="#E2F1F3"/>
<path d="M3.68722 43.0168C6.0246 40.0213 6.30017 39.2187 8.20007 39.4086C10.2001 39.6086 12.8001 38.0086 12.4001 41.1086C12.0001 44.2086 8.40007 45.7086 11.1001 46.9086C13.8001 48.1086 16.3001 47.7085 16.8001 45.6086C17.3001 43.5086 16.3001 39.6086 18.3001 38.4086C20.3001 37.2086 22.8001 35.0085 24.0001 37.2086C25.2001 39.4086 24.6001 41.4087 23.4001 43.5086C22.2001 45.6086 19.6001 45.3086 21.5001 46.9086C23.4001 48.5086 23.5001 47.9086 24.8001 49.7086C26.1001 51.5086 27.5001 51.5086 26.5001 53.6086C25.5001 55.7086 23.4001 56.7086 23.4001 58.2086C23.4001 58.2402 23.4 58.2696 23.3998 58.2968C23.4496 58.1577 23.5994 58.4046 24.0001 60.7086C24.8001 65.3086 22.7001 66.0086 22.1001 66.1086C21.5001 66.2086 19.4001 67.3086 17.8001 66.7086C16.2001 66.1086 16.7001 65.5086 13.5001 66.1086C10.3001 66.7086 10.4001 67.1086 7.10007 66.1086C3.80007 65.1086 2.10007 64.4086 1.60007 62.1086C1.10007 59.8086 2.40007 58.2086 3.30007 57.2086C4.20007 56.2086 5.00007 57.0086 3.30007 54.4086C1.60007 51.8086 -0.399963 51.7086 0.100037 49.7086C0.359134 48.6722 0.772084 47.3281 1.12146 46.2471C1.42558 45.3061 2.01909 44.4882 2.80468 43.8875C3.13368 43.6359 3.43243 43.3433 3.68722 43.0168Z" fill="#00B8C5"/>
<path d="M34.1002 49.7085C32.6896 48.4108 33.2528 48.2592 34.784 48.1579C37.9853 47.9461 40.7513 46.1723 43.7002 44.9085C45.8002 44.0085 45.2002 44.4085 46.6002 44.9085C48.0002 45.4085 47.6002 46.0085 47.6002 48.7085C47.6002 51.4085 46.5002 51.0085 43.7002 53.1085C40.9002 55.2085 40.8002 53.6085 39.1002 53.1085C37.4002 52.6085 36.6002 52.0085 34.1002 49.7085Z" fill="#00B8C5"/>
<path d="M38.3002 32.5082C38.3718 32.3471 38.4346 32.2052 38.4907 32.0805C39.0212 30.9 40.3002 32.4139 40.3002 33.7081C40.3002 34.5081 40.9002 34.0081 42.6002 34.3081C44.3002 34.6081 45.0002 34.3081 45.8002 34.5081C46.6002 34.7081 46.7002 35.1081 47.4002 36.1081C48.1002 37.1081 48.7002 36.8081 51.3002 37.3081C53.9002 37.8081 52.6002 37.5081 53.7002 37.3081C54.8002 37.1081 54.1002 37.0081 55.5002 35.4081C56.9002 33.8082 56.6002 34.4081 57.5002 32.5082C58.4002 30.6082 56.7002 31.0081 54.8002 30.3081C52.9002 29.6081 53.8002 30.2081 52.6002 27.5081C51.4002 24.8081 52.6002 26.4081 52.9002 24.9081C53.2002 23.4081 52.8002 23.8081 52.3002 22.6081C51.8002 21.4081 53.3699 22.0216 47.2002 20.3084C45.4002 19.8086 45.2002 19.1086 43.5002 19.0086C41.8002 18.9086 42.2002 19.7086 40.2002 20.2086C38.2002 20.7086 38.657 19.6117 38.4002 23.2081C38.3002 24.6081 38.3002 24.6081 38.3002 25.9081C38.3002 27.2081 37.2002 26.4081 35.9002 26.7081C34.6002 27.0081 33.8002 27.1081 31.5002 28.0081C29.2002 28.9081 30.1002 30.1081 30.1002 32.5082C30.1002 34.9082 31.2002 34.4081 32.8002 35.7081C34.4002 37.0081 34.7002 36.3081 36.7002 35.4081C38.7002 34.5081 37.5002 34.3082 38.3002 32.5082Z" fill="#00B8C5"/>
<path d="M75.2816 49.2496C75.1707 49.3867 75.0733 49.5075 74.9869 49.6135C74.1689 50.6164 73.3253 48.8231 73.6603 47.5729C73.8673 46.8002 73.1584 47.1279 71.594 46.3981C70.0295 45.6683 69.2757 45.7769 68.5548 45.3767C67.8338 44.9764 67.8407 44.5642 67.4234 43.4171C67.0061 42.27 66.3489 42.4045 63.9669 41.2486C61.5849 40.0927 62.7629 40.7189 61.6486 40.6274C60.5344 40.5359 61.1846 40.8137 59.4182 41.9968C57.6518 43.1799 58.0969 42.678 56.7358 44.2803C55.3747 45.8826 57.1203 45.9363 58.7744 47.1042C60.4285 48.2721 59.7144 47.4596 60.1747 50.3782C60.635 53.2968 59.89 51.4407 59.212 52.812C58.534 54.1832 59.0239 53.9004 59.1963 55.1889C59.3687 56.4774 58.0113 55.4785 63.5273 58.7302C65.1366 59.6789 65.1486 60.4068 66.7648 60.9434C68.381 61.48 68.2017 60.6037 70.263 60.6383C72.3242 60.673 71.5991 61.6143 72.778 58.2069C73.2369 56.8805 73.2369 56.8805 73.5733 55.6248C73.9098 54.3691 74.7653 55.4265 76.0987 55.4732C77.432 55.5199 78.2306 55.6303 80.6852 55.3563C83.1397 55.0822 82.581 53.6902 83.2022 51.3719C83.8233 49.0537 82.6314 49.252 81.4224 47.5822C80.2133 45.9124 79.7424 46.5109 77.5776 46.8626C75.4128 47.2143 76.5202 47.718 75.2816 49.2496Z" fill="#00B8C5"/>
</g>
<path fill-rule="evenodd" clip-rule="evenodd" d="M41.8283 7.53481C41.8868 6.49629 41.092 5.60158 40.0518 5.60001C39.9347 5.59984 39.8176 5.60026 39.7004 5.60128C38.6603 5.61034 37.872 6.51075 37.9379 7.54883L37.9411 7.59849C38.0053 8.60914 38.877 9.37063 39.8897 9.36697C40.9024 9.36333 41.7686 8.59558 41.8255 7.58449L41.8283 7.53481ZM29.6955 8.67913C29.4491 7.93018 28.641 7.51994 27.9029 7.79721C24.7308 8.98885 21.752 10.6427 19.0633 12.7051C18.4377 13.185 18.3586 14.0878 18.864 14.693C19.3694 15.2981 20.2678 15.3761 20.8952 14.8986C23.3046 13.0648 25.9656 11.5874 28.7961 10.5119C29.5332 10.2319 29.9419 9.42808 29.6955 8.67913ZM62.7001 14.8C61.4298 14.8 60.4001 15.8297 60.4001 17.1C60.4001 18.3702 61.4298 19.4 62.7001 19.4C63.9704 19.4 65.0001 18.3702 65.0001 17.1C65.0001 15.8297 63.9704 14.8 62.7001 14.8ZM57.6001 17.1C57.6001 14.2833 59.8834 12 62.7001 12C65.5168 12 67.8001 14.2833 67.8001 17.1C67.8001 17.8324 67.6457 18.5288 67.3677 19.1583C70.8061 23.6732 73.0811 28.9787 73.9745 34.6057C74.9814 40.9469 74.1934 47.4433 71.6998 53.3599C69.2062 59.2765 65.1066 64.3772 59.8646 68.0849C54.6227 71.7925 48.4477 73.9591 42.0384 74.3395C35.629 74.72 29.2411 73.2991 23.5974 70.2375C17.9537 67.176 13.2794 62.5962 10.1034 57.016C6.9274 51.4359 5.37649 45.0783 5.62611 38.6626C5.8572 32.7232 7.62284 26.9534 10.7399 21.9113C11.1546 21.2404 12.0453 21.0709 12.6984 21.5131C13.3515 21.9554 13.5194 22.8417 13.1072 23.5142C10.2876 28.1136 8.6905 33.3669 8.48014 38.7736C8.25124 44.6567 9.67339 50.4864 12.5857 55.6032C15.498 60.72 19.7841 64.9197 24.9593 67.727C30.1344 70.5343 35.9919 71.8372 41.8691 71.4884C47.7463 71.1395 53.4086 69.1528 58.2153 65.753C63.022 62.3532 66.7813 57.676 69.0678 52.2507C71.3544 46.8253 72.0769 40.8682 71.1537 35.0535C70.367 30.0987 68.412 25.4157 65.4661 21.3855C64.6693 21.9008 63.7196 22.2 62.7001 22.2C59.8834 22.2 57.6001 19.9166 57.6001 17.1Z" fill="#008193"/>
<defs>
<clipPath id="clip0_1010_841">
<rect x="15.2002" y="15" width="50" height="50" rx="25" fill="white"/>
</clipPath>
</defs>
</svg>
