<svg width="81" height="80" viewBox="0 0 81 80" fill="none" xmlns="http://www.w3.org/2000/svg">
<path d="M44.3 18.9437H30.7L31.1 12.3437L36 8.74365L41.7 7.74365L48.4 9.44365L50.1 12.7437L50.7 17.3437L54.2 18.1437H60.7L63.4 19.5437L65.5 22.6437L67.2 24.8437H72.3L73.2 27.1437L72.3 32.0437L69.6 34.4437L62.6 34.9437L55.2 36.3437C53.8997 39.0836 55.8979 42.2437 58.9307 42.2437H60.7L65.5 45.2437L66 49.8437L62.6 50.6437C60.9487 48.7383 58.5515 47.6437 56.0301 47.6437H52.6L51.5 57.8437L50.1 60.7437L46.6 60.0437L43.1 52.7437L35.4 48.3437H25.7L27.3 54.5437L28.6 58.3437L27.3 60.7437L23.8 60.0437L20 51.2437L17.5 52.7437L12.4 56.0437L10 52.7437L17 39.6437C18.632 37.163 20.9445 35.2054 23.6606 34.0053L23.8 33.9437L41.7 32.6437L47.7 24.3437L44.3 18.9437Z" fill="#E2F1F3"/>
<path d="M31.2003 39.8C26.6403 39.88 25.0336 35.7 24.8003 33.6H38.5003C37.967 35.6334 35.7603 39.72 31.2003 39.8Z" fill="#00B8C5"/>
<path d="M50.3997 61.3989C46.3389 61.4789 43.6082 55.1997 43.4004 53.1L51.3004 51.3C50.8255 53.333 54.4604 61.3189 50.3997 61.3989Z" fill="#00B8C5"/>
<path d="M31.9733 17.5437H43.9007C44.6739 17.5437 45.3007 18.1705 45.3007 18.9437C45.3007 19.7169 44.6739 20.3437 43.9007 20.3437H31.1002C30.0211 20.3437 29.0657 19.4629 29.1138 18.2898C29.1977 16.2386 29.7183 12.8896 31.9052 10.1212C34.161 7.26539 37.9963 5.26736 44.1863 5.64634C47.571 5.85357 49.6535 7.72237 50.827 10.0448C51.7865 11.9437 52.1512 14.1502 52.2609 16.0437H59.1872C63.2558 16.0437 66.6249 19.0384 67.2106 22.9437H72.7007C73.8053 22.9437 74.7007 23.8392 74.7007 24.9437V28.6437C74.7007 33.062 71.119 36.6437 66.7007 36.6437H59.3613C57.4985 36.6437 55.8641 37.7455 55.2814 39.4013C51.8031 49.2862 52.7129 55.6351 52.9771 57.4789L52.9867 57.5457C53.3719 60.2425 51.635 62.3274 49.4057 62.6194C48.2981 62.7644 47.1356 62.4509 46.1771 61.6381C45.2261 60.8316 44.5522 59.604 44.2291 58.0243C43.4681 54.3032 39.2347 49.9539 32.9632 49.337C27.1677 48.7669 23.483 50.0968 20.9796 51.6981C19.7087 52.511 18.7065 53.4169 17.855 54.2563C17.6509 54.4575 17.4432 54.6684 17.2354 54.8795C16.6475 55.4766 16.0577 56.0756 15.5402 56.4637L15.4845 56.5055L15.4249 56.5415C13.505 57.7032 11.4609 57.6036 10.0624 56.3996C8.70619 55.232 8.2704 53.2773 8.99779 51.4306C10.3479 48.0029 12.8092 43.6079 16.6068 37.4121C17.0108 36.7529 17.8728 36.546 18.532 36.9501C19.1912 37.3542 19.3981 38.2161 18.994 38.8753C15.1913 45.0796 12.8525 49.2845 11.603 52.4568C11.265 53.3148 11.5292 53.9677 11.8893 54.2777C12.2011 54.5461 12.8698 54.79 13.9151 54.1818C14.2386 53.9296 14.5858 53.5769 15.0637 53.0914C15.302 52.8494 15.5727 52.5744 15.8892 52.2624C16.8065 51.3581 17.9667 50.3015 19.4708 49.3393C22.5175 47.3906 26.8328 45.9205 33.2372 46.5504C40.5657 47.2713 45.9335 52.3842 46.9724 57.4632C47.2015 58.5835 47.6234 59.1933 47.988 59.5025C48.3451 59.8053 48.7181 59.8855 49.0421 59.8431C49.6759 59.7601 50.3867 59.1449 50.2148 57.9417L50.2104 57.9104C49.9169 55.8572 48.9364 48.9974 52.6402 38.4719C53.6523 35.5956 56.4196 33.8437 59.3613 33.8437H66.7007C69.5726 33.8437 71.9007 31.5156 71.9007 28.6437V25.7437H66.0872C65.211 25.7437 64.5007 25.0334 64.5007 24.1572C64.5007 21.2227 62.1218 18.8437 59.1872 18.8437H51.3007C50.3016 18.8437 49.5139 18.038 49.4976 17.0676C49.4652 15.153 49.1769 12.9878 48.3279 11.3076C47.5224 9.71341 46.2403 8.57734 44.0152 8.4411C38.5737 8.10795 35.6935 9.84241 34.1024 11.8567C32.6919 13.6423 32.1494 15.8301 31.9733 17.5437Z" fill="#006876"/>
<path d="M10.4223 19.1684C11.1266 18.8493 11.9562 19.1615 12.2753 19.8658L15.6804 27.3804C16.9118 30.0979 19.6193 31.8436 22.6029 31.8436H37.2044C41.7079 31.8436 45.5494 28.5835 46.2819 24.1399L46.3188 23.9159C46.4445 23.153 47.1649 22.6365 47.9278 22.7623C48.6907 22.888 49.2073 23.6084 49.0815 24.3713L49.0446 24.5953C48.0892 30.3913 43.0785 34.6436 37.2044 34.6436H22.6029C18.5201 34.6436 14.8151 32.2548 13.13 28.536L9.72495 21.0215C9.40583 20.3172 9.71806 19.4876 10.4223 19.1684Z" fill="#006876"/>
<path d="M59.7907 43.4132C60.2322 43.3196 60.8406 43.3936 61.5814 43.7195C62.3104 44.0402 63.0648 44.5617 63.7317 45.1943C64.3999 45.8282 64.9295 46.5253 65.2472 47.1563C65.5836 47.8245 65.59 48.2256 65.5487 48.3784C65.3466 49.126 65.0842 49.4779 64.9043 49.6369C64.7445 49.7781 64.5777 49.8338 64.3668 49.8313C63.8447 49.8251 63.0917 49.4366 62.5538 48.8218C62.0446 48.2399 61.1602 48.181 60.5783 48.6901C59.9964 49.1993 59.9374 50.0837 60.4466 50.6656C61.3087 51.6509 62.7557 52.6123 64.3335 52.6311C65.1727 52.6411 66.0308 52.3781 66.7586 51.7349C67.4661 51.1096 67.9537 50.2115 68.2517 49.109C68.5537 47.9916 68.2192 46.8327 67.7481 45.8971C67.2583 44.9243 66.5137 43.974 65.6586 43.1628C64.8022 42.3505 63.7841 41.6296 62.7089 41.1566C61.6456 40.6888 60.4182 40.4178 59.2097 40.6742C58.4533 40.8346 57.9702 41.5778 58.1307 42.3342C58.2911 43.0906 59.0343 43.5737 59.7907 43.4132Z" fill="#006876"/>
<path d="M27.7338 53.2536C28.5015 53.1617 29.1983 53.7096 29.2902 54.4773L29.7442 58.2695C30.2242 62.2785 24.9471 64.1704 22.7705 60.7696L20.421 57.0984C20.0042 56.4472 20.1943 55.5813 20.8455 55.1645C21.4967 54.7477 22.3626 54.9378 22.7794 55.589L25.1289 59.2602C25.7017 60.1552 27.0904 59.6573 26.9641 58.6023L26.5101 54.8101C26.4182 54.0424 26.966 53.3456 27.7338 53.2536Z" fill="#006876"/>
<path d="M71.9002 73.0437C72.6734 73.0437 73.3002 72.4169 73.3002 71.6437C73.3002 70.8705 72.6734 70.2437 71.9002 70.2437H17.9002C17.127 70.2437 16.5002 70.8705 16.5002 71.6437C16.5002 72.4169 17.127 73.0437 17.9002 73.0437L71.9002 73.0437Z" fill="#006876"/>
<path d="M10.5002 71.6437C10.5002 72.4169 9.87339 73.0437 9.1002 73.0437C8.327 73.0437 7.7002 72.4169 7.7002 71.6437C7.7002 70.8705 8.327 70.2437 9.1002 70.2437C9.87339 70.2437 10.5002 70.8705 10.5002 71.6437Z" fill="#006876"/>
<path d="M60.5002 24.8C61.2734 24.8 61.9002 24.1732 61.9002 23.4C61.9002 22.6268 61.2734 22 60.5002 22C59.727 22 59.1002 22.6268 59.1002 23.4C59.1002 24.1732 59.727 24.8 60.5002 24.8Z" fill="#006876"/>
</svg>
