<svg width="99" height="94" viewBox="0 0 99 94" fill="none" xmlns="http://www.w3.org/2000/svg">
<path fill-rule="evenodd" clip-rule="evenodd" d="M87.2042 75.5875C88.6864 73.7042 89.4916 70.6482 89.4916 65.9211C89.4916 43.8021 71.5606 25.8711 49.4416 25.8711C27.3226 25.8711 9.3916 43.8021 9.3916 65.9211C9.3916 70.8654 10.3025 73.9815 11.9642 75.8397L18.2416 72.6711L27.0916 76.1211L33.8416 72.6711L38.8262 74.5819C41.9774 74.048 45.2802 73.6517 48.6814 73.582L49.7416 73.1211L50.8747 73.5836C54.292 73.6584 57.5951 74.0624 60.7346 74.6032L64.2916 73.1211L75.8416 76.1211L80.7916 73.1211L87.2042 75.5875Z" fill="#E2F1F3"/>
<path d="M78.992 66.2211C78.992 82.7068 76.592 74.0211 49.142 74.0211C20.042 73.5711 19.292 82.7068 19.292 66.2211C19.292 49.7354 32.6563 36.3711 49.142 36.3711C65.6277 36.3711 78.992 49.7354 78.992 66.2211Z" fill="#00B8C5"/>
<path d="M78.992 66.2211C78.992 82.7068 76.592 74.0211 49.142 74.0211C20.042 73.5711 19.292 82.7068 19.292 66.2211C19.292 49.7354 32.6563 36.3711 49.142 36.3711C65.6277 36.3711 78.992 49.7354 78.992 66.2211Z" fill="#00B8C5"/>
<path fill-rule="evenodd" clip-rule="evenodd" d="M83.5967 3.5057C83.8357 2.37078 83.1093 1.25705 81.9744 1.01812C80.8395 0.779202 79.7258 1.50565 79.4868 2.64045L79.4811 2.66754L79.4619 2.75655C79.4448 2.83555 79.4192 2.95277 79.3858 3.10229C79.3191 3.40149 79.2215 3.82902 79.0992 4.33759C78.8535 5.35931 78.513 6.6881 78.1269 7.95425C77.8818 8.75787 77.6345 9.48116 77.3997 10.0667C77.1936 9.92273 76.9846 9.78192 76.7777 9.64585C75.9476 9.09993 75.0211 8.54664 74.1671 8.05727C73.31 7.5661 72.5083 7.12929 71.9218 6.81571C71.6281 6.65866 71.3872 6.53188 71.2188 6.44391C71.1346 6.39991 71.0684 6.36559 71.0228 6.342L70.9701 6.31479L70.95 6.30446C69.918 5.77522 68.6524 6.1828 68.1232 7.21481C67.5939 8.24677 68.0016 9.51241 69.0335 10.0417L69.0471 10.0487L69.0929 10.0723C69.114 10.0832 69.1405 10.097 69.172 10.1133C69.2016 10.1287 69.2357 10.1465 69.2739 10.1665C69.4319 10.249 69.6609 10.3695 69.9414 10.5195C70.5034 10.82 71.2673 11.2363 72.0789 11.7014C72.8937 12.1683 73.7391 12.6743 74.4699 13.155C75.2338 13.6574 75.7555 14.0567 76.0069 14.308C76.373 14.6742 76.9327 15.0322 77.6709 15.0809C78.3888 15.1283 78.9611 14.8617 79.3299 14.6079C79.9853 14.1569 80.4096 13.4676 80.6637 13.0024C81.2308 11.9641 81.7362 10.5173 82.1442 9.1794C82.5643 7.80179 82.9269 6.38371 83.1828 5.31949C83.3113 4.78509 83.4141 4.33489 83.485 4.0171C83.5205 3.85812 83.548 3.73203 83.5669 3.64485L83.5886 3.54392L83.5944 3.51669L83.5965 3.50689L83.5966 3.50616C83.5967 3.50591 83.5967 3.5057 81.5418 3.07307L83.5967 3.5057ZM70.95 6.30446C70.95 6.30443 70.95 6.30442 70.8846 6.43182C70.7907 6.61495 70.5619 7.06135 70.0039 8.14939L70.95 6.30446ZM49.2918 39.0731C34.3801 39.0731 22.2918 51.1614 22.2918 66.0731C22.2918 67.2329 21.3516 68.1731 20.1918 68.1731C19.032 68.1731 18.0918 67.2329 18.0918 66.0731C18.0918 48.8418 32.0605 34.8731 49.2918 34.8731C66.5231 34.8731 80.4918 48.8418 80.4918 66.0731C80.4918 67.2329 79.5516 68.1731 78.3918 68.1731C77.232 68.1731 76.2918 67.2329 76.2918 66.0731C76.2918 51.1614 64.2035 39.0731 49.2918 39.0731ZM16.7301 76.3238C17.3841 75.9071 17.9906 75.4255 18.5418 74.8881C18.9438 75.28 19.3757 75.6427 19.8346 75.9725C21.6497 77.2766 23.8056 78.0061 26.0298 78.0686C28.254 78.1312 30.4465 77.524 32.3301 76.3238C32.9749 75.9129 33.5736 75.4389 34.1187 74.9106C34.5088 75.2939 34.9273 75.6491 35.3714 75.9725C37.1622 77.2766 39.2894 78.0061 41.4839 78.0686C43.6785 78.1312 45.8418 77.524 47.7003 76.3238C48.3869 75.8804 49.0205 75.3634 49.5918 74.7839C50.0177 75.216 50.4788 75.6137 50.9714 75.9725C52.7622 77.2766 54.8894 78.0061 57.0839 78.0686C59.2785 78.1312 61.4418 77.524 63.3003 76.3238C63.9365 75.9129 64.5272 75.4389 65.065 74.9106C65.4604 75.2939 65.8845 75.6491 66.3346 75.9725C68.1497 77.2766 70.3056 78.0061 72.5298 78.0686C74.754 78.1312 76.9465 77.524 78.8301 76.3238C79.4841 75.9071 80.0906 75.4255 80.6418 74.8881L80.6578 74.9036C81.7244 75.9395 82.982 76.7523 84.3586 77.2956C85.7352 77.839 87.204 78.1023 88.681 78.0704C89.4532 78.0538 90.2197 77.9567 90.9686 77.7817C92.1074 77.5158 92.5923 76.2458 92.1271 75.1729C91.6555 74.0851 90.3793 73.6283 89.2008 73.7579C88.9986 73.7802 88.7953 73.7936 88.5914 73.798C87.668 73.8179 86.7498 73.6533 85.8893 73.3136C85.0287 72.9739 84.2426 72.4658 83.5758 71.8183C83.4195 71.6665 83.2705 71.5078 83.1292 71.3427C82.4559 70.5561 81.4147 70.0585 80.4424 70.2783C79.5856 70.2352 78.7158 70.6958 78.1241 71.3779C77.6794 71.8907 77.1618 72.3387 76.5853 72.7061C75.4078 73.4563 74.0372 73.8359 72.6467 73.7968C71.2563 73.7577 69.9086 73.3017 68.7739 72.4864C68.2171 72.0864 67.7239 71.6086 67.3073 71.0702C66.589 70.1418 65.3797 69.5621 64.2851 69.9859C63.8759 70.1443 63.5417 70.4185 63.3168 70.7518C63.0512 70.9254 62.8079 71.1397 62.6001 71.3821C62.1621 71.8931 61.6527 72.3398 61.0854 72.7061C59.9236 73.4563 58.5712 73.8359 57.1993 73.7968C55.8275 73.7577 54.4977 73.3017 53.3782 72.4864C52.829 72.0865 52.3426 71.609 51.9316 71.0708C51.2232 70.143 50.0185 69.5663 48.9318 69.9927C48.6362 70.1087 48.3805 70.2859 48.178 70.5023C47.7327 70.6958 47.3234 71.0049 47.0001 71.3821C46.5621 71.8931 46.0527 72.3398 45.4854 72.7061C44.3236 73.4563 42.9712 73.8359 41.5993 73.7968C40.2275 73.7577 38.8977 73.3017 37.7782 72.4864C37.229 72.0865 36.7426 71.609 36.3316 71.0708C35.6232 70.143 34.4185 69.5663 33.3318 69.9927C32.9474 70.1436 32.6305 70.3978 32.4103 70.7073C32.1183 70.8878 31.8508 71.1166 31.6241 71.3779C31.1794 71.8907 30.6618 72.3387 30.0853 72.7061C28.9078 73.4563 27.5372 73.8359 26.1467 73.7968C24.7563 73.7577 23.4086 73.3017 22.2739 72.4864C21.7171 72.0864 21.2239 71.6086 20.8073 71.0702C20.089 70.1418 18.8797 69.5621 17.7851 69.9859C17.4111 70.1307 17.0998 70.3721 16.8773 70.667C16.5592 70.8531 16.268 71.0967 16.0241 71.3779C15.5794 71.8907 15.0618 72.3387 14.4853 72.7061C13.3078 73.4563 11.9372 73.8359 10.5467 73.7968C9.15633 73.7577 7.80858 73.3017 6.67393 72.4864C6.11714 72.0864 5.62394 71.6086 5.20732 71.0702C4.48903 70.1418 3.27971 69.5621 2.1851 69.9859C1.10407 70.4045 0.546322 71.6304 1.1455 72.6227C1.93703 73.9336 2.98584 75.0752 4.2346 75.9725C6.04966 77.2766 8.20559 78.0061 10.4298 78.0686C12.654 78.1312 14.8465 77.524 16.7301 76.3238ZM95.9418 74.7731C97.1844 74.7731 98.1918 73.7657 98.1918 72.5231C98.1918 71.2805 97.1844 70.2731 95.9418 70.2731C94.6992 70.2731 93.6918 71.2805 93.6918 72.5231C93.6918 73.7657 94.6992 74.7731 95.9418 74.7731ZM72.6918 90.8231C72.6918 92.0657 71.6844 93.0731 70.4418 93.0731C69.1992 93.0731 68.1918 92.0657 68.1918 90.8231C68.1918 89.5805 69.1992 88.5731 70.4418 88.5731C71.6844 88.5731 72.6918 89.5805 72.6918 90.8231ZM59.4918 81.6731C58.332 81.6731 57.3918 82.6133 57.3918 83.7731C57.3918 84.9329 58.332 85.8731 59.4918 85.8731H69.0918C70.2516 85.8731 71.1918 84.9329 71.1918 83.7731C71.1918 82.6133 70.2516 81.6731 69.0918 81.6731H59.4918Z" fill="#008193"/>
</svg>
