<svg width="121" height="120" viewBox="0 0 121 120" fill="none" xmlns="http://www.w3.org/2000/svg">
<path d="M107.602 56.3984C107.602 73.7335 98.1157 88.8531 84.0516 96.8496C81.9516 95.9984 72.5016 98.2484 64.8516 95.3984C61.2516 97.7984 52.6446 96.9423 48.9516 95.9984C44.0016 97.7984 38.9255 97.652 34.4016 94.4737C32.9373 93.445 31.535 92.334 30.2016 91.1473C20.6304 82.6302 14.6016 70.2184 14.6016 56.3984C14.6016 30.7172 35.4203 9.89844 61.1016 9.89844C86.7828 9.89844 107.602 30.7172 107.602 56.3984Z" fill="#F3F9FA"/>
<path d="M49.0553 37.4222C47.7834 40.6611 42.5562 45.0134 40.1016 46.7847L41.4516 77.5516C43.1807 78.667 46.3013 80.1016 48.3602 80.1016H76.1752C78.6657 80.1016 80.6847 78.0868 80.6847 75.6016C80.6847 73.1338 78.6941 71.1297 76.2278 71.1016H79.0145C81.505 71.1016 83.524 69.0868 83.524 66.6016C83.524 65.4094 83.0594 64.3256 82.3011 63.5204C82.1108 63.3183 82.2443 62.9349 82.5219 62.9349C85.0124 62.9349 87.0314 60.9202 87.0314 58.4349C87.0314 56.5521 85.8727 54.9394 84.228 54.2681C86.702 54.2489 88.7016 52.2416 88.7016 49.7682C88.7016 47.283 86.6826 45.2682 84.1921 45.2682L80.0166 45.1821H56.2517L59.5934 38.7261C60.0371 37.8688 60.2731 36.9196 60.2823 35.9548L60.352 28.6502C60.352 26.4572 58.8458 24.6016 55.1638 24.6016C51.482 24.6016 50.952 27.6943 50.8125 28.7345C50.9799 30.6183 50.3272 34.1833 49.0553 37.4222Z" fill="#00B8C5"/>
<path d="M93.73 89.3315C94.4976 90.0992 95.7454 90.1018 96.4815 89.3038C102.557 82.7177 106.709 74.5736 108.462 65.7607C110.343 56.3041 109.377 46.5021 105.688 37.5942C101.998 28.6863 95.7494 21.0726 87.7325 15.7159C79.7156 10.3591 70.2903 7.5 60.6484 7.5C51.0066 7.5 41.5813 10.3591 33.5644 15.7159C25.5475 21.0726 19.2991 28.6863 15.6093 37.5942C11.9195 46.5021 10.9541 56.3041 12.8352 65.7607C14.5882 74.5736 18.74 82.7177 24.8154 89.3038C25.5514 90.1018 26.7993 90.0992 27.5669 89.3315C28.3345 88.5639 28.331 87.3221 27.5977 86.5216C22.0707 80.4872 18.2922 73.044 16.6909 64.9937C14.9616 56.2997 15.8491 47.2882 19.2414 39.0986C22.6336 30.9091 28.3781 23.9094 35.7485 18.9846C43.1189 14.0599 51.7841 11.4313 60.6484 11.4313C69.5127 11.4313 78.178 14.0599 85.5484 18.9846C92.9188 23.9094 98.6633 30.9091 102.056 39.0986C105.448 47.2882 106.335 56.2997 104.606 64.9937C103.005 73.044 99.2262 80.4872 93.6992 86.5216C92.9659 87.3221 92.9623 88.5639 93.73 89.3315Z" fill="#008193"/>
<path d="M34.6414 97.4417C34.0902 97.9792 33.4837 98.4608 32.8297 98.8775C30.9461 100.078 28.7536 100.685 26.5294 100.622C24.3052 100.56 22.1493 99.8303 20.3342 98.5261C19.0855 97.6289 18.0366 96.4873 17.2451 95.1764C16.6459 94.184 17.2037 92.9581 18.2847 92.5396C19.3793 92.1158 20.5886 92.6955 21.3069 93.6238C21.7235 94.1623 22.2167 94.64 22.7735 95.0401C23.9082 95.8554 25.2559 96.3114 26.6464 96.3505C28.0368 96.3896 29.4074 96.01 30.5849 95.2597C31.1614 94.8924 31.679 94.4443 32.1237 93.9316C32.3676 93.6504 32.6589 93.4068 32.9769 93.2207C33.1994 92.9258 33.5108 92.6844 33.8847 92.5396C34.9793 92.1158 36.1886 92.6955 36.9069 93.6238C37.3235 94.1623 37.8167 94.64 38.3735 95.0401C39.5082 95.8554 40.8559 96.3114 42.2464 96.3505C43.6368 96.3896 45.0074 96.01 46.1849 95.2597C46.7614 94.8924 47.279 94.4443 47.7237 93.9316C47.9504 93.6702 48.2179 93.4414 48.5099 93.261C48.7301 92.9515 49.0471 92.6972 49.4314 92.5464C50.5181 92.12 51.7228 92.6967 52.4312 93.6245C52.8422 94.1627 53.3286 94.6402 53.8778 95.0401C54.9973 95.8554 56.3271 96.3114 57.699 96.3505C59.0708 96.3896 60.4232 96.01 61.585 95.2597C62.1523 94.8934 62.6617 94.4468 63.0997 93.9358C63.423 93.5586 63.8323 93.2495 64.2776 93.056C64.4801 92.8396 64.7358 92.6624 65.0314 92.5464C66.1181 92.12 67.3228 92.6967 68.0312 93.6245C68.4422 94.1627 68.9286 94.6402 69.4778 95.0401C70.5973 95.8554 71.9271 96.3114 73.299 96.3505C74.6708 96.3896 76.0232 96.01 77.185 95.2597C77.7523 94.8934 78.2617 94.4468 78.6997 93.9358C78.9075 93.6933 79.1508 93.479 79.4164 93.3055C79.6413 92.9721 79.9755 92.698 80.3847 92.5396C81.4793 92.1158 82.6886 92.6955 83.4069 93.6238C83.8235 94.1623 84.3167 94.64 84.8735 95.0401C86.0082 95.8554 87.3559 96.3114 88.7464 96.3505C90.1368 96.3896 91.5074 96.01 92.6849 95.2597C93.2614 94.8924 93.779 94.4443 94.2237 93.9316C94.8154 93.2495 95.6852 92.7889 96.542 92.832C97.5144 92.6122 98.5555 93.1098 99.2288 93.8964C99.3701 94.0615 99.5191 94.2202 99.6754 94.3719C100.342 95.0195 101.128 95.5276 101.989 95.8673C102.849 96.2069 103.768 96.3715 104.691 96.3516C104.895 96.3472 105.098 96.3339 105.3 96.3116C106.479 96.182 107.755 96.6388 108.227 97.7266C108.692 98.7995 108.207 100.069 107.068 100.335C106.319 100.51 105.553 100.607 104.781 100.624C103.304 100.656 101.835 100.393 100.458 99.8493C99.0816 99.3059 97.8241 98.4931 96.7574 97.4573C96.7521 97.4521 96.7468 97.4469 96.7414 97.4417C96.1902 97.9792 95.5837 98.4608 94.9297 98.8775C93.0461 100.078 90.8536 100.685 88.6294 100.622C86.4052 100.56 84.2493 99.8303 82.4342 98.5261C81.9841 98.2027 81.56 97.8476 81.1646 97.4643C80.6268 97.9926 80.0361 98.4666 79.3999 98.8775C77.5414 100.078 75.3781 100.685 73.1835 100.622C70.989 100.56 68.8618 99.8303 67.071 98.5261C66.5784 98.1674 66.1173 97.7696 65.6914 97.3376C65.1202 97.9171 64.4865 98.4341 63.7999 98.8775C61.9414 100.078 59.7781 100.685 57.5835 100.622C55.389 100.56 53.2618 99.8303 51.471 98.5261C51.0269 98.2027 50.6084 97.8476 50.2183 97.4643C49.6732 97.9926 49.0745 98.4666 48.4297 98.8775C46.5461 100.078 44.3536 100.685 42.1294 100.622C39.9052 100.56 37.7493 99.8303 35.9342 98.5261C35.4753 98.1964 35.0435 97.8337 34.6414 97.4417Z" fill="#008193"/>
<ellipse cx="86.4531" cy="113.551" rx="2.25" ry="2.25" fill="#008193"/>
<path d="M51.0085 38.1883C52.2904 34.9242 53.053 31.1744 52.9219 28.8125C52.9924 28.3778 53.1212 27.8625 53.3985 27.4519C53.5417 27.2399 53.7149 27.0719 53.9432 26.9492C54.1702 26.8272 54.5445 26.7 55.1624 26.7C56.6695 26.7 57.41 27.0787 57.7481 27.3769C58.0578 27.65 58.2487 28.0453 58.2506 28.64L58.181 35.9332C58.1749 36.5688 58.0195 37.1942 57.727 37.7592L52.7986 47.2805H79.9935L84.169 47.3667H84.1907C85.5255 47.3667 86.6001 48.4454 86.6001 49.7667C86.6001 51.0816 85.5358 52.1563 84.2102 52.1666L84.1997 52.2212C84.1019 52.2072 84.0018 52.2 83.9001 52.2H82.1001C80.9403 52.2 80.0001 53.1402 80.0001 54.3C80.0001 55.4598 80.9403 56.4 82.1001 56.4H83.802C84.483 56.8268 84.93 57.5809 84.93 58.4333C84.93 59.7546 83.8554 60.8333 82.5205 60.8333C82.316 60.8333 82.1247 60.8571 81.9467 60.9H78.5001C77.3403 60.9 76.4001 61.8402 76.4001 63C76.4001 64.1598 77.3403 65.1 78.5001 65.1H80.8942C81.2264 65.5121 81.4226 66.0317 81.4226 66.6C81.4226 67.9213 80.348 69 79.0131 69H76.1001C74.9403 69 74.0001 69.9402 74.0001 71.1C74.0001 72.2598 74.9403 73.2 76.1001 73.2H76.2126C77.529 73.2204 78.5833 74.2913 78.5833 75.6C78.5833 76.9213 77.5087 78 76.1738 78H48.3588C46.7034 78 45.0836 77.5229 43.6941 76.6265C42.7195 75.9978 41.4197 76.2782 40.791 77.2528C40.1623 78.2274 40.4427 79.5271 41.4173 80.1558C43.486 81.4903 45.8963 82.2 48.3588 82.2H76.1738C79.8199 82.2 82.7833 79.2492 82.7833 75.6C82.7833 74.4738 82.5011 73.4142 82.0036 72.4872C84.15 71.3979 85.6226 69.1725 85.6226 66.6C85.6226 65.8444 85.4949 65.1178 85.2603 64.4412C87.5418 63.402 89.13 61.1048 89.13 58.4333C89.13 57.1858 88.7836 56.0206 88.1827 55.0271C89.7724 53.8226 90.8001 51.9158 90.8001 49.7667C90.8001 46.1253 87.8496 43.1794 84.2143 43.1667L80.0368 43.0805H59.7019L61.4569 39.6899C62.052 38.5403 62.3684 37.2674 62.3808 35.9733L62.4506 28.6587V28.6486C62.4506 27.0552 61.8887 25.4286 60.5263 24.227C59.1908 23.0491 57.3373 22.5 55.1624 22.5C52.6085 22.5 50.9102 23.6325 49.9182 25.1008C49.0192 26.4317 48.8064 27.8822 48.7297 28.4539L48.6986 28.6858L48.7193 28.9188C48.8463 30.3472 48.3121 33.5644 47.0992 36.6531C46.6432 37.8143 45.3196 39.4416 43.5606 41.1427C41.871 42.7768 40.0301 44.244 38.8713 45.0802C37.9308 45.7589 37.7186 47.0715 38.3972 48.012C39.0759 48.9525 40.3885 49.1647 41.329 48.486C42.6248 47.551 44.6248 45.9564 46.4804 44.1618C48.2666 42.4343 50.1926 40.266 51.0085 38.1883Z" fill="#008193"/>
<rect x="73.3984" y="104.398" width="13.8" height="4.2" rx="2.1" fill="#008193"/>
</svg>
