<svg width="48" height="49" viewBox="0 0 48 49" fill="none" xmlns="http://www.w3.org/2000/svg">
<path fill-rule="evenodd" clip-rule="evenodd" d="M39.0816 36.1165C39.6745 35.3632 39.9966 34.1408 39.9966 32.25C39.9966 23.4024 32.8242 16.23 23.9765 16.23C15.1289 16.23 7.95654 23.4024 7.95654 32.25C7.95654 34.2277 8.32091 35.4741 8.98557 36.2174L11.4965 34.95L15.0365 36.33L17.7365 34.95L19.7304 35.7143C20.9909 35.5007 22.312 35.3422 23.6725 35.3144L24.0965 35.13L24.5498 35.315C25.9167 35.3449 27.238 35.5065 28.4937 35.7228L29.9166 35.13L34.5366 36.33L36.5166 35.13L39.0816 36.1165Z" fill="#E2F1F3"/>
<path d="M35.7965 32.3702C35.7965 38.9645 34.8365 35.4902 23.8565 35.4902C12.2165 35.3102 11.9165 38.9645 11.9165 32.3702C11.9165 25.7759 17.2622 20.4302 23.8565 20.4302C30.4508 20.4302 35.7965 25.7759 35.7965 32.3702Z" fill="#00B8C5"/>
<path d="M35.7965 32.3702C35.7965 38.9645 34.8365 35.4902 23.8565 35.4902C12.2165 35.3102 11.9165 38.9645 11.9165 32.3702C11.9165 25.7759 17.2622 20.4302 23.8565 20.4302C30.4508 20.4302 35.7965 25.7759 35.7965 32.3702Z" fill="#00B8C5"/>
<path fill-rule="evenodd" clip-rule="evenodd" d="M37.6386 7.28323C37.7342 6.82927 37.4436 6.38378 36.9897 6.2882C36.5357 6.19264 36.0902 6.48322 35.9946 6.93714L35.9923 6.94797L35.9847 6.98358C35.9778 7.01518 35.9676 7.06207 35.9542 7.12187C35.9275 7.24155 35.8885 7.41257 35.8396 7.61599C35.7413 8.02468 35.6051 8.5562 35.4506 9.06266C35.3526 9.38411 35.2537 9.67342 35.1598 9.90763C35.0774 9.85005 34.9937 9.79372 34.911 9.7393C34.5789 9.52093 34.2083 9.29961 33.8667 9.10387C33.5239 8.90739 33.2032 8.73267 32.9686 8.60724C32.8511 8.54442 32.7548 8.49371 32.6874 8.45852L32.609 8.41776L32.588 8.40687L32.5799 8.40274C32.1671 8.19105 31.6609 8.35408 31.4492 8.76688C31.2375 9.17967 31.4005 9.68593 31.8133 9.89763L31.8187 9.90043L31.8371 9.90989L31.9095 9.94756C31.9727 9.98057 32.0643 10.0288 32.1765 10.0888C32.4013 10.209 32.7068 10.3755 33.0315 10.5615C33.3574 10.7483 33.6955 10.9507 33.9879 11.143C34.2934 11.3439 34.5021 11.5036 34.6026 11.6042C34.7491 11.7506 34.973 11.8938 35.2683 11.9133C35.5554 11.9323 35.7843 11.8256 35.9319 11.7241C36.194 11.5437 36.3637 11.268 36.4654 11.0819C36.6922 10.6666 36.8944 10.0879 37.0576 9.55272C37.2256 9.00168 37.3707 8.43444 37.473 8.00876C37.5244 7.79499 37.5655 7.61491 37.5939 7.4878C37.6081 7.42421 37.6191 7.37377 37.6267 7.3389L37.6353 7.29852L37.6377 7.28763L37.6385 7.28371L37.6386 7.28342C37.6386 7.28332 37.6386 7.28323 36.8166 7.11019L37.6386 7.28323ZM23.9166 21.5102C17.9519 21.5102 13.1166 26.3455 13.1166 32.3102C13.1166 32.7741 12.7405 33.1502 12.2766 33.1502C11.8127 33.1502 11.4366 32.7741 11.4366 32.3102C11.4366 25.4177 17.0241 19.8302 23.9166 19.8302C30.8091 19.8302 36.3966 25.4177 36.3966 32.3102C36.3966 32.7741 36.0205 33.1502 35.5566 33.1502C35.0927 33.1502 34.7166 32.7741 34.7166 32.3102C34.7166 26.3455 29.8813 21.5102 23.9166 21.5102ZM10.892 36.4105C11.1535 36.2438 11.3961 36.0511 11.6166 35.8362C11.7774 35.993 11.9502 36.138 12.1337 36.2699C12.8598 36.7916 13.7221 37.0834 14.6118 37.1084C15.5015 37.1334 16.3785 36.8905 17.132 36.4105C17.3899 36.2461 17.6294 36.0565 17.8474 35.8452C18.0034 35.9985 18.1708 36.1406 18.3484 36.2699C19.0648 36.7916 19.9157 37.0834 20.7935 37.1084C21.6713 37.1334 22.5366 36.8905 23.28 36.4105C23.5547 36.2331 23.8081 36.0263 24.0366 35.7945C24.207 35.9673 24.3914 36.1264 24.5884 36.2699C25.3048 36.7916 26.1557 37.0834 27.0335 37.1084C27.9113 37.1334 28.7766 36.8905 29.52 36.4105C29.7745 36.2461 30.0108 36.0565 30.2259 35.8452C30.3841 35.9985 30.5537 36.1406 30.7337 36.2699C31.4598 36.7916 32.3221 37.0834 33.2118 37.1084C34.1015 37.1334 34.9785 36.8905 35.732 36.4105C35.9935 36.2438 36.2361 36.0511 36.4566 35.8362L36.463 35.8424C36.8897 36.2567 37.3927 36.5819 37.9433 36.7992C38.494 37.0165 39.0815 37.1219 39.6723 37.1091C39.9812 37.1025 40.2878 37.0636 40.5873 36.9936C41.0429 36.8873 41.2368 36.3793 41.0508 35.9501C40.8621 35.515 40.3516 35.3323 39.8802 35.3841C39.7994 35.393 39.718 35.3984 39.6364 35.4001C39.2671 35.4081 38.8998 35.3423 38.5556 35.2064C38.2114 35.0705 37.8969 34.8673 37.6302 34.6083C37.5677 34.5476 37.5081 34.4841 37.4516 34.418C37.1822 34.1034 36.7658 33.9044 36.3768 33.9923C36.0341 33.9751 35.6862 34.1593 35.4495 34.4321C35.2716 34.6372 35.0646 34.8165 34.834 34.9634C34.363 35.2635 33.8148 35.4153 33.2586 35.3997C32.7024 35.384 32.1633 35.2016 31.7095 34.8755C31.4868 34.7155 31.2895 34.5244 31.1228 34.309C30.8355 33.9377 30.3518 33.7058 29.9139 33.8753C29.7503 33.9387 29.6166 34.0483 29.5266 34.1817C29.4204 34.2511 29.3231 34.3368 29.2399 34.4338C29.0647 34.6382 28.861 34.8169 28.6341 34.9634C28.1693 35.2635 27.6284 35.4153 27.0796 35.3997C26.5309 35.384 25.999 35.2016 25.5512 34.8755C25.3315 34.7156 25.1369 34.5246 24.9726 34.3093C24.6892 33.9382 24.2073 33.7075 23.7726 33.8781C23.6544 33.9245 23.5521 33.9953 23.4711 34.0819C23.293 34.1593 23.1293 34.2829 22.9999 34.4338C22.8247 34.6382 22.621 34.8169 22.3941 34.9634C21.9293 35.2635 21.3884 35.4153 20.8396 35.3997C20.2909 35.384 19.759 35.2016 19.3112 34.8755C19.0915 34.7156 18.8969 34.5246 18.7326 34.3093C18.4492 33.9382 17.9673 33.7075 17.5326 33.8781C17.3789 33.9384 17.2521 34.0401 17.164 34.1639C17.0472 34.2361 16.9402 34.3276 16.8495 34.4321C16.6716 34.6372 16.4646 34.8165 16.234 34.9634C15.763 35.2635 15.2148 35.4153 14.6586 35.3997C14.1024 35.384 13.5633 35.2016 13.1095 34.8755C12.8868 34.7155 12.6895 34.5244 12.5228 34.309C12.2355 33.9377 11.7518 33.7058 11.3139 33.8753C11.1644 33.9332 11.0398 34.0298 10.9508 34.1478C10.8236 34.2222 10.7071 34.3196 10.6095 34.4321C10.4316 34.6372 10.2246 34.8165 9.99403 34.9634C9.52302 35.2635 8.97477 35.4153 8.4186 35.3997C7.86243 35.384 7.32333 35.2016 6.86947 34.8755C6.64676 34.7155 6.44948 34.5244 6.28283 34.309C5.99552 33.9377 5.51179 33.7058 5.07394 33.8753C4.64153 34.0427 4.41843 34.5331 4.6581 34.93C4.97471 35.4544 5.39424 35.911 5.89374 36.2699C6.61976 36.7916 7.48214 37.0834 8.37181 37.1084C9.26149 37.1334 10.1385 36.8905 10.892 36.4105ZM42.5766 35.7902C43.0737 35.7902 43.4766 35.3873 43.4766 34.8902C43.4766 34.3931 43.0737 33.9902 42.5766 33.9902C42.0796 33.9902 41.6766 34.3931 41.6766 34.8902C41.6766 35.3873 42.0796 35.7902 42.5766 35.7902ZM33.2766 42.2102C33.2766 42.7073 32.8737 43.1102 32.3766 43.1102C31.8796 43.1102 31.4766 42.7073 31.4766 42.2102C31.4766 41.7131 31.8796 41.3102 32.3766 41.3102C32.8737 41.3102 33.2766 41.7131 33.2766 42.2102ZM27.9966 38.5502C27.5327 38.5502 27.1566 38.9263 27.1566 39.3902C27.1566 39.8541 27.5327 40.2302 27.9966 40.2302H31.8366C32.3005 40.2302 32.6766 39.8541 32.6766 39.3902C32.6766 38.9263 32.3005 38.5502 31.8366 38.5502H27.9966Z" fill="#008193"/>
</svg>
