<svg width="95" height="63" viewBox="0 0 95 63" fill="none" xmlns="http://www.w3.org/2000/svg">
<path d="M60.4998 3.29688C60.4998 4.78804 59.291 5.99687 57.7998 5.99687V10.1969C59.291 10.1969 60.4998 11.3385 60.4998 12.7469C60.4998 14.1552 59.291 15.2969 57.7998 15.2969V19.4969C59.291 19.4969 60.4998 20.7057 60.4998 22.1969C60.4998 23.688 59.291 24.8969 57.7998 24.8969V29.0969C59.291 29.0969 60.4998 30.2385 60.4998 31.6469C60.4998 33.0552 59.291 34.1969 57.7998 34.1969V38.3969C59.291 38.3969 60.4998 39.6057 60.4998 41.0969C60.4998 42.588 59.291 43.7969 57.7998 43.7969V47.9969C59.291 47.9969 60.4998 49.1385 60.4998 50.5469C60.4998 51.9552 59.291 53.0969 57.7998 53.0969V57.2969C59.291 57.2969 60.4998 58.5057 60.4998 59.9969C60.4998 60.2031 60.4767 60.4039 60.4329 60.5969H85.9998C89.3135 60.5969 91.9998 57.9106 91.9998 54.5969V9.89687C91.9998 6.2518 89.0449 3.29688 85.3998 3.29688H60.4998Z" fill="#00B8C5"/>
<path d="M55.1163 3H8.89981C5.25473 3 2.2998 5.95492 2.2998 9.6V18.9309C2.5924 18.9104 2.88773 18.9 3.18544 18.9C10.1962 18.9 15.8796 24.6755 15.8796 31.8C15.8796 38.9245 10.1962 44.7 3.18544 44.7C2.88773 44.7 2.5924 44.6896 2.2998 44.6691V54C2.2998 57.6451 5.25472 60.6 8.8998 60.6H55.1667C55.1229 60.407 55.0998 60.2062 55.0998 60C55.0998 58.5088 56.3086 57.3 57.7998 57.3V53.1C56.3086 53.1 55.0998 51.9583 55.0998 50.55C55.0998 49.1417 56.3086 48 57.7998 48V43.8C56.3086 43.8 55.0998 42.5912 55.0998 41.1C55.0998 39.6088 56.3086 38.4 57.7998 38.4V34.2C56.3086 34.2 55.0998 33.0583 55.0998 31.65C55.0998 30.2417 56.3086 29.1 57.7998 29.1V24.9C56.3086 24.9 55.0998 23.6912 55.0998 22.2C55.0998 20.7088 56.3086 19.5 57.7998 19.5V15.3C56.3086 15.3 55.0998 14.1583 55.0998 12.75C55.0998 11.3417 56.3086 10.2 57.7998 10.2V6C56.3086 6 55.0998 4.79117 55.0998 3.3C55.0998 3.1986 55.1054 3.0985 55.1163 3Z" fill="#F3F9FA"/>
<path fill-rule="evenodd" clip-rule="evenodd" d="M10.4002 5.09844C7.08649 5.09844 4.4002 7.78473 4.4002 11.0984V16.8457C12.1234 17.4571 18.2002 23.9181 18.2002 31.7984C18.2002 39.6788 12.1234 46.1398 4.4002 46.7511V52.4984C4.4002 55.8121 7.08649 58.4984 10.4002 58.4984H50.6002C51.76 58.4984 52.7002 59.4386 52.7002 60.5984C52.7002 61.7582 51.76 62.6984 50.6002 62.6984H10.4002C4.76689 62.6984 0.200195 58.1317 0.200195 52.4984V45.5682C0.200195 43.8292 1.64759 42.5984 3.2002 42.5984C9.16487 42.5984 14.0002 37.7631 14.0002 31.7984C14.0002 25.8338 9.16487 20.9984 3.2002 20.9984C1.64759 20.9984 0.200195 19.7676 0.200195 18.0286V11.0984C0.200195 5.46513 4.76689 0.898438 10.4002 0.898438H50.6002C51.76 0.898438 52.7002 1.83864 52.7002 2.99844C52.7002 4.15824 51.76 5.09844 50.6002 5.09844H10.4002Z" fill="#008193"/>
<path fill-rule="evenodd" clip-rule="evenodd" d="M62.9004 2.99844C62.9004 1.83864 63.8406 0.898438 65.0004 0.898438H83.9004C89.5337 0.898438 94.1004 5.46513 94.1004 11.0984V52.4984C94.1004 58.1317 89.5337 62.6984 83.9004 62.6984H65.0004C63.8406 62.6984 62.9004 61.7582 62.9004 60.5984C62.9004 59.4386 63.8406 58.4984 65.0004 58.4984H83.9004C87.2141 58.4984 89.9004 55.8121 89.9004 52.4984V11.0984C89.9004 7.78473 87.2141 5.09844 83.9004 5.09844H65.0004C63.8406 5.09844 62.9004 4.15824 62.9004 2.99844Z" fill="#008193"/>
<path fill-rule="evenodd" clip-rule="evenodd" d="M23.2998 22.1977C23.2998 21.0379 24.24 20.0977 25.3998 20.0977H46.3998C47.5596 20.0977 48.4998 21.0379 48.4998 22.1977C48.4998 23.3575 47.5596 24.2977 46.3998 24.2977H25.3998C24.24 24.2977 23.2998 23.3575 23.2998 22.1977Z" fill="#008193"/>
<path fill-rule="evenodd" clip-rule="evenodd" d="M23.2998 34.1977C23.2998 33.0379 24.24 32.0977 25.3998 32.0977H46.3998C47.5596 32.0977 48.4998 33.0379 48.4998 34.1977C48.4998 35.3575 47.5596 36.2977 46.3998 36.2977H25.3998C24.24 36.2977 23.2998 35.3575 23.2998 34.1977Z" fill="#008193"/>
<path fill-rule="evenodd" clip-rule="evenodd" d="M23.2998 40.1977C23.2998 39.0379 24.24 38.0977 25.3998 38.0977H27.4998C28.6596 38.0977 29.5998 39.0379 29.5998 40.1977C29.5998 41.3575 28.6596 42.2977 27.4998 42.2977H25.3998C24.24 42.2977 23.2998 41.3575 23.2998 40.1977Z" fill="#008193"/>
<path fill-rule="evenodd" clip-rule="evenodd" d="M32 40.1977C32 39.0379 32.9402 38.0977 34.1 38.0977L45.8 38.0977C46.9598 38.0977 47.9 39.0379 47.9 40.1977C47.9 41.3575 46.9598 42.2977 45.8 42.2977L34.1 42.2977C32.9402 42.2977 32 41.3575 32 40.1977Z" fill="#008193"/>
<path fill-rule="evenodd" clip-rule="evenodd" d="M23.2998 28.1977C23.2998 27.0379 24.24 26.0977 25.3998 26.0977H32.5998C33.7596 26.0977 34.6998 27.0379 34.6998 28.1977C34.6998 29.3575 33.7596 30.2977 32.5998 30.2977H25.3998C24.24 30.2977 23.2998 29.3575 23.2998 28.1977Z" fill="#008193"/>
<path fill-rule="evenodd" clip-rule="evenodd" d="M37.1006 28.1977C37.1006 27.0379 38.0408 26.0977 39.2006 26.0977H46.4006C47.5604 26.0977 48.5006 27.0379 48.5006 28.1977C48.5006 29.3575 47.5604 30.2977 46.4006 30.2977H39.2006C38.0408 30.2977 37.1006 29.3575 37.1006 28.1977Z" fill="#008193"/>
</svg>
