<svg width="607" height="663" viewBox="0 0 607 663" fill="none" xmlns="http://www.w3.org/2000/svg">
<circle cx="292.5" cy="306.5" r="179.5" fill="#E2F1F3"/>
<path d="M207.581 424.929C167.857 424.929 141.374 455.667 133.099 471.037L155.562 497.046L390.831 543.155L455.855 488.771C447.973 487.588 415.185 482.386 347.087 471.037C261.965 456.85 257.236 424.929 207.581 424.929Z" fill="white"/>
<path d="M418.231 67.4538C403.982 75.885 399.91 90.4216 398.224 96.4106C397.817 97.8643 393.048 115.715 401.306 134.322C403.749 139.846 406.366 145.544 412.298 148.277C415.73 149.905 418.812 149.789 430.91 148.742C436.551 148.277 442.658 147.696 449.172 146.998C453.766 141.125 461.676 129.379 464.002 112.866C464.409 109.784 469.179 73.0359 449.172 63.2673C436.086 56.8131 420.324 66.1746 418.231 67.4538Z" fill="#00B8C5"/>
<path d="M155.116 154.15C162.375 154.15 168.26 147.642 168.26 139.614C168.26 131.585 162.375 125.077 155.116 125.077C147.856 125.077 141.972 131.585 141.972 139.614C141.972 147.642 147.856 154.15 155.116 154.15Z" fill="#00B8C5"/>
<path d="M453.185 387.083C458.581 387.083 462.956 382.866 462.956 377.664C462.956 372.461 458.581 368.244 453.185 368.244C447.789 368.244 443.414 372.461 443.414 377.664C443.414 382.866 447.789 387.083 453.185 387.083Z" fill="#00B8C5"/>
<path d="M155.233 330.216C159.248 330.216 162.503 326.962 162.503 322.948C162.503 318.934 159.248 315.68 155.233 315.68C151.218 315.68 147.963 318.934 147.963 322.948C147.963 326.962 151.218 330.216 155.233 330.216Z" fill="#00B8C5"/>
<path d="M141.681 149.324C148.073 149.324 153.255 143.883 153.255 137.171C153.255 130.459 148.073 125.019 141.681 125.019C135.289 125.019 130.107 130.459 130.107 137.171C130.107 143.883 135.289 149.324 141.681 149.324Z" fill="#FFA745"/>
<path d="M450.509 372.198C454.46 372.198 457.663 368.866 457.663 364.755C457.663 360.645 454.46 357.312 450.509 357.312C446.558 357.312 443.355 360.645 443.355 364.755C443.355 368.866 446.558 372.198 450.509 372.198Z" fill="#FFA745"/>
<path d="M546.124 166.942C550.46 166.942 553.976 163.194 553.976 158.569C553.976 153.945 550.46 150.196 546.124 150.196C541.788 150.196 538.272 153.945 538.272 158.569C538.272 163.194 541.788 166.942 546.124 166.942Z" fill="#FFA745"/>
<path d="M375.6 218.692C374.32 216.657 372.226 218.576 371.354 219.971C369.551 222.878 368.388 226.483 369.725 229.798C370.714 232.298 373.157 234.391 376.007 233.984C378.624 233.635 380.601 231.484 380.543 228.867C380.543 228.17 379.554 227.646 379.031 228.228C375.948 232.124 372.168 237.648 375.251 242.648C377.402 246.079 382.695 246.544 384.789 242.823C384.265 242.764 383.742 242.706 383.218 242.59C383.509 244.218 383.8 245.846 384.033 247.474C384.207 248.579 385.894 248.114 385.719 247.009C385.429 245.381 385.138 243.753 384.905 242.125C384.789 241.369 383.626 241.311 383.335 241.892C382.404 243.52 380.31 244.102 378.624 243.288C376.763 242.357 375.949 240.264 375.949 238.229C375.949 234.857 378.333 231.891 380.31 229.391C379.787 229.158 379.322 228.984 378.798 228.751C378.856 230.961 376.705 232.589 374.553 232.124C372.924 231.775 371.877 230.379 371.296 228.867C370.714 227.297 370.772 225.728 371.238 224.158C371.296 224.041 373.68 218.866 374.029 219.448C374.669 220.494 376.181 219.622 375.6 218.692Z" fill="#00B8C5"/>
<path d="M138.134 223.925C139.413 220.436 143.659 221.948 144.997 224.39C145.462 225.204 145.695 226.134 145.811 227.064C146.044 228.809 145.869 229.507 144.357 230.553C142.728 232.181 142.321 231.542 143.194 228.634C143.601 228.46 144.066 228.286 144.473 228.111C145.578 227.82 146.858 227.878 147.963 228.227C150.754 229.158 152.15 232.123 151.743 234.856C151.627 235.554 152.325 236.252 153.023 235.845C156.803 233.693 161.805 236.077 162.677 240.322C162.91 241.427 164.596 240.961 164.364 239.857C163.259 234.507 156.919 231.716 152.15 234.391C152.557 234.74 153.023 235.031 153.43 235.379C154.186 230.262 150.289 225.494 144.88 226.309C143.019 226.599 140.228 227.762 139.995 229.972C139.82 231.774 141.507 233.112 143.194 233.286C148.195 233.751 148.079 226.483 146.451 223.576C144.241 219.622 138.134 218.633 136.389 223.518C136.04 224.506 137.727 224.971 138.134 223.925Z" fill="#00B8C5"/>
<path d="M48.2185 495.177C49.498 507.795 51.708 520.238 54.7905 532.565C55.0813 533.67 56.768 533.205 56.4772 532.1C53.4528 519.948 51.2428 507.621 49.9633 495.177C49.8469 494.072 48.1021 494.072 48.2185 495.177Z" fill="#E8E8E8"/>
<path d="M55.1399 533.147C66.5974 536.112 78.5201 536.112 89.9776 533.147C91.0826 532.856 90.6173 531.17 89.5123 531.46C78.3456 534.368 66.7718 534.368 55.6052 531.46C54.5583 531.17 54.093 532.856 55.1399 533.147Z" fill="#E8E8E8"/>
<path d="M91.3146 531.402C92.0707 519.017 93.0594 506.632 94.2226 494.247C94.3389 493.142 92.5941 493.142 92.4778 494.247C91.3146 506.632 90.3259 519.017 89.5698 531.402C89.5116 532.507 91.2564 532.507 91.3146 531.402Z" fill="#E8E8E8"/>
<path d="M49.207 496.107C63.6888 499.073 78.5777 498.957 93.0595 495.7C94.1645 495.468 93.6992 493.782 92.5942 494.014C78.4614 497.154 63.8633 497.328 49.6723 494.421C48.5673 494.189 48.102 495.875 49.207 496.107Z" fill="#E8E8E8"/>
<path d="M49.0326 500.294C49.4979 502.678 52.5222 502.562 54.3833 502.736C59.0942 503.143 63.8633 503.26 68.5742 503.143C73.1107 503.027 77.6472 502.678 82.1836 502.155C85.7895 501.69 89.2791 501.225 92.4779 499.422C93.4666 498.899 92.5942 497.387 91.6055 497.91C85.8477 501.108 77.8798 500.992 71.4241 501.283C68.2253 501.399 64.9683 501.457 61.7696 501.399C60.0829 501.341 51.0682 501.748 50.7192 499.829C50.4866 498.724 48.8581 499.189 49.0326 500.294Z" fill="#E8E8E8"/>
<path d="M52.3488 520.471C55.1404 525.414 58.6882 529.775 62.9338 533.554C63.7481 534.31 65.0276 533.089 64.1552 532.333C59.9677 528.67 56.5363 524.425 53.8609 519.599C53.3375 518.61 51.8253 519.483 52.3488 520.471Z" fill="#E8E8E8"/>
<path d="M50.08 507.039C56.0123 517.041 63.2241 526.228 71.4828 534.484C72.297 535.298 73.5184 534.019 72.7041 533.263C64.5618 525.123 57.4663 516.052 51.5922 506.167C51.0106 505.237 49.4984 506.109 50.08 507.039Z" fill="#E8E8E8"/>
<path d="M59.7921 502.853C65.957 513.843 73.1107 524.251 81.1948 533.961C81.8928 534.833 83.1141 533.612 82.4162 532.74C74.4483 523.146 67.3529 512.854 61.3043 501.981C60.7808 500.992 59.2687 501.864 59.7921 502.853Z" fill="#E8E8E8"/>
<path d="M70.9007 503.259C76.8911 512.214 82.9397 521.11 89.0465 530.006C89.6862 530.937 91.1984 530.065 90.5586 529.134C84.4519 520.238 78.4032 511.341 72.4128 502.387C71.773 501.457 70.2609 502.329 70.9007 503.259Z" fill="#E8E8E8"/>
<path d="M80.207 502.737C83.2313 507.621 86.4882 512.389 89.8615 517.041C90.5013 517.913 92.0134 517.041 91.3737 516.168C88.0004 511.517 84.7434 506.749 81.7191 501.865C81.1375 500.934 79.6254 501.806 80.207 502.737Z" fill="#E8E8E8"/>
<path d="M29.899 444.008C30.5969 448.02 31.2948 452.091 32.0509 456.103C32.2835 457.208 32.458 458.37 33.3885 459.068C34.0283 459.591 36.122 459.533 36.5292 460.115C36.5873 459.766 36.6455 459.417 36.6455 459.068C35.7731 459.94 34.9007 460.813 33.9701 461.627C33.7375 461.859 33.6793 462.208 33.7375 462.499C34.2609 464.069 34.6099 466.395 35.6568 467.732C36.1802 468.43 37.1107 468.313 37.5179 468.72C37.8668 469.069 37.7505 468.837 37.576 469.883C37.4597 470.756 37.4597 471.686 37.576 472.616C37.7505 474.012 38.1576 475.349 38.6811 476.628C41.7054 483.955 47.5795 489.886 53.221 495.351C54.0352 496.107 55.2566 494.886 54.4424 494.13C50.8365 490.641 47.2305 487.036 44.2644 482.966C41.3564 478.954 37.925 473.547 39.7279 468.43C39.8443 468.139 39.728 467.732 39.4953 467.558C38.3903 466.685 37.2852 467.034 36.5292 465.639C35.0752 463.022 35.8894 462.15 37.7505 460.347C38.0413 460.115 38.0995 459.591 37.8668 459.301C37.4015 458.603 37.0526 458.37 36.2965 458.138C35.8312 457.963 35.1333 458.138 34.668 457.905C33.6793 457.382 33.6793 456.103 33.5048 455.172C32.8069 451.335 32.109 447.439 31.4693 443.601C31.3529 442.438 29.6663 442.904 29.899 444.008Z" fill="#E8E8E8"/>
<path d="M31.178 443.776C53.8603 451.335 69.3889 472.501 69.8542 496.457C69.8542 497.562 71.599 497.562 71.599 496.457C71.1337 471.745 55.0816 449.94 31.6433 442.09C30.5964 441.741 30.1311 443.428 31.178 443.776Z" fill="#E8E8E8"/>
<path d="M66.0161 472.617C71.6576 456.975 79.9745 441.857 93.293 431.565C94.1654 430.868 93.293 429.356 92.4206 430.054C78.6949 440.694 70.1455 456.045 64.3295 472.151C63.9805 473.198 65.6672 473.663 66.0161 472.617Z" fill="#E8E8E8"/>
<path d="M91.7807 431.216C92.1878 436.566 92.6531 441.915 93.0602 447.323C93.1765 448.428 94.9213 448.428 94.805 447.323C94.3979 441.973 93.9326 436.624 93.5255 431.216C93.4674 430.112 91.7226 430.112 91.7807 431.216Z" fill="#E8E8E8"/>
<path d="M93.8155 446.741C93.0595 446.916 92.3034 447.09 91.6055 447.323C90.5004 447.614 90.9657 449.3 92.0708 449.009C92.8268 448.835 93.5829 448.66 94.2808 448.428C95.3858 448.137 94.9206 446.509 93.8155 446.741Z" fill="#E8E8E8"/>
<path d="M90.7328 448.893C90.9654 449.997 91.896 450.695 92.9429 450.812C93.4081 450.87 93.8153 450.405 93.8153 449.939C93.8153 449.416 93.4081 449.125 92.9429 449.067C93.1173 449.067 92.9429 449.067 92.8847 449.067C92.8265 449.067 92.7102 449.009 92.8265 449.067C92.7684 449.009 92.7102 449.009 92.6521 448.951C92.5357 448.893 92.7684 449.067 92.5939 448.893C92.5357 448.835 92.5357 448.835 92.4776 448.776C92.5939 448.893 92.4776 448.776 92.4776 448.718C92.4194 448.66 92.4194 448.544 92.4194 448.66C92.4194 448.602 92.3613 448.486 92.3613 448.428C92.2449 447.962 91.7215 447.672 91.3144 447.846C90.8491 447.962 90.6164 448.428 90.7328 448.893Z" fill="#E8E8E8"/>
<path d="M92.0714 450.172C92.1295 453.486 92.0132 456.743 91.6643 459.999C91.5479 461.045 91.7224 463.488 91.0245 464.302C90.9663 464.36 89.9195 464.534 89.6868 464.709C88.8145 465.406 90.0358 466.627 90.9082 465.93C91.199 465.697 91.8969 465.93 92.3622 465.406C93.0601 464.709 92.9437 463.081 93.0601 462.266C93.5835 458.254 93.8161 454.184 93.758 450.114C93.8161 449.067 92.0714 449.067 92.0714 450.172Z" fill="#E8E8E8"/>
<path d="M88.9887 466.221C90.8498 468.431 90.3264 472.094 90.1519 474.768C89.9192 477.85 89.3958 480.699 87.8837 483.374C85.7317 487.328 82.7074 490.642 81.1371 494.945C80.73 495.992 82.4167 496.457 82.8238 495.41C84.9175 489.77 89.7448 485.584 91.1988 479.653C92.2456 475.408 93.2344 468.605 90.21 465C89.5121 464.186 88.2908 465.407 88.9887 466.221Z" fill="#E8E8E8"/>
<path d="M75.263 495.758C76.8915 479.245 81.2535 463.138 88.2327 448.136C88.6979 447.148 87.1858 446.218 86.7205 447.264C79.625 462.615 75.1467 478.954 73.5183 495.816C73.4019 496.921 75.1467 496.863 75.263 495.758Z" fill="#E8E8E8"/>
<path d="M40.9486 453.486C51.1266 466.278 58.571 480.989 62.933 496.688C63.2238 497.793 64.9104 497.328 64.6196 496.223C60.1413 480.175 52.5224 465.29 42.17 452.265C41.472 451.393 40.2507 452.614 40.9486 453.486Z" fill="#E8E8E8"/>
<path d="M42.054 474.942C46.9395 474.651 51.4759 475.814 55.6052 478.373C56.5358 478.954 57.4664 477.442 56.4776 476.861C52.1157 474.186 47.1721 472.907 42.054 473.198C40.8908 473.256 40.8908 475 42.054 474.942Z" fill="#E8E8E8"/>
<path d="M52.6972 467.15C52.3483 463.952 52.7554 460.871 53.9767 457.847C54.3839 456.8 52.6972 456.335 52.2901 457.382C51.0106 460.522 50.6034 463.778 50.9524 467.15C51.0687 468.255 52.8135 468.255 52.6972 467.15Z" fill="#E8E8E8"/>
<path d="M71.5414 457.498C73.4607 462.208 76.2524 467.209 76.9503 472.209C77.1247 473.314 78.8114 472.849 78.6369 471.744C77.8808 466.686 75.0892 461.685 73.2281 457.033C72.8209 455.987 71.1343 456.452 71.5414 457.498Z" fill="#E8E8E8"/>
<path d="M82.2425 463.022C83.9291 461.103 85.5576 458.836 87.7095 457.382C89.5124 456.161 91.4898 455.347 92.8857 453.661C93.5836 452.789 92.3622 451.568 91.6643 452.44C90.1522 454.242 87.9421 454.998 86.1391 456.394C84.1617 457.905 82.6496 459.94 81.0211 461.801C80.265 462.673 81.4864 463.894 82.2425 463.022Z" fill="#E8E8E8"/>
<path d="M82.824 495.177C85.6156 494.421 88.4655 494.13 91.3735 494.305C92.4785 494.363 92.4785 492.619 91.3735 492.56C88.291 492.386 85.3248 492.677 82.3587 493.491C81.3118 493.781 81.7189 495.468 82.824 495.177Z" fill="#E8E8E8"/>
<path d="M82.5915 495.875C85.8484 496.166 88.9891 495.759 92.1297 494.771C93.1766 494.422 92.7113 492.735 91.6644 493.084C88.6983 494.015 85.6739 494.364 82.5915 494.131C81.4864 494.073 81.4864 495.817 82.5915 495.875Z" fill="#E8E8E8"/>
<path d="M49.9635 495.584C50.7196 495.584 51.4175 495.584 52.1736 495.584C53.2786 495.584 53.2786 493.84 52.1736 493.84C51.4175 493.84 50.7196 493.84 49.9635 493.84C48.8585 493.84 48.8585 495.584 49.9635 495.584Z" fill="#E8E8E8"/>
<path d="M92.5944 509.656C111.031 509.656 129.526 509.656 147.962 509.656C149.067 509.656 149.067 507.911 147.962 507.911C129.526 507.911 111.031 507.911 92.5944 507.911C91.4894 507.911 91.4894 509.656 92.5944 509.656Z" fill="#E8E8E8"/>
<path d="M404.679 498.143C415.672 498.143 426.606 498.143 437.598 498.143C438.703 498.143 438.703 496.398 437.598 496.398C426.606 496.398 415.672 496.398 404.679 496.398C403.574 496.398 403.574 498.143 404.679 498.143Z" fill="#E8E8E8"/>
<path d="M434.283 308.296C429.863 317.425 425.094 326.379 420.034 335.159C419.802 335.624 419.976 336.38 420.558 336.438C445.508 340.218 467.841 352.603 489.36 365.104C490.349 365.686 491.222 364.174 490.233 363.593C468.539 351.033 446.09 338.59 420.965 334.752C421.139 335.159 421.314 335.624 421.488 336.031C426.606 327.251 431.317 318.297 435.737 309.168C436.261 308.179 434.807 307.249 434.283 308.296Z" fill="#E8E8E8"/>
<path d="M438.122 339.985C439.866 334.984 441.611 329.926 443.356 324.925C444.112 322.832 444.635 320.506 445.624 318.471C445.857 317.25 446.613 316.319 447.776 315.622C448.474 315.796 449.172 315.971 449.87 316.145C450.917 316.436 451.964 316.668 452.952 316.959C455.337 317.541 459.175 317.541 458.768 320.739C458.478 323.006 457.14 325.448 456.384 327.658C454.639 332.6 452.952 337.543 451.208 342.485C450.859 343.532 452.545 343.997 452.894 342.95C455.162 336.438 457.431 329.868 459.699 323.355C460.222 321.843 461.676 319.285 460.513 317.657C459.234 315.912 455.395 315.796 453.418 315.273C451.498 314.808 448.125 313.063 446.148 313.994C444.461 314.75 444.112 317.657 443.589 319.11C441.204 325.914 438.82 332.775 436.435 339.578C436.086 340.566 437.773 341.032 438.122 339.985Z" fill="#E8E8E8"/>
<path d="M460.571 346.207C464.293 338.357 468.073 330.45 471.796 322.6C473.657 318.646 475.518 314.75 477.437 310.796C478.31 308.994 479.007 306.842 480.113 305.156C481.043 303.702 481.276 303.353 482.904 303.993C483.777 304.342 484.823 305.214 485.579 305.737C486.568 306.435 488.139 307.191 488.836 308.121C489.709 309.226 489.36 310.389 488.836 311.785C488.139 313.645 487.092 315.448 486.219 317.25C484.3 321.204 482.381 325.158 480.345 329.112C476.507 336.613 472.494 344.056 468.364 351.44C467.783 352.429 469.295 353.301 469.876 352.313C474.936 343.358 479.764 334.287 484.3 325.1C486.568 320.565 489.069 315.913 490.988 311.203C492.326 307.773 489.418 306.377 486.859 304.574C484.823 303.179 481.625 299.981 479.415 302.598C478.019 304.226 477.263 306.958 476.332 308.935C475.169 311.319 474.064 313.703 472.901 316.146C468.248 325.914 463.595 335.683 459 345.451C458.593 346.323 460.106 347.254 460.571 346.207Z" fill="#E8E8E8"/>
<path d="M479.88 358.301C484.882 350.451 490.524 343.008 496.747 336.147C496.398 336.205 496.049 336.263 495.7 336.263C497.91 337.775 500.062 339.229 502.272 340.74C502.156 340.333 502.039 339.926 501.981 339.519C497.037 347.253 492.094 354.928 487.15 362.661C486.569 363.592 488.023 364.464 488.662 363.534C493.606 355.8 498.55 348.125 503.493 340.392C503.784 339.984 503.551 339.461 503.202 339.17C500.992 337.659 498.84 336.205 496.63 334.693C496.34 334.461 495.816 334.577 495.583 334.809C489.244 341.845 483.486 349.346 478.426 357.312C477.787 358.417 479.299 359.289 479.88 358.301Z" fill="#E8E8E8"/>
<path d="M549.265 303.004C543.449 300.794 539.785 294.98 540.831 288.758C541.878 282.42 548.101 276.78 554.499 280.559C558.919 283.176 561.187 289.107 559.501 293.933C557.756 299.108 552.056 302.19 546.764 301.376C545.659 301.201 545.193 302.888 546.298 303.062C552.522 303.992 559.094 300.562 561.187 294.398C563.281 288.235 559.908 280.792 553.859 278.292C546.764 275.384 540.308 281.49 539.087 288.293C537.807 295.503 542.053 302.132 548.741 304.69C549.846 305.097 550.311 303.411 549.265 303.004Z" fill="#E8E8E8"/>
<path d="M561.187 301.899C549.613 301.55 553.975 283.001 564.211 283.699C574.447 284.455 570.26 305.329 559.035 301.492C557.988 301.143 557.523 302.829 558.57 303.178C571.539 307.597 577.355 283.99 564.967 282.013C558.919 281.024 553.452 286.723 552.521 292.363C551.591 297.945 555.371 303.411 561.187 303.585C562.292 303.701 562.292 301.957 561.187 301.899Z" fill="#E8E8E8"/>
<path d="M552.521 249.277C551.533 248.23 551.067 246.544 551.823 245.265C552.58 244.044 554.441 243.462 555.604 244.393C556.651 245.207 556.883 246.951 555.895 247.823C554.731 248.87 552.87 248.347 551.765 247.474C550.893 246.777 549.672 247.998 550.544 248.696C552.347 250.091 555.139 250.789 557.058 249.103C558.803 247.533 558.628 244.625 556.883 243.113C555.08 241.543 552.231 242.009 550.718 243.753C549.032 245.73 549.497 248.696 551.242 250.498C552.056 251.312 553.278 250.091 552.521 249.277Z" fill="#E8E8E8"/>
<path d="M383.742 293.061C382.114 283.177 387.871 271.257 399.038 271.373C404.738 271.431 410.263 273.757 416.021 272.943C420.092 272.361 423.582 270.036 426.024 266.837C428.467 263.639 429.863 259.627 430.095 255.615C430.386 249.684 428.118 243.637 429.746 237.764C430.561 234.799 432.305 232.066 435.272 230.961C438.121 229.973 441.204 230.554 444.17 230.438C448.474 230.264 451.847 228.403 453.999 224.623C457.023 219.332 456.325 212.994 458.419 207.412C460.92 200.667 467.957 194.911 475.402 198.225C476.391 198.69 477.321 197.178 476.274 196.713C466.154 192.178 457.721 201.307 455.744 210.494C454.464 216.483 454.697 225.786 447.543 228.17C442.542 229.857 436.9 227.24 432.305 230.671C428.525 233.462 427.42 238.578 427.478 243.056C427.653 249.626 429.688 256.022 426.78 262.302C424.105 268.233 418.812 271.78 412.24 271.373C406.424 271.024 400.667 268.64 394.792 270.152C384.847 272.652 380.601 284.398 382.172 293.585C382.288 294.573 383.975 294.108 383.742 293.061Z" fill="#E8E8E8"/>
<path d="M457.256 251.603C455.104 246.718 458.07 242.067 462.781 240.497C466.212 239.334 469.992 239.276 472.959 236.95C475.285 235.147 476.041 232.88 475.75 229.972C475.46 227.239 475.46 225.088 477.611 223.227C479.414 221.657 481.799 221.076 484.125 220.96C490.523 220.727 499.305 223.983 503.958 217.762C506.11 214.854 505.47 211.249 506.459 207.993C507.796 203.458 512.158 200.667 516.811 200.899C517.916 200.957 517.916 199.213 516.811 199.155C513.263 198.98 509.832 200.318 507.389 202.876C504.365 206.074 504.772 209.679 503.841 213.691C501.341 224.681 486.045 216.948 478.833 220.378C476.157 221.657 474.006 223.925 473.773 226.949C473.482 230.496 475.111 233.403 471.505 235.845C469.585 237.124 467.375 237.531 465.165 238.055C461.501 238.927 457.895 240.032 456.034 243.578C454.522 246.369 454.522 249.568 455.802 252.417C456.209 253.521 457.663 252.591 457.256 251.603Z" fill="#E8E8E8"/>
<path d="M560.896 174.152C560.664 173.629 560.431 173.047 560.257 172.466C561.013 171.593 561.711 170.721 562.467 169.849C562.699 169.791 563.746 170.489 564.095 170.489C564.968 170.605 565.724 170.372 566.422 169.849C568.573 168.163 567.817 165.488 568.457 163.22C569.504 159.325 574.099 161.999 576.192 159.092C578.286 156.243 577.53 150.196 583.113 151.824C584.219 152.114 584.684 150.428 583.579 150.137C580.38 149.207 577.472 150.719 576.309 153.801C575.96 154.673 575.844 155.661 575.495 156.534C574.738 158.569 573.924 158.859 571.714 158.976C570.086 159.092 568.806 158.976 567.701 160.371C566.771 161.592 566.771 163.162 566.596 164.616C566.422 166.767 566.596 168.57 563.397 168.337C562.758 168.279 562.234 167.698 561.536 167.698C557.698 167.639 558.337 172.349 559.268 174.617C559.617 175.664 561.362 175.198 560.896 174.152Z" fill="#E8E8E8"/>
<path d="M571.831 178.979C570.9 177.758 569.33 174.211 572.063 173.28C573.052 172.931 574.331 173.338 575.378 173.338C576.309 173.338 577.123 173.338 577.879 172.699C580.206 170.838 578.519 167.524 579.74 165.198C581.718 161.418 585.673 164.384 588.464 162.407C590.442 161.011 590.965 158.337 591.314 156.127C591.489 155.022 589.802 154.557 589.627 155.662C589.22 158.279 588.755 161.186 585.498 161.477C583.811 161.651 582.532 161.07 580.962 161.825C578.403 163.047 577.588 165.314 577.53 167.931C577.472 170.14 577.995 171.245 574.273 171.42C573.808 171.42 573.343 171.303 572.877 171.303C571.54 171.42 570.377 172.117 569.62 173.222C567.992 175.548 568.923 178.223 570.551 180.258C571.307 181.13 572.528 179.851 571.831 178.979Z" fill="#E8E8E8"/>
<path d="M77.3567 210.494C82.184 204.679 89.0468 199.911 96.9565 200.725C105.564 201.597 109.81 208.458 110.624 216.483C112.02 229.798 108.763 245.73 117.778 257.069C121.325 261.546 126.618 263.93 132.318 262.534C139.18 260.906 144.531 255.499 150.638 252.301C157.85 248.521 167.795 246.486 174.309 252.824C179.078 257.476 180.125 264.569 181.695 270.733C183.149 276.315 185.65 282.478 190.652 285.793C193.676 287.77 196.991 287.944 200.481 287.712C204.377 287.421 212.345 287.188 211.531 293.294C211.415 294.398 213.16 294.398 213.276 293.294C213.567 290.91 212.462 288.991 210.542 287.595C207.518 285.386 204.028 285.735 200.481 285.967C196.468 286.258 193.036 285.909 189.954 283.06C187.162 280.502 185.476 276.896 184.254 273.35C182.219 267.244 181.637 260.557 178.147 254.975C174.716 249.451 168.784 246.777 162.386 247.009C154.302 247.3 147.497 251.952 141.042 256.255C137.959 258.29 134.644 260.441 130.864 261.081C126.327 261.837 122.314 259.86 119.406 256.487C113.939 250.091 113.067 240.962 112.776 232.938C112.485 225.437 113.474 217.297 110.973 210.028C108.705 203.4 102.947 199.271 96.026 198.922C87.9999 198.515 80.9626 203.342 76.019 209.272C75.3793 210.145 76.6006 211.366 77.3567 210.494Z" fill="#E8E8E8"/>
<path d="M47.9863 300.213C57.0592 315.331 65.1434 330.973 72.297 347.079C72.7623 348.126 74.2745 347.195 73.8092 346.207C66.6555 330.1 58.5132 314.459 49.4984 299.341C48.9168 298.353 47.4047 299.225 47.9863 300.213Z" fill="#E8E8E8"/>
<path d="M49.0905 299.515C63.2233 290.735 77.7633 282.537 92.7103 275.094C93.699 274.571 92.8266 273.059 91.8379 273.582C76.949 281.025 62.4091 289.223 48.2181 298.004C47.2294 298.643 48.1018 300.155 49.0905 299.515Z" fill="#E8E8E8"/>
<path d="M91.6638 274.338C99.05 289.863 106.843 305.155 115.102 320.215C115.626 321.204 117.138 320.331 116.614 319.343C108.356 304.283 100.504 288.991 93.1759 273.466C92.6525 272.419 91.1985 273.291 91.6638 274.338Z" fill="#E8E8E8"/>
<path d="M74.2741 347.428C88.1743 339.055 101.9 330.45 115.509 321.611C116.44 321.03 115.567 319.518 114.637 320.1C101.028 328.938 87.3019 337.543 73.4017 345.916C72.4712 346.498 73.3436 348.01 74.2741 347.428Z" fill="#E8E8E8"/>
<path d="M73.1695 294.399C72.8206 305.563 73.4603 316.669 75.0887 327.717C75.2632 328.821 76.9498 328.356 76.7753 327.251C75.1469 316.378 74.5653 305.389 74.9143 294.399C74.9724 293.294 73.2277 293.294 73.1695 294.399Z" fill="#E8E8E8"/>
<path d="M73.2279 293.817C81.3121 300.155 89.3963 306.377 97.5968 312.54C98.4692 313.238 99.3416 311.726 98.4692 311.028C90.385 304.981 82.3589 298.818 74.4492 292.596C73.5768 291.898 72.3555 293.119 73.2279 293.817Z" fill="#E8E8E8"/>
<path d="M76.8918 328.065C83.5802 322.076 92.3041 318.878 98.6435 312.424C99.4578 311.61 98.1782 310.389 97.4222 311.203C91.0828 317.599 82.417 320.855 75.6704 326.844C74.798 327.542 76.0776 328.763 76.8918 328.065Z" fill="#E8E8E8"/>
<path d="M50.3122 309.342C52.1733 308.412 54.0344 307.54 55.8955 306.609C56.8843 306.144 56.0119 304.632 55.0231 305.098C53.162 306.028 51.3009 306.9 49.4398 307.83C48.4511 308.354 49.3235 309.807 50.3122 309.342Z" fill="#E8E8E8"/>
<path d="M56.3032 319.227C57.8735 318.18 59.5601 317.308 61.3049 316.552C62.3518 316.145 61.8865 314.459 60.8396 314.866C58.9203 315.68 57.1174 316.61 55.3726 317.715C54.5002 318.354 55.3726 319.866 56.3032 319.227Z" fill="#E8E8E8"/>
<path d="M62.8747 330.623C64.5032 329.809 66.1316 328.995 67.7601 328.239C68.7488 327.716 67.8764 326.262 66.8877 326.727C65.2593 327.541 63.6308 328.355 62.0023 329.111C61.0136 329.576 61.886 331.088 62.8747 330.623Z" fill="#E8E8E8"/>
<path d="M66.248 342.02C68.051 340.45 69.9121 339.113 72.0058 337.95C72.9945 337.368 72.1221 335.915 71.1334 336.438C68.9815 337.659 66.9459 339.113 65.0267 340.799C64.1543 341.555 65.3756 342.776 66.248 342.02Z" fill="#E8E8E8"/>
<path d="M94.9799 285.792C96.3176 284.862 97.7134 284.222 99.2838 283.815C100.389 283.525 99.9235 281.897 98.8185 282.129C97.1319 282.536 95.5034 283.234 94.0494 284.281C93.177 284.92 94.0494 286.432 94.9799 285.792Z" fill="#E8E8E8"/>
<path d="M100.155 295.736C102.016 294.573 103.877 293.41 105.68 292.189C106.611 291.608 105.738 290.096 104.808 290.678C102.947 291.841 101.086 293.003 99.2826 294.225C98.2939 294.864 99.1663 296.376 100.155 295.736Z" fill="#E8E8E8"/>
<path d="M106.088 307.656C108.065 306.783 110.101 305.911 112.078 305.039C113.125 304.574 112.195 303.062 111.206 303.527C109.229 304.399 107.193 305.272 105.216 306.144C104.169 306.609 105.099 308.121 106.088 307.656Z" fill="#E8E8E8"/>
<path d="M110.333 315.448C111.903 313.936 113.648 312.657 115.567 311.552C116.556 311.029 115.683 309.517 114.695 310.04C112.659 311.203 110.798 312.54 109.111 314.168C108.297 314.983 109.518 316.204 110.333 315.448Z" fill="#E8E8E8"/>
<path d="M79.218 339.753C80.672 341.904 81.8934 344.172 82.824 346.556C83.2311 347.603 84.9177 347.138 84.5106 346.091C83.5219 343.533 82.3005 341.09 80.7302 338.823C80.0904 337.951 78.5783 338.823 79.218 339.753Z" fill="#E8E8E8"/>
<path d="M88.1163 334.926C89.2214 336.903 90.2683 338.822 91.3733 340.799C91.8967 341.787 93.4089 340.915 92.8854 339.927C91.7804 337.95 90.7335 336.031 89.6285 334.054C89.1051 333.065 87.5929 333.938 88.1163 334.926Z" fill="#E8E8E8"/>
<path d="M98.4103 327.541C99.5735 329.635 100.737 331.728 101.9 333.821C102.423 334.81 103.935 333.938 103.412 332.949C102.249 330.856 101.086 328.762 99.9224 326.669C99.399 325.681 97.8868 326.553 98.4103 327.541Z" fill="#E8E8E8"/>
<path d="M107.658 322.018C108.589 324.227 109.519 326.437 110.508 328.588C110.973 329.635 112.427 328.705 112.02 327.716C111.09 325.507 110.159 323.297 109.17 321.146C108.705 320.157 107.193 321.029 107.658 322.018Z" fill="#E8E8E8"/>
<path d="M54.9072 290.561C56.0122 292.363 57.0591 294.166 58.1641 295.91C58.7457 296.899 60.2578 295.969 59.6763 295.038C58.5712 293.236 57.5243 291.433 56.4193 289.689C55.8377 288.758 54.3256 289.631 54.9072 290.561Z" fill="#E8E8E8"/>
<path d="M64.9108 284.746C65.9577 287.072 67.0046 289.398 68.0514 291.724C68.5167 292.77 70.0289 291.84 69.5636 290.851C68.5167 288.526 67.4699 286.2 66.423 283.874C65.8995 282.827 64.4455 283.699 64.9108 284.746Z" fill="#E8E8E8"/>
<path d="M73.9251 279.164C75.4954 281.257 76.7168 283.525 77.531 285.967C77.88 287.014 79.5666 286.549 79.2177 285.502C78.3453 282.886 77.1239 280.443 75.4373 278.292C74.7975 277.42 73.2853 278.234 73.9251 279.164Z" fill="#E8E8E8"/>
<path d="M83.638 274.687C84.8593 276.548 86.0225 278.35 87.2438 280.211C87.8254 281.141 89.3376 280.269 88.756 279.339C87.5346 277.478 86.3715 275.675 85.1501 273.815C84.5104 272.884 82.9982 273.757 83.638 274.687Z" fill="#E8E8E8"/>
<path d="M174.077 159.383C168.435 157.639 168.144 151.65 170.82 147.172C173.437 142.811 178.497 141.648 182.452 145.254C185.709 148.277 185.999 153.452 182.975 156.767C179.951 160.139 175.007 160.081 171.518 157.522C170.645 156.825 169.773 158.336 170.645 159.034C175.065 162.29 181.521 161.767 184.836 157.174C188.268 152.522 187.046 146.009 182.219 142.87C170.587 135.369 160.584 156.999 173.611 161.069C174.716 161.418 175.182 159.732 174.077 159.383Z" fill="#E8E8E8"/>
<path d="M183.44 160.895C179.078 162.232 178.032 156.999 179.951 154.208C181.521 151.94 184.604 150.603 187.395 151.359C190.071 152.056 191.99 154.789 191.292 157.522C190.42 160.953 186.814 162.174 183.615 161.65C182.51 161.476 182.045 163.162 183.15 163.337C187.453 164.093 192.106 162.232 193.037 157.58C193.851 153.568 190.71 149.905 186.814 149.44C182.51 148.916 177.799 152.056 177.217 156.475C176.694 160.313 180.183 163.744 184.022 162.523C185.011 162.232 184.545 160.546 183.44 160.895Z" fill="#E8E8E8"/>
<path d="M146.335 198.748C144.939 201.597 146.916 204.447 149.824 205.203C152.034 205.784 154.361 205.261 156.629 205.377C159.072 205.493 161.514 206.075 163.724 207.063C168.61 209.273 171.75 213.285 171.925 218.692C172.099 223.228 170.762 227.938 172.739 232.24C176.927 241.311 188.442 234.392 194.375 240.265C199.318 245.207 197.283 254.22 203.913 257.999C204.901 258.581 205.774 257.069 204.785 256.487C198.853 253.115 200.249 244.335 196.061 239.451C193.851 236.892 190.652 236.194 187.395 235.962C183.441 235.729 178.322 236.543 175.414 233.171C172.041 229.217 173.844 223.286 173.67 218.634C173.553 214.971 172.332 211.657 169.773 209.04C167.505 206.772 164.539 205.203 161.456 204.388C159.886 203.981 158.257 203.691 156.629 203.633C154.535 203.516 145.462 204.563 147.905 199.62C148.37 198.632 146.858 197.76 146.335 198.748Z" fill="#E8E8E8"/>
<path d="M10.3568 512.621C20.8837 512.621 31.3524 512.621 41.8793 512.621C42.9844 512.621 42.9844 510.877 41.8793 510.877C31.3524 510.877 20.8837 510.877 10.3568 510.877C9.19358 510.877 9.19358 512.621 10.3568 512.621Z" fill="#E8E8E8"/>
<path d="M27.3392 552.044C47.5788 552.044 67.7602 552.044 87.9998 552.044C89.1048 552.044 89.1048 550.3 87.9998 550.3C67.7602 550.3 47.5788 550.3 27.3392 550.3C26.176 550.3 26.176 552.044 27.3392 552.044Z" fill="#E8E8E8"/>
<path d="M85.557 541.113C104.343 541.113 123.186 541.113 141.972 541.113C143.077 541.113 143.077 539.368 141.972 539.368C123.186 539.368 104.343 539.368 85.557 539.368C84.3938 539.368 84.3938 541.113 85.557 541.113Z" fill="#E8E8E8"/>
<path d="M398.399 538.089C407.879 535.763 417.417 535.53 427.071 537.042C431.143 537.682 435.272 538.321 439.401 537.972C443.414 537.623 447.311 536.402 451.208 535.356C455.628 534.135 460.048 533.204 464.701 533.553C469.47 533.902 474.064 535.239 478.717 536.286C482.73 537.216 486.801 537.856 490.931 537.798C495.293 537.682 499.596 536.926 503.842 536.286C515.474 534.425 526.408 535.588 537.924 537.507C539.029 537.682 539.494 535.995 538.389 535.821C529.083 534.309 519.72 532.739 510.24 533.669C500.353 534.658 491.163 537.1 481.16 535.065C472.785 533.379 464.817 530.762 456.209 532.39C451.615 533.262 447.253 534.891 442.658 535.763C437.54 536.751 432.597 536.17 427.479 535.356C417.533 533.844 407.704 533.96 397.875 536.402C396.887 536.693 397.352 538.379 398.399 538.089Z" fill="#E8E8E8"/>
<path d="M409.04 146.241C401.712 143.275 397.292 136.182 394.617 129.088C391.767 121.703 390.546 113.679 390.953 105.771C391.651 91.1765 397.874 76.4074 409.389 67.104C420.265 58.2658 436.376 55.7655 448.473 63.7897C461.093 72.1627 463.362 89.4322 463.478 103.329C463.594 118.796 459.988 135.019 448.531 146.125C447.717 146.881 448.938 148.16 449.752 147.346C460.628 136.763 464.757 121.645 465.165 106.876C465.572 92.3976 463.827 74.0816 451.904 64.1386C440.738 54.8352 424.162 55.3004 412.239 62.8594C399.037 71.2324 391.244 86.4086 389.557 101.701C388.51 111.179 389.673 121.006 393.163 129.96C396.129 137.519 400.84 144.729 408.633 147.869C409.622 148.334 410.029 146.648 409.04 146.241Z" fill="#161616"/>
<path d="M408.227 147.346C406.249 150.137 406.656 154.266 409.564 156.359C411.774 157.929 415.031 158.162 417.648 158.51C420.789 158.976 423.988 159.15 427.187 159.15C432.886 159.092 439.4 158.685 444.693 156.475C448.531 154.847 451.439 151.01 449.404 146.881C448.938 145.893 447.426 146.765 447.891 147.753C452.253 156.65 431.607 157.406 427.128 157.406C422.999 157.406 418.87 157.057 414.857 156.301C412.937 155.952 410.786 155.603 409.564 153.917C408.343 152.172 408.576 149.905 409.739 148.277C410.378 147.288 408.866 146.416 408.227 147.346Z" fill="#161616"/>
<path d="M410.088 156.766C410.088 159.673 410.146 162.639 410.495 165.546C410.669 166.883 410.96 168.046 412.065 168.86C413.636 170.023 416.253 169.965 418.114 170.14C421.255 170.372 424.453 170.372 427.594 170.256C430.56 170.14 433.526 169.907 436.492 169.616C438.237 169.442 440.215 169.5 441.552 168.163C444.518 165.255 444.577 159.731 443.82 156.068C443.588 154.963 441.901 155.429 442.134 156.533C442.541 158.51 442.657 160.487 442.25 162.522C441.669 165.372 440.854 167.232 437.656 167.814C433.933 168.511 429.746 168.511 425.965 168.57C422.243 168.628 418.056 168.802 414.392 167.93C411.018 167.116 411.891 159.557 411.891 156.766C411.833 155.661 410.088 155.661 410.088 156.766Z" fill="#161616"/>
<path d="M410.669 94.1429C417.648 98.5039 422.94 104.9 425.907 112.575C426.314 113.622 428 113.157 427.593 112.11C424.453 103.97 418.927 97.2246 411.599 92.6311C410.611 91.9915 409.738 93.5033 410.669 94.1429Z" fill="#161616"/>
<path d="M427.303 112.575C430.735 105.364 435.736 99.201 442.134 94.433C443.006 93.7934 442.134 92.2235 441.262 92.9212C434.631 97.8636 429.397 104.26 425.791 111.702C425.326 112.691 426.838 113.563 427.303 112.575Z" fill="#161616"/>
<path d="M425.907 110.54C426.779 122.518 427.186 134.496 427.012 146.475C427.012 147.579 428.757 147.579 428.757 146.475C428.931 134.496 428.524 122.46 427.652 110.54C427.535 109.377 425.791 109.377 425.907 110.54Z" fill="#161616"/>
<path d="M357.802 139.846C365.537 137.229 373.215 134.613 380.95 131.996C381.997 131.647 381.531 129.961 380.485 130.31C372.749 132.927 365.072 135.543 357.337 138.16C356.232 138.509 356.697 140.195 357.802 139.846Z" fill="#161616"/>
<path d="M366.642 128.217C369.318 127.461 371.993 126.647 374.668 125.891C375.715 125.6 375.308 123.914 374.203 124.204C371.528 124.96 368.852 125.774 366.177 126.53C365.13 126.879 365.537 128.565 366.642 128.217Z" fill="#161616"/>
<path d="M347.275 108.854C357.511 108.737 367.689 109.028 377.867 109.668C378.972 109.726 378.972 107.981 377.867 107.923C367.689 107.284 357.453 107.051 347.275 107.109C346.17 107.109 346.17 108.854 347.275 108.854Z" fill="#161616"/>
<path d="M368.91 100.946C371.353 101.586 373.854 101.877 376.355 101.935C377.46 101.935 377.46 100.19 376.355 100.19C373.97 100.132 371.644 99.8416 369.375 99.2601C368.27 98.9694 367.805 100.656 368.91 100.946Z" fill="#161616"/>
<path d="M365.13 46.8115C374.261 54.6612 382.578 63.2668 390.081 72.6865C390.779 73.5587 392 72.3376 391.302 71.4654C383.8 62.0458 375.483 53.382 366.352 45.5904C365.538 44.8345 364.258 46.0556 365.13 46.8115Z" fill="#161616"/>
<path d="M390.663 63.3255C392.233 64.9536 393.745 66.5816 395.315 68.2679C396.072 69.0819 397.293 67.8609 396.537 67.0468C394.967 65.4187 393.454 63.7906 391.884 62.1044C391.128 61.2904 389.907 62.5114 390.663 63.3255Z" fill="#161616"/>
<path d="M355.243 66.5811C358.092 68.2673 361 69.8373 363.967 71.2909C364.955 71.8142 365.828 70.3024 364.839 69.7791C361.873 68.2673 358.965 66.6974 356.115 65.0693C355.126 64.4878 354.254 65.9996 355.243 66.5811Z" fill="#161616"/>
<path d="M456.44 53.324C465.048 44.7184 473.655 36.1127 482.263 27.5071C483.077 26.6931 481.798 25.472 481.042 26.286C472.434 34.8917 463.826 43.4973 455.219 52.1029C454.404 52.917 455.626 54.1381 456.44 53.324Z" fill="#161616"/>
<path d="M465.106 57.3362C467.316 55.7081 469.526 54.1382 471.737 52.5101C472.609 51.8705 471.795 50.3587 470.864 50.9983C468.654 52.6264 466.444 54.1963 464.234 55.8244C463.303 56.464 464.176 57.9758 465.106 57.3362Z" fill="#161616"/>
<path d="M429.571 41.9275C431.316 33.4963 432.653 25.0069 433.468 16.4594C433.584 15.3547 431.839 15.3547 431.723 16.4594C430.909 24.8325 429.629 33.2055 427.884 41.4623C427.652 42.5671 429.338 43.0322 429.571 41.9275Z" fill="#161616"/>
<path d="M478.484 95.4215C494.303 93.9678 510.064 92.5141 525.884 91.0605C526.989 90.9442 526.989 89.1998 525.884 89.3161C510.064 90.7698 494.303 92.2234 478.484 93.6771C477.379 93.7352 477.32 95.4796 478.484 95.4215Z" fill="#161616"/>
<path d="M412.007 149.44C421.836 151.591 431.839 151.533 441.61 149.323C442.715 149.091 442.25 147.405 441.145 147.637C431.665 149.789 421.952 149.847 412.472 147.753C411.367 147.521 410.902 149.207 412.007 149.44Z" fill="#161616"/>
<path d="M413.461 164.209C420.963 165.197 428.466 165.43 436.027 164.907C437.132 164.849 437.132 163.104 436.027 163.162C428.466 163.686 420.963 163.453 413.461 162.465C412.356 162.348 412.356 164.093 413.461 164.209Z" fill="#161616"/>
<path d="M467.492 143.567C479.298 151.882 491.337 159.906 503.551 167.639C504.481 168.221 505.354 166.709 504.423 166.127C492.21 158.394 480.17 150.37 468.364 142.055C467.433 141.415 466.561 142.927 467.492 143.567Z" fill="#161616"/>
<path d="M318.893 552.567C307.842 566.115 296.85 579.605 285.8 593.153C298.769 638.74 306.098 650.718 310.46 650.078C313.6 649.613 315.112 642.81 316.799 635.193C320.986 616.179 318.486 599.84 315.927 589.665C322.906 581.873 329.827 574.023 336.806 566.232C330.815 561.696 324.883 557.161 318.893 552.567Z" fill="#161616" stroke="#161616" stroke-width="2" stroke-miterlimit="10"/>
<path d="M278.123 482.792C285.044 488.141 291.675 486.223 305.4 488.548C317.09 490.525 330.234 494.886 344.193 503.608C329.304 521.052 314.415 539.484 299.642 558.905C296.095 563.615 292.547 568.325 289.116 573.035C294.815 574.372 301.678 576.465 309.122 579.838C316.392 583.094 322.325 586.757 327.036 590.071C349.194 570.767 368.969 552.102 386.591 534.484C394.733 526.343 406.249 513.9 408.052 496.282C408.168 495.293 408.168 494.421 408.168 493.549C407.761 464.301 370.946 443.136 348.555 435.345C324.069 426.855 281.962 422.262 270.214 442.555C263.293 454.533 267.364 474.477 278.123 482.792Z" fill="#00B8C5"/>
<path opacity="0.26" d="M321.103 453.545C320.696 459.069 319.708 465.639 317.672 472.908C316.218 478.083 314.473 482.676 312.728 486.572C310.809 487.328 308.948 488.084 307.029 488.84C319.533 493.782 332.096 498.725 344.6 503.667C335.294 514.308 325.931 525.472 316.509 537.101C306.796 549.079 297.549 560.825 288.767 572.396C294.99 574.431 301.155 576.466 307.378 578.443C329.653 553.905 351.928 529.309 374.203 504.772C376.53 498.085 376.413 492.852 375.715 489.189C372.517 471.28 350.59 456.685 321.103 453.545Z" fill="#6D6C6C"/>
<path opacity="0.23" d="M344.483 503.55C346.519 506.632 348.496 509.771 350.532 512.853C333.2 533.728 315.869 554.544 298.537 575.418C295.455 574.604 292.314 573.732 289.231 572.918C300.34 557.684 312.321 542.043 325.29 526.285C331.746 518.435 338.144 510.876 344.483 503.55Z" fill="#6D6C6C"/>
<path d="M286.616 530.471C303.773 533.611 320.988 536.692 338.145 539.832C357.978 583.093 360.188 597.048 356.466 599.432C353.79 601.118 348.207 596.932 341.984 592.222C326.397 580.418 317.731 566.347 313.02 556.869C302.668 555.474 292.315 554.02 281.963 552.624C283.475 545.24 285.045 537.855 286.616 530.471Z" fill="#161616" stroke="#161616" stroke-width="2" stroke-miterlimit="10"/>
<path d="M251.254 434.123C219.964 443.31 200.888 462.382 188.616 474.942C172.041 491.979 151.685 512.853 157.559 528.262C160.583 536.112 169.772 540.938 212.578 548.38C244.915 554.021 272.948 557.044 294.816 558.73C297.549 548.729 300.283 538.786 302.958 528.785C280.974 521.691 259.048 514.656 237.063 507.562C250.556 504.713 264.747 501.34 279.52 497.212C290.745 494.072 301.446 490.816 311.624 487.385C321.046 468.371 323.081 447.846 313.252 436.216C299.527 419.935 268.76 428.948 251.254 434.123Z" fill="#00B8C5"/>
<path opacity="0.29" d="M320.871 454.241C320.581 459.998 319.592 467.382 316.917 475.523C315.288 480.465 313.427 484.768 311.566 488.315C309.996 488.431 308.425 488.606 306.855 488.722C293.595 493.083 279.462 497.211 264.515 501.049C254.86 503.549 245.438 505.701 236.307 507.677C258.35 514.597 280.392 521.458 302.435 528.377C301.97 530.761 301.388 533.262 300.69 535.878C299.876 538.902 298.945 541.693 298.073 544.251C267.655 536.75 237.238 529.25 206.82 521.749C205.424 520.063 200.83 513.957 201.528 505.875C202.284 497.095 210.659 490.873 221.36 485.175C252.301 468.778 304.18 457.672 320.871 454.241Z" fill="#6D6C6C"/>
<path opacity="0.24" d="M220.662 508.899C226.187 508.492 231.771 508.085 237.296 507.62C258.989 514.83 280.683 522.098 302.376 529.309C301.446 532.739 300.515 536.228 299.585 539.659C273.297 529.367 246.95 519.133 220.662 508.899Z" fill="#6D6C6C"/>
<path d="M243.054 302.364C251.661 297.305 266.608 290.095 286.499 288.002C316.975 284.804 340.355 295.735 349.602 300.678C347.916 323.529 345.298 341.787 343.205 354.347C340.704 369.349 338.668 377.663 337.738 391.444C336.574 408.713 338.028 422.901 339.366 432.205C329.246 435.344 313.95 438.775 295.107 438.368C276.961 437.961 262.305 434.007 252.476 430.576C255.093 409.76 254.22 393.247 252.941 382.024C251.487 369.523 249.509 363.418 247.125 348.3C244.042 328.762 243.228 312.772 243.054 302.364Z" fill="white" stroke="#161616" stroke-width="2" stroke-miterlimit="10"/>
<path opacity="0.14" d="M305.983 294.921C307.204 299.34 308.6 305.446 309.531 312.772C310.17 317.714 312.787 340.101 304.645 369.639C299.643 387.839 294.351 407.085 277.019 422.901C271.436 428.018 266.027 431.448 262.072 433.6C270.854 435.867 282.312 438.019 295.863 438.135C313.602 438.31 328.258 435.112 338.436 431.972C337.854 427.611 337.098 421.04 336.807 413.132C336.575 406.213 336.575 395.165 341.344 364.057C345.124 339.577 347.8 329.053 349.137 306.899C349.312 304.341 349.37 302.189 349.486 300.736C345.241 298.235 339.715 295.503 332.911 293.293C326.63 291.258 320.988 290.211 316.335 289.746C312.962 291.432 309.472 293.177 305.983 294.921Z" fill="#6D6C6C"/>
<path opacity="0.17" d="M347.8 310.214C344.543 328.646 340.239 343.532 336.866 353.882C326.978 384.118 320.057 404.469 301.388 419.354C289.814 428.599 277.775 432.495 270.04 434.356C277.892 436.565 289 438.717 302.435 438.426C317.906 438.077 330.41 434.588 338.61 431.623C337.505 424.529 336.226 413.888 336.575 400.922C336.982 384.118 339.715 374 342.74 355.568C344.426 344.753 346.578 329.286 347.8 310.214Z" fill="#6D6C6C"/>
<path d="M242.705 302.073C235.144 307.306 225.432 315.563 216.94 327.832C197.806 355.626 198.329 385.106 199.085 395.979C202.575 405.341 208.565 417.61 219.034 429.646C225.141 436.682 234.097 446.799 249.393 453.311C254.511 455.521 258.99 456.742 262.247 457.44C265.038 454.94 267.772 452.439 270.564 449.939C261.607 439.473 252.592 428.483 243.577 417.145C236.656 408.481 230.026 399.875 223.629 391.386C223.861 384.234 225.373 371.267 233.167 357.719C237.587 350.044 242.763 344.462 246.893 340.682C245.497 327.832 244.101 314.982 242.705 302.073Z" fill="white" stroke="#161616" stroke-width="2" stroke-miterlimit="10"/>
<path opacity="0.13" d="M243.81 315.04C227.06 333.938 219.092 351.847 215.137 363.127C208.216 382.664 209.67 392.898 210.717 397.782C211.589 401.62 213.509 408.19 220.546 418.191C226.653 426.855 239.506 442.38 263.991 455.172C266.143 453.079 268.295 451.044 270.447 448.951C263.526 441.159 256.547 432.961 249.51 424.413C240.262 413.191 231.655 402.143 223.687 391.328C223.919 385.455 224.908 377.256 228.339 368.069C233.516 354.289 241.658 345.218 246.718 340.392C245.671 331.961 244.74 323.529 243.81 315.04Z" fill="#6D6C6C"/>
<path opacity="0.16" d="M223.629 392.084C224.676 398.887 226.828 407.551 231.364 416.912C241.368 437.263 257.013 448.486 264.98 453.37C266.551 451.974 268.063 450.637 269.633 449.242C254.279 430.17 238.983 411.098 223.629 392.084Z" fill="#6D6C6C"/>
<path d="M350.474 301.026C358.965 306.201 369.899 314.284 379.379 326.32C400.898 353.59 400.258 382.547 399.444 393.246C395.489 402.433 388.801 414.47 377.053 426.331C370.19 433.193 360.128 443.136 342.971 449.59C337.213 451.741 332.153 452.962 328.489 453.66C325.407 451.218 322.266 448.776 319.184 446.334C329.187 436.042 339.365 425.285 349.485 414.121C357.22 405.573 364.665 397.142 371.876 388.827C371.586 381.85 369.957 369.116 361.175 355.742C356.173 348.183 350.415 342.717 345.763 338.996C347.391 326.32 348.961 313.702 350.474 301.026Z" fill="white" stroke="#161616" stroke-width="2" stroke-miterlimit="10"/>
<path opacity="0.16" d="M350.067 315.156C357.453 322.89 367.515 335.275 375.366 352.544C379.089 360.743 385.137 374.058 385.253 386.618C385.661 424.82 331.572 451.102 328.431 452.614C325.349 450.637 322.325 448.718 319.242 446.741C336.748 427.553 354.196 408.365 371.702 389.176C371.353 382.897 369.899 371.209 362.92 358.766C357.162 348.532 350.009 341.903 345.298 338.24C346.926 330.565 348.497 322.89 350.067 315.156Z" fill="#6D6C6C"/>
<path opacity="0.12" d="M372.284 389.351C371.411 394.409 369.957 399.933 367.689 405.632C357.453 431.448 336.748 445.578 326.279 451.625C323.779 449.997 321.336 448.369 318.835 446.741C336.632 427.611 354.429 408.481 372.284 389.351Z" fill="#6D6C6C"/>
<path d="M363.851 393.653H220.836V484.187H363.851V393.653Z" fill="white" stroke="#161616" stroke-width="2" stroke-miterlimit="10"/>
<path d="M290.278 447.555C282.717 448.485 279.053 439.298 281.031 433.193C282.95 427.146 290.104 424.297 295.92 426.39C301.677 428.483 304.469 435.519 302.433 441.159C300.165 447.439 292.255 449.997 286.439 447.206C285.451 446.741 284.52 448.253 285.567 448.718C290.743 451.218 297.083 450.288 301.212 446.218C305.225 442.206 305.807 435.868 303.306 430.925C297.606 419.645 279.984 423.25 278.762 435.635C278.123 442.264 282.892 450.23 290.278 449.357C291.383 449.183 291.383 447.439 290.278 447.555Z" fill="#161616"/>
<path opacity="0.14" d="M274.518 393.42C293.885 400.165 307.087 417.434 307.494 435.983C308.018 459.242 288.476 481.105 261.839 483.314C295.746 483.605 329.653 483.896 363.618 484.186C363.502 453.834 363.444 423.482 363.327 393.188C333.724 393.188 304.121 393.304 274.518 393.42Z" fill="#6D6C6C"/>
<path opacity="0.26" d="M363.617 393.13C363.094 411.62 359.43 426.041 356.347 435.518C351.811 449.299 348.554 459.358 339.19 468.255C326.453 480.465 310.576 482.733 303.597 483.314C323.429 483.489 343.262 483.663 363.094 483.896C363.152 466.627 363.268 449.357 363.385 432.03C363.385 419.063 363.501 406.096 363.617 393.13Z" fill="#6D6C6C"/>
<path d="M288.127 255.44C284.928 259.335 288.011 264.103 287.429 276.837C287.138 283.175 286.092 288.292 285.277 291.723C288.011 293.002 292.838 294.805 299.061 294.979C306.738 295.153 312.554 292.769 315.404 291.374C314.125 288.816 312.438 284.862 311.391 279.745C308.774 266.72 313.427 260.615 309.588 255.789C305.11 250.206 292.431 250.148 288.127 255.44Z" fill="white" stroke="#161616" stroke-width="2" stroke-miterlimit="10"/>
<path d="M267.83 199.503C264.166 208.923 265.562 217.412 266.376 221.076C266.027 221.134 259.222 222.587 257.361 227.821C255.5 233.112 259.338 240.613 267.364 243.055C270.272 250.149 277.31 263.871 292.141 271.372C294.641 272.593 297.026 273.582 299.41 274.279C301.562 273.465 304.47 272.186 307.785 270.267C318.138 264.278 323.896 256.836 325.233 255.033C327.676 251.777 330.991 246.544 333.318 239.334C334.597 239.566 336.865 239.682 339.075 238.578C344.077 236.019 346.578 228.053 343.088 222.878C340.18 218.575 334.539 218.401 333.841 218.401C334.597 215.377 336.923 204.504 331.049 193.747C324.303 181.362 309.821 174.849 296.212 176.71C276.088 179.327 268.179 198.573 267.83 199.503Z" fill="white" stroke="#161616" stroke-width="2" stroke-miterlimit="10"/>
<path d="M287.371 270.849C290.919 272.942 294.816 276.198 299.177 275.849C302.783 275.559 306.796 273.465 309.53 271.256C310.402 270.558 309.181 269.337 308.309 270.035C305.75 272.07 301.62 274.221 298.247 274.163C294.699 274.105 291.093 271.139 288.185 269.337C287.313 268.755 286.441 270.267 287.371 270.849Z" fill="#161616"/>
<path d="M287.139 271.604C290.454 274.453 294.234 277.652 298.887 277.419C303.423 277.186 307.669 274.163 310.635 270.907C311.391 270.092 310.17 268.871 309.414 269.685C306.855 272.476 303.249 275.209 299.294 275.616C294.932 276.023 291.442 273.058 288.36 270.383C287.546 269.627 286.324 270.848 287.139 271.604Z" fill="#161616"/>
<path d="M289.349 271.953C289.349 271.895 289.349 271.895 289.349 271.953C289 271.43 288.36 271.313 287.953 271.72C287.953 271.72 287.953 271.72 287.895 271.779C287.546 272.069 287.546 272.709 287.895 273C294.292 279.105 306.04 281.082 310.635 271.72C311.1 270.732 309.646 269.802 309.123 270.848C305.052 279.221 294.757 277.186 289.174 271.779C289.174 272.186 289.174 272.593 289.174 273C289.174 273 289.174 273 289.232 272.942C288.767 272.883 288.302 272.825 287.836 272.767V272.825C288.418 273.756 289.93 272.883 289.349 271.953Z" fill="#161616"/>
<path d="M296.328 218.168C295.572 227.587 295.979 236.949 297.491 246.252C297.549 246.717 298.131 247.008 298.538 246.834C300.806 246.078 302.435 244.74 303.656 242.705C304.237 241.717 302.725 240.845 302.144 241.833C301.155 243.519 299.934 244.508 298.072 245.147C298.421 245.322 298.77 245.555 299.119 245.729C297.607 236.6 297.258 227.355 298.014 218.11C298.189 217.005 296.444 217.005 296.328 218.168Z" fill="#161616"/>
<path d="M285.975 227.413C286.092 227.936 286.964 231.192 285.975 231.716C284.987 232.239 282.195 230.146 281.323 227.413C280.625 225.087 281.206 222.18 282.311 221.947C283.474 221.656 285.277 224.854 285.975 227.413Z" fill="#161616" stroke="#161616" stroke-miterlimit="10"/>
<path d="M315.985 227.413C316.101 227.936 316.974 231.192 315.985 231.716C314.996 232.239 312.205 230.146 311.332 227.413C310.634 225.087 311.216 222.18 312.321 221.947C313.484 221.656 315.287 224.854 315.985 227.413Z" fill="#161616" stroke="#161616" stroke-miterlimit="10"/>
<path d="M294.233 253.928C301.329 256.951 307.785 252.707 313.019 248.113C313.891 247.357 312.612 246.136 311.798 246.892C307.261 250.846 301.445 255.091 295.164 252.416C294.059 252.009 293.187 253.521 294.233 253.928Z" fill="#161616"/>
<path d="M314.706 236.659C315.811 236.659 315.811 234.914 314.706 234.914C313.601 234.914 313.601 236.659 314.706 236.659Z" fill="#161616"/>
<path d="M321.162 233.402C321.22 233.344 321.278 233.286 321.336 233.228C321.685 232.879 321.685 232.356 321.336 232.007C320.987 231.658 320.464 231.658 320.115 232.007C320.057 232.065 319.999 232.123 319.94 232.181C319.591 232.53 319.591 233.053 319.94 233.402C320.289 233.751 320.813 233.751 321.162 233.402Z" fill="#161616"/>
<path d="M319.243 237.647C319.301 237.647 319.359 237.647 319.417 237.647C319.882 237.647 320.289 237.24 320.289 236.775C320.289 236.309 319.882 235.902 319.417 235.902C319.359 235.902 319.301 235.902 319.243 235.902C318.777 235.902 318.37 236.309 318.37 236.775C318.37 237.24 318.719 237.647 319.243 237.647Z" fill="#161616"/>
<path d="M279.113 217.005C281.323 215.145 284.58 215.086 286.79 216.889C287.662 217.587 288.883 216.366 288.011 215.668C284.987 213.226 280.799 213.226 277.833 215.784C277.019 216.482 278.298 217.703 279.113 217.005Z" fill="#161616"/>
<path d="M307.494 216.366C309.995 214.156 313.543 213.749 316.509 215.319C317.498 215.842 318.37 214.331 317.381 213.807C313.717 211.83 309.355 212.354 306.273 215.145C305.4 215.901 306.622 217.122 307.494 216.366Z" fill="#161616"/>
<path d="M279.577 236.485C280.682 236.485 280.682 234.74 279.577 234.74C278.472 234.74 278.472 236.485 279.577 236.485Z" fill="#161616"/>
<path d="M285.743 235.67C286.848 235.67 286.848 233.926 285.743 233.926C284.638 233.926 284.638 235.67 285.743 235.67Z" fill="#161616"/>
<path d="M282.66 237.008C282.602 237.066 282.544 237.124 282.485 237.182C282.136 237.531 282.136 238.054 282.485 238.403C282.834 238.752 283.358 238.752 283.707 238.403C283.765 238.345 283.823 238.287 283.881 238.229C284.23 237.88 284.23 237.357 283.881 237.008C283.532 236.659 283.009 236.659 282.66 237.008Z" fill="#161616"/>
<path d="M277.309 180.606C273.82 182.757 266.201 187.467 261.025 197.119C255.848 206.713 255.907 215.784 256.139 219.68C247.648 234.972 243.809 248.462 241.948 257.649C238.924 272.244 240.552 277.594 242.646 281.14C247.764 289.862 258.058 292.014 260.559 292.537C273.413 295.27 283.649 288.7 285.975 287.188C286.615 285.269 287.255 282.885 287.604 280.21C288.243 275.617 287.894 271.663 287.371 268.814C284.463 266.43 281.09 263.231 277.833 259.045C272.889 252.649 270.098 246.369 268.527 241.834C263.409 241.31 259.571 237.822 259.222 233.926C258.873 230.263 261.432 225.553 264.805 225.553C267.306 225.553 269.109 228.111 269.458 228.576C271.377 227.472 274.052 225.553 276.437 222.529C279.868 218.168 280.45 214.272 282.02 210.202C283.532 206.248 286.44 200.782 292.722 195.084C298.77 197.236 303.597 199.329 306.913 200.899C317.556 205.841 323.604 208.749 328.315 215.086C330.933 218.575 332.27 222.006 332.968 224.157C338.377 220.029 340.587 221.134 341.052 221.366C344.484 223.285 344.367 233.81 339.017 236.717C336.981 237.822 334.655 237.531 333.201 237.182C331.514 243.055 327.792 252.649 319.242 261.138C316.393 263.987 313.485 266.197 310.867 267.883C310.635 270.035 310.518 273 311.1 276.489C311.624 279.687 312.554 282.303 313.426 284.164C327.559 293.467 345.123 291.781 354.662 281.78C363.153 272.826 363.153 259.278 359.954 250.032C357.046 241.601 351.405 236.542 348.613 234.333C349.369 231.077 353.557 211.772 341.401 194.038C338.261 189.444 329.479 178.338 313.659 174.5C296.909 170.43 283.125 177.059 277.309 180.606Z" fill="#FFA745"/>
<path opacity="0.17" d="M314.182 204.504C320.754 212.761 322.499 220.378 323.08 224.332C325.465 240.962 315.81 254.451 310.925 261.371C306.912 267.011 302.783 271.023 299.816 273.64C302.375 280.501 304.876 287.304 307.435 294.165C310.053 293.293 312.67 292.421 315.287 291.549C314.066 289.397 312.786 286.723 311.797 283.466C309.994 277.652 309.878 272.535 310.053 269.046C313.251 266.778 316.974 263.697 320.579 259.626C327.791 251.486 331.397 243.113 333.258 237.473C334.421 237.705 336.922 237.996 339.307 236.659C344.309 233.81 343.494 226.716 343.436 226.251C343.262 224.739 342.913 222.297 341.168 221.308C339.132 220.203 335.759 221.25 333.084 224.39C332.27 221.541 329.943 214.97 323.662 209.737C320.172 206.83 316.625 205.318 314.182 204.504Z" fill="#6D6C6C"/>
<path opacity="0.19" d="M297.142 218.692C296.793 218.634 295.63 223.692 292.082 246.021C294.118 246.021 296.153 246.021 298.189 246.021C297.782 243.055 297.316 238.752 297.084 233.519C296.793 224.565 297.491 218.75 297.142 218.692Z" fill="#6D6C6C"/>
<path opacity="0.54" d="M348.263 234.915C347.275 235.496 350.997 240.497 350.474 247.94C350.299 250.265 349.95 255.557 345.763 259.104C345.472 259.336 339.249 264.453 333.084 261.197C329.42 259.278 327.21 255.208 327.326 250.789C325.581 254.045 322.731 258.348 318.253 262.534C315.461 265.151 312.728 267.07 310.343 268.523C310.169 271.082 310.169 274.57 311.099 278.524C311.623 280.676 312.263 282.536 312.902 284.048C314.705 285.211 317.381 286.781 320.87 288.002C323.08 288.758 335.236 293.003 347.1 287.13C349.194 286.083 353.847 283.699 357.22 278.583C357.627 277.943 359.139 275.675 360.244 271.838C364.199 258.697 358.383 246.835 357.86 245.846C354.661 239.392 349.485 234.217 348.263 234.915Z" fill="#CD7E25"/>
<path opacity="0.35" d="M268.469 242.067C267.946 242.125 269.109 246.893 267.83 251.603C266.899 255.091 263.933 260.79 258.873 261.953C253.581 263.116 247.009 259.22 243.984 251.952C242.588 255.15 240.727 260.266 240.437 266.779C240.262 271.024 240.029 275.559 242.123 280.036C246.834 290.037 260.676 293.933 270.97 293.003C277.833 292.363 283.009 289.688 285.801 287.886C286.499 285.909 287.197 283.525 287.662 280.792C288.418 276.082 288.244 271.954 287.837 268.93C283.242 265.616 280.101 262.185 278.124 259.685C275.332 256.138 271.552 251.37 269.633 244.741C269.342 243.986 268.818 242.009 268.469 242.067Z" fill="#CD7E25"/>
</svg>
