<svg width="81" height="95" viewBox="0 0 81 95" fill="none" xmlns="http://www.w3.org/2000/svg">
<path d="M59.0344 22.9899C59.0344 33.5748 50.4537 42.1555 39.8688 42.1555C29.2839 42.1555 20.7031 33.5748 20.7031 22.9899C20.7031 12.405 29.2839 3.82422 39.8688 3.82422C50.4537 3.82422 59.0344 12.405 59.0344 22.9899Z" fill="#F3F9FA"/>
<path fill-rule="evenodd" clip-rule="evenodd" d="M39.8659 6.68852C30.8629 6.68852 23.5645 13.9869 23.5645 22.9899C23.5645 31.9929 30.8629 39.2913 39.8659 39.2913C48.8689 39.2913 56.1672 31.9929 56.1672 22.9899C56.1672 13.9869 48.8689 6.68852 39.8659 6.68852ZM17.8359 22.9899C17.8359 10.8231 27.6991 0.959961 39.8659 0.959961C52.0326 0.959961 61.8958 10.8231 61.8958 22.9899C61.8958 35.1567 52.0326 45.0198 39.8659 45.0198C27.6991 45.0198 17.8359 35.1567 17.8359 22.9899Z" fill="#008193"/>
<path d="M77.2488 85.8632L77.2488 78.9686C77.2488 58.4276 60.597 41.7759 40.056 41.7759C19.515 41.7759 2.86329 58.4276 2.86328 78.9686L2.86328 85.8632C2.86328 89.2867 5.63857 92.062 9.06207 92.062H15.2609H64.8512L71.05 92.0621C74.4735 92.062 77.2488 89.2867 77.2488 85.8632Z" fill="#F3F9FA"/>
<path fill-rule="evenodd" clip-rule="evenodd" d="M0 79.348C0 57.2061 18.144 39.291 40.2477 39.291C57.7975 39.291 72.8091 50.6852 78.0902 66.4852C78.5917 67.9855 77.782 69.6083 76.2816 70.1098C74.7813 70.6112 73.1586 69.8015 72.6571 68.3012C68.1378 54.7803 55.2731 45.0196 40.2477 45.0196C21.2696 45.0196 5.72856 60.408 5.72856 79.348V85.8631C5.72856 87.7047 7.22147 89.1976 9.06307 89.1976H39.1082C40.6901 89.1976 41.9725 90.48 41.9725 92.0619C41.9725 93.6438 40.6901 94.9261 39.1082 94.9261H9.06307C4.05767 94.9261 0 90.8685 0 85.8631V79.348Z" fill="#008193"/>
<path fill-rule="evenodd" clip-rule="evenodd" d="M80.1953 79.348C80.1953 57.2061 62.0513 39.291 39.9476 39.291C22.3978 39.291 7.38619 50.6852 2.10511 66.4852C1.60364 67.9855 2.41335 69.6083 3.91366 70.1098C5.41397 70.6112 7.03674 69.8015 7.53821 68.3012C12.0575 54.7803 24.9222 45.0196 39.9476 45.0196C58.9257 45.0196 74.4668 60.408 74.4668 79.348V85.8631C74.4668 87.7047 72.9738 89.1976 71.1322 89.1976H64.9332C63.3513 89.1976 62.0689 90.48 62.0689 92.0619C62.0689 93.6438 63.3513 94.9261 64.9332 94.9261H71.1322C76.1376 94.9261 80.1953 90.8685 80.1953 85.8631V79.348Z" fill="#008193"/>
<path d="M49.9232 92.0622C49.9232 93.6342 48.6489 94.9086 47.0769 94.9086C45.5048 94.9086 44.2305 93.6342 44.2305 92.0622C44.2305 90.4902 45.5048 89.2158 47.0769 89.2158C48.6489 89.2158 49.9232 90.4902 49.9232 92.0622Z" fill="#008193"/>
</svg>
