<svg width="32" height="23" viewBox="0 0 32 23" fill="none" xmlns="http://www.w3.org/2000/svg">
<g clip-path="url(#clip0_4832_88382)">
<path d="M0 3.27215C0 1.75732 1.19391 0.529297 2.66667 0.529297H29.3333C30.8061 0.529297 32 1.75732 32 3.27215V19.7293C32 21.2441 30.8061 22.4722 29.3333 22.4722H2.66667C1.19391 22.4722 0 21.2441 0 19.7293V3.27215Z" fill="#D8E3F3"/>
<path d="M27.5351 7.41211H25.8587C25.3519 7.41211 24.962 7.57251 24.7281 8.09381L21.5312 15.5926H23.7925C23.7925 15.5926 24.1823 14.5901 24.2603 14.3495C24.4942 14.3495 26.7164 14.3495 27.0283 14.3495C27.1063 14.6302 27.3012 15.5525 27.3012 15.5525H29.3285L27.5351 7.41211ZM24.8841 12.6652C25.079 12.184 25.7418 10.3795 25.7418 10.3795C25.7418 10.4196 25.9367 9.89832 26.0147 9.61762L26.1706 10.3394C26.1706 10.3394 26.5995 12.3043 26.6774 12.7053H24.8841V12.6652Z" fill="#3362AB"/>
<path d="M21.691 12.9051C21.691 14.5893 20.2095 15.7121 17.9093 15.7121C16.9347 15.7121 15.999 15.5116 15.4922 15.271L15.8041 13.4264L16.077 13.5467C16.7787 13.8675 17.2466 13.9878 18.1043 13.9878C18.7281 13.9878 19.3908 13.7472 19.3908 13.1858C19.3908 12.8249 19.1179 12.5842 18.2602 12.1832C17.4415 11.7822 16.3499 11.1406 16.3499 9.97773C16.3499 8.37372 17.8704 7.29102 20.0146 7.29102C20.8333 7.29102 21.5351 7.45142 21.9639 7.65192L21.652 9.41633L21.4961 9.25593C21.1062 9.09553 20.5994 8.93513 19.8587 8.93513C19.0399 8.97523 18.6501 9.33613 18.6501 9.65693C18.6501 10.0178 19.1179 10.2985 19.8587 10.6594C21.1062 11.2609 21.691 11.9426 21.691 12.9051Z" fill="#3362AB"/>
<path d="M2.66406 7.49243L2.70305 7.33203H6.05588C6.52371 7.33203 6.87459 7.49243 6.99155 8.01374L7.73229 11.6228C6.99155 9.69795 5.27615 8.13404 2.66406 7.49243Z" fill="#F9B50B"/>
<path d="M12.446 7.41119L9.0542 15.5515H6.75401L4.80469 8.7345C6.2082 9.65681 7.37779 11.1004 7.80664 12.1029L8.04056 12.945L10.1458 7.37109H12.446V7.41119Z" fill="#3362AB"/>
<path d="M13.3489 7.37109H15.4931L14.1286 15.5515H11.9844L13.3489 7.37109Z" fill="#3362AB"/>
</g>
<defs>
<clipPath id="clip0_4832_88382">
<rect width="32" height="21.9429" fill="white" transform="translate(0 0.529297)"/>
</clipPath>
</defs>
</svg>
