<svg width="56" height="57" viewBox="0 0 56 57" fill="none" xmlns="http://www.w3.org/2000/svg">
<rect width="56" height="56" transform="translate(0 0.5)" fill="white"/>
<ellipse cx="27.9986" cy="28.5025" rx="19.7877" ry="19.7877" fill="#E2F1F3"/>
<path d="M42.0316 34.5341C41.8455 34.2861 41.4114 34.1 40.7292 33.7279C40.047 33.4178 36.76 31.8053 36.1398 31.5573C35.5197 31.3092 35.0855 31.2472 34.6514 31.8673C34.2173 32.5495 32.9149 34.038 32.5428 34.4721C32.1707 34.9062 31.7366 34.9682 31.1164 34.6582C30.4342 34.3481 28.2636 33.6039 25.7208 31.3712C23.7362 29.6347 22.3718 27.4021 21.9997 26.7819C21.6276 26.0997 21.9377 25.7276 22.3098 25.4175C22.6199 25.1074 22.992 24.6112 23.3021 24.2391C23.6122 23.867 23.7362 23.5569 23.9843 23.1228C24.2324 22.6887 24.1084 22.3166 23.9223 21.9445C23.7362 21.6344 22.4339 18.3474 21.8757 16.983C21.3175 15.6807 20.7594 15.8667 20.3873 15.8667C20.0152 15.8667 19.519 15.8047 19.0849 15.8047C18.6508 15.8047 17.9066 15.9907 17.2864 16.6109C16.6662 17.2931 14.9297 18.9056 14.9297 22.1925C14.9297 25.4795 17.3484 28.6424 17.6585 29.0765C17.9686 29.5107 22.3098 36.4567 29.1318 39.1235C35.9538 41.7902 35.9538 40.922 37.1942 40.7979C38.4345 40.6739 41.1633 39.1855 41.7215 37.635C42.2176 36.1466 42.2176 34.8442 42.0316 34.5341Z" fill="#00B8C5"/>
<path fill-rule="evenodd" clip-rule="evenodd" d="M50.9007 24.0653C50.2006 24.2404 49.4911 23.8149 49.3159 23.1148C48.7665 20.9188 47.8868 18.8533 46.7322 16.9739C46.3544 16.3589 46.5466 15.5542 47.1615 15.1764C47.7764 14.7987 48.5812 14.9909 48.959 15.6058C50.2508 17.7086 51.2359 20.021 51.8512 22.4804C52.0264 23.1805 51.6009 23.8901 50.9007 24.0653ZM49.401 37.7478C50.046 38.0716 50.3064 38.8569 49.9826 39.5019C45.9398 47.5551 37.6033 53.0866 27.9726 53.0866C22.9963 53.0866 18.3616 51.6084 14.488 49.0673C12.8875 49.5633 11.3979 50.0644 10.2687 50.4562C9.63552 50.6759 9.11694 50.8608 8.75735 50.9905C8.57757 51.0554 8.43761 51.1064 8.343 51.1411C8.2957 51.1584 8.25974 51.1716 8.23582 51.1804L8.20116 51.1933L8.20087 51.1934C7.74331 51.3633 7.22917 51.2641 6.86771 50.9361C6.50626 50.608 6.35776 50.1059 6.48267 49.634L7.74589 49.9684C6.48267 49.634 6.48265 49.6341 6.48267 49.634L6.48275 49.6337L6.49312 49.5948C6.49981 49.5697 6.50968 49.5328 6.52262 49.4848C6.54848 49.3888 6.58659 49.2483 6.63604 49.0682C6.73493 48.7082 6.87922 48.1901 7.06162 47.5549C7.38303 46.4358 7.82355 44.9505 8.34313 43.3248C5.21544 39.197 3.359 34.0501 3.359 28.473C3.359 14.8793 14.3789 3.85937 27.9726 3.85937C35.1199 3.85937 41.5572 6.90742 46.0521 11.7707C46.5419 12.3006 46.5094 13.1274 45.9794 13.6172C45.4494 14.1071 44.6226 14.0745 44.1328 13.5445C40.1119 9.19409 34.361 6.47284 27.9726 6.47284C15.8223 6.47284 5.97247 16.3226 5.97247 28.473C5.97247 33.6887 7.78588 38.4774 10.8177 42.248C11.0941 42.5918 11.1784 43.0518 11.0419 43.4712C10.5005 45.1346 10.0337 46.688 9.68419 47.893C10.942 47.4594 12.5843 46.9122 14.3217 46.3846C14.7039 46.2685 15.1182 46.3337 15.4463 46.5614C19.0008 49.0278 23.316 50.4731 27.9726 50.4731C36.5771 50.4731 44.0303 45.5335 47.6469 38.3294C47.9707 37.6844 48.7561 37.424 49.401 37.7478Z" fill="#008193"/>
<path d="M51.2785 29.0796C50.5263 29.0796 49.9164 28.4698 49.9164 27.7176C49.9164 26.9653 50.5263 26.3555 51.2785 26.3555C52.0308 26.3555 52.6406 26.9653 52.6406 27.7176C52.6406 28.4698 52.0308 29.0796 51.2785 29.0796Z" fill="#008193"/>
</svg>
