<svg width="73" height="68" viewBox="0 0 73 68" fill="none" xmlns="http://www.w3.org/2000/svg">
<path fill-rule="evenodd" clip-rule="evenodd" d="M55 5C48.0964 5 42.5 10.5964 42.5 17.5C42.5 24.4036 48.0964 30 55 30C61.9036 30 67.5 24.4036 67.5 17.5C67.5 10.5964 61.9036 5 55 5ZM37.5 17.5C37.5 15.6889 37.7751 13.9421 38.2858 12.299C33.014 12.0469 27.5861 12.828 22.1351 14.549C20.8184 14.9646 19.4141 14.2343 18.9984 12.9176C18.5828 11.601 19.3131 10.1966 20.6298 9.78094C27.3474 7.66013 34.1086 6.83256 40.6645 7.46028C43.8298 2.94897 49.0705 0 55 0C64.665 0 72.5 7.83502 72.5 17.5C72.5 27.165 64.665 35 55 35C48.3902 35 42.6363 31.3355 39.659 25.9272C37.7373 25.6441 35.8328 25.5358 33.9559 25.6035C26.4193 25.8752 19.1134 28.9888 12.699 35.4032C11.7226 36.3795 10.1397 36.3795 9.16342 35.4032C8.18711 34.4269 8.18711 32.844 9.16342 31.8677C16.3996 24.6315 24.8781 20.9275 33.7757 20.6067C35.1102 20.5586 36.4491 20.5867 37.7899 20.6892C37.5995 19.6551 37.5 18.5892 37.5 17.5ZM13.0562 15.644C13.7835 16.8176 13.4218 18.3587 12.2482 19.086C9.41311 20.8431 6.73215 22.953 4.26777 25.4174C3.29146 26.3937 1.70854 26.3937 0.732233 25.4174C-0.244078 24.4411 -0.244078 22.8582 0.732233 21.8819C3.4706 19.1435 6.45448 16.7944 9.61419 14.8361C10.7878 14.1087 12.3288 14.4705 13.0562 15.644ZM49.774 45.3899C41.6656 37.2815 28.5194 37.2815 20.411 45.3899C19.4347 46.3662 17.8518 46.3662 16.8755 45.3899C15.8992 44.4136 15.8992 42.8307 16.8755 41.8544C26.9365 31.7934 43.2486 31.7934 53.3096 41.8544C54.2859 42.8307 54.2859 44.4136 53.3096 45.3899C52.3333 46.3662 50.7503 46.3662 49.774 45.3899ZM35 52.5003C32.2386 52.5003 30 54.7389 30 57.5003C30 60.2617 32.2386 62.5003 35 62.5003C37.7614 62.5003 40 60.2617 40 57.5003C40 54.7389 37.7614 52.5003 35 52.5003ZM25 57.5003C25 51.9774 29.4772 47.5003 35 47.5003C40.5228 47.5003 45 51.9774 45 57.5003C45 63.0231 40.5228 67.5003 35 67.5003C29.4772 67.5003 25 63.0231 25 57.5003ZM57.5005 11.6669C57.5005 10.2862 56.3812 9.16687 55.0005 9.16687C53.6197 9.16687 52.5005 10.2862 52.5005 11.6669V14.5835H49.5837C48.203 14.5835 47.0837 15.7028 47.0837 17.0835C47.0837 18.4642 48.203 19.5835 49.5837 19.5835H52.5005V22.5002C52.5005 23.8809 53.6197 25.0002 55.0005 25.0002C56.3812 25.0002 57.5005 23.8809 57.5005 22.5002V19.5835H60.417C61.7977 19.5835 62.917 18.4642 62.917 17.0835C62.917 15.7028 61.7977 14.5835 60.417 14.5835H57.5005V11.6669Z" fill="#666666"/>
</svg>
