<svg width="50" height="51" viewBox="0 0 50 51" fill="none" xmlns="http://www.w3.org/2000/svg">
<ellipse cx="24.9986" cy="25.4674" rx="19.7877" ry="19.7877" fill="#E2F1F3"/>
<path d="M39.0316 31.499C38.8455 31.2509 38.4114 31.0648 37.7292 30.6927C37.047 30.3826 33.76 28.7702 33.1398 28.5221C32.5197 28.274 32.0855 28.212 31.6514 28.8322C31.2173 29.5144 29.9149 31.0028 29.5428 31.4369C29.1707 31.8711 28.7366 31.9331 28.1164 31.623C27.4342 31.3129 25.2636 30.5687 22.7208 28.336C20.7362 26.5995 19.3718 24.3669 18.9997 23.7467C18.6276 23.0645 18.9377 22.6924 19.3098 22.3823C19.6199 22.0722 19.992 21.5761 20.3021 21.204C20.6122 20.8319 20.7362 20.5218 20.9843 20.0877C21.2324 19.6535 21.1084 19.2814 20.9223 18.9093C20.7362 18.5992 19.4339 15.3123 18.8757 13.9479C18.3175 12.6455 17.7594 12.8315 17.3873 12.8315C17.0152 12.8315 16.519 12.7695 16.0849 12.7695C15.6508 12.7695 14.9066 12.9556 14.2864 13.5758C13.6662 14.258 11.9297 15.8704 11.9297 19.1574C11.9297 22.4443 14.3484 25.6073 14.6585 26.0414C14.9686 26.4755 19.3098 33.4215 26.1318 36.0883C32.9538 38.7551 32.9538 37.8868 34.1942 37.7628C35.4345 37.6388 38.1633 36.1503 38.7215 34.5999C39.2176 33.1114 39.2176 31.8091 39.0316 31.499Z" fill="#00B8C5"/>
<path fill-rule="evenodd" clip-rule="evenodd" d="M47.9007 21.0301C47.2006 21.2053 46.4911 20.7797 46.3159 20.0796C45.7665 17.8836 44.8868 15.8181 43.7322 13.9387C43.3544 13.3238 43.5466 12.5191 44.1615 12.1413C44.7764 11.7635 45.5812 11.9557 45.959 12.5707C47.2508 14.6734 48.2359 16.9859 48.8512 19.4453C49.0264 20.1454 48.6009 20.8549 47.9007 21.0301ZM46.401 34.7127C47.046 35.0364 47.3064 35.8218 46.9826 36.4668C42.9398 44.52 34.6033 50.0514 24.9726 50.0514C19.9963 50.0514 15.3616 48.5733 11.488 46.0321C9.88751 46.5282 8.39788 47.0293 7.26874 47.4211C6.63552 47.6408 6.11694 47.8257 5.75735 47.9554C5.57757 48.0202 5.43761 48.0712 5.343 48.1059C5.2957 48.1232 5.25974 48.1365 5.23582 48.1453L5.20116 48.1581L5.20087 48.1582C4.74331 48.3282 4.22917 48.2289 3.86771 47.9009C3.50626 47.5729 3.35776 47.0707 3.48267 46.5989L4.74589 46.9332C3.48267 46.5989 3.48265 46.5989 3.48267 46.5989L3.48275 46.5986L3.49312 46.5596C3.49981 46.5345 3.50968 46.4977 3.52262 46.4497C3.54848 46.3537 3.58659 46.2131 3.63604 46.033C3.73493 45.673 3.87922 45.1549 4.06162 44.5198C4.38303 43.4006 4.82355 41.9154 5.34313 40.2896C2.21544 36.1618 0.359004 31.015 0.359004 25.4378C0.359004 11.8441 11.3789 0.824217 24.9726 0.824218C32.1199 0.824218 38.5572 3.87227 43.0521 8.7355C43.5419 9.26549 43.5094 10.0922 42.9794 10.5821C42.4494 11.0719 41.6226 11.0394 41.1328 10.5094C37.1119 6.15893 31.361 3.43769 24.9726 3.43769C12.8223 3.43768 2.97247 13.2875 2.97247 25.4378C2.97247 30.6536 4.78588 35.4422 7.8177 39.2128C8.09411 39.5566 8.17843 40.0166 8.04191 40.4361C7.50052 42.0995 7.03374 43.6528 6.68419 44.8579C7.94201 44.4242 9.58427 43.877 11.3217 43.3494C11.7039 43.2334 12.1182 43.2985 12.4463 43.5262C16.0008 45.9926 20.316 47.4379 24.9726 47.4379C33.5771 47.4379 41.0303 42.4984 44.6469 35.2942C44.9707 34.6492 45.7561 34.3889 46.401 34.7127Z" fill="#008193"/>
<path d="M48.2785 26.0445C47.5263 26.0445 46.9164 25.4347 46.9164 24.6824C46.9164 23.9301 47.5263 23.3203 48.2785 23.3203C49.0308 23.3203 49.6406 23.9301 49.6406 24.6824C49.6406 25.4347 49.0308 26.0445 48.2785 26.0445Z" fill="#008193"/>
</svg>
