<svg width="71" height="72" viewBox="0 0 71 72" fill="none" xmlns="http://www.w3.org/2000/svg">
<ellipse cx="35.4986" cy="36.0019" rx="28.2681" ry="28.2681" fill="#E2F1F3"/>
<path d="M55.549 44.6239C55.2832 44.2695 54.663 44.0037 53.6884 43.4721C52.7139 43.0291 48.0182 40.7256 47.1323 40.3712C46.2463 40.0168 45.6261 39.9282 45.0059 40.8142C44.3857 41.7888 42.5252 43.9151 41.9936 44.5353C41.462 45.1555 40.8419 45.2441 39.9559 44.8011C38.9813 44.3581 35.8804 43.2949 32.2479 40.1054C29.4128 37.6247 27.4637 34.4352 26.9321 33.5492C26.4005 32.5747 26.8435 32.0431 27.3751 31.6001C27.8181 31.1571 28.3497 30.4483 28.7926 29.9168C29.2356 29.3852 29.4128 28.9422 29.7672 28.322C30.1216 27.7018 29.9444 27.1703 29.6786 26.6387C29.4128 26.1957 27.5523 21.5 26.7549 19.5509C25.9575 17.6904 25.1602 17.9561 24.6286 17.9561C24.097 17.9561 23.3882 17.8676 22.768 17.8676C22.1479 17.8676 21.0847 18.1333 20.1987 19.0193C19.3128 19.9939 16.832 22.2974 16.832 26.9931C16.832 31.6887 20.2873 36.2072 20.7303 36.8273C21.1733 37.4475 27.3751 47.3704 37.1208 51.1801C46.8665 54.9898 46.8665 53.7494 48.6384 53.5722C50.4104 53.395 54.3086 51.2687 55.106 49.0537C55.8148 46.9274 55.8148 45.0669 55.549 44.6239Z" fill="#00B8C5"/>
<path fill-rule="evenodd" clip-rule="evenodd" d="M68.2148 29.6656C67.2146 29.9158 66.201 29.3079 65.9508 28.3077C65.1659 25.1706 63.9091 22.2199 62.2597 19.535C61.72 18.6566 61.9946 17.507 62.873 16.9673C63.7515 16.4276 64.9011 16.7022 65.4408 17.5807C67.2863 20.5846 68.6936 23.8881 69.5726 27.4016C69.8229 28.4017 69.215 29.4154 68.2148 29.6656ZM66.0724 49.2121C66.9938 49.6747 67.3657 50.7966 66.9032 51.718C61.1277 63.2225 49.2185 71.1246 35.4603 71.1246C28.3512 71.1246 21.7303 69.013 16.1966 65.3828C13.9102 66.0914 11.7821 66.8073 10.1691 67.367C9.26446 67.6809 8.52364 67.945 8.00992 68.1303C7.75311 68.2229 7.55316 68.2958 7.418 68.3453C7.35043 68.3701 7.29907 68.389 7.26489 68.4016L7.21537 68.4199L7.21496 68.4201C6.56131 68.6628 5.82681 68.5211 5.31045 68.0525C4.79409 67.5838 4.58195 66.8665 4.76039 66.1924L6.565 66.6701C4.76039 66.1924 4.76037 66.1925 4.76039 66.1924L4.7605 66.192L4.77531 66.1363C4.78488 66.1005 4.79898 66.0479 4.81746 65.9793C4.8544 65.8421 4.90885 65.6413 4.97949 65.3841C5.12076 64.8697 5.32689 64.1296 5.58747 63.2223C6.04662 61.6235 6.67594 59.5017 7.4182 57.1792C2.95006 51.2824 0.29801 43.9297 0.29801 35.9623C0.298011 16.5427 16.0407 0.800046 35.4603 0.800047C45.6707 0.800048 54.8668 5.1544 61.2881 12.1019C61.9879 12.859 61.9414 14.0401 61.1843 14.7398C60.4271 15.4396 59.2461 15.3931 58.5463 14.636C52.8021 8.42106 44.5866 4.53357 35.4603 4.53357C18.1027 4.53357 4.03154 18.6047 4.03154 35.9623C4.03154 43.4134 6.62212 50.2544 10.9533 55.6409C11.3482 56.132 11.4686 56.7892 11.2736 57.3884C10.5002 59.7647 9.83335 61.9838 9.33399 63.7053C11.1309 63.0857 13.477 62.304 15.959 61.5504C16.505 61.3846 17.0968 61.4776 17.5656 61.8029C22.6435 65.3264 28.808 67.3911 35.4603 67.3911C47.7525 67.3911 58.3999 60.3346 63.5665 50.0429C64.0291 49.1215 65.151 48.7496 66.0724 49.2121Z" fill="#008193"/>
<path d="M68.7553 36.8271C67.6807 36.8271 66.8095 35.9559 66.8095 34.8813C66.8095 33.8066 67.6807 32.9354 68.7553 32.9354C69.83 32.9354 70.7012 33.8066 70.7012 34.8813C70.7012 35.9559 69.83 36.8271 68.7553 36.8271Z" fill="#008193"/>
</svg>
