<svg width="48" height="48" viewBox="0 0 48 48" fill="none" xmlns="http://www.w3.org/2000/svg">
<path fill-rule="evenodd" clip-rule="evenodd" d="M43.8453 19.7636C44.0974 20.1531 43.986 20.6732 43.5965 20.9252L39.1102 23.8285C39.1091 23.8362 39.1077 23.8439 39.1063 23.8516C38.8913 25.0237 38.3145 26.8714 37.468 28.7505C36.665 30.533 35.5853 32.4202 34.2776 33.8046L39.4571 40.9012C40.4338 41.049 41.3898 41.3538 42.2864 41.8131L44.0031 42.6924C44.416 42.9039 44.5793 43.41 44.3678 43.8229C44.1563 44.2359 43.6501 44.3991 43.2372 44.1876L41.5206 43.3084C40.7365 42.9068 39.897 42.6495 39.0406 42.5391C38.9516 42.5433 38.8626 42.5334 38.777 42.5098C37.7063 42.4099 36.6157 42.5384 35.5798 42.9005L34.2471 43.3662C33.1391 43.7535 31.9379 43.7854 30.8108 43.4576L30.2456 43.2931C29.601 43.1056 28.9131 43.131 28.284 43.3656L25.8317 44.28H7.27262C7.26482 44.2801 7.25703 44.2801 7.24924 44.28H4.50016C4.03624 44.28 3.66016 43.9039 3.66016 43.44C3.66016 42.9761 4.03624 42.6 4.50016 42.6H7.01203L13.1545 38.6248C10.8931 38.0021 8.89568 37.2462 7.45019 36.5837C7.02846 36.3904 6.84327 35.8918 7.03657 35.47C7.22986 35.0483 7.72844 34.8631 8.15017 35.0564C9.82891 35.8259 12.3124 36.735 15.0766 37.381L42.6838 19.5148C43.0732 19.2627 43.5933 19.3741 43.8453 19.7636ZM10.1042 42.6H25.5286L27.6971 41.7914C28.6648 41.4306 29.7231 41.3915 30.7149 41.68L31.2801 41.8444C32.0714 42.0746 32.9148 42.0522 33.6928 41.7803L35.0255 41.3145C35.7744 41.0528 36.5467 40.8909 37.3235 40.8276L29.47 30.0673L17.4422 37.8511C17.7708 37.9045 18.1011 37.953 18.4324 37.996C22.5076 38.5252 26.5406 38.2005 29.3239 36.1623C29.6982 35.8882 30.2238 35.9695 30.4979 36.3438C30.772 36.7181 30.6908 37.2437 30.3165 37.5178C27.0037 39.9436 22.4267 40.2088 18.216 39.662C17.2621 39.5382 16.3172 39.3714 15.3975 39.1744L10.1042 42.6ZM30.8826 29.1531L37.037 25.1702C36.7701 26.0295 36.3991 27.0331 35.9363 28.0605C35.2157 29.6599 34.3025 31.2492 33.2671 32.4202L30.8826 29.1531Z" fill="#008193"/>
<circle cx="13.3801" cy="13.5" r="9.78" fill="#E2F1F3"/>
<path fill-rule="evenodd" clip-rule="evenodd" d="M13.3802 5.04C8.70791 5.04 4.92023 8.82767 4.92023 13.5C4.92023 15.7119 5.76802 17.724 7.15789 19.2319C7.47231 19.573 7.45065 20.1045 7.10953 20.4189C6.76841 20.7333 6.23699 20.7116 5.92258 20.3705C4.25804 18.5646 3.24023 16.1502 3.24023 13.5C3.24023 7.89983 7.78007 3.36 13.3802 3.36C18.9804 3.36 23.5202 7.89983 23.5202 13.5C23.5202 13.9639 23.1442 14.34 22.6802 14.34C22.2163 14.34 21.8402 13.9639 21.8402 13.5C21.8402 8.82767 18.0526 5.04 13.3802 5.04Z" fill="#008193"/>
</svg>
