<svg width="48" height="49" viewBox="0 0 48 49" fill="none" xmlns="http://www.w3.org/2000/svg">
<ellipse cx="11.0402" cy="17.0099" rx="7.86" ry="7.86" fill="#E2F1F3"/>
<path d="M8.42724 25.0812L4.02002 33.3898H35.76L26.52 17.3698C26.52 17.3698 24.18 19.2298 19.8 17.7898V16.5898L15.06 24.5698C13.3311 22.2553 9.78102 22.5289 8.42724 25.0812Z" fill="#00B8C5"/>
<circle cx="36.8766" cy="39.9811" r="0.9" fill="#008193"/>
<rect x="31.6567" y="36.3213" width="5.52" height="1.68" rx="0.84" fill="#008193"/>
<path fill-rule="evenodd" clip-rule="evenodd" d="M23.8897 14.3921C23.4368 13.5668 22.2535 13.5605 21.7918 14.3809L13.6321 28.8816C13.4046 29.2859 12.8924 29.4293 12.4881 29.2017C12.0838 28.9742 11.9405 28.4621 12.168 28.0577L20.3277 13.557C21.4356 11.5881 24.2757 11.6033 25.3625 13.5839L35.377 31.8337C35.4685 31.9046 35.5517 31.9879 35.6228 32.0799C35.7895 32.2952 35.9867 32.4863 36.2095 32.6464C36.6633 32.9725 37.2024 33.1549 37.7586 33.1705C38.3148 33.1862 38.863 33.0343 39.334 32.7342C39.5646 32.5873 39.7716 32.4081 39.9495 32.203C40.1862 31.9301 40.5341 31.7459 40.8768 31.7631C41.2658 31.6752 41.6822 31.8743 41.9516 32.1889C42.0081 32.2549 42.0677 32.3184 42.1302 32.3791C42.3969 32.6381 42.7114 32.8414 43.0556 32.9772C43.3998 33.1131 43.7671 33.1789 44.1364 33.171C44.218 33.1692 44.2993 33.1639 44.3802 33.155C44.8516 33.1031 45.3621 33.2858 45.5507 33.721C45.7368 34.1501 45.5428 34.6581 45.0873 34.7645C44.7878 34.8345 44.4812 34.8733 44.1723 34.88C43.5815 34.8927 42.994 34.7874 42.4433 34.57C41.8927 34.3527 41.3897 34.0276 40.963 33.6132L40.9566 33.607C40.7361 33.822 40.4935 34.0146 40.2319 34.1813C39.4785 34.6614 38.6015 34.9043 37.7118 34.8792C36.8221 34.8542 35.9598 34.5624 35.2337 34.0408C35.0537 33.9114 34.8841 33.7694 34.7259 33.616C34.5108 33.8274 34.2745 34.017 34.02 34.1813C33.2766 34.6614 32.4113 34.9043 31.5335 34.8792C30.6557 34.8542 29.8048 34.5624 29.0884 34.0408C28.8914 33.8973 28.707 33.7382 28.5366 33.5654C28.3081 33.7972 28.0547 34.0039 27.78 34.1813C27.0366 34.6614 26.1713 34.9043 25.2935 34.8792C24.4157 34.8542 23.5648 34.5624 22.8484 34.0408C22.6708 33.9114 22.5034 33.7694 22.3474 33.616C22.1293 33.8274 21.8899 34.017 21.6319 34.1813C20.8785 34.6614 20.0015 34.9043 19.1118 34.8792C18.2221 34.8542 17.3598 34.5624 16.6337 34.0408C16.4502 33.9089 16.2774 33.7638 16.1166 33.607C15.8961 33.822 15.6535 34.0146 15.3919 34.1813C14.6385 34.6614 13.7615 34.9043 12.8718 34.8792C11.9821 34.8542 11.1198 34.5624 10.3937 34.0408C9.89423 33.6819 9.4747 33.2252 9.15809 32.7009C8.91842 32.3039 9.14152 31.8136 9.57393 31.6462C10.0118 31.4767 10.4955 31.7085 10.7828 32.0799C10.9495 32.2952 11.1467 32.4863 11.3695 32.6464C11.8233 32.9725 12.3624 33.1549 12.9186 33.1705C13.4748 33.1862 14.023 33.0343 14.494 32.7342C14.7246 32.5873 14.9316 32.4081 15.1095 32.203C15.2071 32.0905 15.3236 31.9931 15.4508 31.9186C15.5398 31.8006 15.6644 31.7041 15.8139 31.6462C16.2518 31.4767 16.7355 31.7085 17.0228 32.0799C17.1895 32.2952 17.3867 32.4863 17.6095 32.6464C18.0633 32.9725 18.6024 33.1549 19.1586 33.1705C19.7148 33.1862 20.263 33.0343 20.734 32.7342C20.9646 32.5873 21.1716 32.4081 21.3495 32.203C21.4402 32.0984 21.5472 32.0069 21.664 31.9347C21.7521 31.8109 21.8789 31.7092 22.0326 31.6489C22.4673 31.4783 22.9492 31.709 23.2325 32.0801C23.3969 32.2954 23.5915 32.4864 23.8112 32.6464C24.259 32.9725 24.7909 33.1549 25.3396 33.1705C25.8884 33.1862 26.4293 33.0343 26.8941 32.7342C27.121 32.5877 27.3247 32.409 27.4999 32.2046C27.6293 32.0538 27.793 31.9301 27.9711 31.8527C28.0521 31.7662 28.1544 31.6953 28.2726 31.6489C28.7073 31.4783 29.1892 31.709 29.4725 32.0801C29.6369 32.2954 29.8315 32.4864 30.0512 32.6464C30.499 32.9725 31.0309 33.1549 31.5796 33.1705C32.1284 33.1862 32.6693 33.0343 33.1341 32.7342C33.3411 32.6005 33.5289 32.44 33.6933 32.2576L26.203 18.6078C25.1257 19.1228 23.9203 19.3262 22.7246 19.187C22.2638 19.1334 21.9337 18.7163 21.9874 18.2555C22.041 17.7947 22.4581 17.4647 22.9189 17.5183C23.7672 17.6171 24.6223 17.4814 25.3931 17.1318L23.8897 14.3921ZM12.184 22.109C11.9367 21.7421 11.3789 21.7559 11.1507 22.1504C10.1097 23.9503 9.1152 25.6242 8.12351 27.2935L8.12299 27.2944L8.12278 27.2947L8.12268 27.2949C6.77071 29.5706 5.42385 31.8377 3.97101 34.4036C3.74243 34.8073 3.22987 34.9492 2.82617 34.7206C2.42247 34.4921 2.28051 33.9795 2.50909 33.5758C3.96172 31.0103 5.33218 28.703 6.69741 26.4045L6.69799 26.4035C7.69038 24.7328 8.68002 23.0666 9.69646 21.3093C10.5395 19.8516 12.6288 19.7628 13.5772 21.1701L14.1366 22.0002C14.3959 22.385 14.2942 22.907 13.9095 23.1663C13.5248 23.4255 13.0027 23.3238 12.7435 22.9391L12.184 22.109Z" fill="#008193"/>
<path fill-rule="evenodd" clip-rule="evenodd" d="M8.39302 8.98049C9.52103 8.60712 10.7151 8.47432 11.8977 8.59066C13.0804 8.70701 14.2255 9.06992 15.2588 9.65596L14.8542 10.3692L15.2588 9.65596C16.292 10.242 17.1905 11.0382 17.8957 11.9929C18.1714 12.3661 18.0923 12.892 17.7192 13.1677C17.346 13.4433 16.8201 13.3643 16.5444 12.9911C15.9791 12.2258 15.2588 11.5874 14.4299 11.1173L14.8443 10.3866L14.4299 11.1173C13.6011 10.6472 12.6824 10.356 11.7333 10.2626C10.7842 10.1692 9.82601 10.2758 8.92093 10.5754C8.01586 10.875 7.18416 11.3608 6.47969 12.0014C5.77523 12.6419 5.21371 13.4227 4.83142 14.2933C4.44912 15.1638 4.25454 16.1046 4.2602 17.0548C4.26586 18.005 4.47165 18.9435 4.86429 19.8094C5.25694 20.6753 5.82773 21.4495 6.53979 22.0816C6.88672 22.3896 6.91829 22.9205 6.6103 23.2675C6.30231 23.6144 5.77139 23.646 5.42446 23.338C4.53644 22.5496 3.82427 21.5839 3.33424 20.5032C2.84421 19.4225 2.5873 18.251 2.58023 17.0648C2.57316 15.8786 2.81609 14.7042 3.29321 13.6178C3.77033 12.5313 4.47094 11.5572 5.34951 10.7583C6.22808 9.95953 7.265 9.35387 8.39302 8.98049Z" fill="#008193"/>
</svg>
