<svg width="48" height="49" viewBox="0 0 48 49" fill="none" xmlns="http://www.w3.org/2000/svg">
<path d="M41.2197 11.6099L35.0997 20.0699L35.7597 23.2499L36.6597 30.2699L35.7597 36.4499L34.7397 42.0899L40.1997 41.6099L42.8997 32.0099L43.6797 22.2899L41.2197 11.6099Z" fill="#00B8C5"/>
<ellipse cx="13.3798" cy="16.41" rx="10.62" ry="10.62" fill="#E2F1F3"/>
<path fill-rule="evenodd" clip-rule="evenodd" d="M11.0464 12.1625C11.0802 12.6238 10.7348 13.0253 10.2742 13.0613C10.2734 13.0613 10.2717 13.0615 10.2691 13.0618C10.2619 13.0625 10.2479 13.0639 10.2276 13.0665C10.1871 13.0715 10.1215 13.0809 10.0344 13.097C9.86015 13.1291 9.6013 13.1881 9.28605 13.2931C8.65535 13.5034 7.80519 13.8962 6.95163 14.6248C6.12306 15.3321 5.67248 16.1159 5.42852 16.7183C5.30638 17.0199 5.23676 17.2745 5.1983 17.4479C5.17911 17.5344 5.16782 17.6 5.16166 17.6405C5.15858 17.6607 5.1568 17.6745 5.15596 17.6814C5.1557 17.6835 5.15553 17.685 5.15545 17.6858C5.10994 18.1451 4.70196 18.4821 4.24174 18.4393C3.77982 18.3963 3.44019 17.987 3.48316 17.5251L4.31955 17.6029C3.48316 17.5251 3.48319 17.5247 3.48323 17.5243L3.4833 17.5235L3.48346 17.5218L3.48385 17.5179C3.48414 17.515 3.48449 17.5116 3.48491 17.5077C3.48573 17.5 3.48683 17.4903 3.48823 17.4788C3.49104 17.4557 3.49509 17.4251 3.5008 17.3876C3.51222 17.3126 3.53027 17.2098 3.55817 17.084C3.61391 16.8328 3.70948 16.4875 3.87136 16.0877C4.19545 15.2874 4.78822 14.2627 5.86087 13.3471C6.90852 12.4527 7.95957 11.9644 8.75478 11.6994C9.15249 11.5668 9.48777 11.4895 9.72936 11.4449C9.85027 11.4226 9.94807 11.4084 10.0189 11.3995C10.0543 11.395 10.0831 11.3919 10.1046 11.3898C10.1154 11.3888 10.1244 11.3879 10.1316 11.3873L10.1409 11.3866L10.1445 11.3863L10.146 11.3862L10.1467 11.3861C10.1471 11.3861 10.1474 11.3861 10.2087 12.2238L10.1474 11.3861C10.6101 11.3522 11.0126 11.6998 11.0464 12.1625Z" fill="#008193"/>
<path fill-rule="evenodd" clip-rule="evenodd" d="M13.4933 10.3952C13.1984 10.7515 12.6712 10.8022 12.3139 10.5094C12.3132 10.5089 12.3119 10.5078 12.3098 10.5062C12.3041 10.5017 12.293 10.4931 12.2766 10.4809C12.2438 10.4565 12.19 10.4178 12.1161 10.3692C11.968 10.2718 11.7404 10.1352 11.4401 9.9928C10.8394 9.708 9.95396 9.40304 8.83356 9.33815C7.74598 9.27517 6.87829 9.52899 6.28523 9.79494C5.98831 9.92809 5.76184 10.0637 5.6141 10.1622C5.54038 10.2113 5.48678 10.2509 5.45435 10.2758C5.43815 10.2883 5.42729 10.297 5.42191 10.3014C5.42024 10.3028 5.4191 10.3037 5.41849 10.3042C5.06773 10.6042 4.54005 10.565 4.23752 10.2156C3.93387 9.86488 3.97203 9.33439 4.32277 9.03073L4.87258 9.6658C4.32277 9.03073 4.32304 9.0305 4.32332 9.03025L4.32392 9.02974L4.32521 9.02862L4.32824 9.02603C4.33045 9.02414 4.33305 9.02194 4.33602 9.01943C4.34198 9.01442 4.34947 9.00819 4.35848 9.00082C4.37649 8.98609 4.4006 8.96682 4.43067 8.94371C4.49078 8.89751 4.57496 8.83581 4.68217 8.76434C4.89629 8.62158 5.20429 8.43849 5.59781 8.26202C6.38564 7.90872 7.52272 7.57942 8.93069 7.66096C10.3059 7.7406 11.4024 8.11567 12.1598 8.47476C12.5386 8.65435 12.8341 8.83063 13.0394 8.96565C13.1421 9.03321 13.2225 9.09065 13.2798 9.13329C13.3084 9.15461 13.3313 9.17226 13.3484 9.18565C13.3569 9.19235 13.3639 9.19798 13.3695 9.20248L13.3768 9.20838L13.3796 9.21067L13.3807 9.21165L13.3813 9.2121C13.3815 9.21231 13.3818 9.21252 12.8462 9.8596L13.3818 9.21252C13.7392 9.50833 13.7891 10.0378 13.4933 10.3952Z" fill="#008193"/>
<path fill-rule="evenodd" clip-rule="evenodd" d="M22.154 13.2205C22.3968 13.6118 22.9102 13.7349 23.3044 13.495C23.7007 13.2538 23.8264 12.737 23.5852 12.3407L22.8677 12.7775C23.5852 12.3407 23.585 12.3404 23.5848 12.3401L23.5844 12.3394L23.5836 12.338L23.5816 12.3348L23.5767 12.3269C23.573 12.3211 23.5685 12.314 23.5632 12.3058C23.5525 12.2894 23.5385 12.2682 23.5209 12.2429C23.4859 12.1923 23.4368 12.1249 23.3727 12.0444C23.2447 11.8836 23.0563 11.6701 22.8 11.4355C22.2864 10.9653 21.501 10.4112 20.3901 10.0297C19.2523 9.639 18.2055 9.63891 17.448 9.73394C17.0682 9.78158 16.7563 9.85368 16.5349 9.91556C16.424 9.94655 16.3351 9.97517 16.2711 9.99719C16.239 10.0082 16.2132 10.0176 16.1938 10.0249C16.1841 10.0285 16.176 10.0316 16.1695 10.0341L16.1612 10.0373L16.1579 10.0386L16.1565 10.0392L16.1559 10.0394C16.1556 10.0396 16.1553 10.0397 16.4685 10.8191L16.1553 10.0397C15.7248 10.2127 15.5161 10.7018 15.6891 11.1323C15.8615 11.5614 16.3482 11.7702 16.7777 11.6001C16.7784 11.5999 16.7797 11.5993 16.7818 11.5986C16.7879 11.5963 16.7999 11.5919 16.8175 11.5858C16.8528 11.5737 16.9101 11.5551 16.987 11.5336C17.1413 11.4905 17.3714 11.4367 17.6571 11.4009C18.2304 11.329 19.008 11.3314 19.8444 11.6186C20.7077 11.9151 21.2975 12.3377 21.6656 12.6746C21.8501 12.8436 21.9791 12.9913 22.0584 13.0908C22.098 13.1405 22.1249 13.178 22.14 13.1998C22.1476 13.2106 22.1521 13.2176 22.1538 13.2202C22.1539 13.2203 22.1539 13.2204 22.154 13.2205Z" fill="#008193"/>
<path fill-rule="evenodd" clip-rule="evenodd" d="M21.6025 25.4295C21.6025 25.4297 21.6024 25.4299 20.7951 25.2573L21.6024 25.4299C21.5054 25.8836 21.059 26.1727 20.6053 26.0757C20.1518 25.9787 19.8628 25.5326 19.9595 25.0791C19.9595 25.0791 19.9595 25.0791 19.9595 25.0791L19.9595 25.0789C19.9595 25.0788 19.9596 25.0787 19.9596 25.0786L19.9613 25.07C19.9629 25.0623 19.9655 25.0497 19.9689 25.0326C19.9756 24.9983 19.9857 24.9456 19.9981 24.8763C20.0228 24.7375 20.0567 24.5325 20.0917 24.2749C20.1619 23.7586 20.2357 23.0364 20.2503 22.2162C20.28 20.5471 20.0613 18.5976 19.1892 17.1256C18.2546 15.5481 17.3905 14.7975 16.8176 14.4414C16.5299 14.2626 16.3082 14.1786 16.1766 14.1397C16.1104 14.1202 16.0658 14.1117 16.0457 14.1084C16.0415 14.1077 16.0384 14.1073 16.0363 14.107C15.5846 14.0743 15.2383 13.6876 15.2583 13.2323C15.2787 12.7688 15.671 12.4096 16.1345 12.43L16.0983 13.2516C16.1345 12.43 16.1352 12.4301 16.136 12.4301L16.1375 12.4302L16.1407 12.4303L16.1475 12.4307C16.1524 12.431 16.1576 12.4313 16.1634 12.4318C16.1749 12.4326 16.1882 12.4337 16.2032 12.4352C16.2334 12.4383 16.2706 12.443 16.3145 12.4501C16.4022 12.4643 16.5161 12.4882 16.6526 12.5286C16.9263 12.6094 17.2864 12.7548 17.7044 13.0146C18.5428 13.5357 19.5859 14.4992 20.6346 16.2693C21.7457 18.1448 21.9616 20.4737 21.93 22.2461C21.914 23.1466 21.8332 23.936 21.7564 24.5011C21.718 24.7841 21.6803 25.0122 21.6519 25.1715C21.6377 25.2511 21.6258 25.3136 21.6172 25.3573C21.6129 25.3791 21.6094 25.3962 21.6069 25.4084L21.6039 25.4229L21.603 25.4274L21.6025 25.4295Z" fill="#008193"/>
<path fill-rule="evenodd" clip-rule="evenodd" d="M15.4326 17.176C15.5027 17.918 15.5227 19.1965 15.3588 21.4208C15.1889 23.7265 14.6187 25.6201 14.0892 26.9405C13.8243 27.6013 13.5688 28.1207 13.3769 28.4788C13.2809 28.658 13.2006 28.7971 13.143 28.8936C13.1141 28.9419 13.0909 28.9796 13.0741 29.0063C13.0657 29.0197 13.059 29.0303 13.0539 29.0382L13.0476 29.048L13.0455 29.0513L13.0446 29.0525L13.0443 29.0531C13.0441 29.0533 13.044 29.0535 12.3614 28.6059L13.044 29.0535C12.7896 29.4415 12.2688 29.5497 11.8809 29.2953C11.4934 29.0412 11.385 28.5214 11.6382 28.1336C11.6383 28.1336 11.6383 28.1335 11.6383 28.1335L11.6386 28.133L11.6388 28.1327C11.6389 28.1325 11.639 28.1324 11.6391 28.1323L11.6398 28.1311C11.6418 28.128 11.6455 28.1222 11.6508 28.1138C11.6613 28.097 11.6783 28.0696 11.7008 28.0319C11.7458 27.9565 11.8131 27.8402 11.896 27.6854C12.0621 27.3755 12.2905 26.9124 12.5299 26.3153C13.0091 25.1202 13.5286 23.3969 13.6833 21.2974C13.844 19.1164 13.8176 17.9428 13.7601 17.3339C13.7326 17.0432 13.6997 16.8994 13.6846 16.8457C13.5039 16.5028 13.5801 16.0689 13.8894 15.8103C14.2453 15.5127 14.7751 15.56 15.0727 15.9159L14.4293 16.4538C15.0727 15.9159 15.0739 15.9174 15.0751 15.9189L15.0776 15.9219L15.0825 15.9278C15.0857 15.9318 15.0889 15.9358 15.092 15.9399C15.0982 15.9479 15.1043 15.9561 15.1102 15.9642C15.122 15.9806 15.1332 15.9972 15.1438 16.014C15.1649 16.0475 15.184 16.0825 15.2015 16.1186C15.2362 16.1902 15.2668 16.2714 15.2942 16.3642C15.3482 16.5476 15.3976 16.8044 15.4326 17.176ZM13.6784 16.8255C13.6784 16.8255 13.6784 16.8256 13.6785 16.8257L13.6784 16.8255Z" fill="#008193"/>
<path fill-rule="evenodd" clip-rule="evenodd" d="M30.1561 9.96651C30.2908 9.66267 30.5088 9.57124 30.6709 9.57063C30.8284 9.57004 31.0335 9.65384 31.1594 9.95055C32.2566 12.5377 33.8434 17.0949 34.8358 23.5729C35.6679 29.0048 35.8048 31.7016 35.578 33.9635C35.4643 35.0984 35.2571 36.1419 34.9825 37.397C34.9267 37.6516 34.8683 37.9149 34.8074 38.189C34.5963 39.139 34.3566 40.2182 34.1039 41.5141L33.6547 41.6346C33.0976 41.784 32.51 41.7762 31.9571 41.6118L30.8841 41.2928C29.8737 40.9924 28.7925 41.033 27.8075 41.4082L27.2529 41.6195C27.1808 41.3622 27.0914 41.0315 26.9915 40.6361C26.729 39.5965 26.3949 38.1118 26.1106 36.3399C25.5404 32.7866 25.1781 28.1228 25.9674 23.5898C26.9789 17.7812 28.8889 12.8239 30.1561 9.96651ZM25.6755 42.2148C25.5934 41.9273 25.4853 41.5333 25.3627 41.0474C25.0904 39.9689 24.7453 38.4351 24.4518 36.6061C23.8663 32.9575 23.4787 28.0892 24.3123 23.3016C25.3552 17.3127 27.3196 12.2184 28.6203 9.28543C29.0121 8.40196 29.8128 7.89384 30.6646 7.89064C31.5209 7.88743 32.3247 8.39558 32.706 9.29459C33.524 11.2233 34.5866 14.1625 35.4971 18.0936L39.6209 11.7617C40.3215 10.6861 42.0095 10.8543 42.381 12.1656C42.955 14.1913 43.6121 17.054 44.0481 19.9682C44.4817 22.8655 44.7087 25.8883 44.3808 28.2007C43.72 32.8608 42.0995 38.4308 41.1003 41.2613L44.254 42.4105C44.6899 42.5693 44.9145 43.0515 44.7556 43.4873C44.5968 43.9232 44.1147 44.1478 43.6788 43.989L39.3816 42.423C38.7793 42.2036 38.124 42.1749 37.5049 42.341L34.0901 43.2572C33.233 43.4871 32.329 43.475 31.4784 43.2221L30.4054 42.9031C29.7486 42.7079 29.0458 42.7342 28.4056 42.9782L26.4444 43.7253C25.8987 43.9332 25.3196 44.0397 24.7356 44.0397H9.97075C9.29265 44.0397 8.68353 43.6245 8.42512 43.0094C4.31275 33.2197 5.22182 25.8212 7.25031 20.8318C8.25975 18.3489 9.53796 16.4828 10.581 15.2282C11.1027 14.6008 11.567 14.1245 11.9121 13.7985C12.0845 13.6358 12.2287 13.509 12.3372 13.4186C12.391 13.3738 12.4389 13.3354 12.4792 13.3048L12.5059 13.2849C12.5183 13.2758 12.5314 13.2664 12.5447 13.2573C12.5561 13.2495 12.573 13.2382 12.5932 13.2259L12.5942 13.2252C12.6059 13.2181 12.6569 13.1869 12.7249 13.1597C13.1557 12.9874 13.6445 13.1969 13.8168 13.6276C13.9694 14.0091 13.8225 14.4362 13.4877 14.6486C13.4722 14.6605 13.4473 14.6804 13.4128 14.7091C13.3335 14.7752 13.2152 14.8787 13.0655 15.02C12.7666 15.3023 12.3489 15.7296 11.8729 16.3022C10.9205 17.4477 9.74046 19.1675 8.8066 21.4645C6.94857 26.0346 6.0309 32.9712 9.97355 42.3577L9.97447 42.3586L9.97594 42.3597H24.7356C25.0548 42.3597 25.3718 42.3107 25.6755 42.2148ZM39.5143 40.7071C40.4827 37.9661 42.0749 32.4963 42.7174 27.9648C43.0103 25.8999 42.814 23.0724 42.3866 20.2168C41.9846 17.5302 41.3886 14.8847 40.8547 12.9458L35.9914 20.413C36.1715 21.3361 36.3411 22.3046 36.4964 23.3185C37.3337 28.7838 37.4982 31.6515 37.2497 34.1311C37.1258 35.3669 36.9011 36.4883 36.6236 37.7561C36.5664 38.0179 36.5068 38.2859 36.4452 38.563L36.4452 38.5633C36.2809 39.303 36.1022 40.1074 35.914 41.0284L37.0695 40.7184C37.8723 40.503 38.7146 40.5005 39.5143 40.7071ZM30.7044 23.4867C31.1683 23.4867 31.5444 23.8628 31.5444 24.3267V38.238C31.5444 38.7019 31.1683 39.078 30.7044 39.078C30.2405 39.078 29.8644 38.7019 29.8644 38.238V24.3267C29.8644 23.8628 30.2405 23.4867 30.7044 23.4867ZM6.35969 43.2298C6.35969 43.6937 5.98361 44.0698 5.51969 44.0698C5.05577 44.0698 4.67969 43.6937 4.67969 43.2298C4.67969 42.7659 5.05577 42.3898 5.51969 42.3898C5.98361 42.3898 6.35969 42.7659 6.35969 43.2298Z" fill="#008193"/>
</svg>
