<svg width="368" height="55" viewBox="0 0 368 55" fill="none" xmlns="http://www.w3.org/2000/svg">
<path d="M316.354 41.6838C316.546 41.6838 316.714 41.7617 316.857 41.9173L318.24 43.408C317.187 44.6293 315.905 45.5812 314.397 46.2636C312.9 46.9461 311.086 47.2874 308.955 47.2874C307.111 47.2874 305.435 46.9701 303.926 46.3355C302.417 45.6889 301.13 44.7909 300.065 43.6415C298.999 42.4801 298.173 41.0912 297.586 39.4748C297 37.8584 296.706 36.0803 296.706 34.1406C296.706 32.201 297.012 30.4229 297.622 28.8065C298.233 27.1901 299.089 25.8012 300.19 24.6398C301.304 23.4784 302.633 22.5804 304.178 21.9458C305.722 21.2992 307.428 20.976 309.296 20.976C311.128 20.976 312.744 21.2693 314.145 21.856C315.546 22.4427 316.779 23.2389 317.845 24.2447L316.696 25.8431C316.624 25.9629 316.528 26.0646 316.408 26.1484C316.301 26.2203 316.151 26.2562 315.959 26.2562C315.744 26.2562 315.48 26.1425 315.169 25.915C314.858 25.6755 314.451 25.4121 313.948 25.1247C313.445 24.8374 312.816 24.5799 312.062 24.3524C311.308 24.113 310.38 23.9932 309.278 23.9932C307.949 23.9932 306.734 24.2267 305.632 24.6937C304.531 25.1487 303.579 25.8132 302.777 26.6872C301.986 27.5613 301.37 28.6269 300.927 29.8841C300.484 31.1413 300.262 32.5602 300.262 34.1406C300.262 35.7451 300.49 37.1759 300.945 38.4331C301.412 39.6903 302.04 40.7559 302.831 41.63C303.633 42.492 304.573 43.1506 305.65 43.6056C306.74 44.0605 307.913 44.288 309.17 44.288C309.937 44.288 310.625 44.2461 311.236 44.1623C311.858 44.0665 312.427 43.9229 312.942 43.7313C313.469 43.5397 313.954 43.3002 314.397 43.0129C314.852 42.7135 315.301 42.3603 315.744 41.9532C315.947 41.7736 316.151 41.6838 316.354 41.6838ZM324.83 20.5449V47H321.634V20.5449H324.83ZM344.975 28.8065V47H343.072C342.617 47 342.329 46.7785 342.21 46.3355L341.958 44.3778C341.168 45.2519 340.282 45.9583 339.3 46.4971C338.318 47.0239 337.193 47.2874 335.924 47.2874C334.93 47.2874 334.05 47.1257 333.283 46.8024C332.529 46.4672 331.895 46.0002 331.38 45.4016C330.865 44.8029 330.476 44.0785 330.212 43.2284C329.961 42.3783 329.835 41.4384 329.835 40.4087V28.8065H333.032V40.4087C333.032 41.7856 333.343 42.8512 333.966 43.6056C334.6 44.3599 335.564 44.737 336.857 44.737C337.803 44.737 338.683 44.5155 339.498 44.0725C340.324 43.6175 341.084 42.9949 341.779 42.2047V28.8065H344.975ZM353.259 42.6178C353.846 43.408 354.486 43.9648 355.181 44.288C355.887 44.6113 356.66 44.773 357.498 44.773C359.21 44.773 360.521 44.1683 361.431 42.959C362.341 41.7497 362.796 39.9477 362.796 37.553C362.796 35.326 362.389 33.6916 361.575 32.65C360.772 31.5963 359.623 31.0695 358.126 31.0695C357.085 31.0695 356.175 31.3089 355.396 31.7879C354.63 32.2668 353.918 32.9433 353.259 33.8174V42.6178ZM353.259 31.4287C354.025 30.5427 354.888 29.8362 355.845 29.3094C356.815 28.7826 357.929 28.5192 359.186 28.5192C360.252 28.5192 361.209 28.7227 362.06 29.1298C362.922 29.5369 363.652 30.1296 364.251 30.9078C364.849 31.6741 365.304 32.6081 365.616 33.7096C365.939 34.8111 366.101 36.0504 366.101 37.4273C366.101 38.9 365.921 40.2411 365.562 41.4504C365.203 42.6597 364.682 43.6954 363.999 44.5574C363.329 45.4075 362.509 46.0721 361.539 46.551C360.569 47.018 359.479 47.2514 358.27 47.2514C357.073 47.2514 356.061 47.0299 355.235 46.5869C354.421 46.1319 353.708 45.4914 353.098 44.6652L352.936 46.3175C352.84 46.7725 352.565 47 352.11 47H350.044V20.5449H353.259V31.4287Z" fill="#008193"/>
<path fill-rule="evenodd" clip-rule="evenodd" d="M16.4467 0C26.3861 0 32.0477 4.09724 32.0477 11.2161C32.0477 15.7835 29.8785 19.2094 25.8443 21.2232C30.1202 23.4421 32.1685 26.7327 32.1685 31.4335C32.1685 36.672 29.5765 40.9028 25.2402 42.9185C22.2895 44.3307 18.4931 45 13.6754 45L12.775 44.9981L11.9234 44.9865L11.1126 44.9671C10.8476 44.9613 10.5884 44.9516 10.3331 44.942L9.57298 44.9052C9.19685 44.8859 8.82461 44.8607 8.45237 44.8317L7.70594 44.7679L6.94587 44.6905L6.16826 44.6034L5.36142 44.5009L4.51559 44.3848L3.6191 44.2494L2.66999 44.1024L1.65266 43.936L0.559334 43.7542L0 43.6575L5.78238 0.673201L7.21287 0.512639L8.85579 0.338535L9.94717 0.237942L10.6293 0.179907L11.2958 0.13348L11.9526 0.0947898L12.6152 0.063838L13.2915 0.0386897L14.0028 0.0193449L14.757 0.00967243L15.9965 0H16.4448H16.4467ZM261.423 0.404307L271 44.4642H260.577L258.831 35.2618H244.795L240.398 44.4642H230.036L252.265 0.404307H261.421H261.423ZM232.32 0.404307L226.417 44.4642H216.357L222.262 0.404307H232.32ZM166.175 0.404307L175.753 44.4642H165.333L163.585 35.2618H149.551L145.152 44.4642H135.115L153.567 7.26399H147.598L147.609 0.406242H166.177L166.175 0.404307ZM134.632 0.404307L133.488 9.13464H119.994L118.85 17.7315H130.475L129.331 26.0595H117.766L116.499 35.463H133.006L130.898 44.4642H105.537L111.438 0.404307H134.63H134.632ZM92.5064 0.404307L87.868 34.8575H102.988L100.758 44.4661H76.5429L82.4462 0.404307H92.5064ZM62.8383 0.404307L72.4171 44.4642H61.9964L60.2482 35.2618H46.2122L41.8155 44.4642H31.4533L53.6824 0.404307H62.8383ZM206.774 3.15708C209.545 5.43977 211.196 9.33583 211.196 13.7697C211.196 19.0992 208.425 23.5911 203.49 26.1697L203.178 26.3303L212.434 44.4642H200.998L194.278 29.2165H190.978L188.973 44.4642H179.129L184.906 0.671266L185.853 0.559066L187.158 0.41398L188.341 0.294042L189.076 0.226335L189.778 0.170235L190.45 0.123807L191.105 0.0851174L191.748 0.0541656L192.385 0.0328863L193.029 0.0154759L193.678 0.00580346L194.691 0C200.526 0 204.065 0.94016 206.774 3.15708ZM15.4216 25.5236H12.2293L10.7228 36.672C12.1689 37.0086 13.1336 37.1421 14.338 37.1421C19.0349 37.1421 21.6854 35.1283 21.6854 31.5012C21.6854 27.874 19.2161 25.5236 15.4216 25.5236ZM254.795 14.3732L248.048 28.1429H257.506L254.797 14.3732H254.795ZM159.55 14.3732L152.803 28.1429H162.259L159.55 14.3732ZM56.212 14.3732L49.465 28.1429H58.923L56.214 14.3732H56.212ZM195.457 8.79804L194.859 8.80191L194.395 8.81545C194.233 8.82125 194.063 8.83093 193.892 8.84447L193.631 8.86575L191.98 21.4921H196.223C198.817 21.4921 201.352 18.4047 201.53 15.1122C201.705 11.2839 199.347 8.79804 195.457 8.79804ZM16.626 7.52128L15.9985 7.52515C15.6789 7.52902 15.3417 7.53869 14.9636 7.56384L14.6382 7.58899L13.1336 18.6039H17.5907C19.8183 18.6039 21.9875 15.9866 22.1707 12.963C22.3461 9.67243 20.1789 7.52321 16.6241 7.52321L16.626 7.52128Z" fill="#008193"/>
</svg>
