<svg width="56" height="57" viewBox="0 0 56 57" fill="none" xmlns="http://www.w3.org/2000/svg">
<path d="M10.5499 51.4603C9.98985 48.9963 10.0832 35.9903 10.5499 31.3003L12.2999 23.6003L15.8699 15.6903L16.2899 10.5803L16.9199 7.08031L20.4899 5.82031H39.3899L41.5599 7.57031L41.9799 13.3803H43.5199L45.4099 15.6903V18.0703L41.5599 21.3603V25.9103H43.5199L45.4099 28.2903V30.7403L41.5599 34.9403V44.3203L39.3899 47.1903H21.9599C18.0865 48.357 11.1099 53.9243 10.5499 51.4603Z" fill="#E2F1F3"/>
<path fill-rule="evenodd" clip-rule="evenodd" d="M22.3011 36.34C27.3656 36.34 31.4711 32.2345 31.4711 27.17C31.4711 22.1055 27.3656 18 22.3011 18C20.0675 18 18.0203 18.7986 16.4297 20.1259V28.4894L20.4539 24.861L22.9608 25.3228L24.5441 27.6978V29.413L21.7074 32.2498L20.0581 35.5483L19.9001 36.0224C20.6654 36.2295 21.4703 36.34 22.3011 36.34Z" fill="#00B8C5"/>
<path fill-rule="evenodd" clip-rule="evenodd" d="M20.0704 4.56055C17.5188 4.56055 15.4504 6.62899 15.4504 9.18055V14.0357C12.7918 18.8721 10.4436 27.552 9.59417 31.2936C9.47433 31.8214 9.80506 32.3464 10.3329 32.4662C10.8607 32.586 11.3857 32.2553 11.5055 31.7275C12.1566 28.8596 13.6575 23.2465 15.4504 18.7247V21.6405C15.4504 22.1818 15.8891 22.6205 16.4304 22.6205C16.9716 22.6205 17.4104 22.1818 17.4104 21.6405V14.3082C17.4106 14.297 17.4106 14.2859 17.4104 14.2747V9.18055C17.4104 7.71147 18.6013 6.52055 20.0704 6.52055H37.9904C39.4595 6.52055 40.6504 7.71147 40.6504 9.18055V25.7933C40.6388 25.8786 40.6384 25.9664 40.6504 26.0549V43.4805C40.6504 44.9496 39.4595 46.1405 37.9904 46.1405H29.8004C29.2591 46.1405 28.8204 46.5793 28.8204 47.1205C28.8204 47.6618 29.2591 48.1005 29.8004 48.1005H37.9904C40.5419 48.1005 42.6104 46.0321 42.6104 43.4805V35.1782C42.8108 35.1174 42.9934 34.9922 43.1241 34.8083C43.8474 33.7905 44.6134 32.8751 45.2965 32.0586L45.2965 32.0586C45.5218 31.7894 45.738 31.531 45.9408 31.2832C47.0528 29.9241 46.6087 28.0471 45.7694 26.8287C45.0921 25.8455 43.9655 24.9861 42.6104 24.8717V22.4403C42.7329 22.3697 42.842 22.2714 42.9275 22.1472C43.703 21.0212 44.5494 20.0096 45.2963 19.1169L45.2963 19.1169C45.5218 18.8474 45.7381 18.5888 45.9408 18.3411C46.9657 17.0885 46.662 15.3858 45.9705 14.203C45.3126 13.0777 44.1121 12.058 42.6104 11.9316V9.18055C42.6104 6.62899 40.5419 4.56055 37.9904 4.56055H20.0704ZM42.6104 13.908V19.2977C43.0378 18.7608 43.4552 18.2622 43.8292 17.8153C44.0438 17.559 44.244 17.3197 44.4238 17.1C44.7083 16.7523 44.7671 16.0281 44.2784 15.1922C43.8776 14.5066 43.2565 14.0282 42.6104 13.908ZM42.6104 26.8517V32.2397C43.0374 31.7035 43.4549 31.2046 43.829 30.7576L43.829 30.7576C44.0437 30.5011 44.2441 30.2617 44.4238 30.0421C44.7335 29.6635 44.7669 28.8284 44.1553 27.9406C43.7487 27.3503 43.1966 26.9583 42.6104 26.8517ZM22.0049 26.1402C21.5509 26.0872 20.9869 26.2031 20.3461 26.7347C12.811 32.9871 10.6352 41.8428 11.5256 51.3694C11.576 51.9082 11.1799 52.3859 10.641 52.4363C10.1021 52.4867 9.62446 52.0906 9.5741 51.5518C8.64565 41.6183 10.9021 32.0242 19.0946 25.2264C20.0989 24.393 21.1862 24.0714 22.2321 24.1934C23.254 24.3126 24.1276 24.8421 24.7698 25.5128C25.4102 26.1816 25.8704 27.0409 26.0396 27.922C26.2089 28.8035 26.0974 29.7985 25.4489 30.5911C25.2464 30.8386 25.0298 31.0976 24.804 31.3675L24.804 31.3675C23.8045 32.5627 22.6261 33.9718 21.7056 35.538C20.5777 37.4575 19.964 39.4108 20.4575 41.269C21.0384 43.4556 21.5944 44.8104 22.0074 45.6444C22.2134 46.0606 22.3874 46.3543 22.5184 46.5654C22.5518 46.6192 22.5828 46.6681 22.6123 46.7148L22.6205 46.7277C22.6464 46.7687 22.673 46.8106 22.6967 46.8489L22.6971 46.8495C22.7388 46.9167 22.8166 47.0423 22.8703 47.1766C23.0713 47.6791 22.8269 48.2495 22.3243 48.4505C21.8327 48.6471 21.2761 48.4174 21.064 47.9367L21.0626 47.9342C21.0575 47.9255 21.0476 47.9086 21.0307 47.8814C21.0121 47.8514 20.9906 47.8174 20.963 47.7738L20.9562 47.7631C20.9263 47.7159 20.8915 47.6608 20.8533 47.5992C20.6977 47.3487 20.4911 46.9993 20.2509 46.5142C19.7714 45.5458 19.1724 44.0655 18.5632 41.7721C17.8702 39.1629 18.7869 36.6362 20.0158 34.545C21.0277 32.8232 22.3371 31.2595 23.3375 30.0649L23.3375 30.0648L23.3376 30.0647C23.5519 29.8089 23.752 29.5699 23.9319 29.35C24.1138 29.1276 24.2076 28.7751 24.1148 28.2916C24.0218 27.8077 23.7526 27.2845 23.3541 26.8683C22.9575 26.454 22.4829 26.196 22.0049 26.1402Z" fill="#008193"/>
<ellipse cx="30.0108" cy="41.2412" rx="1.96" ry="1.96" fill="#008193"/>
<ellipse cx="26.0894" cy="47.1206" rx="0.98" ry="0.980001" fill="#008193"/>
</svg>
