<svg width="71" height="70" viewBox="0 0 71 70" fill="none" xmlns="http://www.w3.org/2000/svg">
<path d="M20.9874 42.2625V31.0625L27.1999 29.6625V19.425L35.0749 18.8125L35.7749 7.26245H44.3499L44.9624 19.425H53.0124L53.5374 30.3625H58.9624L59.8374 46.6375L41.4624 63.0875L35.7749 60.9874L30.6124 62.65L25.8874 60.9874L22.1249 62.65L16.9624 49.7L20.9874 47.4249V42.2625Z" fill="#E2F1F3"/>
<path d="M39.1875 62.8248V39.9873L63.95 49.0873L58.7875 63.2623L39.1875 62.8248Z" fill="#00B8C5"/>
<path fill-rule="evenodd" clip-rule="evenodd" d="M37.2625 5.7749C36.3076 5.7749 35.5897 6.35183 35.1657 6.9836C34.7365 7.62321 34.5107 8.43692 34.5107 9.2749V17.6749C34.5107 17.7343 34.5149 17.7927 34.5231 17.8499H28.7268C27.772 17.8499 27.054 18.4268 26.63 19.0586C26.2008 19.6982 25.975 20.5119 25.975 21.3499V28.6999H23C21.067 28.6999 19.5 30.2669 19.5 32.1999V41.9124C19.5 42.589 20.0485 43.1374 20.725 43.1374C21.4015 43.1374 21.95 42.589 21.95 41.9124V32.1999C21.95 31.62 22.4201 31.1499 23 31.1499H57.825C58.4049 31.1499 58.875 31.62 58.875 32.1999V45.5605L40.8841 38.6409C40.352 38.4363 39.7624 38.4389 39.2321 38.6482L17.2882 47.3103C16.1419 47.7628 15.5643 49.0457 15.9854 50.2039L18.4362 56.9436C18.6674 57.5794 19.3703 57.9074 20.0061 57.6762C20.6419 57.445 20.9699 56.7421 20.7387 56.1063L18.3461 49.5266L40.0683 40.9521L59.2924 48.346C59.5039 48.5316 59.7798 48.6455 60.0822 48.6498L62.3955 49.5395L58.0106 61.8624H40.2747L38.2538 61.1407L37.1841 60.1728C36.431 59.4914 35.3174 59.3918 34.4553 59.9286L32.9845 60.8443C31.7963 61.5842 30.309 61.6536 29.057 61.0276L27.276 60.1371C26.61 59.8041 25.823 59.8181 25.1692 60.1747L23.6515 61.0026C22.3273 61.7249 20.7103 61.6461 19.4626 60.7986L18.0846 59.8626C17.2721 59.3107 16.1924 59.3637 15.4379 59.9925C14.5851 60.7032 13.5702 61.1926 12.4831 61.4175L11.9018 61.5378C11.2393 61.6749 10.8133 62.3231 10.9504 62.9856C11.0875 63.6481 11.7357 64.0741 12.3982 63.937L12.9795 63.8167C14.3998 63.5229 15.7296 62.8977 16.861 61.9932L18.0859 62.8253C20.0933 64.1887 22.6944 64.3154 24.8247 63.1534L26.2622 62.3693L27.9614 63.2189C29.9754 64.226 32.368 64.1143 34.2795 62.9241L35.6382 62.0781L36.6359 62.9808C36.8572 63.1811 37.1159 63.3358 37.397 63.4362L39.4792 64.1799C39.7248 64.2676 39.9836 64.3124 40.2444 64.3124H58.1341C59.0965 64.3124 59.9548 63.7068 60.2775 62.8001L64.7609 50.2001C65.1746 49.0375 64.586 47.757 63.4342 47.3141L61.325 46.5028V32.1999C61.325 30.2669 59.758 28.6999 57.825 28.6999H54.85V21.3499C54.85 20.5119 54.6242 19.6982 54.195 19.0586C53.771 18.4268 53.053 17.8499 52.0982 17.8499H46.2626C46.2708 17.7927 46.275 17.7343 46.275 17.6749V9.2749C46.275 8.43692 46.0492 7.62321 45.62 6.9836C45.196 6.35182 44.478 5.7749 43.5232 5.7749H37.2625ZM43.8374 17.8499C43.8292 17.7927 43.825 17.7343 43.825 17.6749V9.2749C43.825 8.85644 43.709 8.53265 43.5856 8.34887C43.5369 8.27621 43.5001 8.24083 43.4793 8.2249H37.3064C37.2856 8.24083 37.2488 8.27621 37.2 8.34887C37.0767 8.53265 36.9607 8.85644 36.9607 9.2749V17.6749C36.9607 17.7343 36.9565 17.7927 36.9483 17.8499H43.8374ZM37.3258 8.2134C37.3259 8.2138 37.3229 8.21565 37.3166 8.21776C37.3225 8.21405 37.3257 8.21299 37.3258 8.2134ZM43.4599 8.2134C43.46 8.21299 43.4632 8.21405 43.4691 8.21776C43.4628 8.21565 43.4598 8.2138 43.4599 8.2134ZM52.4 21.3499V28.6999H28.425V21.3499C28.425 20.9314 28.541 20.6076 28.6644 20.4239C28.7131 20.3512 28.7499 20.3158 28.7707 20.2999H52.0543C52.0751 20.3158 52.1119 20.3512 52.1606 20.4239C52.284 20.6076 52.4 20.9314 52.4 21.3499ZM28.7901 20.2884C28.7902 20.2888 28.7872 20.2907 28.7809 20.2928C28.7868 20.289 28.79 20.288 28.7901 20.2884ZM52.0349 20.2884C52.035 20.288 52.0382 20.289 52.0441 20.2928C52.0378 20.2907 52.0348 20.2888 52.0349 20.2884Z" fill="#008193"/>
<path d="M30.875 49.6999C31.5515 49.6999 32.1 49.1515 32.1 48.4749C32.1 47.7984 31.5515 47.2499 30.875 47.2499C30.1985 47.2499 29.65 47.7984 29.65 48.4749C29.65 49.1515 30.1985 49.6999 30.875 49.6999Z" fill="#008193"/>
<path d="M7.6 61.7749C8.27655 61.7749 8.825 61.2265 8.825 60.5499C8.825 59.8734 8.27655 59.3249 7.6 59.3249C6.92345 59.3249 6.375 59.8734 6.375 60.5499C6.375 61.2265 6.92345 61.7749 7.6 61.7749Z" fill="#008193"/>
</svg>
