<svg width="738" height="554" viewBox="0 0 738 554" fill="none" xmlns="http://www.w3.org/2000/svg">
<circle cx="189.828" cy="174.578" r="151.828" fill="#E2F1F3"/>
<path d="M118 274.75C84.4 274.75 62 300.75 55 313.75L74 335.75L273 374.75L328 328.75C321.333 327.75 293.6 323.35 236 313.75C164 301.75 160 274.75 118 274.75Z" fill="white"/>
<path d="M688.277 232.885C664.292 221.215 639.338 211.621 613.693 204.287C607.235 202.442 600.639 200.689 593.905 199.997C586.94 199.306 580.021 200.044 573.149 201.289C559.911 203.687 546.858 207.193 533.989 211.114C519.367 215.588 504.976 220.708 490.631 225.827C489.801 226.104 489.432 224.813 490.262 224.49C516.461 215.173 542.845 205.809 570.197 200.459C576.562 199.213 583.066 198.199 589.569 198.383C596.165 198.568 602.669 199.905 608.988 201.566C621.949 204.979 634.772 209.222 647.364 213.881C661.524 219.139 675.362 225.089 688.923 231.685C689.753 232.054 689.061 233.254 688.277 232.885Z" fill="#E8E8E8"/>
<path d="M558.112 203.918C539.478 198.891 520.428 195.524 501.332 192.664C491.923 191.28 482.513 189.989 473.058 188.697C463.371 187.406 453.639 186.206 443.815 186.114C408.713 185.837 375.319 198.383 341.74 206.778C323.105 211.437 304.056 214.896 284.776 214.389C283.899 214.389 283.899 213.005 284.776 213.005C320.2 213.927 353.871 201.52 387.727 192.894C404.285 188.697 421.121 185.284 438.233 184.73C456.96 184.177 475.687 187.544 494.183 190.173C515.816 193.263 537.356 196.815 558.481 202.535C559.311 202.857 558.942 204.195 558.112 203.918Z" fill="#E8E8E8"/>
<path d="M342.017 225.504C323.336 226.703 304.517 225.734 286.067 222.459C267.663 219.231 249.444 212.174 230.486 213.557C229.61 213.603 229.61 212.22 230.486 212.174C248.982 210.836 266.741 217.478 284.683 220.799C303.594 224.304 322.875 225.365 342.017 224.12C342.893 224.074 342.893 225.458 342.017 225.504Z" fill="#E8E8E8"/>
<path d="M666.459 411.203C635.048 401.425 601.469 395.475 568.859 402.301C559.91 404.192 551.239 407.006 542.936 410.834C542.152 411.203 541.414 410.004 542.244 409.635C572.272 395.751 606.358 395.705 638.277 402.347C647.917 404.331 657.465 406.96 666.874 409.866C667.658 410.142 667.289 411.48 666.459 411.203Z" fill="#E8E8E8"/>
<path d="M423.796 260.052C416.462 261.02 409.543 257.192 402.255 256.961C394.368 256.684 386.619 258.945 379.147 261.159C378.27 261.389 377.947 260.098 378.778 259.821C386.112 257.653 393.676 255.439 401.379 255.577C408.943 255.67 416.185 259.683 423.75 258.714C424.672 258.529 424.672 259.913 423.796 260.052Z" fill="#E8E8E8"/>
<path d="M384.221 256.454C372.828 252.671 360.605 252.533 349.166 256.131C348.335 256.407 347.966 255.07 348.797 254.793C360.466 251.103 372.966 251.241 384.59 255.116C385.42 255.393 385.051 256.73 384.221 256.454Z" fill="#E8E8E8"/>
<path d="M585.28 342.985C582.927 343.308 580.759 343.123 578.545 342.385C578.176 342.247 577.992 341.924 578.084 341.555C578.453 339.48 578.822 337.404 579.191 335.328C579.514 335.605 579.883 335.836 580.206 336.112C579.007 336.943 577.531 336.528 576.654 335.374C575.086 333.345 577.069 331.039 576.562 328.871C575.455 324.166 569.505 329.886 568.075 331.362C565.953 333.529 564.247 336.02 562.909 338.742C562.494 339.526 561.341 338.834 561.71 338.05C563.924 333.576 567.752 328.179 572.595 326.149C574.117 325.504 576.009 325.319 577.208 326.657C577.807 327.303 578.038 328.179 578.038 329.055C578.038 329.563 577.992 330.024 577.9 330.531C577.854 330.9 577.761 331.223 577.669 331.592C577.069 333.114 577.669 334.221 579.56 334.867C580.114 334.498 580.667 335.098 580.575 335.651C580.206 337.727 579.837 339.802 579.468 341.878C579.33 341.601 579.145 341.325 579.007 341.048C580.99 341.74 582.927 341.97 585.003 341.647C585.787 341.555 586.202 342.893 585.28 342.985Z" fill="#E8E8E8"/>
<path d="M308.714 290.495C308.207 289.296 307.745 288.096 307.192 286.943C306.454 285.329 304.886 284.729 303.225 285.329C301.288 286.021 299.674 286.805 297.598 286.113C295.707 285.467 294.231 283.945 292.893 282.561C291.925 281.593 290.91 280.578 289.664 280.024C288.004 279.286 284.498 279.748 285.236 282.515C285.467 283.392 284.129 283.761 283.899 282.884C283.299 280.578 285.098 278.641 287.358 278.272C290.126 277.81 292.34 280.071 294.139 281.869C296.076 283.807 298.105 285.698 301.057 284.775C302.303 284.36 303.502 283.576 304.84 283.53C308.114 283.392 308.899 287.497 309.913 289.849C310.236 290.633 309.083 291.325 308.714 290.495Z" fill="#E8E8E8"/>
<path d="M376.564 427.578C365.079 433.251 352.625 428.546 340.817 426.748C333.853 425.687 326.98 426.379 320.061 427.255C313.004 428.131 305.901 429.008 298.844 429.93C297.967 430.022 297.967 428.639 298.844 428.546C305.486 427.716 312.128 426.886 318.724 426.056C325.273 425.225 331.869 424.349 338.465 425.087C350.78 426.425 363.926 432.329 375.872 426.425C376.657 426.01 377.395 427.209 376.564 427.578Z" fill="#E8E8E8"/>
<path d="M513.694 388.648C509.036 393.307 507.052 399.811 509.174 406.13C509.728 407.836 507.052 408.528 506.499 406.868C504.1 399.626 506.406 391.969 511.757 386.711C513.002 385.42 514.94 387.357 513.694 388.648Z" fill="#E8E8E8"/>
<path d="M509.035 407.514C507.421 411.48 503.731 413.971 499.626 414.709C498.749 414.848 498.38 413.51 499.257 413.372C502.854 412.726 506.268 410.65 507.697 407.145C508.02 406.315 509.358 406.683 509.035 407.514Z" fill="#E8E8E8"/>
<path d="M499.487 413.372C502.3 413.418 506.405 413.003 508.988 414.433C511.064 415.632 511.802 418.307 512.033 420.521C512.632 425.872 508.435 429.792 503.131 428.824C502.254 428.685 502.623 427.348 503.5 427.486C508.25 428.363 511.387 424.442 510.557 419.922C510.142 417.754 509.357 415.678 507.005 415.171C504.607 414.663 501.931 414.756 499.487 414.709C498.61 414.756 498.61 413.372 499.487 413.372Z" fill="#E8E8E8"/>
<path d="M503.869 427.67C506.683 427.901 510.465 429.377 509.865 432.79C509.358 435.788 507.006 438.833 505.345 441.277C503.915 443.353 502.255 445.198 500.456 446.905C494.275 452.716 486.987 456.867 480.207 461.849C473.749 466.646 468.261 472.596 463.648 479.192C463.141 479.93 461.941 479.238 462.449 478.5C467.938 470.705 474.626 463.648 482.698 458.482C489.893 453.869 497.965 448.749 503.223 441.923C504.376 440.447 505.345 438.833 506.314 437.218C507.144 435.835 508.297 434.266 508.528 432.652C508.897 430.161 505.899 429.239 503.869 429.1C502.993 428.962 502.947 427.578 503.869 427.67Z" fill="#E8E8E8"/>
<path d="M512.863 387.403C498.518 392.938 484.45 399.027 473.657 410.327C463.694 420.798 457.282 434.082 454.146 448.15C453.177 452.578 452.531 457.052 452.116 461.526C451.886 463.786 451.747 466.092 451.655 468.353C451.609 469.367 451.609 470.336 451.563 471.351C451.563 471.581 451.609 475.963 451.932 475.733C452.67 475.225 453.362 476.424 452.624 476.932C450.087 478.638 450.133 473.703 450.133 472.642C450.179 468.076 450.41 463.509 450.963 458.989C451.978 450.133 453.961 441.369 457.328 433.113C463.048 419.137 472.78 406.914 485.511 398.704C493.859 393.307 503.223 389.663 512.448 386.112C513.324 385.743 513.693 387.08 512.863 387.403Z" fill="#E8E8E8"/>
<path d="M508.574 392.293C488.418 409.866 471.951 431.868 462.034 456.776C459.359 463.51 457.191 470.428 455.53 477.486C455.346 478.362 454.008 477.993 454.193 477.117C460.281 451.517 473.196 427.855 490.585 408.16C495.89 402.164 501.563 396.536 507.606 391.324C508.251 390.725 509.22 391.739 508.574 392.293Z" fill="#E8E8E8"/>
<path d="M507.836 406.822C502.624 407.837 497.596 409.359 492.707 411.388C491.877 411.711 491.508 410.373 492.338 410.051C497.227 408.021 502.301 406.499 507.467 405.484C508.343 405.3 508.712 406.637 507.836 406.822Z" fill="#E8E8E8"/>
<path d="M487.817 411.112C486.526 407.837 484.681 404.885 482.375 402.209C481.775 401.564 482.744 400.549 483.343 401.241C485.834 404.054 487.771 407.237 489.155 410.743C489.432 411.573 488.094 411.942 487.817 411.112Z" fill="#E8E8E8"/>
<path d="M460.05 385.374C452.809 401.979 444.875 421.443 454.562 438.786C454.977 439.571 453.824 440.262 453.362 439.478C443.399 421.628 451.379 401.748 458.851 384.682C459.22 383.898 460.419 384.59 460.05 385.374Z" fill="#E8E8E8"/>
<path d="M458.804 384.174C454.607 385.742 447.227 388.417 448.288 394.229C448.426 395.106 447.135 395.475 446.95 394.598C445.705 387.864 453.408 384.774 458.389 382.836C459.266 382.56 459.635 383.897 458.804 384.174Z" fill="#E8E8E8"/>
<path d="M447.227 394.876C444.875 392.892 441.831 395.014 440.539 397.182C439.294 399.257 439.201 401.702 440.17 403.916C440.539 404.746 439.34 405.438 438.971 404.608C437.587 401.471 437.956 397.92 440.216 395.245C442.2 392.892 445.613 391.785 448.196 393.907C448.888 394.46 447.873 395.429 447.227 394.876Z" fill="#E8E8E8"/>
<path d="M440.217 405.761C436.388 405.346 434.313 409.082 432.698 411.988C430.946 415.17 429.377 418.445 428.086 421.858C425.595 428.454 424.119 435.419 423.75 442.43C423.104 454.884 426.01 467.845 435.927 476.194C436.619 476.793 435.604 477.762 434.959 477.162C424.165 468.03 421.398 453.5 422.551 440.032C423.243 432.421 425.18 424.949 428.224 417.938C429.746 414.432 431.453 410.696 433.805 407.652C435.42 405.622 437.542 404.1 440.217 404.423C441.093 404.469 441.093 405.853 440.217 405.761Z" fill="#E8E8E8"/>
<path d="M457.56 386.204C448.104 399.396 439.986 414.064 437.034 430.208C435.604 438.049 435.466 446.213 436.988 454.054C437.726 457.79 438.787 461.526 440.217 465.032C440.955 466.877 441.831 468.722 442.8 470.475C443.722 472.135 444.968 475.364 446.951 475.871C447.827 476.102 447.458 477.44 446.582 477.209C444.23 476.609 443.076 473.796 441.969 471.858C440.401 469.091 439.11 466.231 438.049 463.233C435.881 457.191 434.728 450.779 434.543 444.368C434.128 430.992 437.957 417.938 443.814 405.992C447.366 398.75 451.656 391.97 456.36 385.42C456.914 384.774 458.113 385.466 457.56 386.204Z" fill="#E8E8E8"/>
<path d="M424.719 427.993C424.488 427.209 424.258 426.379 424.027 425.595C423.889 425.088 423.658 423.612 423.335 423.196C422.274 421.813 418.861 422.781 417.385 422.966C416.739 423.012 416.509 422.182 416.878 421.767C418.4 420.198 420.152 418.03 419.322 415.724C418.538 413.51 414.986 412.495 413.603 414.802C413.234 414.525 412.865 414.248 412.496 413.971C413.51 412.726 414.617 411.112 414.479 409.405C414.295 407.237 412.127 405.853 410.051 406.13C409.451 406.222 408.99 405.669 409.267 405.115C411.435 400.687 407.606 395.798 406.177 391.693C404.701 387.496 404.147 383.068 404.332 378.64C404.378 377.763 405.761 377.763 405.715 378.64C405.439 384.359 406.638 389.802 408.99 394.968C410.605 398.427 412.265 402.071 410.466 405.807C410.189 405.484 409.959 405.115 409.682 404.793C412.034 404.47 414.571 405.484 415.54 407.837C416.601 410.42 415.125 413.003 413.51 414.94C413.003 415.54 412.034 414.756 412.403 414.11C413.879 411.619 417.616 411.573 419.553 413.556C422.413 416.508 420.106 420.383 417.8 422.735C417.616 422.32 417.477 421.951 417.293 421.536C418.953 421.351 422.459 420.244 423.889 421.536C425.272 422.781 425.549 425.964 426.01 427.624C426.287 428.501 424.949 428.87 424.719 427.993Z" fill="#E8E8E8"/>
<path d="M405.485 380.069C402.21 386.941 400.688 394.367 399.212 401.793C397.69 409.727 396.121 417.707 396.075 425.825C396.075 438.647 400.688 450.963 408.437 461.064C413.095 467.153 418.769 472.365 425.088 476.608C425.826 477.116 425.134 478.315 424.396 477.808C413.418 470.428 404.332 460.188 399.166 447.918C396.721 442.153 395.199 435.972 394.784 429.699C394.23 421.535 395.568 413.371 397.09 405.345C398.75 396.489 400.365 387.587 404.239 379.377C404.701 378.546 405.9 379.238 405.485 380.069Z" fill="#E8E8E8"/>
<path d="M404.147 385.605C402.994 401.933 404.839 418.307 409.451 433.99C411.804 441.969 414.894 449.764 418.63 457.237C422.136 464.201 426.01 472.919 432.837 477.209C433.575 477.67 432.883 478.869 432.145 478.408C427.071 475.179 424.027 469.967 421.121 464.847C417.846 459.082 414.986 453.131 412.542 446.997C407.56 434.635 404.378 421.582 403.086 408.298C402.348 400.78 402.256 393.169 402.809 385.605C402.856 384.728 404.239 384.728 404.147 385.605Z" fill="#E8E8E8"/>
<path d="M196.031 463.279C196.999 449.995 194.047 436.711 187.405 425.133C187.728 425.225 188.051 425.318 188.374 425.364C187.498 425.779 186.667 426.24 185.791 426.655C185.238 426.932 184.684 426.471 184.776 425.871C185.007 424.718 184.915 423.749 184.546 422.596C184.822 422.735 185.099 422.919 185.376 423.058C184.546 423.288 183.761 423.519 182.931 423.749C182.424 423.888 181.963 423.38 182.101 422.919C182.747 420.198 180.118 418.214 178.273 416.692C176.52 415.216 174.813 413.694 173.245 411.988C170.247 408.759 167.71 405.161 165.634 401.24C166.049 401.24 166.418 401.24 166.834 401.24C162.129 412.034 162.959 424.856 168.771 435.096C171.861 440.539 176.382 444.367 180.948 448.472C185.653 452.67 189.296 457.513 191.464 463.463C191.787 464.293 190.45 464.662 190.127 463.832C187.498 456.637 182.562 451.747 176.935 446.812C172.369 442.799 168.54 438.371 166.003 432.79C161.391 422.642 161.114 410.834 165.588 400.549C165.819 400.087 166.557 400.133 166.787 400.549C169.417 405.484 172.784 409.912 176.889 413.694C179.656 416.231 184.407 418.86 183.392 423.288C183.116 423.011 182.839 422.735 182.562 422.458C183.393 422.227 184.177 421.997 185.007 421.766C185.376 421.674 185.745 421.904 185.837 422.227C186.252 423.611 186.345 424.81 186.068 426.194C185.745 425.917 185.376 425.687 185.053 425.41C185.929 424.995 186.76 424.534 187.636 424.118C187.959 423.934 188.374 424.026 188.605 424.349C195.339 436.111 198.429 449.672 197.415 463.186C197.368 464.155 195.985 464.155 196.031 463.279Z" fill="#E8E8E8"/>
<path d="M161.944 418.26C159.039 415.355 156.456 412.218 154.149 408.805C154.518 408.851 154.887 408.897 155.256 408.943C150.552 414.386 148.568 421.858 149.814 428.961C150.09 430.484 150.505 432.006 151.059 433.482C151.428 434.45 151.843 435.511 152.443 436.341C153.042 437.264 153.504 437.402 154.518 437.771C155.21 438.002 155.856 437.956 156.225 438.74C156.363 439.017 156.225 439.155 156.225 439.432C155.856 440.216 155.625 441 155.533 441.876C155.487 442.384 155.487 442.845 155.579 443.352C155.349 443.122 155.118 442.891 154.887 442.661C157.978 442.799 157.701 445.843 158.9 447.919C160.561 450.779 164.666 451.563 167.48 452.808C173.799 455.622 179.472 459.773 184.131 464.893C184.73 465.539 183.762 466.553 183.162 465.861C178.734 461.018 173.476 457.052 167.48 454.284C165.035 453.177 162.314 452.485 160.053 450.963C159.269 450.456 158.577 449.856 158.024 449.072C157.101 447.78 156.779 444.044 154.887 443.952C154.472 443.952 154.242 443.629 154.196 443.26C154.149 442.476 154.149 441.692 154.288 440.908C154.518 439.755 155.072 439.478 153.919 439.017C152.673 438.509 152.212 438.509 151.474 437.264C149.675 434.312 148.614 430.853 148.245 427.439C147.507 420.382 149.675 413.279 154.288 407.928C154.611 407.559 155.164 407.744 155.395 408.067C157.655 411.388 160.146 414.432 162.959 417.246C163.513 417.938 162.544 418.906 161.944 418.26Z" fill="#E8E8E8"/>
<path d="M169.647 413.833C170.109 418.03 173.245 422.136 175.459 425.641C177.719 429.147 180.118 432.514 182.47 435.927C187.036 442.569 191.418 449.303 194.324 456.868C194.647 457.698 193.309 458.067 192.987 457.237C189.85 449.073 184.915 441.877 179.979 434.728C177.627 431.314 175.275 427.901 173.061 424.396C171.077 421.167 168.725 417.708 168.31 413.833C168.125 412.957 169.509 412.957 169.647 413.833Z" fill="#E8E8E8"/>
<path d="M180.533 417.615C180.855 420.89 180.394 424.119 179.103 427.163C178.78 427.993 177.442 427.624 177.765 426.794C178.964 423.842 179.425 420.798 179.103 417.615C179.056 416.739 180.44 416.739 180.533 417.615Z" fill="#E8E8E8"/>
<path d="M182.424 438.464C179.518 438.925 176.75 438.556 174.029 437.357C173.199 436.988 173.937 435.789 174.721 436.158C177.027 437.172 179.518 437.541 182.009 437.126C182.885 437.034 183.3 438.325 182.424 438.464Z" fill="#E8E8E8"/>
<path d="M335.974 477.578C302.81 477.578 269.6 477.578 236.436 477.578C203.272 477.578 170.063 477.578 136.899 477.578C118.172 477.578 99.399 477.578 80.6723 477.578C77.9971 477.578 77.9971 473.427 80.6723 473.427C113.836 473.427 147.046 473.427 180.21 473.427C213.374 473.427 246.584 473.427 279.748 473.427C298.474 473.427 317.247 473.427 335.974 473.427C338.649 473.427 338.649 477.578 335.974 477.578Z" fill="#D3D3D3"/>
<path d="M363.788 477.024C358.022 477.024 352.302 477.024 346.537 477.024C343.861 477.024 343.861 472.873 346.537 472.873C352.302 472.873 358.022 472.873 363.788 472.873C366.463 472.873 366.463 477.024 363.788 477.024Z" fill="#D3D3D3"/>
<path d="M386.02 477.578C383.621 477.578 381.177 477.578 378.778 477.578C376.103 477.578 376.103 473.427 378.778 473.427C381.177 473.427 383.621 473.427 386.02 473.427C388.695 473.427 388.695 477.578 386.02 477.578Z" fill="#D3D3D3"/>
<path d="M572.365 481.682C539.431 481.682 506.498 481.682 473.565 481.682C470.89 481.682 470.89 477.531 473.565 477.531C506.498 477.531 539.431 477.531 572.365 477.531C575.04 477.531 575.04 481.682 572.365 481.682Z" fill="#D3D3D3"/>
<path d="M603.038 469.782C591.968 469.782 580.898 469.782 569.827 469.782C567.152 469.782 567.152 465.631 569.827 465.631C580.898 465.631 591.968 465.631 603.038 465.631C605.713 465.631 605.713 469.782 603.038 469.782Z" fill="#D3D3D3"/>
<path d="M556.175 472.319C552.485 472.319 548.795 472.319 545.105 472.319C542.43 472.319 542.43 468.168 545.105 468.168C548.795 468.168 552.485 468.168 556.175 468.168C558.85 468.168 558.85 472.319 556.175 472.319Z" fill="#D3D3D3"/>
<path d="M472.32 165.126C470.29 161.252 467.938 157.608 465.17 154.194C463.51 152.119 466.416 149.167 468.122 151.242C471.121 154.932 473.704 158.807 475.918 163.004C477.163 165.357 473.565 167.478 472.32 165.126Z" fill="#161616"/>
<path d="M452.67 136.668C451.425 133.531 449.488 130.856 447.089 128.55C445.152 126.705 448.058 123.799 450.041 125.598C453.039 128.365 455.207 131.732 456.73 135.515C457.652 138.051 453.639 139.112 452.67 136.668Z" fill="#161616"/>
<path d="M434.959 110.469C432.191 107.194 429.424 103.919 426.656 100.644C424.95 98.6144 427.856 95.6624 429.608 97.6919C432.376 100.967 435.143 104.242 437.911 107.517C439.571 109.592 436.665 112.544 434.959 110.469Z" fill="#161616"/>
<path d="M410.835 80.2561C407.006 77.0273 403.224 73.7986 399.396 70.6159C397.366 68.9093 400.318 65.9573 402.348 67.6639C406.176 70.8927 409.958 74.1214 413.787 77.3041C415.816 79.0568 412.864 81.9627 410.835 80.2561Z" fill="#161616"/>
<path d="M376.379 57.2404C373.566 56.2256 370.752 55.8105 367.8 56.0411C365.125 56.2256 365.125 52.0744 367.8 51.8899C371.121 51.6593 374.35 52.1205 377.486 53.2275C379.977 54.1039 378.916 58.1168 376.379 57.2404Z" fill="#161616"/>
<path d="M345.476 57.2403C343.446 58.209 341.832 59.8233 341.094 61.9912C340.218 64.5281 336.205 63.4211 337.081 60.8842C338.142 57.7477 340.356 55.0725 343.354 53.6426C344.369 53.1813 345.614 53.3658 346.214 54.3806C346.767 55.3031 346.491 56.7791 345.476 57.2403Z" fill="#161616"/>
<path d="M493.629 131.225C494.875 127.996 497.688 120.708 501.24 120.801C506.175 120.893 511.157 134.823 511.295 146.907C511.434 159.684 506.083 171.031 502.854 177.811C501.332 181.04 499.902 183.623 498.841 185.422C492.569 171.261 486.342 150.182 493.629 131.225ZM498.15 142.433C499.672 143.817 501.886 144.278 503.454 142.802C503.823 142.479 504.1 142.064 504.33 141.603C505.714 139.666 505.622 136.806 503.685 135.099C502.255 133.854 500.456 133.854 499.072 134.73C498.38 135.099 497.781 135.607 497.412 136.299C497.181 136.714 497.043 137.175 496.95 137.636C496.489 139.297 496.812 141.188 498.15 142.433Z" fill="#FFA745"/>
<path d="M497.365 122.093C490.123 129.196 488.97 140.681 489.062 150.321C489.201 161.16 491.784 171.908 496.535 181.64C496.904 182.424 495.751 183.116 495.335 182.332C490.354 172.138 487.679 160.884 487.679 149.491C487.679 139.712 489.062 128.319 496.396 121.078C496.996 120.478 498.011 121.447 497.365 122.093Z" fill="#BC5B5B"/>
<path d="M502.715 135.145C504.699 137.866 503.869 141.556 500.963 143.217C500.179 143.678 499.487 142.479 500.271 142.017C502.577 140.726 503.084 138.005 501.516 135.883C501.009 135.145 502.208 134.453 502.715 135.145Z" fill="#BC5B5B"/>
<path d="M249.49 436.572C250.366 439.755 248.521 441 249.72 444.644C250.228 446.12 251.289 448.288 257.054 452.716C262.174 456.637 266.833 459.128 268.216 459.819C275.643 463.694 278.595 463.971 280.301 467.384C280.532 467.845 282.238 471.304 280.762 473.565C278.733 476.655 272.552 474.303 259.637 473.334C248.337 472.504 247.414 473.841 238.789 472.642C230.994 471.535 224.859 469.459 220.984 467.891C220.662 459.174 221.999 452.762 223.337 448.427C225.32 442.061 227.119 440.678 228.78 433.021C229.425 430.023 229.471 428.777 230.671 427.809C234.96 424.395 247.506 429.377 249.49 436.572Z" fill="#161616"/>
<path opacity="0.38" d="M244.785 436.849C244.047 437.956 238.512 446.304 241.787 452.67C243.771 456.498 248.245 458.205 254.794 460.649C260.053 462.633 260.745 461.987 264.481 463.647C271.446 466.784 277.58 472.965 276.565 474.948C275.643 476.793 269.416 473.564 255.21 473.057C248.983 472.826 248.152 473.334 243.309 473.057C238.051 472.734 230.394 471.627 221.077 467.845C220.754 462.909 221.215 458.804 221.677 455.944C222.23 452.716 222.968 448.472 225.09 444.044C225.551 443.076 226.474 441.323 227.258 438.694C227.857 436.664 228.18 434.958 228.365 433.851C233.854 434.819 239.343 435.834 244.785 436.849Z" fill="#6C6D6D"/>
<path opacity="0.26" d="M244.093 436.434C240.264 437.449 235.836 438.279 230.901 438.556C229.748 438.602 228.595 438.648 227.488 438.648C227.857 437.033 228.272 435.419 228.641 433.805C233.761 434.681 238.927 435.557 244.093 436.434Z" fill="#6C6D6D"/>
<path d="M182.285 270.753C183.531 279.378 189.573 283.622 201.566 299.673C213.051 315.033 220.8 328.686 225.597 337.865C229.333 346.352 233.207 357.699 235.052 371.444C238.742 399.303 231.87 421.905 227.165 433.851C235.375 435.235 243.585 436.665 251.796 438.048C258.438 422.181 265.31 399.811 265.402 372.782C265.495 344.184 258.115 322.551 244.508 285.651C238.327 268.862 229.287 246.445 216.418 220.615C185.422 244.093 180.763 260.283 182.285 270.753Z" fill="#00B8C5"/>
<path d="M133.486 429.193C134.362 432.375 132.517 433.621 133.716 437.264C134.224 438.74 135.285 440.908 141.05 445.336C146.17 449.257 150.829 451.748 152.213 452.44C159.639 456.314 162.591 456.591 164.297 460.004C164.528 460.465 166.235 463.925 164.759 466.185C162.729 469.275 156.548 466.923 143.633 465.954C132.333 465.124 131.41 466.462 122.785 465.262C114.99 464.155 108.855 462.08 104.98 460.511C104.658 451.794 105.995 445.382 107.333 441.047C109.316 434.681 111.115 433.298 112.776 425.641C113.421 422.643 113.468 421.397 114.667 420.429C118.956 417.016 131.502 421.997 133.486 429.193Z" fill="#161616"/>
<path opacity="0.38" d="M131.871 429.699C131.087 430.622 125.783 437.125 127.858 442.568C129.38 446.535 134.408 448.795 140.266 451.47C145.386 453.823 146.124 453.223 149.721 455.16C152.904 456.867 162.452 464.8 160.976 467.291C160.515 468.121 159.223 467.706 151.197 466.876C146.031 466.369 142.249 465.953 137.729 465.861C133.116 465.769 132.932 466.092 128.919 465.861C124.03 465.584 120.34 464.939 119.279 464.708C115.635 464.016 110.7 462.771 105.072 460.326C104.657 450.732 105.903 445.243 107.056 442.015C109.547 435.096 110.054 434.081 110.054 434.081C111.069 431.913 111.899 430.529 112.314 428.131C112.452 427.208 112.545 426.332 112.868 424.718C113.19 423.196 113.559 421.996 113.882 421.166C114.574 422.411 116.788 426.194 121.539 428.408C126.198 430.622 130.487 429.976 131.871 429.699Z" fill="#6C6D6D"/>
<path opacity="0.38" d="M129.657 429.839C129.011 430.392 123.292 435.051 116.742 433.206C114.528 432.56 112.868 431.361 111.853 430.438C112.545 427.394 113.283 424.396 113.975 421.352C119.187 424.165 124.445 427.025 129.657 429.839Z" fill="#6C6D6D"/>
<path d="M167.341 231.593C164.758 234.868 161.207 239.757 157.563 246.03C146.354 265.218 143.541 281.639 140.035 299.627C135.561 322.598 129.842 345.245 125.091 368.169C120.432 390.678 116.419 409.082 113.744 421.259C114.159 422.043 118.403 429.239 126.613 430.023C130.995 430.438 134.408 428.777 135.884 427.947C148.153 406.038 155.81 387.219 160.607 373.843C173.245 338.695 176.105 312.911 197.692 279.01C201.382 273.198 204.703 268.585 206.963 265.633C215.357 254.702 213.881 239.065 203.872 230.071C193.586 220.708 177.212 221.261 167.341 231.593Z" fill="#00B8C5"/>
<path d="M184.73 246.86C182.793 257.238 178.134 269.369 166.188 270.938C165.312 271.03 165.312 269.646 166.188 269.554C177.442 268.078 181.594 256.085 183.393 246.491C183.531 245.615 184.869 245.984 184.73 246.86Z" fill="#842B08"/>
<path d="M165.589 254.979C150.414 295.061 138.513 336.343 130.026 378.363C127.628 390.355 125.46 402.44 123.615 414.525C123.477 415.401 122.139 415.032 122.277 414.156C128.781 371.813 138.698 329.978 152.028 289.249C155.81 277.626 159.915 266.049 164.251 254.61C164.574 253.779 165.912 254.148 165.589 254.979Z" fill="#842B08"/>
<path d="M202.12 272.552C197.138 280.532 192.203 288.511 187.221 296.491C186.76 297.229 185.561 296.537 186.022 295.799C191.004 287.82 195.939 279.84 200.92 271.86C201.428 271.122 202.627 271.814 202.12 272.552Z" fill="#842B08"/>
<path opacity="0.41" d="M192.479 240.356C184.315 249.766 172.969 264.664 163.559 285.098C158.439 296.214 154.38 311.02 146.262 340.54C137.452 372.643 133.209 393.03 131.963 399.303C129.473 411.618 127.674 422.089 126.382 429.884C125.091 429.746 123.522 429.377 121.862 428.639C117.203 426.563 114.805 422.827 113.882 421.166C114.39 418.629 115.174 414.893 116.143 410.327C117.941 401.794 119.141 396.213 120.478 390.078C121.677 384.589 123.338 376.748 125.368 367.108C126.428 361.85 127.397 357.606 128.043 354.7C129.288 349.257 130.072 346.444 131.272 340.678C132.01 337.219 132.332 335.374 132.794 333.068C134.593 323.843 135.423 321.859 137.406 312.911C139.851 301.749 141.788 289.941 143.725 281.638C144.094 280.024 144.417 278.778 144.602 278.133C145.201 275.78 146.078 272.69 147.323 269.138C151.105 258.022 155.21 250.688 159.546 243.124C166.05 231.731 168.033 230.762 169.002 230.347C178.273 226.565 190.542 238.419 192.479 240.356Z" fill="#6C6D6D"/>
<path opacity="0.39" d="M201.935 271.814C219.278 292.663 229.657 312.174 235.837 325.965C245.293 346.998 260.975 382.007 252.258 422.505C250.874 428.824 249.213 433.944 248.014 437.219C241.095 436.066 234.131 434.912 227.212 433.759C229.195 428.962 231.548 422.366 233.346 414.295C234.73 408.022 238.236 390.171 234.592 367.893C232.977 357.884 230.441 350.55 229.564 347.967C226.797 340.079 223.753 334.36 221.4 329.978C220.201 327.672 217.249 322.321 211.022 313.096C206.548 306.454 200.367 297.829 192.341 288.05C195.57 282.608 198.753 277.211 201.935 271.814Z" fill="#6C6D6D"/>
<path opacity="0.48" d="M197.875 278.963C204.287 287.173 211.482 297.828 217.848 310.928C227.119 329.977 231.454 347.551 233.576 360.65C232.1 354.608 229.656 346.213 225.274 336.804C221.353 328.363 217.571 322.597 212.543 314.987C207.792 307.837 201.15 298.52 192.387 288.003C194.185 284.959 196.03 281.961 197.875 278.963Z" fill="#6C6D6D"/>
<path opacity="0.48" d="M144.463 279.332C139.481 306.038 134.777 333.529 130.395 361.757C126.935 384.22 123.799 406.268 120.985 427.947C120.155 427.578 119.186 427.024 118.218 426.286C115.819 424.487 114.482 422.32 113.79 420.936C123.983 373.704 134.223 326.518 144.463 279.332Z" fill="#6C6D6D"/>
<path d="M312.497 87.9606C312.82 88.1451 314.988 89.2521 315.219 91.3277C315.449 93.1266 314.112 94.5104 313.327 95.3406C309.176 99.6302 301.012 98.5694 299.213 98.2926C297.829 98.7078 295.708 99.4458 293.309 100.599C286.114 104.058 281.732 108.717 280.025 110.516C274.813 115.912 267.203 121.124 251.981 131.595C247.369 134.777 240.496 139.298 231.732 144.233C230.118 144.233 227.443 144.049 224.583 142.757C223.476 142.25 216.142 138.929 215.543 131.779C215.035 126.152 219.094 122.093 219.74 121.447C226.935 118.588 232.886 116.005 237.221 114.067C264.942 101.752 281.686 91.3739 285.468 88.9754C288.235 87.2226 290.496 85.7466 292.018 84.778C293.079 82.933 295.615 79.1046 300.459 76.5677C301.381 76.1065 308.3 72.601 316.049 75.0917C317.479 75.553 318.632 76.1065 319.416 76.5677C323.475 76.0604 328.41 75.6914 328.687 76.7984C328.872 77.5364 326.934 78.5972 324.259 80.1655C321.445 81.8721 317.386 84.409 312.497 87.9606Z" fill="white"/>
<path d="M298.982 97.7392C302.349 98.1082 305.762 97.9237 309.037 96.9551C310.559 96.4938 312.22 95.9403 313.327 94.7872C315.679 92.3887 313.788 89.9902 311.666 88.5142C310.928 88.0068 311.62 86.8076 312.358 87.315C313.88 88.3758 315.495 89.529 315.818 91.4662C316.14 93.3112 315.172 95.064 313.742 96.2171C309.96 99.3536 303.595 99.6303 298.982 99.123C298.106 99.0307 298.106 97.647 298.982 97.7392Z" fill="#161616"/>
<path d="M312.958 87.0839C315.541 85.2851 318.124 83.5323 320.753 81.8718C321.952 81.0877 323.152 80.3497 324.351 79.6117C325.089 79.1505 325.827 78.7353 326.565 78.2741C327.026 77.9973 328.641 77.3977 328.733 76.9826C328.825 77.2593 328.963 77.49 329.056 77.7667C326.888 76.1523 322.275 77.2593 319.969 77.8128C317.34 78.4586 314.342 79.2427 312.036 80.7187C311.298 81.1799 310.606 79.9807 311.344 79.5194C314.157 77.7206 317.986 76.752 321.214 76.1062C323.613 75.645 327.626 74.9992 329.748 76.5675C329.978 76.752 330.163 77.0287 330.07 77.3516C329.794 78.2741 328.733 78.5969 327.995 79.0582C326.38 79.9807 324.812 80.9493 323.244 81.9179C319.969 83.9474 316.786 86.0692 313.65 88.2832C312.912 88.7906 312.22 87.5913 312.958 87.0839Z" fill="#161616"/>
<path d="M319.185 77.5365C314.572 74.5845 308.714 73.8927 303.594 76.1067C298.844 78.1362 295.43 82.1952 292.294 86.1619C291.74 86.8538 290.772 85.8852 291.325 85.1933C294.831 80.8114 298.705 76.3373 304.148 74.4C309.36 72.555 315.218 73.3853 319.83 76.3834C320.615 76.7985 319.923 77.9978 319.185 77.5365Z" fill="#161616"/>
<path d="M292.11 85.9314C269.14 99.8612 245.201 112.084 220.432 122.509C219.602 122.831 219.233 121.494 220.063 121.171C244.694 110.793 268.54 98.6158 291.418 84.7321C292.202 84.317 292.894 85.4701 292.11 85.9314Z" fill="#161616"/>
<path d="M299.766 98.6161C293.124 100.277 288.005 104.843 282.885 109.133C277.626 113.515 272.322 117.85 266.879 122.048C255.809 130.581 244.186 138.468 231.778 144.972C230.994 145.387 230.302 144.188 231.086 143.773C243.817 137.084 255.717 128.966 267.11 120.156C272.783 115.775 278.272 111.208 283.761 106.642C288.466 102.721 293.355 98.8006 299.397 97.3246C300.274 97.0479 300.643 98.3855 299.766 98.6161Z" fill="#161616"/>
<path d="M220.846 122.647C215.219 124.999 215.404 132.01 218.448 136.392C221.077 140.174 227.166 144.925 232.009 143.173C232.839 142.85 233.208 144.187 232.378 144.51C226.52 146.632 219.186 140.728 216.511 135.885C213.651 130.719 214.666 123.8 220.524 121.355C221.308 120.94 221.677 122.278 220.846 122.647Z" fill="#161616"/>
<path d="M214.896 121.124C216.003 121.355 217.618 121.862 219.324 122.877C222.369 124.768 223.937 127.351 225.09 129.519C230.302 139.297 231.732 146.77 231.732 146.77C233.669 156.917 232.516 165.127 231.732 170.432C230.348 179.795 228.872 179.149 227.304 189.435C226.612 193.955 225.736 201.52 226.197 210.883C226.52 217.341 227.35 222.83 228.18 227.027C227.12 228.226 225.505 229.933 223.291 231.686C211.76 240.772 197.83 240.08 193.402 239.85C180.81 239.204 171.585 233.992 167.065 230.994C166.603 230.348 166.188 229.656 165.727 229.01C166.511 227.027 167.572 223.891 168.402 219.924C170.293 210.653 169.233 204.195 168.402 193.171C168.033 188.098 167.572 180.625 167.526 171.262C168.633 171.262 169.74 171.262 170.847 171.262C171.677 171.308 179.196 171.446 183.9 165.496C187.959 160.376 186.991 154.38 186.76 153.089C185.607 145.847 179.519 139.805 171.262 137.36C174.722 135.515 178.458 133.301 182.332 130.718C186.668 127.812 190.496 124.906 193.817 122.093C197.553 123.015 200.598 123.892 202.673 124.537C207.055 125.875 208.716 126.567 210.653 125.875C213.051 125.091 214.297 122.738 214.896 121.124Z" fill="white"/>
<path d="M214.205 121.032C218.863 120.801 222.369 124.122 224.814 127.766C227.996 132.471 230.164 138.006 231.64 143.449C234.869 155.533 233.439 167.341 230.671 179.334C229.195 185.607 227.627 191.88 226.981 198.337C226.336 205.256 226.705 212.267 227.673 219.14C227.996 221.584 229.057 224.49 228.826 226.935C228.596 229.103 226.336 230.486 224.721 231.686C220.247 235.007 215.127 237.359 209.731 238.789C196.77 242.202 183.163 239.85 171.078 234.545C170.248 234.176 170.986 232.977 171.77 233.346C182.333 237.959 194.187 240.357 205.672 238.282C210.792 237.359 215.773 235.606 220.247 232.977C222.231 231.824 224.629 230.44 226.197 228.734C228.365 226.335 226.612 221.492 226.197 218.494C224.721 207.332 225.321 196.585 227.812 185.607C230.302 174.445 233.254 163.513 231.917 151.982C231.179 145.663 229.38 139.482 226.612 133.762C224.26 128.873 220.57 122.093 214.251 122.416C213.282 122.462 213.282 121.078 214.205 121.032Z" fill="#161616"/>
<path d="M182.655 131.641C179.057 133.532 175.506 135.561 171.954 137.637C171.17 138.098 170.478 136.899 171.262 136.438C174.768 134.362 178.319 132.379 181.963 130.442C182.747 130.026 183.439 131.226 182.655 131.641Z" fill="#161616"/>
<path d="M170.939 136.437C177.258 139.158 182.148 142.479 185.33 148.752C187.821 153.734 189.712 160.283 185.146 164.711C184.5 165.311 183.531 164.342 184.177 163.743C188.882 159.223 185.791 152.119 183.024 147.415C180.118 142.479 175.367 139.85 170.247 137.636C169.417 137.267 170.155 136.068 170.939 136.437Z" fill="#161616"/>
<path d="M168.403 172.415C167.296 182.286 169.418 191.972 170.017 201.797C170.571 211.16 169.418 220.523 166.696 229.472C166.42 230.302 165.082 229.979 165.359 229.103C168.126 219.97 169.233 210.468 168.587 200.92C167.942 191.419 166.004 181.963 167.065 172.415C167.111 171.539 168.495 171.539 168.403 172.415Z" fill="#161616"/>
<path d="M166.604 229.103C167.988 230.901 169.694 232.377 171.678 233.484C172.462 233.9 171.77 235.099 170.986 234.684C168.772 233.438 166.927 231.778 165.405 229.794C164.851 229.056 166.096 228.365 166.604 229.103Z" fill="#161616"/>
<path d="M185.469 164.482C181.041 169.694 174.583 172.554 167.757 172.369C166.88 172.369 166.88 170.986 167.757 170.986C174.26 171.124 180.303 168.403 184.5 163.467C185.1 162.822 186.068 163.79 185.469 164.482Z" fill="#161616"/>
<path opacity="0.15" d="M205.994 133.808C197.369 150.967 193.863 166.096 192.295 176.289C190.45 188.328 190.542 197.922 190.635 203.411C190.911 218.263 192.987 230.624 195.016 239.619C193.356 239.527 191.742 239.434 190.081 239.342C186.852 239.342 181.179 238.835 174.998 235.79C171.031 233.807 168.126 231.362 166.234 229.471C168.079 222.829 168.725 217.433 168.956 213.835C169.602 204.656 168.218 199.628 167.572 186.437C167.249 179.979 167.249 174.813 167.295 171.631C169.878 171.584 174.168 171.123 178.55 168.632C181.041 167.203 185.146 164.804 186.483 160.145C187.314 157.24 186.714 154.749 186.207 152.765C185.93 151.658 183.946 144.186 176.613 140.173C174.03 138.743 171.631 138.19 170.017 137.959C179.057 133.301 188.098 128.642 197.138 123.983C197.968 125.413 199.029 126.982 200.413 128.642C202.396 130.856 204.334 132.563 205.994 133.808Z" fill="#6C6D6D"/>
<path opacity="0.29" d="M182.056 166.788C180.303 176.382 178.873 189.574 180.303 205.072C181.548 218.771 184.639 230.164 187.637 238.697C184.685 238.559 180.257 237.959 175.275 235.929C170.801 234.084 167.48 231.64 165.358 229.841C166.327 227.258 167.526 223.568 168.31 219.048C168.633 217.11 169.187 213.559 169.187 207.563C169.233 197.6 167.849 194.648 167.434 184.731C167.296 181.871 167.249 177.397 167.618 171.862C169.141 172.046 171.816 172.139 174.952 171.17C178.596 170.017 180.949 167.941 182.056 166.788Z" fill="#6C6D6D"/>
<path d="M169.186 137.59C173.661 137.775 176.889 140.496 178.919 142.111C180.533 143.448 185.1 147.23 186.253 153.78C186.576 155.625 187.267 159.546 185.192 163.282C182.009 168.909 174.675 170.247 172.692 170.616C169.74 171.169 169.417 170.57 167.941 171.262C166.28 172 163.375 174.167 161.668 186.16C160.792 192.295 159.639 201.012 162.314 212.497C164.666 222.645 166.603 225.643 168.587 227.165C170.755 228.872 174.352 230.532 174.629 230.624C178.273 232.285 179.057 231.916 182.424 233.438C185.007 234.591 188.005 235.883 190.404 238.835C192.618 241.51 193.494 244.462 193.863 246.399C190.404 245.892 186.945 245.384 183.485 244.877C182.932 245.846 182.147 247.322 181.317 249.213C179.564 253.226 178.919 256.408 178.734 257.192C177.996 260.421 175.413 265.587 167.526 274.028C168.448 268.262 169.417 262.497 170.34 256.777C169.417 258.945 167.987 261.574 165.819 264.342C162.591 268.447 159.039 271.03 156.548 272.552C156.963 266.786 157.424 261.021 157.84 255.301C155.533 258.53 153.227 261.759 150.921 265.034C151.29 262.036 151.982 258.484 153.273 254.656C155.764 247.276 159.454 241.833 162.36 238.235C161.022 237.22 159.177 235.744 157.194 233.715C154.288 230.763 152.028 227.672 149.86 223.982C145.063 215.911 141.327 209.638 139.297 200.459C138.652 197.507 135.884 183.946 141.235 167.848C142.664 163.513 146.816 152.719 156.548 143.863C163.006 137.913 166.972 137.498 169.186 137.59Z" fill="white"/>
<path d="M169.786 137.037C161.622 140.266 154.38 145.57 149.307 152.766C144.556 159.546 142.157 167.387 140.22 175.367C136.023 192.525 140.958 209.592 150.736 223.89C154.057 228.733 157.84 233.254 161.945 237.451C162.544 238.097 161.576 239.065 160.976 238.42C151.751 228.918 143.864 217.756 139.897 204.979C137.037 195.846 136.484 186.16 138.513 176.797C140.266 168.771 142.665 160.653 147.093 153.688C152.397 145.339 160.33 139.343 169.463 135.699C170.247 135.376 170.616 136.714 169.786 137.037Z" fill="#161616"/>
<path d="M172.646 171.077C163.052 170.985 162.267 186.437 162.037 193.125C161.806 200.551 161.945 208.208 163.974 215.357C164.989 218.909 166.465 222.322 168.679 225.32C169.878 226.98 171.354 228.733 173.153 229.794C174.675 230.717 176.336 230.947 178.088 231.316C183.716 232.515 188.743 235.698 191.834 240.587C192.572 241.787 195.247 245.154 194.048 246.722C193.679 247.229 193.125 247.229 192.526 247.229C190.727 247.137 188.882 246.491 187.129 246.122C186.252 245.938 186.622 244.6 187.498 244.785C188.928 245.108 190.773 245.846 192.249 245.799C193.125 245.753 192.987 245.938 192.664 245.015C192.341 244.001 191.695 243.032 191.142 242.109C189.066 238.604 186.299 235.975 182.563 234.268C180.395 233.253 178.227 232.838 175.92 232.285C172.553 231.501 170.109 229.425 167.987 226.704C163.974 221.538 162.083 215.08 161.207 208.669C160.238 201.335 160.192 193.632 161.114 186.298C161.945 179.841 164.251 169.555 172.599 169.647C173.522 169.739 173.522 171.123 172.646 171.077Z" fill="#161616"/>
<path d="M188.005 246.168C187.267 246.03 186.437 245.799 185.653 245.753C184.684 245.43 183.715 245.661 182.839 246.445C182.747 246.722 182.701 246.952 182.608 247.229C181.916 248.613 181.686 250.458 181.225 251.934C180.302 254.794 179.195 257.607 177.95 260.329C175.459 265.725 172.184 270.753 167.894 274.904C167.341 275.412 166.649 274.904 166.741 274.212C167.572 268.862 168.402 263.511 169.232 258.161C169.37 257.284 170.708 257.653 170.57 258.53C169.739 263.88 168.909 269.231 168.079 274.581C167.71 274.351 167.295 274.12 166.926 273.889C172.322 268.723 175.966 262.174 178.595 255.255C179.241 253.502 179.841 251.749 180.394 249.997C180.856 248.521 181.04 246.722 181.732 245.384C182.977 243.032 186.298 244.462 188.328 244.831C189.25 244.969 188.881 246.307 188.005 246.168Z" fill="#161616"/>
<path d="M162.59 238.65C159.039 242.617 156.871 247.137 154.934 252.026C152.904 257.146 151.013 262.312 150.552 267.801C150.091 267.755 149.629 267.663 149.214 267.616C151.244 262.681 154.103 258.253 157.747 254.379C158.347 253.733 159.316 254.701 158.716 255.347C155.257 259.037 152.489 263.281 150.552 267.985C150.275 268.631 149.122 268.677 149.214 267.801C149.722 261.851 151.751 256.362 153.965 250.873C155.902 246.03 158.209 241.602 161.668 237.681C162.175 236.99 163.19 237.958 162.59 238.65Z" fill="#161616"/>
<path d="M171.262 257.515C167.433 263.788 162.452 269.139 156.502 273.475C156.041 273.797 155.487 273.336 155.441 272.875C155.302 267.017 156.133 261.251 157.563 255.624C157.793 254.748 159.131 255.117 158.9 255.993C157.516 261.528 156.686 267.155 156.825 272.875C156.456 272.69 156.133 272.46 155.764 272.275C161.529 268.124 166.326 262.866 170.016 256.823C170.524 256.085 171.723 256.777 171.262 257.515Z" fill="#161616"/>
<path d="M166.142 254.103C162.683 259.545 159.777 265.265 157.517 271.261C157.194 272.091 155.856 271.722 156.179 270.892C158.485 264.757 161.391 258.9 164.943 253.365C165.45 252.673 166.649 253.365 166.142 254.103Z" fill="#161616"/>
<path opacity="0.33" d="M179.426 142.756C174.537 144.878 160.93 151.566 152.72 166.971C143.587 184.222 144.602 206.87 153.458 218.401C157.102 223.106 163.19 229.886 165.589 232.284C169.925 236.666 171.631 237.773 173.384 238.557C177.351 240.402 179.334 239.664 184.685 241.879C189.251 243.77 191.926 245.984 191.788 246.168C191.696 246.399 188.421 244.83 185.238 244.923C185.238 244.923 182.84 244.969 182.148 246.076C182.102 246.122 182.055 246.214 182.055 246.214C181.917 246.491 181.917 246.86 181.456 248.659C181.133 249.996 180.764 251.104 180.579 251.795C179.472 255.255 177.812 259.452 175.183 264.019C172.554 268.631 169.694 272.229 167.249 274.904C167.987 269.507 168.679 264.111 169.417 258.668C167.711 261.435 165.312 264.71 161.945 267.985C159.869 270.015 157.84 271.675 155.995 272.967C156.548 266.97 157.148 260.974 157.701 254.932C155.995 257.1 154.242 259.637 152.535 262.496C151.521 264.157 150.69 265.771 149.906 267.293C150.46 262.681 151.751 256.638 154.703 250.043C156.318 246.399 158.163 243.354 159.869 240.818C160.054 239.572 160.238 238.373 160.377 237.128C158.439 235.19 155.903 232.377 153.135 228.825C149.906 224.674 143.772 216.694 140.359 206.039C133.947 186.16 140.681 168.401 142.48 163.881C144.417 158.992 147.277 152.027 154.196 145.569C159.777 140.357 165.589 137.728 169.325 136.391C170.893 136.898 172.923 137.728 175.091 139.158C177.028 140.403 178.412 141.695 179.426 142.756Z" fill="#6C6D6D"/>
<path opacity="0.31" d="M150.46 223.521C151.152 222.922 159.132 231.132 161.945 234.084C168.31 240.818 168.91 242.663 169.187 243.678C170.386 248.152 168.726 252.027 165.958 258.254C163.606 263.558 158.624 272.875 156.733 272.183C155.857 271.86 155.073 269.277 158.301 254.471C152.536 265.126 150.737 267.202 150.183 266.925C149.123 266.464 151.706 257.147 155.396 249.121C157.471 244.601 159.639 241.049 161.207 238.65C151.752 226.75 150.091 223.844 150.46 223.521Z" fill="#6C6D6D"/>
<path d="M238.605 74.1222C239.066 75.2753 238.882 75.4137 239.989 78.9653C240.45 80.4413 240.865 81.6867 241.188 82.5169C241.142 87.1294 241.88 90.7272 242.618 93.2179C243.31 95.5703 244.417 98.3839 243.679 98.8452C242.941 99.3064 241.327 96.8157 239.528 97.2308C238.328 97.5075 237.729 98.9835 237.129 100.506C237.129 100.506 235.238 105.072 233.255 108.854C232.009 111.253 229.888 115.266 225.69 116.742C222.923 117.71 220.155 117.203 218.541 116.972C216.373 116.603 214.666 115.911 213.559 115.358C215.312 118.172 215.266 121.539 213.559 123.707C211.484 126.243 207.794 125.921 206.917 125.828C204.611 125.598 202.904 124.537 202.12 123.983C202.951 121.954 203.873 118.863 203.919 115.081C203.965 107.148 199.953 101.567 198.384 99.6293C197.508 99.4448 195.709 98.9835 194.095 97.5075C193.726 97.1847 190.681 94.3249 191.235 90.2198C191.512 88.0519 192.942 84.5925 196.032 83.9929C198.292 83.5778 200.137 84.8693 200.644 85.2383C201.06 84.2235 201.475 83.2088 201.89 82.194C204.473 82.1479 207.748 81.7328 211.299 80.3952C221.723 76.5207 226.705 67.6647 228.181 64.7588C229.196 65.1278 230.672 65.7735 232.286 66.8805C233.716 67.803 237.083 70.1093 238.605 74.1222Z" fill="white"/>
<path d="M240.404 76.2901C241.326 83.9468 242.848 91.5113 244.832 98.9836C244.97 99.491 244.509 99.9522 244.001 99.8138C241.926 99.2603 239.896 98.7068 237.821 98.1995C238.097 98.0611 238.374 97.8766 238.651 97.7382C237.636 102.397 235.699 106.733 232.977 110.653C231.824 112.314 230.533 113.882 229.149 115.358C227.95 116.649 227.027 117.987 225.228 118.079C217.11 118.494 209.454 114.851 204.149 108.808C203.55 108.162 204.518 107.148 205.118 107.84C210.053 113.467 216.972 116.926 224.537 116.742C227.581 116.649 230.625 111.668 232.147 109.408C234.592 105.764 236.298 101.705 237.267 97.3692C237.359 97.0002 237.774 96.8157 238.097 96.908C240.173 97.4615 242.202 98.015 244.278 98.5223C244.001 98.7991 243.725 99.0758 243.448 99.3526C241.418 91.7881 239.896 84.0852 238.974 76.2901C238.928 75.4137 240.311 75.4137 240.404 76.2901Z" fill="#161616"/>
<path d="M233.946 77.9504C233.992 80.7179 233.577 83.3932 232.7 85.9762C232.424 86.7142 231.409 86.5758 231.363 85.7917C231.086 82.8858 231.409 80.0722 232.331 77.3047C232.562 76.5206 233.623 76.7051 233.669 77.4892C233.807 78.9191 233.715 80.3489 233.438 81.7327C233.254 82.6091 231.962 82.2401 232.101 81.3637C232.331 80.0722 232.378 78.7807 232.285 77.4892C232.747 77.5353 233.208 77.6276 233.623 77.6737C232.747 80.3489 232.47 83.0242 232.7 85.7917C232.239 85.7456 231.778 85.6533 231.363 85.6072C232.239 83.1165 232.654 80.5796 232.562 77.9504C232.562 77.0741 233.946 77.0741 233.946 77.9504Z" fill="#161616"/>
<path d="M244.094 83.8084C244.048 83.8546 244.048 83.8546 244.001 83.9007C244.048 83.6701 244.14 83.4394 244.186 83.2088C244.14 83.1627 244.094 83.0704 244.048 83.0243C243.817 83.0243 243.586 83.0243 243.356 83.0243C243.817 82.7476 243.771 81.2254 243.771 80.8564C243.725 80.0723 243.586 79.3805 243.31 78.6425C243.771 78.6425 244.186 78.6425 244.647 78.6425C244.186 80.7181 244.094 82.7476 244.463 84.8693C244.001 84.8693 243.586 84.8693 243.125 84.8693C243.863 82.9321 244.001 80.9487 243.494 78.9653C243.263 78.089 244.601 77.72 244.832 78.5963C245.385 80.8564 245.247 83.0704 244.463 85.2383C244.232 85.7918 243.263 85.9763 243.125 85.2383C242.756 82.8859 242.802 80.6258 243.31 78.2735C243.494 77.5355 244.417 77.6738 244.647 78.2735C245.247 79.8878 245.477 81.8712 244.739 83.4856C244.37 84.3158 243.171 84.6387 242.894 83.5317C242.848 83.3011 242.894 83.0243 243.079 82.8398C243.125 82.7937 243.125 82.7937 243.171 82.7476C243.771 82.2402 244.786 83.2088 244.094 83.8084Z" fill="#161616"/>
<path d="M235.884 104.288C234.454 104.611 232.932 104.795 231.548 104.104C230.21 103.458 228.965 102.259 227.812 101.336C227.12 100.783 228.089 99.8139 228.78 100.367C229.795 101.152 230.764 102.074 231.871 102.72C232.978 103.366 234.269 103.227 235.468 102.95C236.391 102.766 236.76 104.104 235.884 104.288Z" fill="#161616"/>
<path d="M229.287 90.3583C229.333 90.3583 229.38 90.3583 229.426 90.3583C229.564 90.3122 229.656 90.3122 229.795 90.2661C229.841 90.2199 229.887 90.2199 229.887 90.1738C229.933 90.0816 230.025 89.9893 230.071 89.8509C230.071 89.8971 230.071 89.8971 230.071 89.8048C230.118 89.6203 230.025 89.4358 229.795 89.2513C229.656 89.2052 229.564 89.2052 229.426 89.1591C229.38 89.1591 229.333 89.1591 229.287 89.1591C229.61 89.0207 230.071 89.2974 230.118 89.6203C230.21 90.0354 229.979 90.3122 229.656 90.4506C229.149 90.6812 228.688 90.1738 228.688 89.6664C228.688 89.1591 229.149 88.6978 229.656 88.8823C230.025 89.0207 230.256 89.3436 230.118 89.7126C230.025 90.2199 229.61 90.4967 229.287 90.3583Z" fill="#161616"/>
<path d="M225.689 86.8525C224.813 86.8525 224.813 85.4688 225.689 85.4688C226.566 85.4688 226.566 86.8525 225.689 86.8525Z" fill="#161616"/>
<path d="M225.598 90.7269C225.505 90.8192 225.413 90.9114 225.321 91.0037C225.044 91.2804 224.629 91.2804 224.352 91.0037C224.076 90.727 224.076 90.3118 224.352 90.0351C224.445 89.9428 224.537 89.8506 224.629 89.7583C224.906 89.4816 225.321 89.4816 225.598 89.7583C225.828 89.989 225.828 90.4502 225.598 90.7269Z" fill="#161616"/>
<path d="M238.882 76.0139C236.76 70.525 232.24 66.3737 226.659 64.6671C225.829 64.3903 226.151 63.0527 227.028 63.3295C233.116 65.2206 237.913 69.6947 240.22 75.6449C240.543 76.4751 239.205 76.8441 238.882 76.0139Z" fill="#161616"/>
<path d="M227.996 64.2052C224.49 76.4283 212.498 82.978 200.321 82.8397C199.445 82.8397 199.445 81.4559 200.321 81.4559C211.852 81.5482 223.337 75.4597 226.658 63.8362C226.935 63.0059 228.272 63.3749 227.996 64.2052Z" fill="#161616"/>
<path d="M214.573 116.926C214.297 122.23 214.758 127.489 216.003 132.701C216.049 132.978 215.957 133.347 215.68 133.485C209.915 136.529 202.765 134.315 199.767 128.503C199.352 127.719 200.551 127.027 200.966 127.812C203.596 132.931 209.869 135.007 214.989 132.286C214.896 132.562 214.758 132.793 214.666 133.07C213.42 127.765 212.913 122.369 213.19 116.972C213.236 116.05 214.62 116.05 214.573 116.926Z" fill="#161616"/>
<path d="M227.719 65.2663C229.287 65.912 231.409 66.9268 233.485 68.7256C237.405 72.0928 239.02 76.1056 239.666 78.1351C241.003 77.8123 243.171 77.0742 244.739 75.137C247.968 71.1241 246.677 64.2976 243.356 60.6538C240.265 57.2405 237.682 59.27 231.87 55.1188C228.18 52.4896 228.319 51.0136 224.214 48.3384C222.23 47.0469 219.463 45.2019 215.727 44.5561C210.099 43.5875 205.395 45.8476 198.522 49.1225C194.509 51.0598 195.386 51.0598 189.804 53.9656C180.441 58.8088 179.15 58.163 175.229 61.2534C171.17 64.436 168.91 68.0338 166.973 71.1241C164.251 75.506 164.205 77.0281 161.299 83.3473C156.871 92.849 155.534 92.3878 152.812 98.9836C150.506 104.565 148.2 110.054 149.353 116.696C151.059 126.474 159.085 132.009 160.607 133.024C170.801 139.758 182.055 136.852 186.114 135.791C190.911 134.546 197.507 132.839 201.52 127.074C206.64 119.694 205.579 108.393 199.214 98.5685C198.291 98.6607 196.677 98.7069 195.063 97.8766C191.419 95.9855 189.574 90.5889 191.603 86.8528C191.834 86.4376 193.633 83.2089 197.138 83.1628C200.598 83.1166 202.581 86.207 202.673 86.3915C206.317 85.5613 214.943 83.0244 221.769 75.137C224.813 71.6315 226.612 68.0338 227.719 65.2663Z" fill="#FFA745"/>
<path d="M199.214 102.121C197.762 102.121 196.584 100.943 196.584 99.4914C196.584 98.0394 197.762 96.8623 199.214 96.8623C200.666 96.8623 201.843 98.0394 201.843 99.4914C201.843 100.943 200.666 102.121 199.214 102.121Z" fill="#F8F263"/>
<path d="M214.389 115.635C214.389 116.188 214.343 116.742 214.296 117.295C214.25 117.895 214.158 118.495 214.112 119.048C212.451 118.495 209.961 117.388 207.839 115.035C205.533 112.406 204.472 109.039 204.887 108.762C205.256 108.532 206.363 110.423 208.992 112.498C211.068 114.113 213.051 115.035 214.389 115.635Z" fill="#161616" stroke="#161616" stroke-miterlimit="10"/>
<path opacity="0.19" d="M197.185 49.8604C193.495 54.0116 188.282 60.3307 183.116 68.7716C177.259 78.2734 172.831 85.515 171.17 95.8009C170.155 102.212 167.665 117.849 177.581 126.935C183.301 132.147 190.589 132.932 194.233 133.024C192.341 133.9 189.574 135.007 186.115 135.837C181.318 136.991 173.891 138.743 165.912 135.745C164.344 135.146 153.966 131.04 150.414 120.478C148.062 113.467 149.86 107.009 150.598 104.426C151.89 99.8599 154.196 95.9392 155.395 93.8636C157.425 90.4504 159.547 87.6829 161.438 83.4855C162.591 80.9947 163.329 78.9652 163.329 78.9652C164.297 76.4284 164.159 76.29 164.805 74.9524C165.497 73.4302 165.958 73.0151 167.941 69.8786C169.832 66.8805 169.417 67.2956 170.109 66.327C172.738 62.6831 175.644 60.8381 176.336 60.423C176.844 60.1001 177.812 59.6389 179.795 58.6702C182.794 57.2404 185.054 56.2256 185.515 56.0411C187.775 55.1647 191.373 53.3659 197.185 49.8604Z" fill="#444647"/>
<path opacity="0.53" d="M227.857 64.7588C222.645 71.2624 217.572 75.7827 213.743 78.7808C207.332 83.8084 203.642 85.146 200.505 84.1774C199.537 83.9007 198.799 83.4394 198.337 83.1165C199.398 83.5317 200.782 84.2235 202.027 85.5612C202.258 85.8379 202.489 86.1147 202.673 86.3914C203.688 86.1608 205.118 85.7918 206.824 85.1922C216.557 81.6867 221.953 74.9063 222.922 73.6609C224.398 71.7698 226.335 68.8178 227.857 64.7588Z" fill="#125689"/>
<path opacity="0.15" d="M157.609 90.8652C157.056 94.0479 156.502 98.5681 156.733 103.919C156.871 106.871 157.148 113.605 159.362 119.001C164.297 130.994 178.504 135.468 182.102 136.483C180.672 136.76 166.511 139.296 156.963 130.071C151.521 124.813 149.906 118.033 149.814 117.618C148.938 113.835 149.261 110.791 149.445 109.085C150.368 100.459 154.888 94.094 157.609 90.8652Z" fill="#252626"/>
</svg>
